<?xml version="1.0" encoding="UTF-8" standalone="no"?>
<svg
   viewBox="0 0 640 640"
   version="1.1"
   id="faviconImage"
   xmlns="http://www.w3.org/2000/svg">
  <path opacity=".4" d="M109.9 492L348 253.9L386.1 292L148 530.1L109.9 492z" />
  <path d="m 492,42.1 89,89 17,17 -17,17 -416,416 -17,17 -89,-89 -17,-17 17,-17 416,-416 z M 109.9,492 148,530.1 386.1,292 348,253.9 Z M 492,109.9 381.9,220 420,258.1 530.1,148 Z" style="stroke:#000000;stroke-opacity:1" />
  <path class="sparkle-1" d="m 292.10708,186.94453 -24,-56 -56,-24 56,-23.999997 24,-56 24,56 56,23.999997 -56,24 z" style="stroke:#000000;stroke-opacity:1" />
  <path class="sparkle-2" d="m 94.206072,123.97209 31.999998,-80.000003 32,80.000003 80.00001,32 -80.00001,32 -32,80 -31.999998,-80 -79.999995,-32 z" style="stroke:#000000;stroke-opacity:1" />
  <path class="sparkle-3" d="m 353.37735,460.00437 80,-32.00001 32,-80 32,80 80,32.00001 -80,32 -32,80 -32,-80 z" style="stroke:#000000;stroke-opacity:1" />
</svg>
