<?xml version='1.0' encoding='utf-8'?>
<svg xmlns="http://www.w3.org/2000/svg" width="210mm" height="297mm" version="1.1" viewBox="0 0 210 297"> <path d="m56.778 78.034c-2.8561-0.38657-3.0968 2.5634-3.5237 4.2591 30.328 46.413 96.73 22.802 107.56 4.4425-21.067-7.9124-58.414-9.9504-104.03-8.7016z"/> <path d="m85.706 179.82c-5.8185 22.525-11.593 42.32-17.412 63.513 7.3686 0.64491 14.536 4.5995 24.831 0.98497 7.2112 0.90543 14.589 3.361 25.136-0.69821 3.5504 1.8641 7.243 3.2735 11.608 2.531 5.5298-8.2801-0.87697-46.16-10.997-68.164l-32.205-0.61095z" stroke="#000" stroke-width=".26458px"/> <path d="m97.332 55.974s-11.127 5.4095-15.004 10.003c-4.4419 5.2621-8.4114 18.869-8.4114 18.869-40.394 44.133-27.4 44.44-30.236 57.743 1.8453-6.3486 1.0794-15.83 5.6834-18.869-2.9198 43.214 20.121 33.644 33.646 43.421-9.0905-3.6836-16.985-8.0709-15.913-17.732 20.107 28.269 43.07 11.783 64.791 14.777 7.8052 2.0159 15.61 4.9431 23.416-1.8187-17.489 2.989-22.142-10.506-23.188-18.869 11.116 7.0438 18.676 6.6712 17.505-6.5927 0 0-0.59772 6.7912-8.1965 5.0091-11.865-2.7825 5.9763-37.031 1.0461-58.181-5.4667-23.452-33.557-33.615-45.137-27.759z" fill="#bca374"/> <path d="m75.733 84.443c-0.10875 0.35543-1.3217 1.2272-1.3217 1.2272-11.168 14.195-15.247 18.126-19.841 24.382-3.335 4.5415-8.1112 9.3716-10.395 24.782 1.6803-6.6786 1.5742-9.726 7.828-15.569-1.2336 18.258 0.76932 26.775 3.8016 31.801 2.8817 4.7761 6.5971 6.4467 12.931 8.5349-5.4306-3.3134-2.0513-4.0064-1.3104-10.688 2.6973 3.7922 5.4475 6.7574 8.2378 9.094-11.372-22.476-5.2177-48.098 0.06903-73.564z" fill="#e7ceaf" opacity=".375"/> <path d="m107.29 56.581 24.548 60.954s-9.1056 24.414-6.6893 36.567c0.60577 3.0469-0.50585 4.876 5.0562 7.8289 8.4196-0.83634 13.869 6.6417 21.794 1.3589-16.648 2.9187-20.087-11.578-21.083-19.745 9.5911 1.5986 16.457 7.0094 17.818-3.3025 0 0-1.0641 4.9815-8.2972 3.2415-11.294-2.717 3.2142-33.355 1.4909-57.637-1.2858-18.117-22.083-28.313-34.638-29.266z" fill="#e7ceaf" opacity=".375"/> <path d="m78.686 109.13c-2.2967 13.878 6.77 36.986 10.889 53.455-19.784 0.0634-24.697-29.16-19.798-38.771 1.5063 4.1722 2.7724 8.5159 7.2593 10.559-4.3953-11.415-4.2779-14.888 1.6498-25.243z" fill="#e7ceaf" opacity=".375"/> <path d="m113.06 118.52c-4.3203 2.3817-8.6375 2.926-12.181 1.423 0.88416 2.2622 1.622 5.3191 0.81121 7.0728-5.6238 3.2597-11.535 3.3265-15.848 3.5287 4e-3 4e-3 0.0077 9e-3 0.01181 0.0134-1.9077 0.0971-3.4793 0.24312-4.5301 0.74901-1.4198 0.6835-2.721 3.4028-4.5026 6.637-1.3123 2.3822-14.883 17.36-14.273 21.092 0.92656 5.6677 19.915 12.231 19.961 12.247 0.75684 0.93725 1.4711 1.3785 2.1095 1.4939-0.45094 0.90339-0.81239 1.7821-1.0249 2.6343-6.3025 25.267 13.204 53.95 12.108 56.745-4.3975 11.207-2.7507 25.031 1.3857 36.833 0.55038 1.6023-0.14978 3.7459 0.3611 5.2434-0.65033 5.003-1.5543 9.8973-1.7491 15.096 1.5331 1.481 2.963 3.3997 5.7043 3.6056 2.1188-1.2414 4.2502-2.4693 3.1485-7.2112-0.93049-4.0938-1.2327-8.3973-1.7762-12.62 0.0491-0.98829 0.28749-1.8125 0.10271-3.9307 0.97178-5.3949 1.9282-10.821 2.8882-16.229 0.0516-1.2462 0.0771-2.4792 0.0874-3.7023 0.77949 6.8298 3.6007 13.365 4.9467 18.861-8e-3 2.1214 0.31067 3.0965 0.6683 3.8918 0.0698 4.2571 0.39013 8.5591 0.0583 12.744-0.40789 4.8512 1.8779 5.7596 4.1533 6.6833 2.6831-0.59823 3.8222-2.7025 5.1263-4.3888-0.94075-5.1161-2.5394-9.8296-3.9029-14.687 0.35254-1.9399-0.31044-3.7113-0.47276-5.1183-1.8869-6.4114 6.24-23.252-2.2639-36.026-0.63912-0.96003 17.302-35.406 9.3227-54.185-3.4943-8.2235-8.7544-15.608-3.4279-23.048 4.6894-1.5484 5.3148-6.0229 5.7588-10.628 0.89938 5.493 4.395 25.755 6.8696 24.693 14.15-6.0714 11.65-27.271 11.65-27.271l-4.6905 4.583s-2.1095 2.2296-3.8203 8.7421c1.212-7.486 0.366-24.148-9.2059-23.015 8.9e-4 -2e-3 2e-3 -4e-3 3e-3 -6e-3 -0.0115 4e-3 -0.0226 5e-3 -0.0341 9e-3 0 0-0.3654 0.0914-0.35409 0.0973-5.7578 1.5169-9.1454-2.4178-13.251-4.7017-1.7081-1.6358-1.1074-4.9665 0.0727-7.95zm-24.557 23.466c-0.45965 3.5806-1.7145 7.161 2.4569 10.742 1.4727 3.7954 0.6321 7.3464-0.93466 10.653-0.88094 0.52739-2.3093 1.8328-3.6471 2.5708l0.02648-2e-3 -1.7188 1.3165c-4.0403-3.7897-6.0714-7.4271-10.502-9.6994 5.271-4.3229 11.404-9.142 14.319-15.581zm13.033 44.438c1.8844 1.0209 4.1264 1.7356 7.9504 1.0942-2.4371 4.1963-4.094 8.4586-5.1607 12.702-0.0669-4.5633-0.72119-9.1053-2.7896-13.797z" fill="#f2ded7" stroke="#debdb8" stroke-linecap="round" stroke-linejoin="round" stroke-width=".026458"/> <g transform="matrix(.6173 0 0 .6173 38.925 55.137)" stroke-width="1.62"> <rect x="154.02" y="122.06" width="2.9488" height="215.45" ry="5.6946" fill="#483737" stroke="#e1c0bb" stroke-linecap="round" stroke-linejoin="round" stroke-width=".042862"/> <g stroke-width="1.62"> <path d="m157.97 332.43c4.1707 12.949 15.978 26.753 16.538 39.525l-3.8746-4.8595c0.81299 5.3692 0.15425 9.7745-2.7179 12.73 0.0644-2.5681 0.21039-5.1608-0.34784-7.541-1.3962 4.0482-2.6343 8.0486-4.643 12.282-1.2241-2.1338-0.46438-5.374-0.26695-8.3006-2.0545 3.8932-5.0593 6.5709-5.3063 12.776-2.858-2.7442-3.6591-7.2251-5.2093-11.074 1.2667 3.8033 0.87747 6.1324 0.91405 8.8406-1.4781-4.1759-3.125-8.183-4.0768-12.886-0.36125 2.2165-0.51162 4.3694-0.55003 6.4886-5.5789-25.947 0.33043-27.403 4.5904-47.013 0.91336-4.2045-9.0444-3.4392-3.6569-16.991-0.4438 3.7341-1.1294 4.2657 0.31388 7.6223 0.34264-0.91376 0.68332-1.8405 0.75833-4.5256 0.63351 1.6563 1.1976 3.2984 0.95895 4.7752 1.1461-0.96043 0.29654-2.5986 0.19571-3.9826 1.046 1.7814 1.4504 3.903 3.7664 4.3255 1.3463-0.83817 1.7281-2.2458 1.3268-3.7971 0.61459 1.1018 1.4497 2.039 1.2378 3.7575 0.85147-0.49998 0.79446-1.4018 1.5216-2.8426l0.1419 3.1851c0.67024-0.54062 2.3653-2.3836 3.5912-3.6303-2.241 3.6809-5.3493 7.3086-5.2057 11.136z" fill="#502d16"/> <path d="m157.97 332.43c4.1707 14.013 10.661 18.094 12.285 28.892l-3.8746-4.8595c0.81299 5.3692 0.15425 9.7745-2.7179 12.73 0.0644-2.5681 0.21039-5.1608-0.34784-7.541-1.3962 4.0482-2.6343 8.0486-4.643 12.282-1.2241-2.1338-0.46438-5.374-0.26695-8.3006-2.0545 3.8932-5.0593 6.5709-5.3063 12.776-2.858-2.7442 0.59432 3.4083-0.95591-0.44007 1.2667 3.8033 0.87747 6.1324 0.91405 8.8406-1.4781-4.1759-3.125-8.183-4.0768-12.886-0.36125 2.2165-0.51162 4.3694-0.55003 6.4886-5.5789-25.947 0.33043-27.403 4.5904-47.013 0.91336-4.2045-9.0444-3.4392-3.6569-16.991-0.4438 3.7341-1.1294 4.2657 0.31388 7.6223 0.34264-0.91376 0.68332-1.8405 0.75833-4.5256 0.63351 1.6563 1.1976 3.2984 0.95895 4.7752 1.1461-0.96043 0.29654-2.5986 0.19571-3.9826 1.046 1.7814 1.4504 3.903 3.7664 4.3255 0.83013-0.40155 1.9756-2.038 1.3268-3.7971 0.61459 1.1018 1.4497 2.039 1.2378 3.7575 0.85147-0.49998 0.79446-1.4018 1.5216-2.8426l0.1419 3.1851c0.67024-0.54062 2.3653-2.3836 3.5912-3.6303-2.241 3.6809-5.3493 7.3086-5.2057 11.136z" fill="#a05a2c"/> <path d="m153.73 338.01c-2.8993 14.178-2.9992 28.356-2.2786 42.534-1.7466-13.899-3.1256-27.84 2.2786-42.534z" fill="#c87137"/> <path d="m158.55 338.11c4.0787 7.8615 8.6921 15.209 11.51 22.806-2.4041-7.9989-6.4422-15.52-11.51-22.806z" fill="#c87137"/> <path d="m156.93 337.71s0.35235 10.543 1.6095 15.626c0.56112 2.2687 2.4056 4.1774 2.6154 6.5051 0.38934 4.3183-2.6154 12.742-2.6154 12.742s1.2712-8.0122 0.8718-12.004c-0.24027-2.4015-1.5774-4.5891-1.9448-6.9745-0.80704-5.2392-0.53649-15.894-0.53649-15.894z" fill="#c87137"/> <path d="m152.89 332.49a2.3571 2.6337 87.088 0 0 2.7674 1.8977 2.3571 2.6337 87.088 0 0 2.4476-2.5372 2.3571 2.6337 87.088 0 0-6e-3 -0.0438 3.75 4.058 87.616 0 1-0.0496 0.0467 1.3647 2.6059 86.035 0 1 2e-5 3.7e-4 1.3647 2.6059 86.035 0 1-3e-3 0.13659 1.3647 2.6059 86.035 0 1-0.0286 0.1373 1.3647 2.6059 86.035 0 1-0.0542 0.13621 1.3647 2.6059 86.035 0 1-0.0793 0.13428 1.3647 2.6059 86.035 0 1-0.10376 0.13053 1.3647 2.6059 86.035 0 1-0.12688 0.1255 1.3647 2.6059 86.035 0 1-0.14907 0.11975 1.3647 2.6059 86.035 0 1-0.16943 0.11194 1.3647 2.6059 86.035 0 1-0.18837 0.1037 1.3647 2.6059 86.035 0 1-0.20539 0.0943 1.3647 2.6059 86.035 0 1-0.22023 0.0835 1.3647 2.6059 86.035 0 1-0.23292 0.0727 1.3647 2.6059 86.035 0 1-0.24322 0.0604 1.3647 2.6059 86.035 0 1-0.25132 0.0478 1.3647 2.6059 86.035 0 1-0.25656 0.035 1.3647 2.6059 86.035 0 1-0.18362 0.0168 1.3647 2.6059 86.035 0 1-0.25998 0.0116 1.3647 2.6059 86.035 0 1-0.25859-3e-3 1.3647 2.6059 86.035 0 1-0.25416-0.0158 1.3647 2.6059 86.035 0 1-0.2476-0.0293 1.3647 2.6059 86.035 0 1-0.23857-0.0424 1.3647 2.6059 86.035 0 1-0.22686-0.0554 1.3647 2.6059 86.035 0 1-0.21315-0.0677 1.3647 2.6059 86.035 0 1-0.19721-0.0791 1.3647 2.6059 86.035 0 1-0.17923-0.0897 1.3647 2.6059 86.035 0 1-0.15957-0.1 1.3647 2.6059 86.035 0 1-0.13834-0.10885 1.3647 2.6059 86.035 0 1-0.11568-0.11672 1.3647 2.6059 86.035 0 1-0.0916-0.12323 1.3647 2.6059 86.035 0 1-0.0316-0.0604 3.75 4.058 87.616 0 1-0.052-0.0314z" fill="#502d16"/> </g> <path d="m151.32 129.65c-3.312-2.1406-3.0042 2.0346-1.8723 1.8461 0.53721-0.55097 0.99631-1.0441 1.8723-1.8461z" fill="none" stroke="#dec2bb" stroke-width=".042862"/> <path d="m78.581 302.8c-2.1546-3.5204-0.58813-6.7307 0.29993-9.9976l-12.097-0.49988 0.99976 9.5977z" fill="#1a1a1a"/> <path d="m83.045 303.04c-0.7062-2.9691-0.74608-5.9382-0.22715-8.9074l6.928 0.88365-0.265 7.2461z" fill="#1a1a1a"/> <path d="m98.321 305.56 6.568-0.99515-0.39806-14.529-9.2549 0.0995c1.3675 5.208 3.7842 10.217 3.085 15.425z" fill="#1a1a1a"/> <path d="m93.308 292.36 1.8999 0.0703-2.4629 8.4441z" fill="#1a1a1a"/> <path d="m123.5 303.03c-1.342-3.5274-0.15467-8.0276-0.20359-12.052l12.704-1.6287 0.81435 10.749z" fill="#1a1a1a"/> <path d="m143.49 307.71c0.73239-2.7056 0.21606-5.8275-0.32574-8.9579l7.8585-0.32575-0.2443 10.098z" fill="#1a1a1a"/> <path transform="scale(.26458)" d="m350.41 521.57c-13.919-0.16429-28.544 1.8301-43.787 2.8652-0.0321 0.0807-0.0575 0.16353-0.0898 0.24414-1.0757 2.8327-2.2598 5.6111-3.5332 8.3457-12.382 44.671 5.6895 50.37 15.031 66.549 4.8468 8.394 7.8162 21.601 2.0625 40.521-1.5746 7.2087-3.6705 14.314-7.7363 23.002 2.1474-1.3507 3.8363-2.0617 4.8125-1.6211 11.756 5.3063 23.575 8.512 28.711 16.211-8.6331 5.8088-22.599-8.7778-27.148-6.25l-10.938 9.1797s9.1904-1.5406 13.867 2.3438c9.7953 8.1355 21.568 28.932 17.773 29.688-7.7576 3.9798-10.339-14.623-32.422-24.805l7.8125 4.4922s19.294 20.287 15.234 26.953c-3.4219 5.6184-22.504-24.793-31.25-23.047 0 0 5.9916 1.8387 8.7891 4.6875 5.6002 5.7031 18.149 25.008 10.156 25-4.2934-4e-3 -16.016-22.152-23.242-13.867-3.0164 5.0959-8.309 9.4823-14.906 8.1934-51.154 113.87-24.006 311.45-125.77 374.07-11.553 12.472 2.3076 15.424 13.045 19.547-8.877 62.427 46.714 38.482 46.746 13.031 26.967 29.936 104.69 22.229 78.168 15.629-15.942-3.9675-38.452-6.3848-30.982-23.705 51.961-20.932 108.52 14.658 52.828 26.537 32.219 12.596 40.796-6.2376 41.309-34.75 12.589 0.067 28.49-14.767 35.875 8.6875 2.9284 11.788-22.926 30.822-18.635 36.525 13.619 18.097 51.567 9.4756 76.4-12.309 28.664-25.144 46.364-55.165 60.729-29.646-85.654 44.446-20.451 37.857 9.7852 27.148 14.028-6.6745 28.75-9.8843 45.658-2.1719 1.3646 12.446-1.2396 22.91-22.83 23.891 17.8 13.146 43.848 13.936 84.795-7.6015-83.084-49.177-62.107-367.66-131.31-459.46-7.1843-18.399-11.333-31.784-12.504-48.121 1.9333-27.93 14.479-41.951 14.479-41.951 14.232-5.4603 35.335-16.995 34.451-68.461-52.494-17.165-64.333-19.634-116.67 19.697-19.321-28.409-41.026-34.987-64.762-35.268z" fill="#333"/> <path d="m69.138 295.87c3.1814-28.076 12.39-74.544 17.207-102.44 2.8383 28.654 2.3095 76.111 2.6306 104.94-0.9869-1.717-5.4878-6.3757-19.837-2.5065z" fill="#4d4d4d" opacity=".149"/> <path d="m40.49 289.7c-1.7347 2.1882-0.59747 3.8769 3.7991 4.9988 27.149-24.482 27.68-67.878 36.091-105.67-18.728 2.3126-10.651 88.476-39.89 100.68z" opacity=".10811"/> <path d="m44.48 294.66c26.519-21.736 29.318-64.579 37.9-101.23-6.3209 36.159-7.3015 75.37-25.794 104.57-2.4137 10.478-8.9246 6.8355-12.106-3.3427z" opacity=".10811"/> <path d="m78.681 303c-1.3923-1.2096-8.209-1.8082-9.9087-4.8221l17.107-104.25c-3.2941 22.473-15.945 81.546-19.112 107.36-0.36924 3.0093 10.558 3.463 11.913 1.718z" opacity=".10811"/> <path d="m94.091 293.66c3.4275-14.61 8.0753-28.813 8.0617-44.569 4.8276 17.849 2.798 31.819 1.382 47.218-1.1113-5.0329-5.3904-3.4998-9.4437-2.6488z" fill="#4d4d4d" opacity=".149"/> <path d="m83.381 303.16c2.1581-1.1584 5.2072-0.9803 5.9887-4.2036 2.8223-2.3615 2.7979-3.1366 3.8005-4.9522 3.6962-13.959 6.9373-29.616 8.9254-44.8-0.067 15.014-4.4393 31.123-8.2344 44.339 0.02745 10.94-5.913 11.896-10.48 9.6164z" opacity=".10811"/> <path d="m103.59 296.84-0.0814-0.0814c5.4038-34.575 2.5016-72.534-10.505-107.58 10.353 36.203 14.178 74.792 10.587 107.66z" opacity=".10811"/> <path d="m89.09 297.24c0.2623-33.642 1.2159-67.648-2.2802-100.9 2.01 33.495 2.234 67.413 2.2802 100.9z" opacity=".10811"/> <path d="m122.8 298.47c5.4319-4.9943 9.0368-8.5694 11.87-3.6786-2.8905-34.605-6.5275-69.21-17.57-103.82 10.235 36.022 9.743 71.775 5.7005 107.49z" fill="#4d4d4d" opacity=".149"/> <path d="m122.4 298.63c5.417-33.874 3.7692-72.911-3.9089-101.79 4.5068 34.039 6.335 49.56 3.9089 101.79z" opacity=".10811"/> <path d="m123.04 244.35c-6.13 14.384-11.728 47.443-17.014 63.724 7.148-0.66822 12.096-4.4738 16.45-9.6093 0.87423-12.018 1.5267-42.517 0.56426-54.115z" opacity=".038"/> <path d="m95.182 191.21c4.6505 9.8223 8.2535 29.385 9.6168 39.207 1.0297-10.39-2.903-29.675-4.9317-39.454-1.4402 0.32529-2.3545 1.7022-4.6851 0.24659z" opacity=".038"/> <path d="m134.88 294.66c1.8897-36.649-8.858-70.987-16.645-106.03 7.0878 35.199 14.849 70.343 16.645 106.03z" opacity=".10811"/> <path d="m134.75 303.07c4.7137-3.4941 12.968-2.9282 14.682-2.2317-4.6902-37.366-12.87-75.895-19.354-113.86 3.6132 30.379 6.8619 62.425 8.6118 92.516 0.42404 7.2914-1.7058 17.18-3.9397 23.574z" fill="#4d4d4d" opacity=".149"/> <path d="m131.43 191.83c6.9142 37.294 13.124 73.167 18.058 109.73 0.35949 2.6642-1.4948 6.2322-5.6056 6.288 4.1124 0.0546 6.503 0.52104 6.7811-6.7811-3.6963-36.767-11.292-72.785-19.234-109.24z" opacity=".10811"/> <path transform="scale(.26458)" d="m393.59 596.58c-21.649 13.364-40.937 32.563-70.639 36.943-2.7142 9.4829-6.1321 19.167-9.1758 28.744 1.4676-0.77932 2.644-1.1328 3.3926-0.79492 9.9036 4.4703 19.837 7.4595 25.797 12.891 26.477-17.077 47.577-42.941 50.625-77.783zm-73.342 74.562c-0.5799-0.0329-1.091 0.054-1.5176 0.29101l-9.877 8.2891c-0.0609 0.26206-0.12633 0.52552-0.18555 0.78711 2.0312-0.2567 8.993-0.87432 12.992 2.4473 0.68916 0.57239 1.3892 1.2199 2.0918 1.9062 4.3473-1.9952 8.6376-4.1902 12.824-6.5996-6.2196-1.966-12.674-6.9135-16.328-7.1211zm-13.029 16.799c-8.1e-4 5e-3 -1e-3 0.0105-2e-3 0.0156l3.7363 2.1484c0.0879-0.0317 0.17576-0.0658 0.26367-0.0977-1.2572-0.71828-2.587-1.4086-3.998-2.0664z" fill="#4d4d4d" opacity=".149"/> <path d="m131.18 160.64c-6.8651 1.2268-11.448-0.94896-16.142-4.0526 2.3656 6.2023 9.7296 26.584 15.957 27.663-1.5002-3.37-6.0504-17.898 0.18494-23.611z" opacity=".038"/> <path d="m83.868 158.03c8.1983 1.4622 15.802-0.28466 22.469-2.5204-6.2008 4.5341-12.517 11.095-20.987 11.544 0.768-3.0078 0.53459-6.0155-1.4821-9.0232z" opacity=".038"/> <path d="m137.86 141.93 2.7774 0.88058c-0.49371 14.403-5.6553 14.797-8.9946 17.665-18.204 1.4776-17.666-7.3196-19.529-9.5899 4.6815 5.8348 11.034 8.882 18.493 6.2471 7.5946-4.306 7.2184-10.255 7.2528-15.203z" opacity=".038"/> <path d="m131.29 160.43c-6.061 0.91208-11.467-0.61519-16.376-4.1777 1.6792 2.4751 8.9477 6.3546 16.376 4.1777z" opacity=".10811"/> <path d="m83.606 157.78c7.1462 1.3802 17.353 0.96178 23.243-2.9707-6.0224 3.1562-15.684 3.6414-23.243 2.9707z" opacity=".10811"/> <path d="m79.594 150.59c0.7392 1.666 2.7907 5.6715 5.4781 6.7671 6.7261 2.7419 19.065-1.2069 21.644-2.5242 0.7096-1.2353 1.642-3.115 2.202-4.1892-0.77887 0.66234-1.3254 1.7399-2.7928 2.9539-5.7725 2.8129-14.241 3.417-21.483 2.1483-1.7563-0.81243-3.7213-3.199-5.0485-5.1559z" opacity=".038"/> <path d="m82.494 140.44c-3.0209 1.8206-2.6867 7.6558-2.4168 10.204 0.74603 2.6605 2.7137 3.5758 4.404 4.8873 3.687 0.46364 4.1772 1.0861 6.8208-0.21482 3.7678-6.422 3.1018-12.461-0.96673-15.844-2.0251-1.6836-5.1001-0.68531-7.8412 0.96673z" fill="#4d4d4d" opacity=".149"/> <path d="m118.1 142.38c-3.0208 1.8206-2.6867 7.6558-2.4168 10.204 0.74602 2.6605 2.66 3.3073 4.3503 4.6188 3.687 0.46364 4.231 1.3547 6.8745 0.0537 3.7678-6.422 3.1018-12.461-0.96673-15.844-2.0251-1.6836-5.1001-0.68531-7.8412 0.96673z" fill="#4d4d4d" opacity=".149"/> <path d="m109.56 149.61c-0.13738-0.0205-0.28266 0.0118-0.40363 0.10133-0.24191 0.17916-0.29243 0.51809-0.11328 0.76l0.45957 0.62056-0.62056 0.45956c-0.24191 0.17916-0.29245 0.51824-0.1133 0.76016 0.17916 0.24192 0.51809 0.29243 0.76 0.11328l0.62056-0.45957 0.45956 0.62056c0.17917 0.24192 0.51809 0.29244 0.76001 0.11328 0.24191-0.17916 0.29245-0.51824 0.1133-0.76016l-0.45957-0.62055 0.62056-0.45957c0.24191-0.17915 0.29243-0.51808 0.11328-0.76s-0.51808-0.29243-0.76-0.11328l-0.62056 0.45957-0.45956-0.62056c-0.0896-0.12096-0.219-0.19413-0.35638-0.21461z" fill="#1a1a1a"/> <path d="m108.69 154.84c-0.13738-0.0205-0.28266 0.0118-0.40363 0.10133-0.24191 0.17916-0.29243 0.51809-0.11328 0.76l0.45957 0.62056-0.62056 0.45956c-0.24191 0.17916-0.29245 0.51824-0.1133 0.76016 0.17916 0.24192 0.51809 0.29243 0.76 0.11328l0.62056-0.45957 0.45956 0.62056c0.17917 0.24192 0.51809 0.29244 0.76001 0.11328 0.24191-0.17916 0.29245-0.51824 0.1133-0.76016l-0.45957-0.62055 0.62056-0.45957c0.24191-0.17915 0.29243-0.51808 0.11328-0.76s-0.51808-0.29243-0.76-0.11328l-0.62056 0.45957-0.45956-0.62056c-0.0896-0.12096-0.219-0.19413-0.35638-0.21461z" fill="#1a1a1a"/> <path d="m107.81 160.07c-0.13738-0.0205-0.28266 0.0118-0.40363 0.10133-0.24191 0.17916-0.29243 0.51809-0.11328 0.76l0.45957 0.62056-0.62056 0.45956c-0.24191 0.17916-0.29245 0.51824-0.1133 0.76016 0.17916 0.24192 0.51809 0.29243 0.76 0.11328l0.62056-0.45957 0.45956 0.62056c0.17917 0.24192 0.51809 0.29244 0.76001 0.11328 0.24191-0.17916 0.29245-0.51824 0.1133-0.76016l-0.45957-0.62055 0.62056-0.45957c0.24191-0.17915 0.29243-0.51808 0.11328-0.76s-0.51808-0.29243-0.76-0.11328l-0.62056 0.45957-0.45956-0.62056c-0.0896-0.12096-0.219-0.19413-0.35638-0.21461z" fill="#1a1a1a"/> <path d="m106.94 165.3c-0.13738-0.0205-0.28266 0.0118-0.40363 0.10133-0.24191 0.17916-0.29243 0.51809-0.11328 0.76l0.45957 0.62056-0.62056 0.45956c-0.24191 0.17916-0.29245 0.51824-0.1133 0.76016 0.17916 0.24192 0.51809 0.29243 0.76 0.11328l0.62056-0.45957 0.45956 0.62056c0.17917 0.24192 0.51809 0.29244 0.76001 0.11328 0.24191-0.17916 0.29245-0.51824 0.1133-0.76016l-0.45957-0.62055 0.62056-0.45957c0.24191-0.17915 0.29243-0.51808 0.11328-0.76s-0.51808-0.29243-0.76-0.11328l-0.62056 0.45957-0.45956-0.62056c-0.0896-0.12096-0.219-0.19413-0.35638-0.21461z" fill="#1a1a1a"/> <path d="m101.87 109.99s5.7397 2.4354 8.7852 2.5228c2.6345 0.0756 7.7122-1.743 7.7122-1.743l-0.13412-2.2017-16.699-0.41282z" fill="#dec2bb" opacity=".2"/> <path d="m90.038 103.9c-6.2166-3.1859-17.972-13.67-23.213-22.964-5.2412-9.2934-4.1517-21.669-5.2417-30.951 0-27.074 24.277-42.084 49.775-42.683 25.499 0.59923 49.775 15.609 49.775 42.683-1.09 9.2824-5.6e-4 21.658-5.2418 30.951-5.2413 9.2934-16.997 19.778-23.213 22.964-6.2166 3.1859-18.936 6.989-21.32 6.989s-15.103-3.8031-21.32-6.989z" fill="#f2ded7" stroke="#dbc4b6" stroke-linecap="round" stroke-linejoin="round" stroke-width=".042862"/> <path d="m62.054 52.231c-13.972-1.0244-6.2457 27.085 2.7362 19.9-1.5274-5.9497-2.5019-12.514-2.7362-19.9z" fill="#f2ded7"/> <path d="m160.59 52.231c13.972-1.0244 6.2457 27.085-2.7362 19.9 1.5274-5.9497 2.5019-12.514 2.7362-19.9z" fill="#f2ded7"/> <path transform="matrix(.28222 0 0 .28222 -13.199 97.882)" d="m620.12-146.5c12.571-3.3314 18.157 12.208 13.517 21.83-4.5375 9.4097-1.7372 30.262-13.205 28.937-4.4414-0.51326-2.915-6.8322-5.7126-9.0288" fill="none" stroke="#e1c0bb" stroke-linecap="round" stroke-linejoin="round" stroke-width=".37968"/> <path transform="matrix(.33098 -.079471 .079471 .33098 -29.234 149.51)" d="m558.39-135.4c0.1292-0.0169 0.65335 0.56267 0.79311 0.52964 1.0548-0.24927 2.6916-0.98864 3.8788-2.6448 0.68748-1.0084 1.0896-2.1922 1.1735-3.387 0.10648-1.516-0.31007-2.6975-0.58674-3.4022 0.28086 0.71531 0.50701 1.9447 0.1759 3.3406-0.2599 1.0957-0.81415 2.0745-1.5338 2.8353-1.1571 1.2919-2.5697 1.765-3.4134 1.9644-0.11366 0.0269-0.35815 0.74731-0.48735 0.76417z"/> <path d="m121.93 72.164c-0.43395 1.061 1.5523 0.09102 2.2216 0.18069 11.091 1.4859 19.487 0.42997 21.04-12.053-15.785-3.079-20.102 4.1473-23.262 11.873z" fill="#fff" stroke="#ddc0b8" stroke-linecap="round" stroke-linejoin="round" stroke-width=".042862"/> <path transform="matrix(-.33098 -.079471 -.079471 .33098 249.91 149.51)" d="m558.39-135.4c0.1292-0.0169 0.65335 0.56267 0.79311 0.52964 1.0548-0.24927 2.6916-0.98864 3.8788-2.6448 0.68748-1.0084 1.0896-2.1922 1.1735-3.387 0.10648-1.516-0.31007-2.6975-0.58674-3.4022 0.28086 0.71531 0.50701 1.9447 0.1759 3.3406-0.2599 1.0957-0.81415 2.0745-1.5338 2.8353-1.1571 1.2919-2.5697 1.765-3.4134 1.9644-0.11366 0.0269-0.35815 0.74731-0.48735 0.76417z"/> <path d="m98.611 72.164c0.43395 1.061-1.5523 0.09102-2.2216 0.18069-11.091 1.4859-19.487 0.42997-21.04-12.053 15.785-3.079 20.102 4.1473 23.262 11.873z" fill="#fff" stroke="#ddc0b8" stroke-linecap="round" stroke-linejoin="round" stroke-width=".042862"/> <path transform="matrix(-.28222 0 0 .28222 235.86 97.882)" d="m620.12-146.5c12.571-3.3314 18.157 12.208 13.517 21.83-4.5375 9.4097-1.7372 30.262-13.205 28.937-4.4414-0.51326-2.915-6.8322-5.7126-9.0288" fill="none" stroke="#dcbfb9" stroke-linecap="round" stroke-linejoin="round" stroke-width=".37968"/> <path d="m99.944 55.211c-0.86126 0.7814-16.737-5.9863-24.88-4.0256-3.1995 0.7704-5.2159 3.7796-7.6329 5.7736 3.0132-2.6386 3.2705-15.164 33.037-5.032 1.1314 0.38511 0.78556 2.0956-0.52441 3.284z" fill="#c3aa82"/> <path d="m118.95 55.211c0.86125 0.7814 16.737-5.9863 24.88-4.0256 3.1995 0.7704 5.2159 3.7796 7.6329 5.7736-3.0132-2.6386-3.2705-15.164-33.037-5.032-1.1314 0.38511-0.78556 2.0956 0.52441 3.284z" fill="#c3aa82"/> <path d="m109.06 82.014c-0.21316-0.19686-0.47121-0.32952-0.74141-0.38117-0.34968-0.06684-0.70859 8.46e-4 -1.0519 0.10205-0.34331 0.10121-0.67964 0.2361-1.0287 0.30716-0.34904 0.07105-0.71928 0.07469-1.0467-0.08094-0.16369-0.07781-0.31414-0.19535-0.42927-0.34955-0.11512-0.15421-0.19382-0.34581-0.21385-0.54731-0.0169-0.1696 8e-3 -0.34338 0.0646-0.50129 0.0567-0.15791 0.14462-0.30011 0.25109-0.41968 0.21294-0.23915 0.4947-0.38452 0.78317-0.47182 0.71496-0.21636 1.5045-0.08823 2.1387 0.34704 0.63418 0.43528 1.1046 1.172 1.2743 1.9955z" fill="#dec2bb" fill-rule="evenodd"/> <path d="m111.43 82.014c0.21316-0.19686 0.4712-0.32952 0.7414-0.38117 0.34968-0.06684 0.70859 8.46e-4 1.0519 0.10205 0.34331 0.10121 0.67964 0.2361 1.0287 0.30716 0.34904 0.07105 0.71929 0.07469 1.0467-0.08094 0.1637-0.07781 0.31415-0.19535 0.42927-0.34955 0.11512-0.15421 0.19383-0.34581 0.21386-0.54731 0.0169-0.1696-8e-3 -0.34338-0.0646-0.50129-0.0567-0.15791-0.14462-0.30011-0.25109-0.41968-0.21294-0.23915-0.49471-0.38452-0.78317-0.47182-0.71496-0.21636-1.5045-0.08823-2.1387 0.34704-0.63417 0.43528-1.1046 1.172-1.2743 1.9955z" fill="#dec2bb" fill-rule="evenodd"/> <circle cx="86.793" cy="66.404" r="6.4201" fill="#8bb5db" stroke="#8bb5db" stroke-linecap="round" stroke-linejoin="round" stroke-width=".042862"/> <path d="m86.763 59.984a6.4201 6.4201 0 0 0-6.4203 6.4198 6.4201 6.4201 0 0 0 0 0.0072h12.84a6.4201 6.4201 0 0 0 5.65e-4 -0.0072 6.4201 6.4201 0 0 0-6.4198-6.4198z" fill="#6ba1d1" stroke="#8bb5db" stroke-linecap="round" stroke-linejoin="round" stroke-width=".042862"/> <path d="m91.713 70.511c-0.25476 0.29825-2.767-2.7798-3.031-2.4897s3.0366 2.5019 2.7636 2.7835-2.587-2.9481-2.8687-2.6751 2.8735 2.6876 2.5834 2.9516c-0.29013 0.26397-2.3968-3.1047-2.6951-2.85-0.29828 0.25473 2.6991 2.8627 2.393 3.108s-2.1971-3.2491-2.5108-3.0136 2.514 3.0265 2.1931 3.2521c-0.32093 0.22553-1.9888-3.3806-2.3166-3.1653-0.32785 0.21534 2.319 3.1784 1.9846 3.3834s-1.7726-3.4988-2.1133-3.3045 2.1149 3.3178 1.7682 3.5013c-0.34666 0.18353-1.5494-3.6032-1.9016-3.4307-0.35226 0.17255 1.9024 3.444 1.5449 3.6054s-1.3201-3.6934-1.6825-3.5433 1.6824 3.5567 1.3154 3.6953-1.0856-3.769-1.4567-3.642c-0.3711 0.12704 1.4557 3.6553 1.0808 3.7706-0.37491 0.11532-0.84675-3.8297-1.2251-3.7262-0.37835 0.10348 1.2233 3.7395 0.84193 3.831-0.38141 0.09155-0.60461-3.8753-0.98871-3.7958-0.3841 0.07952 0.98612 3.8089 0.59971 3.8763-0.38641 0.06742-0.36009-3.9056-0.74842-3.8504-0.38834 0.05525 0.74501 3.8633 0.35513 3.9064-0.38988 0.04302-0.11414-3.9206-0.50518-3.8898-0.39104 0.03076 0.50096 3.9025 0.10915 3.9209-0.39181 0.01846 0.13226-3.92-0.25994-3.9138-0.3922 0.0061 0.25493 3.9262-0.13726 3.9201-0.3922-0.0062 0.37814-3.9039-0.01367-3.9224s0.0079 3.9345-0.38313 3.9037c-0.39104-0.03079 0.62252-3.8725 0.23264-3.9156-0.38988-0.04306-0.23916 3.9272-0.62749 3.8719-0.38833-0.05529 0.86445-3.8258 0.47805-3.8932-0.3864-0.06746-0.48528 3.9045-0.86938 3.8249-0.38409-0.07956 1.103-3.7639 0.72156-3.8555-0.3814-0.09159-0.72949 3.8663-1.1078 3.7628s1.3371-3.6873 0.96223-3.8026c-0.3749-0.11535-0.97082 3.8129-1.3419 3.6858-0.37109-0.12707 1.566-3.596 1.1991-3.7347-0.36692-0.13867-1.2083 3.7444-1.5707 3.5942-0.36238-0.15012 1.7887-3.4906 1.4312-3.652-0.35749-0.16143-1.441 3.6611-1.7933 3.4885-0.35224-0.17258 2.0044-3.3714 1.6577-3.5549-0.34664-0.18356-1.6681 3.5634-2.0088 3.369-0.34071-0.19436 2.2121-3.2389 1.8777-3.4438-0.33444-0.20496-1.8885 3.4516-2.2164 3.2363-0.32783-0.21537 2.4111-3.0936 2.0902-3.3192-0.3209-0.22556-2.1015 3.3262-2.4152 3.0907-0.31366-0.23553 2.6006-2.9361 2.2945-3.1814s-2.3062 3.1877-2.6045 2.933c-0.29825-0.25476 2.7798-2.767 2.4897-3.031s-2.5019 3.0366-2.7835 2.7636c-0.28167-0.27298 2.9481-2.587 2.6751-2.8687s-2.6876 2.8735-2.9516 2.5834c-0.26397-0.29013 3.1047-2.3968 2.85-2.6951-0.25473-0.29828-2.8627 2.6991-3.108 2.393-0.24523-0.30613 3.2491-2.1971 3.0136-2.5108s-3.0265 2.514-3.2521 2.1931c-0.22553-0.32093 3.3806-1.9888 3.1653-2.3166-0.21534-0.32785-3.1784 2.319-3.3834 1.9846-0.20493-0.33446 3.4988-1.7726 3.3045-2.1133s-3.3178 2.1149-3.5013 1.7682 3.6032-1.5494 3.4307-1.9016c-0.17255-0.35226-3.444 1.9024-3.6054 1.5449s3.6934-1.3201 3.5433-1.6825c-0.15009-0.3624-3.5567 1.6824-3.6953 1.3154s3.769-1.0856 3.642-1.4567c-0.12704-0.3711-3.6553 1.4557-3.7706 1.0808-0.11532-0.37491 3.8297-0.84676 3.7262-1.2251-0.10348-0.37835-3.7395 1.2233-3.831 0.84193-0.09155-0.38141 3.8753-0.60461 3.7958-0.98871-0.07952-0.3841-3.8089 0.98612-3.8763 0.59971-0.06742-0.38641 3.9056-0.36009 3.8504-0.74842-0.05525-0.38834-3.8633 0.74501-3.9064 0.35513-0.04302-0.38988 3.9206-0.11414 3.8898-0.50518-0.03076-0.39104-3.9025 0.50096-3.9209 0.10915-0.01846-0.39181 3.92 0.13226 3.9138-0.25994-0.0061-0.3922-3.9262 0.25493-3.9201-0.13726 0.0062-0.3922 3.9039 0.37814 3.9224-0.01367s-3.9345 0.0079-3.9037-0.38314c0.03079-0.39104 3.8725 0.62252 3.9156 0.23265 0.04306-0.38988-3.9272-0.23916-3.8719-0.6275 0.05529-0.38833 3.8258 0.86445 3.8932 0.47805 0.06746-0.3864-3.9045-0.48528-3.8249-0.86938 0.07956-0.38409 3.7639 1.103 3.8555 0.72156 0.09159-0.3814-3.8663-0.72949-3.7628-1.1078s3.6873 1.3371 3.8026 0.96223c0.11536-0.3749-3.8129-0.97082-3.6858-1.3419s3.596 1.566 3.7347 1.1991c0.13867-0.36692-3.7444-1.2083-3.5942-1.5707 0.15012-0.36238 3.4906 1.7887 3.652 1.4312s-3.6611-1.441-3.4885-1.7933 3.3714 2.0044 3.555 1.6577c0.18356-0.34664-3.5634-1.6681-3.369-2.0088 0.19436-0.34071 3.2389 2.2121 3.4438 1.8777 0.20496-0.33443-3.4516-1.8885-3.2363-2.2164 0.21537-0.32783 3.0936 2.4111 3.3192 2.0902 0.22556-0.3209-3.3262-2.1015-3.0907-2.4152 0.23553-0.31366 2.9361 2.6006 3.1814 2.2945 0.24526-0.30611-3.1877-2.3062-2.933-2.6045 0.25476-0.29825 2.767 2.7798 3.031 2.4897s-3.0366-2.5019-2.7636-2.7835c0.27298-0.28167 2.587 2.9481 2.8687 2.6751 0.2817-0.27296-2.8735-2.6876-2.5834-2.9516 0.29013-0.26397 2.3968 3.1047 2.6951 2.85 0.29828-0.25473-2.6991-2.8627-2.393-3.108 0.30613-0.24523 2.1971 3.2491 2.5108 3.0136s-2.514-3.0265-2.1931-3.2521c0.32093-0.22553 1.9888 3.3806 2.3166 3.1653 0.32785-0.21534-2.319-3.1784-1.9846-3.3834s1.7726 3.4988 2.1133 3.3045-2.1149-3.3178-1.7682-3.5013c0.34666-0.18353 1.5494 3.6032 1.9016 3.4307 0.35226-0.17255-1.9024-3.444-1.5449-3.6054s1.3201 3.6934 1.6825 3.5433c0.3624-0.15009-1.6824-3.5567-1.3154-3.6953 0.36693-0.13863 1.0856 3.769 1.4567 3.642s-1.4557-3.6553-1.0808-3.7706c0.37491-0.11532 0.84676 3.8297 1.2251 3.7262 0.37835-0.10348-1.2233-3.7395-0.84193-3.831 0.38141-0.09155 0.60461 3.8753 0.98872 3.7958 0.3841-0.07952-0.98612-3.8089-0.59972-3.8763 0.38641-0.06742 0.36009 3.9056 0.74842 3.8504 0.38834-0.05525-0.74501-3.8633-0.35513-3.9064 0.38988-0.04302 0.11414 3.9206 0.50518 3.8898 0.39104-0.03076-0.50096-3.9025-0.10915-3.9209 0.39181-0.01846-0.13226 3.92 0.25994 3.9138 0.3922-0.0061-0.25494-3.9262 0.13726-3.9201 0.3922 0.0062-0.37814 3.9039 0.01367 3.9224s-0.0079-3.9345 0.38314-3.9037c0.39104 0.03079-0.62252 3.8725-0.23265 3.9156 0.38988 0.04306 0.23916-3.9272 0.62749-3.8719 0.38833 0.05529-0.86445 3.8258-0.47805 3.8932 0.3864 0.06746 0.48528-3.9045 0.86938-3.8249 0.38409 0.07956-1.103 3.7639-0.72156 3.8555 0.3814 0.09159 0.72949-3.8663 1.1078-3.7628 0.37834 0.10352-1.3371 3.6873-0.96223 3.8026 0.3749 0.11536 0.97082-3.8129 1.3419-3.6858 0.37109 0.12707-1.566 3.596-1.1991 3.7347 0.36692 0.13867 1.2083-3.7444 1.5707-3.5942s-1.7887 3.4906-1.4312 3.652c0.35749 0.16143 1.441-3.6611 1.7933-3.4885 0.35224 0.17258-2.0044 3.3714-1.6577 3.5549 0.34664 0.18356 1.6681-3.5634 2.0088-3.369s-2.2121 3.2389-1.8777 3.4438c0.33444 0.20496 1.8885-3.4516 2.2164-3.2363 0.32783 0.21537-2.4111 3.0936-2.0902 3.3192 0.3209 0.22556 2.1015-3.3262 2.4152-3.0907 0.31366 0.23553-2.6006 2.9361-2.2945 3.1814 0.30611 0.24526 2.3062-3.1877 2.6045-2.933 0.29825 0.25476-2.7798 2.767-2.4897 3.031s2.5019-3.0366 2.7835-2.7636-2.9481 2.587-2.6751 2.8687 2.6876-2.8735 2.9516-2.5834c0.26397 0.29013-3.1047 2.3968-2.85 2.6951s2.8627-2.6991 3.108-2.393-3.2491 2.1971-3.0136 2.5108c0.2355 0.31368 3.0265-2.514 3.2521-2.1931 0.22553 0.32093-3.3806 1.9888-3.1653 2.3166 0.21534 0.32785 3.1784-2.319 3.3834-1.9846 0.20493 0.33446-3.4988 1.7726-3.3045 2.1133 0.19432 0.34073 3.3178-2.1149 3.5013-1.7682 0.18353 0.34666-3.6032 1.5494-3.4307 1.9016 0.17255 0.35226 3.444-1.9024 3.6054-1.5449s-3.6934 1.3201-3.5433 1.6825c0.15009 0.3624 3.5567-1.6824 3.6953-1.3154 0.13863 0.36693-3.769 1.0856-3.642 1.4567 0.12704 0.3711 3.6553-1.4557 3.7706-1.0808 0.11532 0.37491-3.8297 0.84676-3.7262 1.2251s3.7395-1.2233 3.831-0.84193c0.09155 0.38141-3.8753 0.60461-3.7958 0.98871 0.07952 0.3841 3.8089-0.98612 3.8763-0.59971 0.06742 0.38641-3.9056 0.36009-3.8504 0.74842 0.05525 0.38834 3.8633-0.74501 3.9064-0.35513 0.04302 0.38988-3.9206 0.11414-3.8898 0.50518 0.03076 0.39104 3.9025-0.50096 3.9209-0.10915 0.01846 0.39181-3.92-0.13226-3.9138 0.25994 0.0061 0.3922 3.9262-0.25493 3.9201 0.13726-0.0062 0.3922-3.9039-0.37814-3.9224 0.01367s3.9345-0.0079 3.9037 0.38314-3.8725-0.62252-3.9156-0.23265c-0.04306 0.38988 3.9272 0.23916 3.8719 0.62749-0.05529 0.38833-3.8258-0.86445-3.8932-0.47805-0.06746 0.3864 3.9045 0.48528 3.8249 0.86938-0.07956 0.38409-3.7639-1.103-3.8555-0.72156-0.09159 0.3814 3.8663 0.72949 3.7628 1.1078-0.10352 0.37834-3.6873-1.3371-3.8026-0.96223-0.11536 0.3749 3.8129 0.97082 3.6858 1.3419s-3.596-1.566-3.7347-1.1991c-0.13867 0.36692 3.7444 1.2083 3.5942 1.5707-0.15012 0.36238-3.4906-1.7887-3.652-1.4312-0.16143 0.35749 3.6611 1.441 3.4885 1.7933s-3.3714-2.0044-3.5549-1.6577c-0.18356 0.34664 3.5634 1.6681 3.369 2.0088-0.19436 0.34071-3.2389-2.2121-3.4438-1.8777-0.20496 0.33443 3.4516 1.8885 3.2363 2.2164-0.21537 0.32783-3.0936-2.4111-3.3192-2.0902-0.22556 0.3209 3.3262 2.1015 3.0907 2.4152-0.23553 0.31366-2.9361-2.6006-3.1814-2.2945-0.24526 0.30611 3.1877 2.3062 2.933 2.6045z" fill="#3879b5"/> <circle cx="86.793" cy="66.404" r="3.7817" fill="#1a1a1a" stroke="#000" stroke-linecap="round" stroke-linejoin="round" stroke-width=".042862"/> <circle cx="133.76" cy="66.404" r="6.4201" fill="#8bb5db" stroke="#8bb5db" stroke-linecap="round" stroke-linejoin="round" stroke-width=".042862"/> <path d="m133.76 59.984a6.4201 6.4201 0 0 0-6.4203 6.4198 6.4201 6.4201 0 0 0 0 0.0072h12.84a6.4201 6.4201 0 0 0 5.6e-4 -0.0072 6.4201 6.4201 0 0 0-6.4198-6.4198z" fill="#6ba1d1" stroke="#8bb5db" stroke-linecap="round" stroke-linejoin="round" stroke-width=".042862"/> <path d="m138.56 70.511c-0.25475 0.29825-2.767-2.7798-3.031-2.4897s3.0366 2.5019 2.7636 2.7835c-0.27298 0.28167-2.587-2.9481-2.8687-2.6751-0.28169 0.27296 2.8735 2.6876 2.5834 2.9516-0.29014 0.26397-2.3968-3.1047-2.6951-2.85-0.29827 0.25473 2.6991 2.8627 2.393 3.108s-2.1971-3.2491-2.5108-3.0136c-0.31368 0.2355 2.514 3.0265 2.1931 3.2521-0.32093 0.22553-1.9888-3.3806-2.3166-3.1653-0.32785 0.21534 2.319 3.1784 1.9846 3.3834-0.33445 0.20493-1.7726-3.4988-2.1133-3.3045s2.1149 3.3178 1.7682 3.5013c-0.34667 0.18353-1.5494-3.6032-1.9016-3.4307-0.35226 0.17255 1.9024 3.444 1.5449 3.6054-0.35751 0.1614-1.3201-3.6934-1.6825-3.5433-0.36239 0.15009 1.6824 3.5567 1.3154 3.6953s-1.0856-3.769-1.4567-3.642c-0.37111 0.12704 1.4557 3.6553 1.0808 3.7706-0.37491 0.11532-0.84676-3.8297-1.2251-3.7262-0.37835 0.10348 1.2233 3.7395 0.84192 3.831-0.38141 0.09155-0.60461-3.8753-0.98871-3.7958-0.3841 0.07952 0.98612 3.8089 0.59971 3.8763-0.3864 0.06742-0.36008-3.9056-0.74842-3.8504-0.38833 0.05525 0.74501 3.8633 0.35513 3.9064-0.38987 0.04302-0.11413-3.9206-0.50517-3.8898-0.39104 0.03076 0.50096 3.9025 0.10915 3.9209-0.39181 0.01846 0.13226-3.92-0.25994-3.9138-0.3922 0.0061 0.25493 3.9262-0.13726 3.9201-0.3922-0.0062 0.37813-3.9039-0.0137-3.9224-0.39181-0.0185 8e-3 3.9345-0.38313 3.9037-0.39104-0.03079 0.62252-3.8725 0.23264-3.9156-0.38987-0.04306-0.23916 3.9272-0.62749 3.8719-0.38833-0.05529 0.86445-3.8258 0.47805-3.8932-0.38641-0.06746-0.48529 3.9045-0.86938 3.8249-0.38409-0.07956 1.103-3.7639 0.72156-3.8555-0.3814-0.09159-0.72949 3.8663-1.1078 3.7628s1.3371-3.6873 0.96223-3.8026c-0.3749-0.11535-0.97082 3.8129-1.3419 3.6858-0.37109-0.12707 1.566-3.596 1.1991-3.7347-0.36691-0.13867-1.2083 3.7444-1.5707 3.5942s1.7887-3.4906 1.4312-3.652c-0.35748-0.16143-1.441 3.6611-1.7933 3.4885s2.0044-3.3714 1.6577-3.5549c-0.34664-0.18356-1.6681 3.5634-2.0088 3.369-0.34071-0.19436 2.2121-3.2389 1.8777-3.4438-0.33443-0.20496-1.8885 3.4516-2.2164 3.2363-0.32784-0.21537 2.4111-3.0936 2.0902-3.3192-0.32091-0.22556-2.1015 3.3262-2.4152 3.0907-0.31366-0.23553 2.6006-2.9361 2.2945-3.1814-0.30611-0.24526-2.3062 3.1877-2.6045 2.933-0.29825-0.25476 2.7798-2.767 2.4897-3.031s-2.5018 3.0366-2.7835 2.7636 2.9481-2.587 2.6751-2.8687c-0.27295-0.2817-2.6876 2.8735-2.9516 2.5834-0.26397-0.29013 3.1047-2.3968 2.85-2.6951-0.25473-0.29828-2.8627 2.6991-3.108 2.393-0.24523-0.30613 3.2491-2.1971 3.0136-2.5108-0.2355-0.31368-3.0266 2.514-3.2521 2.1931-0.22553-0.32093 3.3806-1.9888 3.1653-2.3166-0.21533-0.32785-3.1784 2.319-3.3834 1.9846s3.4988-1.7726 3.3045-2.1133c-0.19433-0.34073-3.3178 2.1149-3.5013 1.7682-0.18353-0.34666 3.6032-1.5494 3.4307-1.9016-0.17255-0.35226-3.444 1.9024-3.6054 1.5449s3.6934-1.3201 3.5433-1.6825c-0.15008-0.3624-3.5567 1.6824-3.6953 1.3154-0.13864-0.36693 3.769-1.0856 3.642-1.4567-0.12703-0.3711-3.6553 1.4557-3.7706 1.0808s3.8297-0.84676 3.7262-1.2251c-0.10348-0.37835-3.7395 1.2233-3.831 0.84193-0.0915-0.38141 3.8753-0.60461 3.7958-0.98871s-3.8089 0.98612-3.8763 0.59971 3.9056-0.36009 3.8504-0.74842c-0.0552-0.38834-3.8633 0.74501-3.9064 0.35513-0.043-0.38988 3.9206-0.11414 3.8898-0.50518s-3.9025 0.50096-3.921 0.10915c-0.0184-0.39181 3.92 0.13226 3.9138-0.25994-6e-3 -0.3922-3.9262 0.25493-3.9201-0.13726 6e-3 -0.3922 3.9039 0.37814 3.9224-0.01367s-3.9345 0.0079-3.9037-0.38314 3.8725 0.62252 3.9156 0.23265c0.0431-0.38988-3.9272-0.23916-3.8719-0.6275 0.0553-0.38833 3.8258 0.86445 3.8932 0.47805 0.0675-0.3864-3.9045-0.48528-3.8249-0.86938 0.0796-0.38409 3.7639 1.103 3.8555 0.72156 0.0916-0.3814-3.8663-0.72949-3.7628-1.1078s3.6872 1.3371 3.8026 0.96223c0.11535-0.3749-3.8129-0.97082-3.6858-1.3419 0.12707-0.37109 3.596 1.566 3.7347 1.1991 0.13867-0.36692-3.7444-1.2083-3.5942-1.5707 0.15013-0.36238 3.4906 1.7887 3.652 1.4312s-3.6611-1.441-3.4885-1.7933c0.17258-0.35224 3.3714 2.0044 3.555 1.6577 0.18356-0.34664-3.5634-1.6681-3.369-2.0088 0.19436-0.34071 3.2389 2.2121 3.4438 1.8777 0.20497-0.33443-3.4516-1.8885-3.2363-2.2164 0.21537-0.32783 3.0936 2.4111 3.3192 2.0902s-3.3262-2.1015-3.0907-2.4152c0.23552-0.31366 2.9361 2.6006 3.1814 2.2945 0.24526-0.30611-3.1877-2.3062-2.933-2.6045 0.25476-0.29825 2.767 2.7798 3.031 2.4897s-3.0366-2.5019-2.7636-2.7835c0.27298-0.28167 2.587 2.9481 2.8687 2.6751s-2.8735-2.6876-2.5834-2.9516 2.3968 3.1047 2.6951 2.85c0.29828-0.25473-2.6991-2.8627-2.393-3.108 0.30613-0.24523 2.1971 3.2491 2.5108 3.0136 0.31369-0.2355-2.514-3.0265-2.1931-3.2521 0.32092-0.22553 1.9888 3.3806 2.3166 3.1653 0.32785-0.21534-2.319-3.1784-1.9846-3.3834 0.33446-0.20493 1.7726 3.4988 2.1133 3.3045 0.34073-0.19432-2.1149-3.3178-1.7682-3.5013 0.34667-0.18353 1.5494 3.6032 1.9016 3.4307 0.35225-0.17255-1.9024-3.444-1.5449-3.6054 0.35751-0.1614 1.3201 3.6934 1.6825 3.5433s-1.6824-3.5567-1.3154-3.6953c0.36693-0.13863 1.0856 3.769 1.4567 3.642 0.37111-0.12704-1.4557-3.6553-1.0808-3.7706 0.37491-0.11532 0.84676 3.8297 1.2251 3.7262 0.37834-0.10348-1.2234-3.7395-0.84193-3.831 0.38141-0.09155 0.60461 3.8753 0.98871 3.7958 0.3841-0.07952-0.98612-3.8089-0.59971-3.8763 0.38641-0.06742 0.36008 3.9056 0.74842 3.8504 0.38834-0.05525-0.74501-3.8633-0.35513-3.9064 0.38988-0.04302 0.11414 3.9206 0.50517 3.8898 0.39104-0.03076-0.50096-3.9025-0.10915-3.9209 0.39182-0.01846-0.13226 3.92 0.25994 3.9138 0.3922-0.0061-0.25493-3.9262 0.13726-3.9201 0.3922 0.0062-0.37813 3.9039 0.0137 3.9224 0.39181 0.0185-8e-3 -3.9345 0.38313-3.9037 0.39104 0.03079-0.62252 3.8725-0.23264 3.9156 0.38987 0.04306 0.23916-3.9272 0.62749-3.8719 0.38833 0.05529-0.86445 3.8258-0.47805 3.8932 0.38641 0.06746 0.48529-3.9045 0.86938-3.8249 0.38409 0.07956-1.103 3.7639-0.72156 3.8555 0.38141 0.09159 0.72949-3.8663 1.1078-3.7628s-1.3371 3.6873-0.96223 3.8026c0.3749 0.11536 0.97082-3.8129 1.3419-3.6858 0.3711 0.12707-1.566 3.596-1.1991 3.7347 0.36692 0.13867 1.2083-3.7444 1.5707-3.5942s-1.7887 3.4906-1.4312 3.652c0.35749 0.16143 1.441-3.6611 1.7933-3.4885s-2.0044 3.3714-1.6577 3.5549c0.34664 0.18356 1.6681-3.5634 2.0088-3.369 0.3407 0.19436-2.2121 3.2389-1.8777 3.4438 0.33443 0.20496 1.8885-3.4516 2.2164-3.2363 0.32783 0.21537-2.4111 3.0936-2.0902 3.3192 0.32091 0.22556 2.1015-3.3262 2.4152-3.0907 0.31367 0.23553-2.6006 2.9361-2.2945 3.1814 0.3061 0.24526 2.3062-3.1877 2.6045-2.933 0.29825 0.25476-2.7798 2.767-2.4897 3.031s2.5018-3.0366 2.7835-2.7636-2.9481 2.587-2.6751 2.8687c0.27295 0.2817 2.6876-2.8735 2.9516-2.5834 0.26397 0.29013-3.1047 2.3968-2.85 2.6951 0.25472 0.29828 2.8627-2.6991 3.108-2.393 0.24523 0.30613-3.2491 2.1971-3.0136 2.5108 0.2355 0.31368 3.0266-2.514 3.2521-2.1931 0.22553 0.32093-3.3806 1.9888-3.1653 2.3166 0.21533 0.32785 3.1784-2.319 3.3834-1.9846s-3.4988 1.7726-3.3045 2.1133c0.19433 0.34073 3.3178-2.1149 3.5013-1.7682 0.18352 0.34666-3.6032 1.5494-3.4307 1.9016 0.17255 0.35226 3.444-1.9024 3.6054-1.5449s-3.6934 1.3201-3.5433 1.6825c0.15009 0.3624 3.5567-1.6824 3.6953-1.3154 0.13863 0.36693-3.769 1.0856-3.642 1.4567 0.12704 0.3711 3.6553-1.4557 3.7706-1.0808 0.11532 0.37491-3.8297 0.84676-3.7262 1.2251 0.10348 0.37835 3.7395-1.2233 3.831-0.84193 0.0915 0.38141-3.8753 0.60461-3.7958 0.98871s3.8089-0.98612 3.8764-0.59971c0.0674 0.38641-3.9056 0.36009-3.8504 0.74842 0.0553 0.38834 3.8633-0.74501 3.9064-0.35513 0.043 0.38988-3.9206 0.11414-3.8898 0.50518 0.0307 0.39104 3.9025-0.50096 3.9209-0.10915 0.0185 0.39181-3.92-0.13226-3.9138 0.25994 6e-3 0.3922 3.9262-0.25493 3.9201 0.13726-6e-3 0.3922-3.9039-0.37814-3.9224 0.01367s3.9345-0.0079 3.9037 0.38314-3.8725-0.62252-3.9156-0.23265c-0.0431 0.38988 3.9272 0.23916 3.8719 0.62749s-3.8258-0.86445-3.8932-0.47805c-0.0675 0.3864 3.9045 0.48528 3.8249 0.86938-0.0796 0.38409-3.7639-1.103-3.8555-0.72156-0.0916 0.3814 3.8663 0.72949 3.7628 1.1078-0.10352 0.37834-3.6872-1.3371-3.8026-0.96223-0.11535 0.3749 3.8129 0.97082 3.6858 1.3419-0.12707 0.37109-3.596-1.566-3.7347-1.1991-0.13867 0.36692 3.7444 1.2083 3.5942 1.5707-0.15013 0.36238-3.4906-1.7887-3.652-1.4312-0.16143 0.35749 3.6611 1.441 3.4885 1.7933-0.17258 0.35224-3.3714-2.0044-3.5549-1.6577-0.18357 0.34664 3.5634 1.6681 3.369 2.0088-0.19436 0.34071-3.2389-2.2121-3.4438-1.8777-0.20497 0.33443 3.4516 1.8885 3.2363 2.2164-0.21537 0.32783-3.0936-2.4111-3.3192-2.0902s3.3262 2.1015 3.0907 2.4152c-0.23553 0.31366-2.9361-2.6006-3.1814-2.2945-0.24526 0.30611 3.1877 2.3062 2.933 2.6045z" fill="#3879b5"/> <circle cx="133.76" cy="66.404" r="3.7817" fill="#1a1a1a" stroke="#000" stroke-linecap="round" stroke-linejoin="round" stroke-width=".042862"/> <path transform="matrix(.2819 .013401 -.013401 .2819 -15.151 93.335)" d="m399.49-103.8c-0.12825 0.0426-1.5939-5.1331-6.2119-12.298-4.6579-7.2271-12.645-16.13-24.719-21.762-0.50034-0.23354-1.0061-0.46053-1.5172-0.68078-9.5941-4.1344-19.211-5.1328-27.157-4.6399-7.9064 0.49047-13.902 2.4179-17.23 3.6332-2.0299 0.74115-3.1247 1.2112-3.1517 1.1529-0.0214-0.0463 1.0157-0.6397 3.0181-1.4912 3.2793-1.3944 9.2978-3.5034 17.307-4.1147 8.0495-0.61433 17.837 0.33232 27.609 4.5417 0.52034 0.22415 1.0352 0.45533 1.5446 0.69335 12.295 5.7493 20.326 14.886 24.884 22.297 4.5602 7.414 5.6024 12.676 5.6231 12.669z" fill="#ddc0b8"/> <path transform="matrix(-.2819 .013401 .013401 .2819 235.76 93.335)" d="m399.49-103.8c-0.12825 0.0426-1.5939-5.1331-6.2119-12.298-4.6579-7.2271-12.645-16.13-24.719-21.762-0.50034-0.23354-1.0061-0.46053-1.5172-0.68078-9.5941-4.1344-19.211-5.1328-27.157-4.6399-7.9064 0.49047-13.902 2.4179-17.23 3.6332-2.0299 0.74115-3.1247 1.2112-3.1517 1.1529-0.0214-0.0463 1.0157-0.6397 3.0181-1.4912 3.2793-1.3944 9.2978-3.5034 17.307-4.1147 8.0495-0.61433 17.837 0.33232 27.609 4.5417 0.52034 0.22415 1.0352 0.45533 1.5446 0.69335 12.295 5.7493 20.326 14.886 24.884 22.297 4.5602 7.414 5.6024 12.676 5.6231 12.669z" fill="#ddc0b8"/> <path transform="matrix(.28222 0 0 .28222 -14.257 97.882)" d="m418-65.684c0.0663 0.1049-0.4126 0.48748-0.96794 1.2578-0.55016 0.76306-1.1772 1.9724-1.188 3.4322-4e-3 0.32245 0.0234 0.65281 0.0831 0.9865 0.28629 1.5992 1.199 2.7936 2.0642 3.4957 0.97464 0.79305 1.8043 1.0417 1.7714 1.1843-0.0211 0.09158-0.93367 0.18799-2.1949-0.5785-1.0987-0.67042-2.2836-2.007-2.6244-3.9261-0.0708-0.39869-0.0986-0.79592-0.0859-1.1848 0.0644-1.7699 0.92687-3.1016 1.6846-3.8367 0.7758-0.75272 1.4056-0.91297 1.4579-0.83022z" fill="#dec2bb"/> <path transform="matrix(-.28222 0 0 .28222 234.52 97.882)" d="m418-65.684c0.0663 0.1049-0.4126 0.48748-0.96794 1.2578-0.55016 0.76306-1.1772 1.9724-1.188 3.4322-4e-3 0.32245 0.0234 0.65281 0.0831 0.9865 0.28629 1.5992 1.199 2.7936 2.0642 3.4957 0.97464 0.79305 1.8043 1.0417 1.7714 1.1843-0.0211 0.09158-0.93367 0.18799-2.1949-0.5785-1.0987-0.67042-2.2836-2.007-2.6244-3.9261-0.0708-0.39869-0.0986-0.79592-0.0859-1.1848 0.0644-1.7699 0.92687-3.1016 1.6846-3.8367 0.7758-0.75272 1.4056-0.91297 1.4579-0.83022z" fill="#dec2bb"/> <ellipse cx="110.37" cy="77.881" rx="3.163" ry="1.8203" fill="#feefea" opacity=".5" stroke="#e1c0bb" stroke-linecap="round" stroke-linejoin="round" stroke-width=".042862"/> <path d="m123.87 72.336c-0.0412-0.88892-0.59083-1.1733-1.2092-1.272-0.7658 1.0914-1.7033 2.1742 1.2092 1.272z" fill="#f4d7d7" opacity=".75"/> <path transform="matrix(.28222 0 0 .28222 -14.349 97.882)" d="m482.62-90.989c6e-3 0.0041 3.3179-8.0438 9.6687-19.67 2.7242-5.0109 6.604-11.221 12.31-15.954 2.6556-2.1745 5.6574-3.9813 8.9455-5.4294 4.3394-1.9112 8.8584-3.0575 13.141-3.698h1e-5c10.873-1.6388 21.22-0.81984 27.773-4e-3 6.8628 0.85429 10.852 1.8392 10.813 2.1334-0.0511 0.39213-4.128 0.0499-10.974-0.29146-6.4551-0.32185-16.798-0.72226-27.155 1.0261-4.0743 0.69307-8.3476 1.8072-12.395 3.5762-3.0706 1.342-5.8492 2.99-8.2899 4.9683-5.2848 4.2239-9.1638 10.119-12.044 14.89-6.7661 11.263-11.367 18.723-11.794 18.453z"/> <path transform="matrix(.28222 0 0 .28222 -14.257 97.882)" d="m489.1-90.827c0.0611-0.55458 10.302 0.77443 25.28 0.43453 6.6213-0.15776 14.664-0.80378 22.112-3.5977 0.55155-0.20552 1.1008-0.42484 1.6469-0.65796 6.5275-2.7861 11.756-7.1524 15.396-12.002 4.9591-6.5602 7.5074-14.08 8.9296-18.803 1.5068-5.0041 2.1034-7.9964 2.462-7.9386 0.23748 0.0383 0.21771 3.1224-0.85417 8.3441-1.02 4.9692-3.2288 12.797-8.3261 20.012-3.7956 5.3338-9.3704 10.132-16.43 13.146-0.59013 0.25203-1.1839 0.48858-1.7807 0.70966-8.0146 2.9503-16.356 3.4838-23.142 3.3942-15.337-0.18557-25.306-2.9274-25.293-3.0414z"/> <ellipse cx="83.53" cy="65.372" rx="2.4698" ry="2.3627" fill="#fff"/> <path d="m96.69 72.325c0.04119-0.88892 0.59083-1.1733 1.2092-1.272 0.7658 1.0914 1.7033 2.1742-1.2092 1.272z" fill="#f4d7d7" opacity=".75"/> <path transform="matrix(-.28222 0 0 .28222 234.95 97.882)" d="m482.62-90.989c6e-3 0.0041 3.3179-8.0438 9.6687-19.67 2.7242-5.0109 6.604-11.221 12.31-15.954 2.6556-2.1745 5.6574-3.9813 8.9455-5.4294 4.3394-1.9112 8.8584-3.0575 13.141-3.698h1e-5c10.873-1.6388 21.22-0.81984 27.773-4e-3 6.8628 0.85429 10.852 1.8392 10.813 2.1334-0.0511 0.39213-4.128 0.0499-10.974-0.29146-6.4551-0.32185-16.798-0.72226-27.155 1.0261-4.0743 0.69307-8.3476 1.8072-12.395 3.5762-3.0706 1.342-5.8492 2.99-8.2899 4.9683-5.2848 4.2239-9.1638 10.119-12.044 14.89-6.7661 11.263-11.367 18.723-11.794 18.453z"/> <path transform="matrix(-.28222 0 0 .28222 234.96 97.882)" d="m489.1-90.827c0.0611-0.55427 10.331 0.7743 25.359 0.43867 6.669-0.15627 14.771-0.80092 22.29-3.5918 0.5402-0.19926 1.0783-0.41151 1.6136-0.63675 6.608-2.7803 11.91-7.1453 15.603-12.018 4.999-6.5461 7.5666-14.063 8.9974-18.79 1.5152-5.0061 2.1095-8.0008 2.4682-7.943 0.23624 0.0381 0.21813 3.1246-0.86337 8.3503-1.0294 4.974-3.2598 12.804-8.4008 20.007-3.8534 5.3589-9.5038 10.156-16.641 13.159-0.57774 0.24314-1.1588 0.47168-1.7425 0.68565-8.0807 2.9445-16.478 3.4756-23.312 3.3838-15.384-0.19-25.385-2.9276-25.372-3.0446z"/> <path transform="matrix(.27442 -.065891 .065891 .27442 -.68021 133.99)" d="m558.39-135.4c0.1292-0.0169 0.65335 0.56267 0.79311 0.52964 1.0548-0.24927 2.6916-0.98864 3.8788-2.6448 0.68748-1.0084 1.0896-2.1922 1.1735-3.387 0.10648-1.516-0.31007-2.6975-0.58674-3.4022 0.28086 0.71531 0.50701 1.9447 0.1759 3.3406-0.2599 1.0957-0.81415 2.0745-1.5338 2.8353-1.1571 1.2919-2.5697 1.765-3.4134 1.9644-0.11366 0.0269-0.35815 0.74731-0.48735 0.76417z"/> <path transform="matrix(.24675 -.059246 .059246 .24675 12.888 126.46)" d="m558.39-135.4c0.1227-0.016 0.64933 0.68377 0.78443 0.65256 1.082-0.24992 2.7555-1.0129 3.9546-2.7144 0.68506-1.0309 1.0734-2.2324 1.142-3.4351 0.0871-1.526-0.34617-2.704-0.62238-3.4075 0.28117 0.71612 0.49099 1.9501 0.14025 3.3352-0.2751 1.0864-0.84215 2.0475-1.5653 2.7872-1.1637 1.2701-2.5703 1.7178-3.4013 1.9098-0.10586 0.0245-0.30956 0.85618-0.43226 0.87219z"/> <path transform="matrix(.23056 -.16276 -.16276 -.23056 -6.0753 121.65)" d="m558.39-135.4c0.1292-0.0169 0.65335 0.56267 0.79311 0.52964 1.0548-0.24927 2.6916-0.98864 3.8788-2.6448 0.68748-1.0084 1.0896-2.1922 1.1735-3.387 0.10648-1.516-0.31007-2.6975-0.58674-3.4022 0.28086 0.71531 0.50701 1.9447 0.1759 3.3406-0.2599 1.0957-0.81415 2.0745-1.5338 2.8353-1.1571 1.2919-2.5697 1.765-3.4134 1.9644-0.11366 0.0269-0.35815 0.74731-0.48735 0.76417z"/> <path transform="matrix(.20731 -.14635 -.14635 -.20731 8.9526 116.76)" d="m558.39-135.4c0.1227-0.016 0.64933 0.68377 0.78443 0.65256 1.082-0.24992 2.7555-1.0129 3.9546-2.7144 0.68506-1.0309 1.0734-2.2324 1.142-3.4351 0.0871-1.526-0.34617-2.704-0.62238-3.4075 0.28117 0.71612 0.49099 1.9501 0.14025 3.3352-0.2751 1.0864-0.84215 2.0475-1.5653 2.7872-1.1637 1.2701-2.5703 1.7178-3.4013 1.9098-0.10586 0.0245-0.30956 0.85618-0.43226 0.87219z"/> <path transform="matrix(.20731 -.14635 -.14635 -.20731 8.5645 117.68)" d="m558.39-135.4c0.1227-0.016 0.64933 0.68377 0.78443 0.65256 1.082-0.24992 2.7555-1.0129 3.9546-2.7144 0.68506-1.0309 1.0734-2.2324 1.142-3.4351 0.0871-1.526-0.34617-2.704-0.62238-3.4075 0.28117 0.71612 0.49099 1.9501 0.14025 3.3352-0.2751 1.0864-0.84215 2.0475-1.5653 2.7872-1.1637 1.2701-2.5703 1.7178-3.4013 1.9098-0.10586 0.0245-0.30956 0.85618-0.43226 0.87219z"/> <path transform="matrix(-.27442 -.065891 -.065891 .27442 221.36 133.99)" d="m558.39-135.4c0.1292-0.0169 0.65335 0.56267 0.79311 0.52964 1.0548-0.24927 2.6916-0.98864 3.8788-2.6448 0.68748-1.0084 1.0896-2.1922 1.1735-3.387 0.10648-1.516-0.31007-2.6975-0.58674-3.4022 0.28086 0.71531 0.50701 1.9447 0.1759 3.3406-0.2599 1.0957-0.81415 2.0745-1.5338 2.8353-1.1571 1.2919-2.5697 1.765-3.4134 1.9644-0.11366 0.0269-0.35815 0.74731-0.48735 0.76417z"/> <path transform="matrix(-.24675 -.059246 -.059246 .24675 207.79 126.46)" d="m558.39-135.4c0.1227-0.016 0.64933 0.68377 0.78443 0.65256 1.082-0.24992 2.7555-1.0129 3.9546-2.7144 0.68506-1.0309 1.0734-2.2324 1.142-3.4351 0.0871-1.526-0.34617-2.704-0.62238-3.4075 0.28117 0.71612 0.49099 1.9501 0.14025 3.3352-0.2751 1.0864-0.84215 2.0475-1.5653 2.7872-1.1637 1.2701-2.5703 1.7178-3.4013 1.9098-0.10586 0.0245-0.30956 0.85618-0.43226 0.87219z"/> <path transform="matrix(-.23056 -.16276 .16276 -.23056 226.55 121.55)" d="m558.39-135.4c0.1292-0.0169 0.65335 0.56267 0.79311 0.52964 1.0548-0.24927 2.6916-0.98864 3.8788-2.6448 0.68748-1.0084 1.0896-2.1922 1.1735-3.387 0.10648-1.516-0.31007-2.6975-0.58674-3.4022 0.28086 0.71531 0.50701 1.9447 0.1759 3.3406-0.2599 1.0957-0.81415 2.0745-1.5338 2.8353-1.1571 1.2919-2.5697 1.765-3.4134 1.9644-0.11366 0.0269-0.35815 0.74731-0.48735 0.76417z"/> <path transform="matrix(-.20731 -.14635 .14635 -.20731 211.73 116.76)" d="m558.39-135.4c0.1227-0.016 0.64933 0.68377 0.78443 0.65256 1.082-0.24992 2.7555-1.0129 3.9546-2.7144 0.68506-1.0309 1.0734-2.2324 1.142-3.4351 0.0871-1.526-0.34617-2.704-0.62238-3.4075 0.28117 0.71612 0.49099 1.9501 0.14025 3.3352-0.2751 1.0864-0.84215 2.0475-1.5653 2.7872-1.1637 1.2701-2.5703 1.7178-3.4013 1.9098-0.10586 0.0245-0.30956 0.85618-0.43226 0.87219z"/> <path transform="matrix(-.20731 -.14635 .14635 -.20731 212.11 117.68)" d="m558.39-135.4c0.1227-0.016 0.64933 0.68377 0.78443 0.65256 1.082-0.24992 2.7555-1.0129 3.9546-2.7144 0.68506-1.0309 1.0734-2.2324 1.142-3.4351 0.0871-1.526-0.34617-2.704-0.62238-3.4075 0.28117 0.71612 0.49099 1.9501 0.14025 3.3352-0.2751 1.0864-0.84215 2.0475-1.5653 2.7872-1.1637 1.2701-2.5703 1.7178-3.4013 1.9098-0.10586 0.0245-0.30956 0.85618-0.43226 0.87219z"/> <rect x="103.81" y="89.868" width="14.055" height="4.6851" fill="#fff"/> <path d="m99.78 90.224c1.2534 1.4933 1.0743 3.4772 2.4445 4.3831 1.5129 1.0001 5.5431 2.7385 8.5189 2.6404 1.6029-0.05289 4.1816-0.40872 6.0267-1.6411 0.80172-0.5355 1.5249-1.3201 1.6748-1.4534 0.71522-0.63598 0.84707-2.0483 1.8859-3.5709-1.6611 0.87137-3.8062 0.43476-5.3842 1.1469-1.4744 0.66536-3.0338 1.2403-4.7482 1.177-1.7145-0.0633-2.352-1.1219-4.1395-1.2918-1.3251-0.1259-4.5079-0.5812-6.279-1.3901z" fill="#faa" stroke="#faa" stroke-linecap="round" stroke-linejoin="round" stroke-width=".042862"/> <path d="m98.254 89.068c3.0436 1.0441 5.9195-1.0893 8.9038-1.6695 1.0516-0.20443 1.7992 1.2398 2.833 1.2647 1.0675 0.02571 1.9285-1.3202 2.9848-1.1636 1.3944 0.20676 8.2139 3.2076 9.1567 1.5177 0 0-3.5246 3.7785-6.0707 2.8836-1.2339-0.43367-2.1777-0.80398-3.1795-0.75475-1.0655 0.05236-2.17 0.53947-2.8407 0.55239-0.6427 0.01239-1.948-0.37064-3.2829-0.318-1.3679 0.05395-2.7719 0.54259-3.9514 0.46977-2.3305-0.14389-4.5531-2.7824-4.5531-2.7824z" fill="#faa" stroke="#faa" stroke-linecap="round" stroke-linejoin="round" stroke-width=".042862"/> <path d="m106.02 88.287c-0.0382-0.07489 0.30218-0.47418 0.95908-0.55563 0.0667-0.0082 0.13532-0.01275 0.20549-0.01313 0.77668-0.0041 1.2371 0.46857 1.1998 0.55246-0.0439 0.09883-0.55562-0.14754-1.1874-0.14425-0.0607 3.11e-4 -0.11995 0.0027-0.17786 0.0068v1e-6c-0.54577 0.03874-0.95385 0.24249-0.99917 0.15373z" fill="#fff" opacity=".3"/> <circle cx="105.39" cy="88.407" r=".20213" fill="#fff" opacity=".3"/> <path d="m108.13 93.508c-0.0915 0.1128 0.84611 0.60729 2.5759 0.59272 0.17565-0.0015 0.35588-0.0087 0.53969-0.02193 2.0346-0.14681 3.1859-0.90185 3.0787-1.0125-0.12628-0.13033-1.4382 0.3166-3.0932 0.43611-0.15893 0.01147-0.31445 0.01985-0.4666 0.02537v-1e-6c-1.4339 0.05277-2.5261-0.1535-2.6346-0.01981z" fill="#fff" opacity=".3"/> <circle cx="107.49" cy="93.042" r=".20213" fill="#fff" opacity=".3"/> <path d="m120.56 89.851c-0.19007 0.15037 6e-3 -0.03909-0.2025 0.09604-0.25494 0.16516-0.52551 0.31778-0.81597 0.45372s-0.60074 0.25539-0.93534 0.35502c-0.33461 0.09963-0.69318 0.17943-1.0806 0.23565-0.38738 0.05622-0.80334 0.08886-1.2521 0.09457-0.44877 0.0057-0.93071-0.01579-1.4495-0.0677-0.51881-0.0519-1.1087-0.26409-1.6722-0.25115-0.98037 0.02252-1.9055 0.56575-2.8861 0.56999-0.88888 0.0038-1.7321-0.46495-2.6205-0.49403-0.76794-0.02514-1.6889 0.22351-2.2882 0.27802s-1.0529 0.07529-1.4149 0.07441c-0.72399-0.0019-1.081-0.08926-1.4996-0.16226-0.56405-0.06692-1.0548-0.2143-1.494-0.41858-0.43918-0.20428-0.82653-0.46538-1.1839-0.75964-0.21968-0.18088-0.35814-0.1988-0.56005-0.39923-0.29667-0.04571-0.23253 0.03728-0.53219-0.06552 0 0 1.8044 2.3156 4.1349 2.4595 1.1795 0.07282 2.5838-0.41579 3.9517-0.46974 1.3349-0.05265 2.6403 0.33072 3.283 0.31832 0.67067-0.01291 1.7752-0.50006 2.8407-0.55242 1.0018-0.04923 1.9453 0.3208 3.1791 0.75448 2.2293 0.78354 4.3293-1.3942 5.0364-2.103-0.21962 0.13498-0.17704 0.03821-0.538 0.05363z" fill="#ff9393" opacity=".287"/> <path d="m105.8 91.654-0.24995 0.06442 0.38439 0.26489s0.73871 0.34357 1.6754 0.69091c0.46832 0.17367 0.98654 0.34841 1.4862 0.48162 0.49967 0.13321 0.98084 0.22466 1.3766 0.23254 0.52229 0.0104 1.162-0.08525 1.8278-0.23461s1.3578-0.3522 1.9844-0.55655c1.2532-0.40871 1.5874-0.59443 1.5874-0.59443l-0.42232-0.09637c-0.18276-0.06132-0.23464-0.05821-0.50417-0.17736 0 0-3.0738 1.4016-4.748 1.1772-1.7145-0.0633-2.3518-1.1221-4.1393-1.2919-1.0412-0.09893 1.4906 0.5571-0.25847 0.03965z" fill="#ff9393" opacity=".287"/> <path d="m96.916 87.885a0.1323 0.1323 0 0 0-0.08544 0.23482c1.7807 1.4954 3.4562 3.2019 5.6516 3.8265 0.57975 0.16494 1.33 0.07946 2.0963-0.05512 0.76623-0.13458 1.5483-0.32349 2.1586-0.39357 1.2195-0.14003 1.9564 0.18524 3.1998 0.24309 1.1034 0.05134 1.9738-0.5091 3.3525-0.36711 0.68745 0.0708 1.4576 0.32604 2.2026 0.53909 0.74507 0.21305 1.4666 0.3889 2.0847 0.26789 2.3869-0.46725 4.0685-2.5865 6.0562-3.9864a0.1323 0.1323 0 1 0-0.15213-0.21608c-2.0316 1.4308-3.6952 3.5004-5.9553 3.9428-0.52979 0.10371-1.2234-0.0521-1.9607-0.26293-0.73731-0.21083-1.5173-0.47205-2.2484-0.54736-1.4586-0.15022-2.3646 0.41211-3.3674 0.36546-1.2011-0.05588-1.9652-0.38807-3.2422-0.24143-0.63798 0.07326-1.4194 0.26323-2.174 0.39577s-1.4825 0.20224-1.9783 0.06118c-2.1068-0.59939-3.76-2.2685-5.5535-3.7747a0.1323 0.1323 0 0 0-0.08489-0.03197z" color="#000000" color-rendering="auto" dominant-baseline="auto" enable-background="accumulate" fill="#f2afaf" image-rendering="auto" shape-rendering="auto" solid-color="#000000" style="font-feature-settings:normal;font-variant-alternates:normal;font-variant-caps:normal;font-variant-ligatures:normal;font-variant-numeric:normal;font-variant-position:normal;isolation:auto;mix-blend-mode:normal;shape-padding:0;text-decoration-color:#000000;text-decoration-line:none;text-decoration-style:solid;text-indent:0;text-orientation:mixed;text-transform:none;white-space:normal"/> <path d="m145.39 60.342c-9.178-1.0416-18.338-2.0365-22.345 10.626 6.72-9.1864 14.608-9.323 22.345-10.626z" fill="#808080" opacity=".1"/> <path d="m75.476 60.342c9.178-1.0416 18.338-2.0365 22.345 10.626-6.72-9.1864-14.608-9.323-22.345-10.626z" fill="#808080" opacity=".1"/> <ellipse cx="130" cy="65.372" rx="2.4698" ry="2.3627" fill="#fff"/> </g> <path d="m95.947 68.284c19.148 7.9741 35.677 30.081 33.839 44.904 7.6996-14.931-3.1634-42.713-33.839-44.904z" fill="#dec2bb" opacity=".2"/> <path d="m96.825 67.582c-2.6193 12.478-11.207 23.666-18.793 34.132 7.2924-11.493 11.941-24.297 18.793-34.132z" fill="#dec2bb" opacity=".2"/> <path d="m96.579 68.514c-8.0858 22.152-48.455 63.484-11.392 89.062-5.9392-0.083-11.878-3.9109-17.818-12.556 0.74435 4.821 4.6176 10.268 13.144 16.644-11.74-5.5964-21.939-12.829-21.031-29.201l-6.1962 5.6109c10.287-16.801-7.6834-11.955 24.831-63.466-0.10115-6.7168 11.008-14.755 20.39-18.929 18.513-1.7576 36.735 8.2529 40.958 23.399 6.766 24.265-12.569 57.634-36.752 66.032 48.477-36.518 24.808-63.909-6.134-76.595z" fill="#c0a97d"/> <g transform="matrix(.6173 0 0 .6173 38.925 55.137)" stroke-width="1.62"> <path d="m89.052 5.5595c-8.5135 6.2161-24.356 20.44-24.224 29.192-51.87 82.912-23.56 77.735-37.285 94.261l7.6327-8.2881c-1.4718 26.522 6.498 31.824 21.507 43.83-13.011-12.469-13.672-20.758-14.878-28.567 9.6214 14.005 18.708 28.225 28.329 28.359-59.989-41.4 8.4433-107.47 21.623-143.38-7.5511-7.167-0.64587-16.911-2.7046-15.408z" fill="#e7ceaf" opacity=".375"/> <path d="m94.2 18.999c51.733 16.078 88.735 63.855 17.688 121.41 35.168-20.286 56.868-62.316 45.907-101.62-6.8416-24.536-40.973-37.327-57.531-35.232-11.963-3.7355-12.361 13.076-6.0638 15.448z" fill="#e7ceaf" opacity=".375"/> <path d="m74.132 20.367c-1.4004 0.98282-6.018 8.848-5.7498 9.3388 0.6397 1.3621 3.3025-2.8488 3.3025-2.8488s-2.6393 3.6078-1.8828 3.8674c0.81192 0.27856 2.0306-2.3552 3.1017-3.6215 0 0-2.6001 4.0889-1.7222 4.4856 1.0799 0.43373 2.9448-3.5904 2.9448-3.5904s-2.0452 4.0383-1.2684 4.3816c0.75346 0.41694 2.823-3.7961 2.823-3.7961s-1.8099 4.399-0.88295 3.5878c1.4086-1.2326 5.3632-7.523 5.0266-8.2704-0.61135-1.3576-3.9832 1.8067-3.9832 1.8067s3.0418-2.7133 1.9176-3.6247c-1.1529-0.93474-3.3372 2.6061-3.3372 2.6061 0.75148-1.0821 1.5891-2.1103 1.8062-3.5272-1.0054 0.60089-1.7678 1.7055-2.4376 3.0023 0 0 1.654-3.6844 0.34181-3.7974z" fill="#f2e7d8" opacity=".30068"/> <path d="m81.711 24.063c-1.4696 0.98282-6.3154 8.848-6.0339 9.3388 0.67131 1.3621 3.4656-2.8488 3.4656-2.8488s-2.7697 3.6078-1.9759 3.8674c0.85204 0.27856 2.1309-2.3552 3.255-3.6215 0 0-2.7286 4.0889-1.8074 4.4856 1.1333 0.43373 3.0903-3.5904 3.0903-3.5904s-2.1462 4.0383-1.3311 4.3816c0.79069 0.41694 2.9625-3.7961 2.9625-3.7961s-1.8994 4.399-0.92658 3.5878c1.4782-1.2326 5.6282-7.523 5.275-8.2704-0.64156-1.3576-4.1801 1.8067-4.1801 1.8067s3.1921-2.7133 2.0123-3.6247c-1.2099-0.93474-3.5021 2.6061-3.5021 2.6061 0.78862-1.0821 1.6676-2.1103 1.8955-3.5272-1.055 0.6009-1.8552 1.7055-2.558 3.0023 0 0 1.7358-3.6844 0.3587-3.7974z" fill="#f2e7d8" opacity=".30068"/> <path d="m129.65 25.684c1.7243 0.66668 8.6483 7.7769 8.4998 8.3706-0.30274 1.6191-4.2085-2.1362-4.2085-2.1362s3.7198 3.1212 3.0001 3.6006c-0.77255 0.51461-2.7493-1.9546-4.206-3.0111 0 0 3.8078 3.6428 2.998 4.3005-1.0106 0.75162-4.0339-3.0204-4.0339-3.0204s3.2152 3.7385 2.4967 4.3124c-0.67451 0.64585-3.962-3.2716-3.962-3.2716s3.0664 4.1849 1.882 3.5731c-1.7998-0.92976-7.6102-6.546-7.4592-7.4305 0.27441-1.6067 4.6398 0.84602 4.6398 0.84602s-3.9003-2.0625-2.9714-3.3335c0.95266-1.3035 4.1798 1.8691 4.1798 1.8691-1.0738-0.94698-2.2231-1.8135-2.829-3.2599 1.2099 0.36742 2.3012 1.3353 3.3472 2.5323 0 0-2.7123-3.4679-1.3735-3.9415z" fill="#f2e7d8" opacity=".30068"/> <path d="m136.14 20.78c3.0849-0.90992 9.1375 5.5395 7.4792 7.5379-0.25751 1.5077-3.6939-1.8717-3.6939-1.8717s3.2707 2.7967 2.6428 3.2592c-0.67394 0.49645-2.4158-1.7407-3.6958-2.6823 0 0 3.3501 3.2776 2.6442 3.9077-0.88123 0.7221-3.5452-2.6952-3.5452-2.6952s2.8318 3.3814 2.2054 3.9314c-0.5875 0.61554-3.4833-2.9299-3.4833-2.9299s2.7035 3.7988 1.6639 3.2622c-1.5798-0.81544-6.6921-5.8703-6.5639-6.6936 0.2329-1.4955 4.0656 0.66543 4.0656 0.66543s-3.4238-1.8113-2.6164-3.0125c0.82797-1.2318 3.6676 1.625 3.6676 1.625-0.94439-0.84992-1.9544-1.6233-2.4915-2.9479 1.0608 0.30953 2.0206 1.1783 2.9418 2.2606 0 0-2.3903-3.1436-1.2204-3.6164z" fill="#f2e7d8" opacity=".30068"/> <path d="m142.68 18.199c2.3415-0.54821 6.6786 2.7879 5.3728 3.8912-0.24014 0.81283-2.7114-0.93006-2.7114-0.93006s2.3652 1.4339 1.8799 1.6941c-0.52085 0.27925-1.7571-0.88501-2.6875-1.3643 0 0 2.4097 1.69 1.8607 2.0415-0.68334 0.40421-2.5742-1.3742-2.5742-1.3742s2.0178 1.7558 1.5309 2.0628c-0.45974 0.34133-2.5204-1.5011-2.5204-1.5011s1.9086 1.982 1.1458 1.715c-1.1591-0.40578-4.8346-3.0133-4.7129-3.4569 0.22137-0.80578 3.0277 0.27649 3.0277 0.27649s-2.5107-0.90301-1.8678-1.5624c0.65931-0.67626 2.6994 0.7984 2.6994 0.7984-0.68161-0.43674-1.4148-0.83122-1.7762-1.5303 0.78578 0.14494 1.4783 0.59152 2.1353 1.1532 0 0-1.6942-1.6371-0.80219-1.9135z" fill="#f2e7d8" opacity=".30068"/> </g> <path d="m144.35 140.67c-0.17601-0.70482-1.8277-2.1356-3.1016-3.1664s-4.5611-2.887-4.5611-2.887c-1.797-0.22161-3.281 4e-3 -4.4699 0.65191l-0.63856 0.60534c-0.87372 0.59007-0.87107 2.0728 0.18245 2.1886l2.9191-1.397-2.9647 1.4435c-1.4996 0.7077-0.76265 2.0574-0.0912 2.1886l2.3262-0.74505-2.3262 0.69848c-0.23623 0.65759-0.84778 0.98655 0.31928 2.0023l1.9613-0.65191-1.9613 0.60535c-0.0855 0.99338 0.39892 1.7074 1.5052 1.6298l1.2771 0.60534 2.4174 0.1397 2.2806 0.74503c4.0296-0.22895 5.5526-2.1472 4.926-4.6565z" fill="#f2ded7" stroke="#dec2bb" stroke-linecap="round" stroke-linejoin="round" stroke-width=".026458"/> <g transform="matrix(.6173 0 0 .6173 38.925 55.137)" stroke-width="1.62"> <path d="m92.281 373.59-0.34872 5.5796c2.3728 3.2265 5.4166 5.4464 9.4156 6.2334 3.4983-1.8786 6.6515-4.179 5.0129-12.336-3.3771 5.1232-7.8019 6.307-14.08 0.52309z" fill="#1a1a1a"/> <path d="m91.976 379.21 0.74104 3.1821c2.3506 2.1105 4.7693 3.5845 7.236 4.5334l-0.08718-1.9179c-3.4067-1.0908-5.6951-3.363-7.8899-5.7976z" fill="#333"/> <path d="m99.841 385 0.10259 1.927c1.0316 0.30873 2.0264 0.17656 3.0176 0l-0.10525-2.4464-1.5076 0.89734z" fill="#4d4d4d"/> <path d="m106.79 376.52c0.11163 2.0317 0.47723 4.248 0.0951 5.9156-1.0355 1.5111-2.5652 2.9787-3.9337 4.4898l-0.1053-2.4535c2.554-1.4936 3.9465-4.5918 3.9901-7.9673z" fill="#333"/> <path d="m131.41 368.47 1.3487 5.4253c-1.7523 3.6013-4.3461 6.3335-8.1378 7.8285-3.7796-1.2172-7.2959-2.9116-7.1544-11.23 4.2452 4.4306 8.8109 4.7974 13.943-2.0234z" fill="#1a1a1a"/> <path d="m132.73 373.95-0.15533 3.2636c-1.9317 2.4996-4.045 4.3854-6.3004 5.7634l-0.25993-1.9022c3.1543-1.687 4.9956-4.3344 6.7157-7.1248z" fill="#333"/> <path d="m126.03 381.06 0.24642 1.9139c-1.4714 0.72001-2.1668 0.57276-2.9681 0.54392l-0.33743-2.4253 1.6447 0.61089z" fill="#4d4d4d"/> <path d="m117.67 373.97c0.25642 2.0185 0.2963 4.2645 0.97274 5.8358 1.2909 1.2998 3.0601 2.4675 4.6786 3.7072l-0.33867-2.4323c-2.7814-1.0087-4.7095-3.8052-5.3608-7.1176z" fill="#333"/> </g> <path d="m96.861 268.54a3.1512 2.7399 0 0 0 3.129 2.4288 3.1512 2.7399 0 0 0 3.1512-2.7395 3.1512 2.7399 0 0 0-3e-3 -0.0513 4.8552 4.3591 0 0 1-0.0635 0.0501 3.118 1.5862 0 0 1 0 4.2e-4 3.118 1.5862 0 0 1-0.0155 0.15813 3.118 1.5862 0 0 1-0.0466 0.15685 3.118 1.5862 0 0 1-0.0771 0.15343 3.118 1.5862 0 0 1-0.10677 0.14915 3.118 1.5862 0 0 1-0.13567 0.14276 3.118 1.5862 0 0 1-0.16279 0.13502 3.118 1.5862 0 0 1-0.18875 0.12653 3.118 1.5862 0 0 1-0.21235 0.11581 3.118 1.5862 0 0 1-0.23418 0.10466 3.118 1.5862 0 0 1-0.25362 0.0923 3.118 1.5862 0 0 1-0.27036 0.0786 3.118 1.5862 0 0 1-0.2845 0.0651 3.118 1.5862 0 0 1-0.29571 0.0501 3.118 1.5862 0 0 1-0.30417 0.0346 3.118 1.5862 0 0 1-0.30928 0.0193 3.118 1.5862 0 0 1-0.2206 4e-3 3.118 1.5862 0 0 1-0.31124-8e-3 3.118 1.5862 0 0 1-0.3083-0.0239 3.118 1.5862 0 0 1-0.30181-0.0393 3.118 1.5862 0 0 1-0.29276-0.0543 3.118 1.5862 0 0 1-0.28077-0.0688 3.118 1.5862 0 0 1-0.26563-0.0829 3.118 1.5862 0 0 1-0.24813-0.0962 3.118 1.5862 0 0 1-0.22807-0.10815 3.118 1.5862 0 0 1-0.20566-0.11875 3.118 1.5862 0 0 1-0.18128-0.12908 3.118 1.5862 0 0 1-0.15513-0.13762 3.118 1.5862 0 0 1-0.12741-0.14487 3.118 1.5862 0 0 1-0.09811-0.15044 3.118 1.5862 0 0 1-0.03225-0.0727 4.8552 4.3591 0 0 1-0.05918-0.0407z" fill="#333"/> <path d="m78.785 274.55a7.8772 3.2536 0 0 0 0.09602 0.0303 5.0588 1.184 0 0 1-0.0587-0.0612 5.0588 1.184 0 0 1-0.06092-0.11739 5.0588 1.184 0 0 1-0.01245-0.0836 5.1126 2.045 0 0 0 0.03604 0.2319z" fill="#333"/> <path d="m110.29 266.71a2.6239 3.1081 79.692 0 0 3.5399 1.6122 2.6239 3.1081 79.692 0 0 2.4448-3.2162 2.6239 3.1081 79.692 0 0-0.014-0.0471 4.1744 4.7891 80.227 0 1-0.0504 0.0599 1.5194 3.0748 78.003 0 1 8e-5 4.1e-4 1.5194 3.0748 78.003 0 1 0.0193 0.15082 1.5194 3.0748 78.003 0 1-0.011 0.15614 1.5194 3.0748 78.003 0 1-0.0411 0.15933 1.5194 3.0748 78.003 0 1-0.0706 0.16155 1.5194 3.0748 78.003 0 1-0.0999 0.16162 1.5194 3.0748 78.003 0 1-0.12771 0.16009 1.5194 3.0748 78.003 0 1-0.15455 0.15759 1.5194 3.0748 78.003 0 1-0.17961 0.1525 1.5194 3.0748 78.003 0 1-0.20306 0.14669 1.5194 3.0748 78.003 0 1-0.22447 0.13922 1.5194 3.0748 78.003 0 1-0.24353 0.12995 1.5194 3.0748 78.003 0 1-0.26011 0.12029 1.5194 3.0748 78.003 0 1-0.27413 0.1086 1.5194 3.0748 78.003 0 1-0.28565 0.0959 1.5194 3.0748 78.003 0 1-0.29386 0.0827 1.5194 3.0748 78.003 0 1-0.21165 0.0502 1.5194 3.0748 78.003 0 1-0.30165 0.0576 1.5194 3.0748 78.003 0 1-0.30226 0.0423 1.5194 3.0748 78.003 0 1-0.29931 0.0266 1.5194 3.0748 78.003 0 1-0.29384 0.0106 1.5194 3.0748 78.003 0 1-0.28543-5e-3 1.5194 3.0748 78.003 0 1-0.27389-0.0218 1.5194 3.0748 78.003 0 1-0.25989-0.0379 1.5194 3.0748 78.003 0 1-0.24314-0.0532 1.5194 3.0748 78.003 0 1-0.22385-0.0679 1.5194 3.0748 78.003 0 1-0.20256-0.0826 1.5194 3.0748 78.003 0 1-0.17923-0.096 1.5194 3.0748 78.003 0 1-0.15407-0.10857 1.5194 3.0748 78.003 0 1-0.12704-0.11988 1.5194 3.0748 78.003 0 1-0.0468-0.0611 4.1744 4.7891 80.227 0 1-0.0658-0.0256z" fill="#333"/> <g transform="matrix(.6173 0 0 .6173 38.925 55.137)" stroke-width="1.62"> <path transform="scale(.26458)" d="m413.3-318.56c-14.845-0.55784-86.258 61.612-126.8 92.934 12.144 17.134 26.148 21.248 40.52 22.793-11.747-6.8856-28.066-12.057-22.791-25.326l81.883-51.494c29.133 0.55627 29.78 20.105 40.52 32.924-29.563 40.298-85.03 64.405-130.84 94.547l16.883 22.791c13.604-4.8158 20.251-19.371 43.896-10.129l-54.027 70.91 16.885 10.129c-32.749 15.947-53.211 35.307-45.586 62.469l-14.35 65.002 0.81446 0.03906-13.479 18.531c-39.819-4.1864-41.644 1.1267-62.467 1.6895-24.257 28.826-50.074 50.891-81.039 50.65 186.67 122.84 415.73-6.3513 643.25 54.025-40.504-43.302-85.227-84.245-157.94-109.55l-10.051-82.076c-15.647-13.082-22.621-37.007-20.26-72.6l-34.611-21.104c0.62143-12.1 13.939-24.199 25.326-36.299-16.131-21.405-32.001-42.915-59.092-59.936-19.22-6.3503-40.168 1.1314-61.623 12.662-1.0714-24.583 29.613-42.814 48.961-63.312-35.575-15.879-42.753-76.135-63.312-80.195-0.20678-0.0408-0.42843-0.0673-0.66406-0.0762z" fill="#1a1a1a"/> <path d="m72.611 0.93761-3.9325 16.573c35.067-1.4644 61.713-3.9441 87.077 3.0898l-2.6685-20.084c-27.914-4.2121-53.968-0.98734-80.476 0.42134z" fill="#333"/> <path d="m97.106-2.0185c-2.7145 0.49279-4.9795 2.2212-4.9795 4.9801v10.697c0 2.7589 2.2281 5.1826 4.9795 4.9801 9.1432-0.67312 17.725-1.4468 26.587 0 2.7228 0.44452 4.9795-2.2212 4.9795-4.9801v-10.697c0-2.7589-2.2741-4.4399-4.9795-4.9801-8.441-1.6854-17.303-1.6854-26.587 0zm2.8122 2.1849c7.2684-1.6854 14.537-1.264 20.963 0 2.1344 0.41986 3.9264 1.7511 3.9264 3.9264v8.4341c0 2.1753-1.7872 4.3213-3.9264 3.9264-6.8471-1.264-13.835-0.70224-20.963 0-2.1648 0.21327-3.9264-1.7511-3.9264-3.9264v-8.4341c0-2.1753 1.8073-3.435 3.9264-3.9264z" fill="#c8ab37"/> </g> </svg>