<?xml version="1.0" encoding="UTF-8" standalone="no"?>
<!DOCTYPE svg PUBLIC "-//W3C//DTD SVG 1.1//EN"
 "http://www.w3.org/Graphics/SVG/1.1/DTD/svg11.dtd">
<!-- Generated by graphviz version 2.43.0 (0)
 -->
<!-- Title: DOM Pages: 1 -->
<svg width="1914pt" height="497pt"
 viewBox="0.00 0.00 1914.00 497.00" xmlns="http://www.w3.org/2000/svg" xmlns:xlink="http://www.w3.org/1999/xlink">
<g id="graph0" class="graph" transform="scale(1 1) rotate(0) translate(4 493)">
<title>DOM</title>
<polygon fill="white" stroke="transparent" points="-4,4 -4,-493 1910,-493 1910,4 -4,4"/>
<!-- node0 -->
<g id="node1" class="node">
<title>node0</title>
<path fill="#ffe6e6" stroke="black" d="M1021,-489C1021,-489 991,-489 991,-489 985,-489 979,-483 979,-477 979,-477 979,-465 979,-465 979,-459 985,-453 991,-453 991,-453 1021,-453 1021,-453 1027,-453 1033,-459 1033,-465 1033,-465 1033,-477 1033,-477 1033,-483 1027,-489 1021,-489"/>
<text text-anchor="middle" x="1006" y="-467.3" font-family="Arial" font-size="14.00">html</text>
</g>
<!-- node1 -->
<g id="node2" class="node">
<title>node1</title>
<path fill="#e6f3ff" stroke="black" d="M690,-417C690,-417 660,-417 660,-417 654,-417 648,-411 648,-405 648,-405 648,-393 648,-393 648,-387 654,-381 660,-381 660,-381 690,-381 690,-381 696,-381 702,-387 702,-393 702,-393 702,-405 702,-405 702,-411 696,-417 690,-417"/>
<text text-anchor="middle" x="675" y="-395.3" font-family="Arial" font-size="14.00">head</text>
</g>
<!-- node0&#45;&gt;node1 -->
<g id="edge1" class="edge">
<title>node0&#45;&gt;node1</title>
<path fill="none" stroke="black" d="M978.91,-464.27C920,-451.81 780.09,-422.22 712.64,-407.96"/>
<polygon fill="black" stroke="black" points="712.97,-404.45 702.46,-405.81 711.52,-411.3 712.97,-404.45"/>
</g>
<!-- node20 -->
<g id="node21" class="node">
<title>node20</title>
<path fill="#e6ffe6" stroke="black" d="M1390,-417C1390,-417 1360,-417 1360,-417 1354,-417 1348,-411 1348,-405 1348,-405 1348,-393 1348,-393 1348,-387 1354,-381 1360,-381 1360,-381 1390,-381 1390,-381 1396,-381 1402,-387 1402,-393 1402,-393 1402,-405 1402,-405 1402,-411 1396,-417 1390,-417"/>
<text text-anchor="middle" x="1375" y="-395.3" font-family="Arial" font-size="14.00">body</text>
</g>
<!-- node0&#45;&gt;node20 -->
<g id="edge20" class="edge">
<title>node0&#45;&gt;node20</title>
<path fill="none" stroke="black" d="M1033.13,-464.85C1098.31,-452.49 1263.76,-421.1 1337.98,-407.02"/>
<polygon fill="black" stroke="black" points="1338.65,-410.46 1347.83,-405.15 1337.35,-403.58 1338.65,-410.46"/>
</g>
<!-- node2 -->
<g id="node3" class="node">
<title>node2</title>
<path fill="#ffffff" stroke="black" d="M42,-344C42,-344 12,-344 12,-344 6,-344 0,-338 0,-332 0,-332 0,-320 0,-320 0,-314 6,-308 12,-308 12,-308 42,-308 42,-308 48,-308 54,-314 54,-320 54,-320 54,-332 54,-332 54,-338 48,-344 42,-344"/>
<text text-anchor="middle" x="27" y="-322.3" font-family="Arial" font-size="14.00">meta</text>
</g>
<!-- node1&#45;&gt;node2 -->
<g id="edge2" class="edge">
<title>node1&#45;&gt;node2</title>
<path fill="none" stroke="black" d="M647.74,-397C546.84,-393.09 194.07,-377.57 63.81,-344.49"/>
<polygon fill="black" stroke="black" points="64.65,-341.09 54.09,-341.87 62.83,-347.85 64.65,-341.09"/>
</g>
<!-- node3 -->
<g id="node4" class="node">
<title>node3</title>
<path fill="#ffffff" stroke="black" d="M114,-344C114,-344 84,-344 84,-344 78,-344 72,-338 72,-332 72,-332 72,-320 72,-320 72,-314 78,-308 84,-308 84,-308 114,-308 114,-308 120,-308 126,-314 126,-320 126,-320 126,-332 126,-332 126,-338 120,-344 114,-344"/>
<text text-anchor="middle" x="99" y="-322.3" font-family="Arial" font-size="14.00">meta</text>
</g>
<!-- node1&#45;&gt;node3 -->
<g id="edge3" class="edge">
<title>node1&#45;&gt;node3</title>
<path fill="none" stroke="black" d="M647.73,-396.64C554.99,-391.81 251.6,-374.35 136.04,-344.57"/>
<polygon fill="black" stroke="black" points="136.67,-341.11 126.1,-341.83 134.81,-347.86 136.67,-341.11"/>
</g>
<!-- node4 -->
<g id="node5" class="node">
<title>node4</title>
<path fill="#ffffff" stroke="black" d="M186,-344C186,-344 156,-344 156,-344 150,-344 144,-338 144,-332 144,-332 144,-320 144,-320 144,-314 150,-308 156,-308 156,-308 186,-308 186,-308 192,-308 198,-314 198,-320 198,-320 198,-332 198,-332 198,-338 192,-344 186,-344"/>
<text text-anchor="middle" x="171" y="-322.3" font-family="Arial" font-size="14.00">meta</text>
</g>
<!-- node1&#45;&gt;node4 -->
<g id="edge4" class="edge">
<title>node1&#45;&gt;node4</title>
<path fill="none" stroke="black" d="M647.96,-398.21C576.5,-398.07 377.07,-393.3 207.93,-344.67"/>
<polygon fill="black" stroke="black" points="208.69,-341.25 198.11,-341.79 206.72,-347.96 208.69,-341.25"/>
</g>
<!-- node5 -->
<g id="node6" class="node">
<title>node5</title>
<path fill="#ffffff" stroke="black" d="M258,-344C258,-344 228,-344 228,-344 222,-344 216,-338 216,-332 216,-332 216,-320 216,-320 216,-314 222,-308 228,-308 228,-308 258,-308 258,-308 264,-308 270,-314 270,-320 270,-320 270,-332 270,-332 270,-338 264,-344 258,-344"/>
<text text-anchor="middle" x="243" y="-322.3" font-family="Arial" font-size="14.00">meta</text>
</g>
<!-- node1&#45;&gt;node5 -->
<g id="edge5" class="edge">
<title>node1&#45;&gt;node5</title>
<path fill="none" stroke="black" d="M647.93,-397.43C584.35,-395.46 420.82,-386.69 279.81,-344.68"/>
<polygon fill="black" stroke="black" points="280.71,-341.29 270.13,-341.73 278.68,-347.99 280.71,-341.29"/>
</g>
<!-- node6 -->
<g id="node7" class="node">
<title>node6</title>
<path fill="#ffffff" stroke="black" d="M330,-344C330,-344 300,-344 300,-344 294,-344 288,-338 288,-332 288,-332 288,-320 288,-320 288,-314 294,-308 300,-308 300,-308 330,-308 330,-308 336,-308 342,-314 342,-320 342,-320 342,-332 342,-332 342,-338 336,-344 330,-344"/>
<text text-anchor="middle" x="315" y="-322.3" font-family="Arial" font-size="14.00">meta</text>
</g>
<!-- node1&#45;&gt;node6 -->
<g id="edge6" class="edge">
<title>node1&#45;&gt;node6</title>
<path fill="none" stroke="black" d="M647.9,-396.33C593.03,-392.37 465.08,-380.19 352,-344.8"/>
<polygon fill="black" stroke="black" points="352.75,-341.36 342.16,-341.64 350.61,-348.02 352.75,-341.36"/>
</g>
<!-- node7 -->
<g id="node8" class="node">
<title>node7</title>
<path fill="#ffffff" stroke="black" d="M402,-344C402,-344 372,-344 372,-344 366,-344 360,-338 360,-332 360,-332 360,-320 360,-320 360,-314 366,-308 372,-308 372,-308 402,-308 402,-308 408,-308 414,-314 414,-320 414,-320 414,-332 414,-332 414,-338 408,-344 402,-344"/>
<text text-anchor="middle" x="387" y="-322.3" font-family="Arial" font-size="14.00">meta</text>
</g>
<!-- node1&#45;&gt;node7 -->
<g id="edge7" class="edge">
<title>node1&#45;&gt;node7</title>
<path fill="none" stroke="black" d="M647.9,-394.63C602.76,-388.51 509.43,-373.79 423.8,-344.82"/>
<polygon fill="black" stroke="black" points="424.8,-341.47 414.2,-341.51 422.51,-348.08 424.8,-341.47"/>
</g>
<!-- node8 -->
<g id="node9" class="node">
<title>node8</title>
<path fill="#ffffff" stroke="black" d="M474,-344C474,-344 444,-344 444,-344 438,-344 432,-338 432,-332 432,-332 432,-320 432,-320 432,-314 438,-308 444,-308 444,-308 474,-308 474,-308 480,-308 486,-314 486,-320 486,-320 486,-332 486,-332 486,-338 480,-344 474,-344"/>
<text text-anchor="middle" x="459" y="-322.3" font-family="Arial" font-size="14.00">meta</text>
</g>
<!-- node1&#45;&gt;node8 -->
<g id="edge8" class="edge">
<title>node1&#45;&gt;node8</title>
<path fill="none" stroke="black" d="M647.97,-391.64C614.12,-383.33 554.36,-367.53 495.69,-344.95"/>
<polygon fill="black" stroke="black" points="496.88,-341.66 486.29,-341.27 494.32,-348.18 496.88,-341.66"/>
</g>
<!-- node9 -->
<g id="node10" class="node">
<title>node9</title>
<path fill="#ffffff" stroke="black" d="M546,-344C546,-344 516,-344 516,-344 510,-344 504,-338 504,-332 504,-332 504,-320 504,-320 504,-314 510,-308 516,-308 516,-308 546,-308 546,-308 552,-308 558,-314 558,-320 558,-320 558,-332 558,-332 558,-338 552,-344 546,-344"/>
<text text-anchor="middle" x="531" y="-322.3" font-family="Arial" font-size="14.00">title</text>
</g>
<!-- node1&#45;&gt;node9 -->
<g id="edge9" class="edge">
<title>node1&#45;&gt;node9</title>
<path fill="none" stroke="black" d="M647.9,-384.77C627.92,-375 599.86,-361.25 567.39,-345.18"/>
<polygon fill="black" stroke="black" points="568.63,-341.89 558.12,-340.58 565.52,-348.16 568.63,-341.89"/>
</g>
<!-- node10 -->
<g id="node11" class="node">
<title>node10</title>
<path fill="#ffffff" stroke="black" d="M618,-344C618,-344 588,-344 588,-344 582,-344 576,-338 576,-332 576,-332 576,-320 576,-320 576,-314 582,-308 588,-308 588,-308 618,-308 618,-308 624,-308 630,-314 630,-320 630,-320 630,-332 630,-332 630,-338 624,-344 618,-344"/>
<text text-anchor="middle" x="603" y="-322.3" font-family="Arial" font-size="14.00">link</text>
</g>
<!-- node1&#45;&gt;node10 -->
<g id="edge10" class="edge">
<title>node1&#45;&gt;node10</title>
<path fill="none" stroke="black" d="M657.57,-380.81C648.55,-371.92 637.39,-360.91 627.51,-351.17"/>
<polygon fill="black" stroke="black" points="629.85,-348.56 620.27,-344.03 624.93,-353.54 629.85,-348.56"/>
</g>
<!-- node11 -->
<g id="node12" class="node">
<title>node11</title>
<path fill="#ffffff" stroke="black" d="M690,-344C690,-344 660,-344 660,-344 654,-344 648,-338 648,-332 648,-332 648,-320 648,-320 648,-314 654,-308 660,-308 660,-308 690,-308 690,-308 696,-308 702,-314 702,-320 702,-320 702,-332 702,-332 702,-338 696,-344 690,-344"/>
<text text-anchor="middle" x="675" y="-322.3" font-family="Arial" font-size="14.00">link</text>
</g>
<!-- node1&#45;&gt;node11 -->
<g id="edge11" class="edge">
<title>node1&#45;&gt;node11</title>
<path fill="none" stroke="black" d="M675,-380.81C675,-372.79 675,-363.05 675,-354.07"/>
<polygon fill="black" stroke="black" points="678.5,-354.03 675,-344.03 671.5,-354.03 678.5,-354.03"/>
</g>
<!-- node12 -->
<g id="node13" class="node">
<title>node12</title>
<path fill="#ffffff" stroke="black" d="M762,-344C762,-344 732,-344 732,-344 726,-344 720,-338 720,-332 720,-332 720,-320 720,-320 720,-314 726,-308 732,-308 732,-308 762,-308 762,-308 768,-308 774,-314 774,-320 774,-320 774,-332 774,-332 774,-338 768,-344 762,-344"/>
<text text-anchor="middle" x="747" y="-322.3" font-family="Arial" font-size="14.00">link</text>
</g>
<!-- node1&#45;&gt;node12 -->
<g id="edge12" class="edge">
<title>node1&#45;&gt;node12</title>
<path fill="none" stroke="black" d="M692.43,-380.81C701.45,-371.92 712.61,-360.91 722.49,-351.17"/>
<polygon fill="black" stroke="black" points="725.07,-353.54 729.73,-344.03 720.15,-348.56 725.07,-353.54"/>
</g>
<!-- node13 -->
<g id="node14" class="node">
<title>node13</title>
<path fill="#ffffff" stroke="black" d="M834,-344C834,-344 804,-344 804,-344 798,-344 792,-338 792,-332 792,-332 792,-320 792,-320 792,-314 798,-308 804,-308 804,-308 834,-308 834,-308 840,-308 846,-314 846,-320 846,-320 846,-332 846,-332 846,-338 840,-344 834,-344"/>
<text text-anchor="middle" x="819" y="-322.3" font-family="Arial" font-size="14.00">link</text>
</g>
<!-- node1&#45;&gt;node13 -->
<g id="edge13" class="edge">
<title>node1&#45;&gt;node13</title>
<path fill="none" stroke="black" d="M702.1,-384.77C722.08,-375 750.14,-361.25 782.61,-345.18"/>
<polygon fill="black" stroke="black" points="784.48,-348.16 791.88,-340.58 781.37,-341.89 784.48,-348.16"/>
</g>
<!-- node14 -->
<g id="node15" class="node">
<title>node14</title>
<path fill="#ffffff" stroke="black" d="M906,-344C906,-344 876,-344 876,-344 870,-344 864,-338 864,-332 864,-332 864,-320 864,-320 864,-314 870,-308 876,-308 876,-308 906,-308 906,-308 912,-308 918,-314 918,-320 918,-320 918,-332 918,-332 918,-338 912,-344 906,-344"/>
<text text-anchor="middle" x="891" y="-322.3" font-family="Arial" font-size="14.00">link</text>
</g>
<!-- node1&#45;&gt;node14 -->
<g id="edge14" class="edge">
<title>node1&#45;&gt;node14</title>
<path fill="none" stroke="black" d="M702.03,-391.64C735.88,-383.33 795.64,-367.53 854.31,-344.95"/>
<polygon fill="black" stroke="black" points="855.68,-348.18 863.71,-341.27 853.12,-341.66 855.68,-348.18"/>
</g>
<!-- node15 -->
<g id="node16" class="node">
<title>node15</title>
<path fill="#ffffff" stroke="black" d="M978,-344C978,-344 948,-344 948,-344 942,-344 936,-338 936,-332 936,-332 936,-320 936,-320 936,-314 942,-308 948,-308 948,-308 978,-308 978,-308 984,-308 990,-314 990,-320 990,-320 990,-332 990,-332 990,-338 984,-344 978,-344"/>
<text text-anchor="middle" x="963" y="-322.3" font-family="Arial" font-size="14.00">link</text>
</g>
<!-- node1&#45;&gt;node15 -->
<g id="edge15" class="edge">
<title>node1&#45;&gt;node15</title>
<path fill="none" stroke="black" d="M702.1,-394.63C747.24,-388.51 840.57,-373.79 926.2,-344.82"/>
<polygon fill="black" stroke="black" points="927.49,-348.08 935.8,-341.51 925.2,-341.47 927.49,-348.08"/>
</g>
<!-- node16 -->
<g id="node17" class="node">
<title>node16</title>
<path fill="#ffffff" stroke="black" d="M1050,-344C1050,-344 1020,-344 1020,-344 1014,-344 1008,-338 1008,-332 1008,-332 1008,-320 1008,-320 1008,-314 1014,-308 1020,-308 1020,-308 1050,-308 1050,-308 1056,-308 1062,-314 1062,-320 1062,-320 1062,-332 1062,-332 1062,-338 1056,-344 1050,-344"/>
<text text-anchor="middle" x="1035" y="-322.3" font-family="Arial" font-size="14.00">link</text>
</g>
<!-- node1&#45;&gt;node16 -->
<g id="edge16" class="edge">
<title>node1&#45;&gt;node16</title>
<path fill="none" stroke="black" d="M702.1,-396.33C756.97,-392.37 884.92,-380.19 998,-344.8"/>
<polygon fill="black" stroke="black" points="999.39,-348.02 1007.84,-341.64 997.25,-341.36 999.39,-348.02"/>
</g>
<!-- node17 -->
<g id="node18" class="node">
<title>node17</title>
<path fill="#ffffff" stroke="black" d="M1122,-344C1122,-344 1092,-344 1092,-344 1086,-344 1080,-338 1080,-332 1080,-332 1080,-320 1080,-320 1080,-314 1086,-308 1092,-308 1092,-308 1122,-308 1122,-308 1128,-308 1134,-314 1134,-320 1134,-320 1134,-332 1134,-332 1134,-338 1128,-344 1122,-344"/>
<text text-anchor="middle" x="1107" y="-322.3" font-family="Arial" font-size="14.00">link</text>
</g>
<!-- node1&#45;&gt;node17 -->
<g id="edge17" class="edge">
<title>node1&#45;&gt;node17</title>
<path fill="none" stroke="black" d="M702.07,-397.43C765.65,-395.46 929.18,-386.69 1070.19,-344.68"/>
<polygon fill="black" stroke="black" points="1071.32,-347.99 1079.87,-341.73 1069.29,-341.29 1071.32,-347.99"/>
</g>
<!-- node18 -->
<g id="node19" class="node">
<title>node18</title>
<path fill="#ffffff" stroke="black" d="M1194,-344C1194,-344 1164,-344 1164,-344 1158,-344 1152,-338 1152,-332 1152,-332 1152,-320 1152,-320 1152,-314 1158,-308 1164,-308 1164,-308 1194,-308 1194,-308 1200,-308 1206,-314 1206,-320 1206,-320 1206,-332 1206,-332 1206,-338 1200,-344 1194,-344"/>
<text text-anchor="middle" x="1179" y="-322.3" font-family="Arial" font-size="14.00">link</text>
</g>
<!-- node1&#45;&gt;node18 -->
<g id="edge18" class="edge">
<title>node1&#45;&gt;node18</title>
<path fill="none" stroke="black" d="M702.04,-398.21C773.5,-398.07 972.93,-393.3 1142.07,-344.67"/>
<polygon fill="black" stroke="black" points="1143.28,-347.96 1151.89,-341.79 1141.31,-341.25 1143.28,-347.96"/>
</g>
<!-- node19 -->
<g id="node20" class="node">
<title>node19</title>
<path fill="#ffffff" stroke="black" d="M1276,-344C1276,-344 1236,-344 1236,-344 1230,-344 1224,-338 1224,-332 1224,-332 1224,-320 1224,-320 1224,-314 1230,-308 1236,-308 1236,-308 1276,-308 1276,-308 1282,-308 1288,-314 1288,-320 1288,-320 1288,-332 1288,-332 1288,-338 1282,-344 1276,-344"/>
<text text-anchor="middle" x="1256" y="-322.3" font-family="Arial" font-size="14.00">noscript</text>
</g>
<!-- node1&#45;&gt;node19 -->
<g id="edge19" class="edge">
<title>node1&#45;&gt;node19</title>
<path fill="none" stroke="black" d="M702.22,-398.33C780.98,-398.65 1015.66,-395.22 1213.95,-344.82"/>
<polygon fill="black" stroke="black" points="1214.86,-348.2 1223.66,-342.3 1213.1,-341.42 1214.86,-348.2"/>
</g>
<!-- node21 -->
<g id="node22" class="node">
<title>node21</title>
<path fill="#fff4e6" stroke="black" d="M1356,-345C1356,-345 1318,-345 1318,-345 1312,-345 1306,-339 1306,-333 1306,-333 1306,-319 1306,-319 1306,-313 1312,-307 1318,-307 1318,-307 1356,-307 1356,-307 1362,-307 1368,-313 1368,-319 1368,-319 1368,-333 1368,-333 1368,-339 1362,-345 1356,-345"/>
<text text-anchor="middle" x="1337" y="-329.8" font-family="Arial" font-size="14.00">header</text>
<text text-anchor="middle" x="1337" y="-314.8" font-family="Arial" font-size="14.00">.header</text>
</g>
<!-- node20&#45;&gt;node21 -->
<g id="edge21" class="edge">
<title>node20&#45;&gt;node21</title>
<path fill="none" stroke="black" d="M1365.8,-380.81C1361.5,-372.77 1356.27,-363 1351.46,-354.01"/>
<polygon fill="black" stroke="black" points="1354.45,-352.18 1346.64,-345.02 1348.28,-355.49 1354.45,-352.18"/>
</g>
<!-- node22 -->
<g id="node23" class="node">
<title>node22</title>
<path fill="#f0e6ff" stroke="black" d="M1428,-344C1428,-344 1398,-344 1398,-344 1392,-344 1386,-338 1386,-332 1386,-332 1386,-320 1386,-320 1386,-314 1392,-308 1398,-308 1398,-308 1428,-308 1428,-308 1434,-308 1440,-314 1440,-320 1440,-320 1440,-332 1440,-332 1440,-338 1434,-344 1428,-344"/>
<text text-anchor="middle" x="1413" y="-322.3" font-family="Arial" font-size="14.00">main</text>
</g>
<!-- node20&#45;&gt;node22 -->
<g id="edge22" class="edge">
<title>node20&#45;&gt;node22</title>
<path fill="none" stroke="black" d="M1384.2,-380.81C1388.68,-372.44 1394.16,-362.2 1399.14,-352.9"/>
<polygon fill="black" stroke="black" points="1402.25,-354.5 1403.89,-344.03 1396.08,-351.19 1402.25,-354.5"/>
</g>
<!-- node55 -->
<g id="node56" class="node">
<title>node55</title>
<path fill="#ffe6f0" stroke="black" d="M1501.5,-345C1501.5,-345 1470.5,-345 1470.5,-345 1464.5,-345 1458.5,-339 1458.5,-333 1458.5,-333 1458.5,-319 1458.5,-319 1458.5,-313 1464.5,-307 1470.5,-307 1470.5,-307 1501.5,-307 1501.5,-307 1507.5,-307 1513.5,-313 1513.5,-319 1513.5,-319 1513.5,-333 1513.5,-333 1513.5,-339 1507.5,-345 1501.5,-345"/>
<text text-anchor="middle" x="1486" y="-329.8" font-family="Arial" font-size="14.00">footer</text>
<text text-anchor="middle" x="1486" y="-314.8" font-family="Arial" font-size="14.00">.footer</text>
</g>
<!-- node20&#45;&gt;node55 -->
<g id="edge55" class="edge">
<title>node20&#45;&gt;node55</title>
<path fill="none" stroke="black" d="M1401.59,-380.99C1416.09,-371.72 1434.25,-360.1 1450,-350.02"/>
<polygon fill="black" stroke="black" points="1451.93,-352.95 1458.47,-344.61 1448.16,-347.05 1451.93,-352.95"/>
</g>
<!-- node23 -->
<g id="node24" class="node">
<title>node23</title>
<path fill="#ffffff" stroke="black" d="M1351,-263.5C1351,-263.5 1299,-263.5 1299,-263.5 1293,-263.5 1287,-257.5 1287,-251.5 1287,-251.5 1287,-237.5 1287,-237.5 1287,-231.5 1293,-225.5 1299,-225.5 1299,-225.5 1351,-225.5 1351,-225.5 1357,-225.5 1363,-231.5 1363,-237.5 1363,-237.5 1363,-251.5 1363,-251.5 1363,-257.5 1357,-263.5 1351,-263.5"/>
<text text-anchor="middle" x="1325" y="-248.3" font-family="Arial" font-size="14.00">h2</text>
<text text-anchor="middle" x="1325" y="-233.3" font-family="Arial" font-size="14.00">.page&#45;title</text>
</g>
<!-- node22&#45;&gt;node23 -->
<g id="edge23" class="edge">
<title>node22&#45;&gt;node23</title>
<path fill="none" stroke="black" d="M1393.91,-307.75C1381.82,-296.83 1366,-282.54 1352.56,-270.4"/>
<polygon fill="black" stroke="black" points="1354.74,-267.65 1344.97,-263.54 1350.05,-272.85 1354.74,-267.65"/>
</g>
<!-- node24 -->
<g id="node25" class="node">
<title>node24</title>
<path fill="#ffffcc" stroke="black" d="M1433,-271C1433,-271 1393,-271 1393,-271 1387,-271 1381,-265 1381,-259 1381,-259 1381,-230 1381,-230 1381,-224 1387,-218 1393,-218 1393,-218 1433,-218 1433,-218 1439,-218 1445,-224 1445,-230 1445,-230 1445,-259 1445,-259 1445,-265 1439,-271 1433,-271"/>
<text text-anchor="middle" x="1413" y="-255.8" font-family="Arial" font-size="14.00">section</text>
<text text-anchor="middle" x="1413" y="-240.8" font-family="Arial" font-size="14.00">#credits</text>
<text text-anchor="middle" x="1413" y="-225.8" font-family="Arial" font-size="14.00">.credits</text>
</g>
<!-- node22&#45;&gt;node24 -->
<g id="edge24" class="edge">
<title>node22&#45;&gt;node24</title>
<path fill="none" stroke="black" d="M1413,-307.75C1413,-299.99 1413,-290.51 1413,-281.32"/>
<polygon fill="black" stroke="black" points="1416.5,-281.18 1413,-271.18 1409.5,-281.18 1416.5,-281.18"/>
</g>
<!-- node51 -->
<g id="node52" class="node">
<title>node51</title>
<path fill="#ffffcc" stroke="black" d="M1628.5,-271C1628.5,-271 1559.5,-271 1559.5,-271 1553.5,-271 1547.5,-265 1547.5,-259 1547.5,-259 1547.5,-230 1547.5,-230 1547.5,-224 1553.5,-218 1559.5,-218 1559.5,-218 1628.5,-218 1628.5,-218 1634.5,-218 1640.5,-224 1640.5,-230 1640.5,-230 1640.5,-259 1640.5,-259 1640.5,-265 1634.5,-271 1628.5,-271"/>
<text text-anchor="middle" x="1594" y="-255.8" font-family="Arial" font-size="14.00">section</text>
<text text-anchor="middle" x="1594" y="-240.8" font-family="Arial" font-size="14.00">#site&#45;version</text>
<text text-anchor="middle" x="1594" y="-225.8" font-family="Arial" font-size="14.00">.credits</text>
</g>
<!-- node22&#45;&gt;node51 -->
<g id="edge51" class="edge">
<title>node22&#45;&gt;node51</title>
<path fill="none" stroke="black" d="M1440.04,-311.25C1443.05,-309.79 1446.08,-308.35 1449,-307 1478.09,-293.57 1510.93,-279.55 1538,-268.29"/>
<polygon fill="black" stroke="black" points="1539.41,-271.5 1547.31,-264.43 1536.73,-265.03 1539.41,-271.5"/>
</g>
<!-- node25 -->
<g id="node26" class="node">
<title>node25</title>
<path fill="#e6e6ff" stroke="black" d="M1386,-182C1386,-182 1356,-182 1356,-182 1350,-182 1344,-176 1344,-170 1344,-170 1344,-158 1344,-158 1344,-152 1350,-146 1356,-146 1356,-146 1386,-146 1386,-146 1392,-146 1398,-152 1398,-158 1398,-158 1398,-170 1398,-170 1398,-176 1392,-182 1386,-182"/>
<text text-anchor="middle" x="1371" y="-160.3" font-family="Arial" font-size="14.00">ul</text>
</g>
<!-- node24&#45;&gt;node25 -->
<g id="edge25" class="edge">
<title>node24&#45;&gt;node25</title>
<path fill="none" stroke="black" d="M1399.25,-217.8C1394.68,-209.26 1389.59,-199.75 1385,-191.17"/>
<polygon fill="black" stroke="black" points="1388.08,-189.5 1380.27,-182.33 1381.9,-192.8 1388.08,-189.5"/>
</g>
<!-- node26 -->
<g id="node27" class="node">
<title>node26</title>
<path fill="#f0f0ff" stroke="black" d="M810,-109C810,-109 780,-109 780,-109 774,-109 768,-103 768,-97 768,-97 768,-85 768,-85 768,-79 774,-73 780,-73 780,-73 810,-73 810,-73 816,-73 822,-79 822,-85 822,-85 822,-97 822,-97 822,-103 816,-109 810,-109"/>
<text text-anchor="middle" x="795" y="-87.3" font-family="Arial" font-size="14.00">li</text>
</g>
<!-- node25&#45;&gt;node26 -->
<g id="edge26" class="edge">
<title>node25&#45;&gt;node26</title>
<path fill="none" stroke="black" d="M1343.77,-161.48C1267.83,-156.96 1047.43,-141.88 867,-110 855.54,-107.97 843.2,-105.14 832.03,-102.31"/>
<polygon fill="black" stroke="black" points="832.72,-98.88 822.16,-99.75 830.96,-105.65 832.72,-98.88"/>
</g>
<!-- node28 -->
<g id="node29" class="node">
<title>node28</title>
<path fill="#f0f0ff" stroke="black" d="M918,-109C918,-109 888,-109 888,-109 882,-109 876,-103 876,-97 876,-97 876,-85 876,-85 876,-79 882,-73 888,-73 888,-73 918,-73 918,-73 924,-73 930,-79 930,-85 930,-85 930,-97 930,-97 930,-103 924,-109 918,-109"/>
<text text-anchor="middle" x="903" y="-87.3" font-family="Arial" font-size="14.00">li</text>
</g>
<!-- node25&#45;&gt;node28 -->
<g id="edge28" class="edge">
<title>node25&#45;&gt;node28</title>
<path fill="none" stroke="black" d="M1343.88,-159.19C1283.84,-150.71 1135.2,-129.49 1011,-110 987.38,-106.29 960.91,-101.89 940.08,-98.36"/>
<polygon fill="black" stroke="black" points="940.5,-94.88 930.05,-96.65 939.32,-101.78 940.5,-94.88"/>
</g>
<!-- node31 -->
<g id="node32" class="node">
<title>node31</title>
<path fill="#f0f0ff" stroke="black" d="M1062,-109C1062,-109 1032,-109 1032,-109 1026,-109 1020,-103 1020,-97 1020,-97 1020,-85 1020,-85 1020,-79 1026,-73 1032,-73 1032,-73 1062,-73 1062,-73 1068,-73 1074,-79 1074,-85 1074,-85 1074,-97 1074,-97 1074,-103 1068,-109 1062,-109"/>
<text text-anchor="middle" x="1047" y="-87.3" font-family="Arial" font-size="14.00">li</text>
</g>
<!-- node25&#45;&gt;node31 -->
<g id="edge31" class="edge">
<title>node25&#45;&gt;node31</title>
<path fill="none" stroke="black" d="M1343.93,-157.07C1286.04,-144.38 1150.12,-114.6 1084.18,-100.15"/>
<polygon fill="black" stroke="black" points="1084.74,-96.69 1074.22,-97.96 1083.24,-103.52 1084.74,-96.69"/>
</g>
<!-- node34 -->
<g id="node35" class="node">
<title>node34</title>
<path fill="#f0f0ff" stroke="black" d="M1206,-109C1206,-109 1176,-109 1176,-109 1170,-109 1164,-103 1164,-97 1164,-97 1164,-85 1164,-85 1164,-79 1170,-73 1176,-73 1176,-73 1206,-73 1206,-73 1212,-73 1218,-79 1218,-85 1218,-85 1218,-97 1218,-97 1218,-103 1212,-109 1206,-109"/>
<text text-anchor="middle" x="1191" y="-87.3" font-family="Arial" font-size="14.00">li</text>
</g>
<!-- node25&#45;&gt;node34 -->
<g id="edge34" class="edge">
<title>node25&#45;&gt;node34</title>
<path fill="none" stroke="black" d="M1343.66,-152.22C1312.69,-140 1262.07,-120.03 1227.68,-106.47"/>
<polygon fill="black" stroke="black" points="1228.59,-103.07 1218.01,-102.65 1226.02,-109.58 1228.59,-103.07"/>
</g>
<!-- node37 -->
<g id="node38" class="node">
<title>node37</title>
<path fill="#f0f0ff" stroke="black" d="M1350,-109C1350,-109 1320,-109 1320,-109 1314,-109 1308,-103 1308,-97 1308,-97 1308,-85 1308,-85 1308,-79 1314,-73 1320,-73 1320,-73 1350,-73 1350,-73 1356,-73 1362,-79 1362,-85 1362,-85 1362,-97 1362,-97 1362,-103 1356,-109 1350,-109"/>
<text text-anchor="middle" x="1335" y="-87.3" font-family="Arial" font-size="14.00">li</text>
</g>
<!-- node25&#45;&gt;node37 -->
<g id="edge37" class="edge">
<title>node25&#45;&gt;node37</title>
<path fill="none" stroke="black" d="M1362.29,-145.81C1358.08,-137.53 1352.95,-127.41 1348.28,-118.19"/>
<polygon fill="black" stroke="black" points="1351.28,-116.37 1343.63,-109.03 1345.04,-119.53 1351.28,-116.37"/>
</g>
<!-- node40 -->
<g id="node41" class="node">
<title>node40</title>
<path fill="#f0f0ff" stroke="black" d="M1422,-109C1422,-109 1392,-109 1392,-109 1386,-109 1380,-103 1380,-97 1380,-97 1380,-85 1380,-85 1380,-79 1386,-73 1392,-73 1392,-73 1422,-73 1422,-73 1428,-73 1434,-79 1434,-85 1434,-85 1434,-97 1434,-97 1434,-103 1428,-109 1422,-109"/>
<text text-anchor="middle" x="1407" y="-87.3" font-family="Arial" font-size="14.00">li</text>
</g>
<!-- node25&#45;&gt;node40 -->
<g id="edge40" class="edge">
<title>node25&#45;&gt;node40</title>
<path fill="none" stroke="black" d="M1379.71,-145.81C1383.92,-137.53 1389.05,-127.41 1393.72,-118.19"/>
<polygon fill="black" stroke="black" points="1396.96,-119.53 1398.37,-109.03 1390.72,-116.37 1396.96,-119.53"/>
</g>
<!-- node43 -->
<g id="node44" class="node">
<title>node43</title>
<path fill="#f0f0ff" stroke="black" d="M1566,-109C1566,-109 1536,-109 1536,-109 1530,-109 1524,-103 1524,-97 1524,-97 1524,-85 1524,-85 1524,-79 1530,-73 1536,-73 1536,-73 1566,-73 1566,-73 1572,-73 1578,-79 1578,-85 1578,-85 1578,-97 1578,-97 1578,-103 1572,-109 1566,-109"/>
<text text-anchor="middle" x="1551" y="-87.3" font-family="Arial" font-size="14.00">li</text>
</g>
<!-- node25&#45;&gt;node43 -->
<g id="edge43" class="edge">
<title>node25&#45;&gt;node43</title>
<path fill="none" stroke="black" d="M1398.34,-152.22C1429.31,-140 1479.93,-120.03 1514.32,-106.47"/>
<polygon fill="black" stroke="black" points="1515.98,-109.58 1523.99,-102.65 1513.41,-103.07 1515.98,-109.58"/>
</g>
<!-- node46 -->
<g id="node47" class="node">
<title>node46</title>
<path fill="#f0f0ff" stroke="black" d="M1674,-109C1674,-109 1644,-109 1644,-109 1638,-109 1632,-103 1632,-97 1632,-97 1632,-85 1632,-85 1632,-79 1638,-73 1644,-73 1644,-73 1674,-73 1674,-73 1680,-73 1686,-79 1686,-85 1686,-85 1686,-97 1686,-97 1686,-103 1680,-109 1674,-109"/>
<text text-anchor="middle" x="1659" y="-87.3" font-family="Arial" font-size="14.00">li</text>
</g>
<!-- node25&#45;&gt;node46 -->
<g id="edge46" class="edge">
<title>node25&#45;&gt;node46</title>
<path fill="none" stroke="black" d="M1398.29,-156.34C1439.27,-146.34 1519.16,-126.8 1587,-110 1598.39,-107.18 1610.8,-104.08 1622.05,-101.27"/>
<polygon fill="black" stroke="black" points="1623.15,-104.6 1632,-98.78 1621.45,-97.81 1623.15,-104.6"/>
</g>
<!-- node49 -->
<g id="node50" class="node">
<title>node49</title>
<path fill="#f0f0ff" stroke="black" d="M1746,-109C1746,-109 1716,-109 1716,-109 1710,-109 1704,-103 1704,-97 1704,-97 1704,-85 1704,-85 1704,-79 1710,-73 1716,-73 1716,-73 1746,-73 1746,-73 1752,-73 1758,-79 1758,-85 1758,-85 1758,-97 1758,-97 1758,-103 1752,-109 1746,-109"/>
<text text-anchor="middle" x="1731" y="-87.3" font-family="Arial" font-size="14.00">li</text>
</g>
<!-- node25&#45;&gt;node49 -->
<g id="edge49" class="edge">
<title>node25&#45;&gt;node49</title>
<path fill="none" stroke="black" d="M1398.1,-161.33C1452.97,-157.37 1580.92,-145.19 1694,-109.8"/>
<polygon fill="black" stroke="black" points="1695.39,-113.02 1703.84,-106.64 1693.25,-106.36 1695.39,-113.02"/>
</g>
<!-- node27 -->
<g id="node28" class="node">
<title>node27</title>
<path fill="#ffffff" stroke="black" d="M774,-36C774,-36 744,-36 744,-36 738,-36 732,-30 732,-24 732,-24 732,-12 732,-12 732,-6 738,0 744,0 744,0 774,0 774,0 780,0 786,-6 786,-12 786,-12 786,-24 786,-24 786,-30 780,-36 774,-36"/>
<text text-anchor="middle" x="759" y="-14.3" font-family="Arial" font-size="14.00">a</text>
</g>
<!-- node26&#45;&gt;node27 -->
<g id="edge27" class="edge">
<title>node26&#45;&gt;node27</title>
<path fill="none" stroke="black" d="M786.29,-72.81C782.08,-64.53 776.95,-54.41 772.28,-45.19"/>
<polygon fill="black" stroke="black" points="775.28,-43.37 767.63,-36.03 769.04,-46.53 775.28,-43.37"/>
</g>
<!-- node29 -->
<g id="node30" class="node">
<title>node29</title>
<path fill="#ffffff" stroke="black" d="M846,-36C846,-36 816,-36 816,-36 810,-36 804,-30 804,-24 804,-24 804,-12 804,-12 804,-6 810,0 816,0 816,0 846,0 846,0 852,0 858,-6 858,-12 858,-12 858,-24 858,-24 858,-30 852,-36 846,-36"/>
<text text-anchor="middle" x="831" y="-14.3" font-family="Arial" font-size="14.00">a</text>
</g>
<!-- node28&#45;&gt;node29 -->
<g id="edge29" class="edge">
<title>node28&#45;&gt;node29</title>
<path fill="none" stroke="black" d="M885.57,-72.81C876.55,-63.92 865.39,-52.91 855.51,-43.17"/>
<polygon fill="black" stroke="black" points="857.85,-40.56 848.27,-36.03 852.93,-45.54 857.85,-40.56"/>
</g>
<!-- node30 -->
<g id="node31" class="node">
<title>node30</title>
<path fill="#ffffff" stroke="black" d="M918,-36C918,-36 888,-36 888,-36 882,-36 876,-30 876,-24 876,-24 876,-12 876,-12 876,-6 882,0 888,0 888,0 918,0 918,0 924,0 930,-6 930,-12 930,-12 930,-24 930,-24 930,-30 924,-36 918,-36"/>
<text text-anchor="middle" x="903" y="-14.3" font-family="Arial" font-size="14.00">a</text>
</g>
<!-- node28&#45;&gt;node30 -->
<g id="edge30" class="edge">
<title>node28&#45;&gt;node30</title>
<path fill="none" stroke="black" d="M903,-72.81C903,-64.79 903,-55.05 903,-46.07"/>
<polygon fill="black" stroke="black" points="906.5,-46.03 903,-36.03 899.5,-46.03 906.5,-46.03"/>
</g>
<!-- node32 -->
<g id="node33" class="node">
<title>node32</title>
<path fill="#ffffff" stroke="black" d="M990,-36C990,-36 960,-36 960,-36 954,-36 948,-30 948,-24 948,-24 948,-12 948,-12 948,-6 954,0 960,0 960,0 990,0 990,0 996,0 1002,-6 1002,-12 1002,-12 1002,-24 1002,-24 1002,-30 996,-36 990,-36"/>
<text text-anchor="middle" x="975" y="-14.3" font-family="Arial" font-size="14.00">a</text>
</g>
<!-- node31&#45;&gt;node32 -->
<g id="edge32" class="edge">
<title>node31&#45;&gt;node32</title>
<path fill="none" stroke="black" d="M1029.57,-72.81C1020.55,-63.92 1009.39,-52.91 999.51,-43.17"/>
<polygon fill="black" stroke="black" points="1001.85,-40.56 992.27,-36.03 996.93,-45.54 1001.85,-40.56"/>
</g>
<!-- node33 -->
<g id="node34" class="node">
<title>node33</title>
<path fill="#ffffff" stroke="black" d="M1062,-36C1062,-36 1032,-36 1032,-36 1026,-36 1020,-30 1020,-24 1020,-24 1020,-12 1020,-12 1020,-6 1026,0 1032,0 1032,0 1062,0 1062,0 1068,0 1074,-6 1074,-12 1074,-12 1074,-24 1074,-24 1074,-30 1068,-36 1062,-36"/>
<text text-anchor="middle" x="1047" y="-14.3" font-family="Arial" font-size="14.00">a</text>
</g>
<!-- node31&#45;&gt;node33 -->
<g id="edge33" class="edge">
<title>node31&#45;&gt;node33</title>
<path fill="none" stroke="black" d="M1047,-72.81C1047,-64.79 1047,-55.05 1047,-46.07"/>
<polygon fill="black" stroke="black" points="1050.5,-46.03 1047,-36.03 1043.5,-46.03 1050.5,-46.03"/>
</g>
<!-- node35 -->
<g id="node36" class="node">
<title>node35</title>
<path fill="#ffffff" stroke="black" d="M1134,-36C1134,-36 1104,-36 1104,-36 1098,-36 1092,-30 1092,-24 1092,-24 1092,-12 1092,-12 1092,-6 1098,0 1104,0 1104,0 1134,0 1134,0 1140,0 1146,-6 1146,-12 1146,-12 1146,-24 1146,-24 1146,-30 1140,-36 1134,-36"/>
<text text-anchor="middle" x="1119" y="-14.3" font-family="Arial" font-size="14.00">a</text>
</g>
<!-- node34&#45;&gt;node35 -->
<g id="edge35" class="edge">
<title>node34&#45;&gt;node35</title>
<path fill="none" stroke="black" d="M1173.57,-72.81C1164.55,-63.92 1153.39,-52.91 1143.51,-43.17"/>
<polygon fill="black" stroke="black" points="1145.85,-40.56 1136.27,-36.03 1140.93,-45.54 1145.85,-40.56"/>
</g>
<!-- node36 -->
<g id="node37" class="node">
<title>node36</title>
<path fill="#ffffff" stroke="black" d="M1206,-36C1206,-36 1176,-36 1176,-36 1170,-36 1164,-30 1164,-24 1164,-24 1164,-12 1164,-12 1164,-6 1170,0 1176,0 1176,0 1206,0 1206,0 1212,0 1218,-6 1218,-12 1218,-12 1218,-24 1218,-24 1218,-30 1212,-36 1206,-36"/>
<text text-anchor="middle" x="1191" y="-14.3" font-family="Arial" font-size="14.00">a</text>
</g>
<!-- node34&#45;&gt;node36 -->
<g id="edge36" class="edge">
<title>node34&#45;&gt;node36</title>
<path fill="none" stroke="black" d="M1191,-72.81C1191,-64.79 1191,-55.05 1191,-46.07"/>
<polygon fill="black" stroke="black" points="1194.5,-46.03 1191,-36.03 1187.5,-46.03 1194.5,-46.03"/>
</g>
<!-- node38 -->
<g id="node39" class="node">
<title>node38</title>
<path fill="#ffffff" stroke="black" d="M1278,-36C1278,-36 1248,-36 1248,-36 1242,-36 1236,-30 1236,-24 1236,-24 1236,-12 1236,-12 1236,-6 1242,0 1248,0 1248,0 1278,0 1278,0 1284,0 1290,-6 1290,-12 1290,-12 1290,-24 1290,-24 1290,-30 1284,-36 1278,-36"/>
<text text-anchor="middle" x="1263" y="-14.3" font-family="Arial" font-size="14.00">a</text>
</g>
<!-- node37&#45;&gt;node38 -->
<g id="edge38" class="edge">
<title>node37&#45;&gt;node38</title>
<path fill="none" stroke="black" d="M1317.57,-72.81C1308.55,-63.92 1297.39,-52.91 1287.51,-43.17"/>
<polygon fill="black" stroke="black" points="1289.85,-40.56 1280.27,-36.03 1284.93,-45.54 1289.85,-40.56"/>
</g>
<!-- node39 -->
<g id="node40" class="node">
<title>node39</title>
<path fill="#ffffff" stroke="black" d="M1350,-36C1350,-36 1320,-36 1320,-36 1314,-36 1308,-30 1308,-24 1308,-24 1308,-12 1308,-12 1308,-6 1314,0 1320,0 1320,0 1350,0 1350,0 1356,0 1362,-6 1362,-12 1362,-12 1362,-24 1362,-24 1362,-30 1356,-36 1350,-36"/>
<text text-anchor="middle" x="1335" y="-14.3" font-family="Arial" font-size="14.00">a</text>
</g>
<!-- node37&#45;&gt;node39 -->
<g id="edge39" class="edge">
<title>node37&#45;&gt;node39</title>
<path fill="none" stroke="black" d="M1335,-72.81C1335,-64.79 1335,-55.05 1335,-46.07"/>
<polygon fill="black" stroke="black" points="1338.5,-46.03 1335,-36.03 1331.5,-46.03 1338.5,-46.03"/>
</g>
<!-- node41 -->
<g id="node42" class="node">
<title>node41</title>
<path fill="#ffffff" stroke="black" d="M1422,-36C1422,-36 1392,-36 1392,-36 1386,-36 1380,-30 1380,-24 1380,-24 1380,-12 1380,-12 1380,-6 1386,0 1392,0 1392,0 1422,0 1422,0 1428,0 1434,-6 1434,-12 1434,-12 1434,-24 1434,-24 1434,-30 1428,-36 1422,-36"/>
<text text-anchor="middle" x="1407" y="-14.3" font-family="Arial" font-size="14.00">a</text>
</g>
<!-- node40&#45;&gt;node41 -->
<g id="edge41" class="edge">
<title>node40&#45;&gt;node41</title>
<path fill="none" stroke="black" d="M1407,-72.81C1407,-64.79 1407,-55.05 1407,-46.07"/>
<polygon fill="black" stroke="black" points="1410.5,-46.03 1407,-36.03 1403.5,-46.03 1410.5,-46.03"/>
</g>
<!-- node42 -->
<g id="node43" class="node">
<title>node42</title>
<path fill="#ffffff" stroke="black" d="M1494,-36C1494,-36 1464,-36 1464,-36 1458,-36 1452,-30 1452,-24 1452,-24 1452,-12 1452,-12 1452,-6 1458,0 1464,0 1464,0 1494,0 1494,0 1500,0 1506,-6 1506,-12 1506,-12 1506,-24 1506,-24 1506,-30 1500,-36 1494,-36"/>
<text text-anchor="middle" x="1479" y="-14.3" font-family="Arial" font-size="14.00">a</text>
</g>
<!-- node40&#45;&gt;node42 -->
<g id="edge42" class="edge">
<title>node40&#45;&gt;node42</title>
<path fill="none" stroke="black" d="M1424.43,-72.81C1433.45,-63.92 1444.61,-52.91 1454.49,-43.17"/>
<polygon fill="black" stroke="black" points="1457.07,-45.54 1461.73,-36.03 1452.15,-40.56 1457.07,-45.54"/>
</g>
<!-- node44 -->
<g id="node45" class="node">
<title>node44</title>
<path fill="#ffffff" stroke="black" d="M1566,-36C1566,-36 1536,-36 1536,-36 1530,-36 1524,-30 1524,-24 1524,-24 1524,-12 1524,-12 1524,-6 1530,0 1536,0 1536,0 1566,0 1566,0 1572,0 1578,-6 1578,-12 1578,-12 1578,-24 1578,-24 1578,-30 1572,-36 1566,-36"/>
<text text-anchor="middle" x="1551" y="-14.3" font-family="Arial" font-size="14.00">a</text>
</g>
<!-- node43&#45;&gt;node44 -->
<g id="edge44" class="edge">
<title>node43&#45;&gt;node44</title>
<path fill="none" stroke="black" d="M1551,-72.81C1551,-64.79 1551,-55.05 1551,-46.07"/>
<polygon fill="black" stroke="black" points="1554.5,-46.03 1551,-36.03 1547.5,-46.03 1554.5,-46.03"/>
</g>
<!-- node45 -->
<g id="node46" class="node">
<title>node45</title>
<path fill="#ffffff" stroke="black" d="M1638,-36C1638,-36 1608,-36 1608,-36 1602,-36 1596,-30 1596,-24 1596,-24 1596,-12 1596,-12 1596,-6 1602,0 1608,0 1608,0 1638,0 1638,0 1644,0 1650,-6 1650,-12 1650,-12 1650,-24 1650,-24 1650,-30 1644,-36 1638,-36"/>
<text text-anchor="middle" x="1623" y="-14.3" font-family="Arial" font-size="14.00">a</text>
</g>
<!-- node43&#45;&gt;node45 -->
<g id="edge45" class="edge">
<title>node43&#45;&gt;node45</title>
<path fill="none" stroke="black" d="M1568.43,-72.81C1577.45,-63.92 1588.61,-52.91 1598.49,-43.17"/>
<polygon fill="black" stroke="black" points="1601.07,-45.54 1605.73,-36.03 1596.15,-40.56 1601.07,-45.54"/>
</g>
<!-- node47 -->
<g id="node48" class="node">
<title>node47</title>
<path fill="#ffffff" stroke="black" d="M1710,-36C1710,-36 1680,-36 1680,-36 1674,-36 1668,-30 1668,-24 1668,-24 1668,-12 1668,-12 1668,-6 1674,0 1680,0 1680,0 1710,0 1710,0 1716,0 1722,-6 1722,-12 1722,-12 1722,-24 1722,-24 1722,-30 1716,-36 1710,-36"/>
<text text-anchor="middle" x="1695" y="-14.3" font-family="Arial" font-size="14.00">a</text>
</g>
<!-- node46&#45;&gt;node47 -->
<g id="edge47" class="edge">
<title>node46&#45;&gt;node47</title>
<path fill="none" stroke="black" d="M1667.71,-72.81C1671.92,-64.53 1677.05,-54.41 1681.72,-45.19"/>
<polygon fill="black" stroke="black" points="1684.96,-46.53 1686.37,-36.03 1678.72,-43.37 1684.96,-46.53"/>
</g>
<!-- node48 -->
<g id="node49" class="node">
<title>node48</title>
<path fill="#ffffff" stroke="black" d="M1782,-36C1782,-36 1752,-36 1752,-36 1746,-36 1740,-30 1740,-24 1740,-24 1740,-12 1740,-12 1740,-6 1746,0 1752,0 1752,0 1782,0 1782,0 1788,0 1794,-6 1794,-12 1794,-12 1794,-24 1794,-24 1794,-30 1788,-36 1782,-36"/>
<text text-anchor="middle" x="1767" y="-14.3" font-family="Arial" font-size="14.00">a</text>
</g>
<!-- node46&#45;&gt;node48 -->
<g id="edge48" class="edge">
<title>node46&#45;&gt;node48</title>
<path fill="none" stroke="black" d="M1684.87,-72.99C1699.06,-63.67 1716.84,-51.97 1732.23,-41.86"/>
<polygon fill="black" stroke="black" points="1734.53,-44.53 1740.97,-36.11 1730.69,-38.68 1734.53,-44.53"/>
</g>
<!-- node50 -->
<g id="node51" class="node">
<title>node50</title>
<path fill="#ffffff" stroke="black" d="M1854,-36C1854,-36 1824,-36 1824,-36 1818,-36 1812,-30 1812,-24 1812,-24 1812,-12 1812,-12 1812,-6 1818,0 1824,0 1824,0 1854,0 1854,0 1860,0 1866,-6 1866,-12 1866,-12 1866,-24 1866,-24 1866,-30 1860,-36 1854,-36"/>
<text text-anchor="middle" x="1839" y="-14.3" font-family="Arial" font-size="14.00">a</text>
</g>
<!-- node49&#45;&gt;node50 -->
<g id="edge50" class="edge">
<title>node49&#45;&gt;node50</title>
<path fill="none" stroke="black" d="M1756.87,-72.99C1771.06,-63.67 1788.84,-51.97 1804.23,-41.86"/>
<polygon fill="black" stroke="black" points="1806.53,-44.53 1812.97,-36.11 1802.69,-38.68 1806.53,-44.53"/>
</g>
<!-- node52 -->
<g id="node53" class="node">
<title>node52</title>
<path fill="#ffffff" stroke="black" d="M1609,-182C1609,-182 1579,-182 1579,-182 1573,-182 1567,-176 1567,-170 1567,-170 1567,-158 1567,-158 1567,-152 1573,-146 1579,-146 1579,-146 1609,-146 1609,-146 1615,-146 1621,-152 1621,-158 1621,-158 1621,-170 1621,-170 1621,-176 1615,-182 1609,-182"/>
<text text-anchor="middle" x="1594" y="-160.3" font-family="Arial" font-size="14.00">h3</text>
</g>
<!-- node51&#45;&gt;node52 -->
<g id="edge52" class="edge">
<title>node51&#45;&gt;node52</title>
<path fill="none" stroke="black" d="M1594,-217.8C1594,-209.71 1594,-200.76 1594,-192.55"/>
<polygon fill="black" stroke="black" points="1597.5,-192.33 1594,-182.33 1590.5,-192.33 1597.5,-192.33"/>
</g>
<!-- node53 -->
<g id="node54" class="node">
<title>node53</title>
<path fill="#ffffff" stroke="black" d="M1813,-182C1813,-182 1783,-182 1783,-182 1777,-182 1771,-176 1771,-170 1771,-170 1771,-158 1771,-158 1771,-152 1777,-146 1783,-146 1783,-146 1813,-146 1813,-146 1819,-146 1825,-152 1825,-158 1825,-158 1825,-170 1825,-170 1825,-176 1819,-182 1813,-182"/>
<text text-anchor="middle" x="1798" y="-160.3" font-family="Arial" font-size="14.00">p</text>
</g>
<!-- node51&#45;&gt;node53 -->
<g id="edge53" class="edge">
<title>node51&#45;&gt;node53</title>
<path fill="none" stroke="black" d="M1640.55,-225.59C1677.15,-211.5 1727.44,-192.15 1761.25,-179.14"/>
<polygon fill="black" stroke="black" points="1762.68,-182.34 1770.75,-175.48 1760.16,-175.81 1762.68,-182.34"/>
</g>
<!-- node54 -->
<g id="node55" class="node">
<title>node54</title>
<path fill="#ffffff" stroke="black" d="M1894,-110C1894,-110 1788,-110 1788,-110 1782,-110 1776,-104 1776,-98 1776,-98 1776,-84 1776,-84 1776,-78 1782,-72 1788,-72 1788,-72 1894,-72 1894,-72 1900,-72 1906,-78 1906,-84 1906,-84 1906,-98 1906,-98 1906,-104 1900,-110 1894,-110"/>
<text text-anchor="middle" x="1841" y="-94.8" font-family="Arial" font-size="14.00">strong</text>
<text text-anchor="middle" x="1841" y="-79.8" font-family="Arial" font-size="14.00">#site&#45;version&#45;value</text>
</g>
<!-- node53&#45;&gt;node54 -->
<g id="edge54" class="edge">
<title>node53&#45;&gt;node54</title>
<path fill="none" stroke="black" d="M1808.41,-145.81C1813.33,-137.69 1819.32,-127.8 1824.81,-118.73"/>
<polygon fill="black" stroke="black" points="1827.9,-120.39 1830.09,-110.02 1821.91,-116.76 1827.9,-120.39"/>
</g>
</g>
</svg>
