<?xml version="1.0" encoding="UTF-8" standalone="no"?>
<!DOCTYPE svg PUBLIC "-//W3C//DTD SVG 1.1//EN"
 "http://www.w3.org/Graphics/SVG/1.1/DTD/svg11.dtd">
<!-- Generated by graphviz version 2.43.0 (0)
 -->
<!-- Title: DOM Pages: 1 -->
<svg width="2582pt" height="586pt"
 viewBox="0.00 0.00 2582.00 586.00" xmlns="http://www.w3.org/2000/svg" xmlns:xlink="http://www.w3.org/1999/xlink">
<g id="graph0" class="graph" transform="scale(1 1) rotate(0) translate(4 582)">
<title>DOM</title>
<polygon fill="white" stroke="transparent" points="-4,4 -4,-582 2578,-582 2578,4 -4,4"/>
<!-- node0 -->
<g id="node1" class="node">
<title>node0</title>
<path fill="#ffe6e6" stroke="black" d="M1341,-578C1341,-578 1311,-578 1311,-578 1305,-578 1299,-572 1299,-566 1299,-566 1299,-554 1299,-554 1299,-548 1305,-542 1311,-542 1311,-542 1341,-542 1341,-542 1347,-542 1353,-548 1353,-554 1353,-554 1353,-566 1353,-566 1353,-572 1347,-578 1341,-578"/>
<text text-anchor="middle" x="1326" y="-556.3" font-family="Arial" font-size="14.00">html</text>
</g>
<!-- node1 -->
<g id="node2" class="node">
<title>node1</title>
<path fill="#e6f3ff" stroke="black" d="M1010,-506C1010,-506 980,-506 980,-506 974,-506 968,-500 968,-494 968,-494 968,-482 968,-482 968,-476 974,-470 980,-470 980,-470 1010,-470 1010,-470 1016,-470 1022,-476 1022,-482 1022,-482 1022,-494 1022,-494 1022,-500 1016,-506 1010,-506"/>
<text text-anchor="middle" x="995" y="-484.3" font-family="Arial" font-size="14.00">head</text>
</g>
<!-- node0&#45;&gt;node1 -->
<g id="edge1" class="edge">
<title>node0&#45;&gt;node1</title>
<path fill="none" stroke="black" d="M1298.91,-553.27C1240,-540.81 1100.09,-511.22 1032.64,-496.96"/>
<polygon fill="black" stroke="black" points="1032.97,-493.45 1022.46,-494.81 1031.52,-500.3 1032.97,-493.45"/>
</g>
<!-- node20 -->
<g id="node21" class="node">
<title>node20</title>
<path fill="#e6ffe6" stroke="black" d="M1710,-506C1710,-506 1680,-506 1680,-506 1674,-506 1668,-500 1668,-494 1668,-494 1668,-482 1668,-482 1668,-476 1674,-470 1680,-470 1680,-470 1710,-470 1710,-470 1716,-470 1722,-476 1722,-482 1722,-482 1722,-494 1722,-494 1722,-500 1716,-506 1710,-506"/>
<text text-anchor="middle" x="1695" y="-484.3" font-family="Arial" font-size="14.00">body</text>
</g>
<!-- node0&#45;&gt;node20 -->
<g id="edge20" class="edge">
<title>node0&#45;&gt;node20</title>
<path fill="none" stroke="black" d="M1353.13,-553.85C1418.31,-541.49 1583.76,-510.1 1657.98,-496.02"/>
<polygon fill="black" stroke="black" points="1658.65,-499.46 1667.83,-494.15 1657.35,-492.58 1658.65,-499.46"/>
</g>
<!-- node2 -->
<g id="node3" class="node">
<title>node2</title>
<path fill="#ffffff" stroke="black" d="M362,-433C362,-433 332,-433 332,-433 326,-433 320,-427 320,-421 320,-421 320,-409 320,-409 320,-403 326,-397 332,-397 332,-397 362,-397 362,-397 368,-397 374,-403 374,-409 374,-409 374,-421 374,-421 374,-427 368,-433 362,-433"/>
<text text-anchor="middle" x="347" y="-411.3" font-family="Arial" font-size="14.00">meta</text>
</g>
<!-- node1&#45;&gt;node2 -->
<g id="edge2" class="edge">
<title>node1&#45;&gt;node2</title>
<path fill="none" stroke="black" d="M967.74,-486C866.84,-482.09 514.07,-466.57 383.81,-433.49"/>
<polygon fill="black" stroke="black" points="384.65,-430.09 374.09,-430.87 382.83,-436.85 384.65,-430.09"/>
</g>
<!-- node3 -->
<g id="node4" class="node">
<title>node3</title>
<path fill="#ffffff" stroke="black" d="M434,-433C434,-433 404,-433 404,-433 398,-433 392,-427 392,-421 392,-421 392,-409 392,-409 392,-403 398,-397 404,-397 404,-397 434,-397 434,-397 440,-397 446,-403 446,-409 446,-409 446,-421 446,-421 446,-427 440,-433 434,-433"/>
<text text-anchor="middle" x="419" y="-411.3" font-family="Arial" font-size="14.00">meta</text>
</g>
<!-- node1&#45;&gt;node3 -->
<g id="edge3" class="edge">
<title>node1&#45;&gt;node3</title>
<path fill="none" stroke="black" d="M967.73,-485.64C874.99,-480.81 571.6,-463.35 456.04,-433.57"/>
<polygon fill="black" stroke="black" points="456.67,-430.11 446.1,-430.83 454.81,-436.86 456.67,-430.11"/>
</g>
<!-- node4 -->
<g id="node5" class="node">
<title>node4</title>
<path fill="#ffffff" stroke="black" d="M506,-433C506,-433 476,-433 476,-433 470,-433 464,-427 464,-421 464,-421 464,-409 464,-409 464,-403 470,-397 476,-397 476,-397 506,-397 506,-397 512,-397 518,-403 518,-409 518,-409 518,-421 518,-421 518,-427 512,-433 506,-433"/>
<text text-anchor="middle" x="491" y="-411.3" font-family="Arial" font-size="14.00">meta</text>
</g>
<!-- node1&#45;&gt;node4 -->
<g id="edge4" class="edge">
<title>node1&#45;&gt;node4</title>
<path fill="none" stroke="black" d="M967.96,-487.21C896.5,-487.07 697.07,-482.3 527.93,-433.67"/>
<polygon fill="black" stroke="black" points="528.69,-430.25 518.11,-430.79 526.72,-436.96 528.69,-430.25"/>
</g>
<!-- node5 -->
<g id="node6" class="node">
<title>node5</title>
<path fill="#ffffff" stroke="black" d="M578,-433C578,-433 548,-433 548,-433 542,-433 536,-427 536,-421 536,-421 536,-409 536,-409 536,-403 542,-397 548,-397 548,-397 578,-397 578,-397 584,-397 590,-403 590,-409 590,-409 590,-421 590,-421 590,-427 584,-433 578,-433"/>
<text text-anchor="middle" x="563" y="-411.3" font-family="Arial" font-size="14.00">meta</text>
</g>
<!-- node1&#45;&gt;node5 -->
<g id="edge5" class="edge">
<title>node1&#45;&gt;node5</title>
<path fill="none" stroke="black" d="M967.93,-486.43C904.35,-484.46 740.82,-475.69 599.81,-433.68"/>
<polygon fill="black" stroke="black" points="600.71,-430.29 590.13,-430.73 598.68,-436.99 600.71,-430.29"/>
</g>
<!-- node6 -->
<g id="node7" class="node">
<title>node6</title>
<path fill="#ffffff" stroke="black" d="M650,-433C650,-433 620,-433 620,-433 614,-433 608,-427 608,-421 608,-421 608,-409 608,-409 608,-403 614,-397 620,-397 620,-397 650,-397 650,-397 656,-397 662,-403 662,-409 662,-409 662,-421 662,-421 662,-427 656,-433 650,-433"/>
<text text-anchor="middle" x="635" y="-411.3" font-family="Arial" font-size="14.00">meta</text>
</g>
<!-- node1&#45;&gt;node6 -->
<g id="edge6" class="edge">
<title>node1&#45;&gt;node6</title>
<path fill="none" stroke="black" d="M967.9,-485.33C913.03,-481.37 785.08,-469.19 672,-433.8"/>
<polygon fill="black" stroke="black" points="672.75,-430.36 662.16,-430.64 670.61,-437.02 672.75,-430.36"/>
</g>
<!-- node7 -->
<g id="node8" class="node">
<title>node7</title>
<path fill="#ffffff" stroke="black" d="M722,-433C722,-433 692,-433 692,-433 686,-433 680,-427 680,-421 680,-421 680,-409 680,-409 680,-403 686,-397 692,-397 692,-397 722,-397 722,-397 728,-397 734,-403 734,-409 734,-409 734,-421 734,-421 734,-427 728,-433 722,-433"/>
<text text-anchor="middle" x="707" y="-411.3" font-family="Arial" font-size="14.00">meta</text>
</g>
<!-- node1&#45;&gt;node7 -->
<g id="edge7" class="edge">
<title>node1&#45;&gt;node7</title>
<path fill="none" stroke="black" d="M967.9,-483.63C922.76,-477.51 829.43,-462.79 743.8,-433.82"/>
<polygon fill="black" stroke="black" points="744.8,-430.47 734.2,-430.51 742.51,-437.08 744.8,-430.47"/>
</g>
<!-- node8 -->
<g id="node9" class="node">
<title>node8</title>
<path fill="#ffffff" stroke="black" d="M794,-433C794,-433 764,-433 764,-433 758,-433 752,-427 752,-421 752,-421 752,-409 752,-409 752,-403 758,-397 764,-397 764,-397 794,-397 794,-397 800,-397 806,-403 806,-409 806,-409 806,-421 806,-421 806,-427 800,-433 794,-433"/>
<text text-anchor="middle" x="779" y="-411.3" font-family="Arial" font-size="14.00">title</text>
</g>
<!-- node1&#45;&gt;node8 -->
<g id="edge8" class="edge">
<title>node1&#45;&gt;node8</title>
<path fill="none" stroke="black" d="M967.97,-480.64C934.12,-472.33 874.36,-456.53 815.69,-433.95"/>
<polygon fill="black" stroke="black" points="816.88,-430.66 806.29,-430.27 814.32,-437.18 816.88,-430.66"/>
</g>
<!-- node9 -->
<g id="node10" class="node">
<title>node9</title>
<path fill="#ffffff" stroke="black" d="M866,-433C866,-433 836,-433 836,-433 830,-433 824,-427 824,-421 824,-421 824,-409 824,-409 824,-403 830,-397 836,-397 836,-397 866,-397 866,-397 872,-397 878,-403 878,-409 878,-409 878,-421 878,-421 878,-427 872,-433 866,-433"/>
<text text-anchor="middle" x="851" y="-411.3" font-family="Arial" font-size="14.00">link</text>
</g>
<!-- node1&#45;&gt;node9 -->
<g id="edge9" class="edge">
<title>node1&#45;&gt;node9</title>
<path fill="none" stroke="black" d="M967.9,-473.77C947.92,-464 919.86,-450.25 887.39,-434.18"/>
<polygon fill="black" stroke="black" points="888.63,-430.89 878.12,-429.58 885.52,-437.16 888.63,-430.89"/>
</g>
<!-- node10 -->
<g id="node11" class="node">
<title>node10</title>
<path fill="#ffffff" stroke="black" d="M938,-433C938,-433 908,-433 908,-433 902,-433 896,-427 896,-421 896,-421 896,-409 896,-409 896,-403 902,-397 908,-397 908,-397 938,-397 938,-397 944,-397 950,-403 950,-409 950,-409 950,-421 950,-421 950,-427 944,-433 938,-433"/>
<text text-anchor="middle" x="923" y="-411.3" font-family="Arial" font-size="14.00">link</text>
</g>
<!-- node1&#45;&gt;node10 -->
<g id="edge10" class="edge">
<title>node1&#45;&gt;node10</title>
<path fill="none" stroke="black" d="M977.57,-469.81C968.55,-460.92 957.39,-449.91 947.51,-440.17"/>
<polygon fill="black" stroke="black" points="949.85,-437.56 940.27,-433.03 944.93,-442.54 949.85,-437.56"/>
</g>
<!-- node11 -->
<g id="node12" class="node">
<title>node11</title>
<path fill="#ffffff" stroke="black" d="M1010,-433C1010,-433 980,-433 980,-433 974,-433 968,-427 968,-421 968,-421 968,-409 968,-409 968,-403 974,-397 980,-397 980,-397 1010,-397 1010,-397 1016,-397 1022,-403 1022,-409 1022,-409 1022,-421 1022,-421 1022,-427 1016,-433 1010,-433"/>
<text text-anchor="middle" x="995" y="-411.3" font-family="Arial" font-size="14.00">link</text>
</g>
<!-- node1&#45;&gt;node11 -->
<g id="edge11" class="edge">
<title>node1&#45;&gt;node11</title>
<path fill="none" stroke="black" d="M995,-469.81C995,-461.79 995,-452.05 995,-443.07"/>
<polygon fill="black" stroke="black" points="998.5,-443.03 995,-433.03 991.5,-443.03 998.5,-443.03"/>
</g>
<!-- node12 -->
<g id="node13" class="node">
<title>node12</title>
<path fill="#ffffff" stroke="black" d="M1082,-433C1082,-433 1052,-433 1052,-433 1046,-433 1040,-427 1040,-421 1040,-421 1040,-409 1040,-409 1040,-403 1046,-397 1052,-397 1052,-397 1082,-397 1082,-397 1088,-397 1094,-403 1094,-409 1094,-409 1094,-421 1094,-421 1094,-427 1088,-433 1082,-433"/>
<text text-anchor="middle" x="1067" y="-411.3" font-family="Arial" font-size="14.00">link</text>
</g>
<!-- node1&#45;&gt;node12 -->
<g id="edge12" class="edge">
<title>node1&#45;&gt;node12</title>
<path fill="none" stroke="black" d="M1012.43,-469.81C1021.45,-460.92 1032.61,-449.91 1042.49,-440.17"/>
<polygon fill="black" stroke="black" points="1045.07,-442.54 1049.73,-433.03 1040.15,-437.56 1045.07,-442.54"/>
</g>
<!-- node13 -->
<g id="node14" class="node">
<title>node13</title>
<path fill="#ffffff" stroke="black" d="M1154,-433C1154,-433 1124,-433 1124,-433 1118,-433 1112,-427 1112,-421 1112,-421 1112,-409 1112,-409 1112,-403 1118,-397 1124,-397 1124,-397 1154,-397 1154,-397 1160,-397 1166,-403 1166,-409 1166,-409 1166,-421 1166,-421 1166,-427 1160,-433 1154,-433"/>
<text text-anchor="middle" x="1139" y="-411.3" font-family="Arial" font-size="14.00">link</text>
</g>
<!-- node1&#45;&gt;node13 -->
<g id="edge13" class="edge">
<title>node1&#45;&gt;node13</title>
<path fill="none" stroke="black" d="M1022.1,-473.77C1042.08,-464 1070.14,-450.25 1102.61,-434.18"/>
<polygon fill="black" stroke="black" points="1104.48,-437.16 1111.88,-429.58 1101.37,-430.89 1104.48,-437.16"/>
</g>
<!-- node14 -->
<g id="node15" class="node">
<title>node14</title>
<path fill="#ffffff" stroke="black" d="M1226,-433C1226,-433 1196,-433 1196,-433 1190,-433 1184,-427 1184,-421 1184,-421 1184,-409 1184,-409 1184,-403 1190,-397 1196,-397 1196,-397 1226,-397 1226,-397 1232,-397 1238,-403 1238,-409 1238,-409 1238,-421 1238,-421 1238,-427 1232,-433 1226,-433"/>
<text text-anchor="middle" x="1211" y="-411.3" font-family="Arial" font-size="14.00">link</text>
</g>
<!-- node1&#45;&gt;node14 -->
<g id="edge14" class="edge">
<title>node1&#45;&gt;node14</title>
<path fill="none" stroke="black" d="M1022.03,-480.64C1055.88,-472.33 1115.64,-456.53 1174.31,-433.95"/>
<polygon fill="black" stroke="black" points="1175.68,-437.18 1183.71,-430.27 1173.12,-430.66 1175.68,-437.18"/>
</g>
<!-- node15 -->
<g id="node16" class="node">
<title>node15</title>
<path fill="#ffffff" stroke="black" d="M1298,-433C1298,-433 1268,-433 1268,-433 1262,-433 1256,-427 1256,-421 1256,-421 1256,-409 1256,-409 1256,-403 1262,-397 1268,-397 1268,-397 1298,-397 1298,-397 1304,-397 1310,-403 1310,-409 1310,-409 1310,-421 1310,-421 1310,-427 1304,-433 1298,-433"/>
<text text-anchor="middle" x="1283" y="-411.3" font-family="Arial" font-size="14.00">link</text>
</g>
<!-- node1&#45;&gt;node15 -->
<g id="edge15" class="edge">
<title>node1&#45;&gt;node15</title>
<path fill="none" stroke="black" d="M1022.1,-483.63C1067.24,-477.51 1160.57,-462.79 1246.2,-433.82"/>
<polygon fill="black" stroke="black" points="1247.49,-437.08 1255.8,-430.51 1245.2,-430.47 1247.49,-437.08"/>
</g>
<!-- node16 -->
<g id="node17" class="node">
<title>node16</title>
<path fill="#ffffff" stroke="black" d="M1370,-433C1370,-433 1340,-433 1340,-433 1334,-433 1328,-427 1328,-421 1328,-421 1328,-409 1328,-409 1328,-403 1334,-397 1340,-397 1340,-397 1370,-397 1370,-397 1376,-397 1382,-403 1382,-409 1382,-409 1382,-421 1382,-421 1382,-427 1376,-433 1370,-433"/>
<text text-anchor="middle" x="1355" y="-411.3" font-family="Arial" font-size="14.00">link</text>
</g>
<!-- node1&#45;&gt;node16 -->
<g id="edge16" class="edge">
<title>node1&#45;&gt;node16</title>
<path fill="none" stroke="black" d="M1022.1,-485.33C1076.97,-481.37 1204.92,-469.19 1318,-433.8"/>
<polygon fill="black" stroke="black" points="1319.39,-437.02 1327.84,-430.64 1317.25,-430.36 1319.39,-437.02"/>
</g>
<!-- node17 -->
<g id="node18" class="node">
<title>node17</title>
<path fill="#ffffff" stroke="black" d="M1442,-433C1442,-433 1412,-433 1412,-433 1406,-433 1400,-427 1400,-421 1400,-421 1400,-409 1400,-409 1400,-403 1406,-397 1412,-397 1412,-397 1442,-397 1442,-397 1448,-397 1454,-403 1454,-409 1454,-409 1454,-421 1454,-421 1454,-427 1448,-433 1442,-433"/>
<text text-anchor="middle" x="1427" y="-411.3" font-family="Arial" font-size="14.00">link</text>
</g>
<!-- node1&#45;&gt;node17 -->
<g id="edge17" class="edge">
<title>node1&#45;&gt;node17</title>
<path fill="none" stroke="black" d="M1022.07,-486.43C1085.65,-484.46 1249.18,-475.69 1390.19,-433.68"/>
<polygon fill="black" stroke="black" points="1391.32,-436.99 1399.87,-430.73 1389.29,-430.29 1391.32,-436.99"/>
</g>
<!-- node18 -->
<g id="node19" class="node">
<title>node18</title>
<path fill="#ffffff" stroke="black" d="M1514,-433C1514,-433 1484,-433 1484,-433 1478,-433 1472,-427 1472,-421 1472,-421 1472,-409 1472,-409 1472,-403 1478,-397 1484,-397 1484,-397 1514,-397 1514,-397 1520,-397 1526,-403 1526,-409 1526,-409 1526,-421 1526,-421 1526,-427 1520,-433 1514,-433"/>
<text text-anchor="middle" x="1499" y="-411.3" font-family="Arial" font-size="14.00">link</text>
</g>
<!-- node1&#45;&gt;node18 -->
<g id="edge18" class="edge">
<title>node1&#45;&gt;node18</title>
<path fill="none" stroke="black" d="M1022.04,-487.21C1093.5,-487.07 1292.93,-482.3 1462.07,-433.67"/>
<polygon fill="black" stroke="black" points="1463.28,-436.96 1471.89,-430.79 1461.31,-430.25 1463.28,-436.96"/>
</g>
<!-- node19 -->
<g id="node20" class="node">
<title>node19</title>
<path fill="#ffffff" stroke="black" d="M1596,-433C1596,-433 1556,-433 1556,-433 1550,-433 1544,-427 1544,-421 1544,-421 1544,-409 1544,-409 1544,-403 1550,-397 1556,-397 1556,-397 1596,-397 1596,-397 1602,-397 1608,-403 1608,-409 1608,-409 1608,-421 1608,-421 1608,-427 1602,-433 1596,-433"/>
<text text-anchor="middle" x="1576" y="-411.3" font-family="Arial" font-size="14.00">noscript</text>
</g>
<!-- node1&#45;&gt;node19 -->
<g id="edge19" class="edge">
<title>node1&#45;&gt;node19</title>
<path fill="none" stroke="black" d="M1022.22,-487.33C1100.98,-487.65 1335.66,-484.22 1533.95,-433.82"/>
<polygon fill="black" stroke="black" points="1534.86,-437.2 1543.66,-431.3 1533.1,-430.42 1534.86,-437.2"/>
</g>
<!-- node21 -->
<g id="node22" class="node">
<title>node21</title>
<path fill="#fff4e6" stroke="black" d="M1676,-434C1676,-434 1638,-434 1638,-434 1632,-434 1626,-428 1626,-422 1626,-422 1626,-408 1626,-408 1626,-402 1632,-396 1638,-396 1638,-396 1676,-396 1676,-396 1682,-396 1688,-402 1688,-408 1688,-408 1688,-422 1688,-422 1688,-428 1682,-434 1676,-434"/>
<text text-anchor="middle" x="1657" y="-418.8" font-family="Arial" font-size="14.00">header</text>
<text text-anchor="middle" x="1657" y="-403.8" font-family="Arial" font-size="14.00">.header</text>
</g>
<!-- node20&#45;&gt;node21 -->
<g id="edge21" class="edge">
<title>node20&#45;&gt;node21</title>
<path fill="none" stroke="black" d="M1685.8,-469.81C1681.5,-461.77 1676.27,-452 1671.46,-443.01"/>
<polygon fill="black" stroke="black" points="1674.45,-441.18 1666.64,-434.02 1668.28,-444.49 1674.45,-441.18"/>
</g>
<!-- node22 -->
<g id="node23" class="node">
<title>node22</title>
<path fill="#f0e6ff" stroke="black" d="M1748,-433C1748,-433 1718,-433 1718,-433 1712,-433 1706,-427 1706,-421 1706,-421 1706,-409 1706,-409 1706,-403 1712,-397 1718,-397 1718,-397 1748,-397 1748,-397 1754,-397 1760,-403 1760,-409 1760,-409 1760,-421 1760,-421 1760,-427 1754,-433 1748,-433"/>
<text text-anchor="middle" x="1733" y="-411.3" font-family="Arial" font-size="14.00">main</text>
</g>
<!-- node20&#45;&gt;node22 -->
<g id="edge22" class="edge">
<title>node20&#45;&gt;node22</title>
<path fill="none" stroke="black" d="M1704.2,-469.81C1708.68,-461.44 1714.16,-451.2 1719.14,-441.9"/>
<polygon fill="black" stroke="black" points="1722.25,-443.5 1723.89,-433.03 1716.08,-440.19 1722.25,-443.5"/>
</g>
<!-- node78 -->
<g id="node79" class="node">
<title>node78</title>
<path fill="#ffe6f0" stroke="black" d="M1821.5,-434C1821.5,-434 1790.5,-434 1790.5,-434 1784.5,-434 1778.5,-428 1778.5,-422 1778.5,-422 1778.5,-408 1778.5,-408 1778.5,-402 1784.5,-396 1790.5,-396 1790.5,-396 1821.5,-396 1821.5,-396 1827.5,-396 1833.5,-402 1833.5,-408 1833.5,-408 1833.5,-422 1833.5,-422 1833.5,-428 1827.5,-434 1821.5,-434"/>
<text text-anchor="middle" x="1806" y="-418.8" font-family="Arial" font-size="14.00">footer</text>
<text text-anchor="middle" x="1806" y="-403.8" font-family="Arial" font-size="14.00">.footer</text>
</g>
<!-- node20&#45;&gt;node78 -->
<g id="edge78" class="edge">
<title>node20&#45;&gt;node78</title>
<path fill="none" stroke="black" d="M1721.59,-469.99C1736.09,-460.72 1754.25,-449.1 1770,-439.02"/>
<polygon fill="black" stroke="black" points="1771.93,-441.95 1778.47,-433.61 1768.16,-436.05 1771.93,-441.95"/>
</g>
<!-- node23 -->
<g id="node24" class="node">
<title>node23</title>
<path fill="#ffffff" stroke="black" d="M1716,-352.5C1716,-352.5 1664,-352.5 1664,-352.5 1658,-352.5 1652,-346.5 1652,-340.5 1652,-340.5 1652,-326.5 1652,-326.5 1652,-320.5 1658,-314.5 1664,-314.5 1664,-314.5 1716,-314.5 1716,-314.5 1722,-314.5 1728,-320.5 1728,-326.5 1728,-326.5 1728,-340.5 1728,-340.5 1728,-346.5 1722,-352.5 1716,-352.5"/>
<text text-anchor="middle" x="1690" y="-337.3" font-family="Arial" font-size="14.00">h2</text>
<text text-anchor="middle" x="1690" y="-322.3" font-family="Arial" font-size="14.00">.page&#45;title</text>
</g>
<!-- node22&#45;&gt;node23 -->
<g id="edge23" class="edge">
<title>node22&#45;&gt;node23</title>
<path fill="none" stroke="black" d="M1723.67,-396.75C1718.1,-386.44 1710.89,-373.13 1704.58,-361.46"/>
<polygon fill="black" stroke="black" points="1707.6,-359.68 1699.76,-352.54 1701.44,-363.01 1707.6,-359.68"/>
</g>
<!-- node24 -->
<g id="node25" class="node">
<title>node24</title>
<path fill="#ffffcc" stroke="black" d="M1793.5,-360C1793.5,-360 1758.5,-360 1758.5,-360 1752.5,-360 1746.5,-354 1746.5,-348 1746.5,-348 1746.5,-319 1746.5,-319 1746.5,-313 1752.5,-307 1758.5,-307 1758.5,-307 1793.5,-307 1793.5,-307 1799.5,-307 1805.5,-313 1805.5,-319 1805.5,-319 1805.5,-348 1805.5,-348 1805.5,-354 1799.5,-360 1793.5,-360"/>
<text text-anchor="middle" x="1776" y="-344.8" font-family="Arial" font-size="14.00">section</text>
<text text-anchor="middle" x="1776" y="-329.8" font-family="Arial" font-size="14.00">#facts</text>
<text text-anchor="middle" x="1776" y="-314.8" font-family="Arial" font-size="14.00">.facts</text>
</g>
<!-- node22&#45;&gt;node24 -->
<g id="edge24" class="edge">
<title>node22&#45;&gt;node24</title>
<path fill="none" stroke="black" d="M1742.33,-396.75C1746.71,-388.65 1752.1,-378.7 1757.26,-369.14"/>
<polygon fill="black" stroke="black" points="1760.43,-370.64 1762.11,-360.18 1754.28,-367.31 1760.43,-370.64"/>
</g>
<!-- node25 -->
<g id="node26" class="node">
<title>node25</title>
<path fill="#f5f5f5" stroke="black" d="M1818.5,-271C1818.5,-271 1733.5,-271 1733.5,-271 1727.5,-271 1721.5,-265 1721.5,-259 1721.5,-259 1721.5,-245 1721.5,-245 1721.5,-239 1727.5,-233 1733.5,-233 1733.5,-233 1818.5,-233 1818.5,-233 1824.5,-233 1830.5,-239 1830.5,-245 1830.5,-245 1830.5,-259 1830.5,-259 1830.5,-265 1824.5,-271 1818.5,-271"/>
<text text-anchor="middle" x="1776" y="-255.8" font-family="Arial" font-size="14.00">div</text>
<text text-anchor="middle" x="1776" y="-240.8" font-family="Arial" font-size="14.00">.facts&#45;container</text>
</g>
<!-- node24&#45;&gt;node25 -->
<g id="edge25" class="edge">
<title>node24&#45;&gt;node25</title>
<path fill="none" stroke="black" d="M1776,-306.91C1776,-298.74 1776,-289.65 1776,-281.3"/>
<polygon fill="black" stroke="black" points="1779.5,-281.24 1776,-271.24 1772.5,-281.24 1779.5,-281.24"/>
</g>
<!-- node26 -->
<g id="node27" class="node">
<title>node26</title>
<path fill="#f5f5f5" stroke="black" d="M720.5,-197C720.5,-197 629.5,-197 629.5,-197 623.5,-197 617.5,-191 617.5,-185 617.5,-185 617.5,-156 617.5,-156 617.5,-150 623.5,-144 629.5,-144 629.5,-144 720.5,-144 720.5,-144 726.5,-144 732.5,-150 732.5,-156 732.5,-156 732.5,-185 732.5,-185 732.5,-191 726.5,-197 720.5,-197"/>
<text text-anchor="middle" x="675" y="-181.8" font-family="Arial" font-size="14.00">div</text>
<text text-anchor="middle" x="675" y="-166.8" font-family="Arial" font-size="14.00">#item&#45;1</text>
<text text-anchor="middle" x="675" y="-151.8" font-family="Arial" font-size="14.00">.facts&#45;item .wide</text>
</g>
<!-- node25&#45;&gt;node26 -->
<g id="edge26" class="edge">
<title>node25&#45;&gt;node26</title>
<path fill="none" stroke="black" d="M1721.4,-247.06C1538.01,-233.82 944.34,-190.95 742.72,-176.39"/>
<polygon fill="black" stroke="black" points="742.79,-172.89 732.57,-175.66 742.29,-179.87 742.79,-172.89"/>
</g>
<!-- node47 -->
<g id="node48" class="node">
<title>node47</title>
<path fill="#f5f5f5" stroke="black" d="M1362.5,-197C1362.5,-197 1271.5,-197 1271.5,-197 1265.5,-197 1259.5,-191 1259.5,-185 1259.5,-185 1259.5,-156 1259.5,-156 1259.5,-150 1265.5,-144 1271.5,-144 1271.5,-144 1362.5,-144 1362.5,-144 1368.5,-144 1374.5,-150 1374.5,-156 1374.5,-156 1374.5,-185 1374.5,-185 1374.5,-191 1368.5,-197 1362.5,-197"/>
<text text-anchor="middle" x="1317" y="-181.8" font-family="Arial" font-size="14.00">div</text>
<text text-anchor="middle" x="1317" y="-166.8" font-family="Arial" font-size="14.00">#item&#45;2</text>
<text text-anchor="middle" x="1317" y="-151.8" font-family="Arial" font-size="14.00">.facts&#45;item .wide</text>
</g>
<!-- node25&#45;&gt;node47 -->
<g id="edge47" class="edge">
<title>node25&#45;&gt;node47</title>
<path fill="none" stroke="black" d="M1721.35,-247.4C1646.85,-241.63 1509.35,-227.92 1384.57,-196.9"/>
<polygon fill="black" stroke="black" points="1385.4,-193.5 1374.84,-194.44 1383.68,-200.28 1385.4,-193.5"/>
</g>
<!-- node68 -->
<g id="node69" class="node">
<title>node68</title>
<path fill="#ffffff" stroke="black" d="M1461,-197C1461,-197 1405,-197 1405,-197 1399,-197 1393,-191 1393,-185 1393,-185 1393,-156 1393,-156 1393,-150 1399,-144 1405,-144 1405,-144 1461,-144 1461,-144 1467,-144 1473,-150 1473,-156 1473,-156 1473,-185 1473,-185 1473,-191 1467,-197 1461,-197"/>
<text text-anchor="middle" x="1433" y="-181.8" font-family="Arial" font-size="14.00">p</text>
<text text-anchor="middle" x="1433" y="-166.8" font-family="Arial" font-size="14.00">#item&#45;1&#45;3</text>
<text text-anchor="middle" x="1433" y="-151.8" font-family="Arial" font-size="14.00">.facts&#45;item</text>
</g>
<!-- node25&#45;&gt;node68 -->
<g id="edge68" class="edge">
<title>node25&#45;&gt;node68</title>
<path fill="none" stroke="black" d="M1721.39,-245.89C1663.52,-239.4 1569.75,-225.77 1482.71,-196.84"/>
<polygon fill="black" stroke="black" points="1483.82,-193.52 1473.23,-193.62 1481.57,-200.15 1483.82,-193.52"/>
</g>
<!-- node69 -->
<g id="node70" class="node">
<title>node69</title>
<path fill="#ffffff" stroke="black" d="M1559,-197C1559,-197 1503,-197 1503,-197 1497,-197 1491,-191 1491,-185 1491,-185 1491,-156 1491,-156 1491,-150 1497,-144 1503,-144 1503,-144 1559,-144 1559,-144 1565,-144 1571,-150 1571,-156 1571,-156 1571,-185 1571,-185 1571,-191 1565,-197 1559,-197"/>
<text text-anchor="middle" x="1531" y="-181.8" font-family="Arial" font-size="14.00">p</text>
<text text-anchor="middle" x="1531" y="-166.8" font-family="Arial" font-size="14.00">#item&#45;1&#45;4</text>
<text text-anchor="middle" x="1531" y="-151.8" font-family="Arial" font-size="14.00">.facts&#45;item</text>
</g>
<!-- node25&#45;&gt;node69 -->
<g id="edge69" class="edge">
<title>node25&#45;&gt;node69</title>
<path fill="none" stroke="black" d="M1721.34,-239.22C1683.72,-230.37 1632.66,-216.9 1580.47,-196.88"/>
<polygon fill="black" stroke="black" points="1581.65,-193.58 1571.06,-193.2 1579.1,-200.1 1581.65,-193.58"/>
</g>
<!-- node70 -->
<g id="node71" class="node">
<title>node70</title>
<path fill="#ffffff" stroke="black" d="M1657,-197C1657,-197 1601,-197 1601,-197 1595,-197 1589,-191 1589,-185 1589,-185 1589,-156 1589,-156 1589,-150 1595,-144 1601,-144 1601,-144 1657,-144 1657,-144 1663,-144 1669,-150 1669,-156 1669,-156 1669,-185 1669,-185 1669,-191 1663,-197 1657,-197"/>
<text text-anchor="middle" x="1629" y="-181.8" font-family="Arial" font-size="14.00">p</text>
<text text-anchor="middle" x="1629" y="-166.8" font-family="Arial" font-size="14.00">#item&#45;1&#45;5</text>
<text text-anchor="middle" x="1629" y="-151.8" font-family="Arial" font-size="14.00">.facts&#45;item</text>
</g>
<!-- node25&#45;&gt;node70 -->
<g id="edge70" class="edge">
<title>node25&#45;&gt;node70</title>
<path fill="none" stroke="black" d="M1742.64,-232.96C1723.52,-222.62 1699.17,-209.45 1677.91,-197.95"/>
<polygon fill="black" stroke="black" points="1679.48,-194.82 1669.02,-193.14 1676.15,-200.98 1679.48,-194.82"/>
</g>
<!-- node71 -->
<g id="node72" class="node">
<title>node71</title>
<path fill="#ffffff" stroke="black" d="M1755,-197C1755,-197 1699,-197 1699,-197 1693,-197 1687,-191 1687,-185 1687,-185 1687,-156 1687,-156 1687,-150 1693,-144 1699,-144 1699,-144 1755,-144 1755,-144 1761,-144 1767,-150 1767,-156 1767,-156 1767,-185 1767,-185 1767,-191 1761,-197 1755,-197"/>
<text text-anchor="middle" x="1727" y="-181.8" font-family="Arial" font-size="14.00">p</text>
<text text-anchor="middle" x="1727" y="-166.8" font-family="Arial" font-size="14.00">#item&#45;1&#45;6</text>
<text text-anchor="middle" x="1727" y="-151.8" font-family="Arial" font-size="14.00">.facts&#45;item</text>
</g>
<!-- node25&#45;&gt;node71 -->
<g id="edge71" class="edge">
<title>node25&#45;&gt;node71</title>
<path fill="none" stroke="black" d="M1764.88,-232.96C1759.92,-224.91 1753.9,-215.14 1748.13,-205.78"/>
<polygon fill="black" stroke="black" points="1750.95,-203.68 1742.72,-197 1744.99,-207.35 1750.95,-203.68"/>
</g>
<!-- node72 -->
<g id="node73" class="node">
<title>node72</title>
<path fill="#ffffff" stroke="black" d="M1853,-197C1853,-197 1797,-197 1797,-197 1791,-197 1785,-191 1785,-185 1785,-185 1785,-156 1785,-156 1785,-150 1791,-144 1797,-144 1797,-144 1853,-144 1853,-144 1859,-144 1865,-150 1865,-156 1865,-156 1865,-185 1865,-185 1865,-191 1859,-197 1853,-197"/>
<text text-anchor="middle" x="1825" y="-181.8" font-family="Arial" font-size="14.00">p</text>
<text text-anchor="middle" x="1825" y="-166.8" font-family="Arial" font-size="14.00">#item&#45;1&#45;7</text>
<text text-anchor="middle" x="1825" y="-151.8" font-family="Arial" font-size="14.00">.facts&#45;item</text>
</g>
<!-- node25&#45;&gt;node72 -->
<g id="edge72" class="edge">
<title>node25&#45;&gt;node72</title>
<path fill="none" stroke="black" d="M1787.12,-232.96C1792.08,-224.91 1798.1,-215.14 1803.87,-205.78"/>
<polygon fill="black" stroke="black" points="1807.01,-207.35 1809.28,-197 1801.05,-203.68 1807.01,-207.35"/>
</g>
<!-- node73 -->
<g id="node74" class="node">
<title>node73</title>
<path fill="#ffffff" stroke="black" d="M1951,-197C1951,-197 1895,-197 1895,-197 1889,-197 1883,-191 1883,-185 1883,-185 1883,-156 1883,-156 1883,-150 1889,-144 1895,-144 1895,-144 1951,-144 1951,-144 1957,-144 1963,-150 1963,-156 1963,-156 1963,-185 1963,-185 1963,-191 1957,-197 1951,-197"/>
<text text-anchor="middle" x="1923" y="-181.8" font-family="Arial" font-size="14.00">p</text>
<text text-anchor="middle" x="1923" y="-166.8" font-family="Arial" font-size="14.00">#item&#45;1&#45;8</text>
<text text-anchor="middle" x="1923" y="-151.8" font-family="Arial" font-size="14.00">.facts&#45;item</text>
</g>
<!-- node25&#45;&gt;node73 -->
<g id="edge73" class="edge">
<title>node25&#45;&gt;node73</title>
<path fill="none" stroke="black" d="M1809.36,-232.96C1828.48,-222.62 1852.83,-209.45 1874.09,-197.95"/>
<polygon fill="black" stroke="black" points="1875.85,-200.98 1882.98,-193.14 1872.52,-194.82 1875.85,-200.98"/>
</g>
<!-- node74 -->
<g id="node75" class="node">
<title>node74</title>
<path fill="#ffffff" stroke="black" d="M2051,-197C2051,-197 1993,-197 1993,-197 1987,-197 1981,-191 1981,-185 1981,-185 1981,-156 1981,-156 1981,-150 1987,-144 1993,-144 1993,-144 2051,-144 2051,-144 2057,-144 2063,-150 2063,-156 2063,-156 2063,-185 2063,-185 2063,-191 2057,-197 2051,-197"/>
<text text-anchor="middle" x="2022" y="-181.8" font-family="Arial" font-size="14.00">p</text>
<text text-anchor="middle" x="2022" y="-166.8" font-family="Arial" font-size="14.00">#item&#45;1&#45;12</text>
<text text-anchor="middle" x="2022" y="-151.8" font-family="Arial" font-size="14.00">.facts&#45;item</text>
</g>
<!-- node25&#45;&gt;node74 -->
<g id="edge74" class="edge">
<title>node25&#45;&gt;node74</title>
<path fill="none" stroke="black" d="M1830.61,-239.1C1868.21,-230.2 1919.26,-216.71 1971.42,-196.94"/>
<polygon fill="black" stroke="black" points="1972.76,-200.18 1980.83,-193.31 1970.24,-193.65 1972.76,-200.18"/>
</g>
<!-- node75 -->
<g id="node76" class="node">
<title>node75</title>
<path fill="#ffffff" stroke="black" d="M2151,-197C2151,-197 2093,-197 2093,-197 2087,-197 2081,-191 2081,-185 2081,-185 2081,-156 2081,-156 2081,-150 2087,-144 2093,-144 2093,-144 2151,-144 2151,-144 2157,-144 2163,-150 2163,-156 2163,-156 2163,-185 2163,-185 2163,-191 2157,-197 2151,-197"/>
<text text-anchor="middle" x="2122" y="-181.8" font-family="Arial" font-size="14.00">p</text>
<text text-anchor="middle" x="2122" y="-166.8" font-family="Arial" font-size="14.00">#item&#45;1&#45;10</text>
<text text-anchor="middle" x="2122" y="-151.8" font-family="Arial" font-size="14.00">.facts&#45;item</text>
</g>
<!-- node25&#45;&gt;node75 -->
<g id="edge75" class="edge">
<title>node25&#45;&gt;node75</title>
<path fill="none" stroke="black" d="M1830.66,-245.85C1888.87,-239.3 1983.41,-225.61 2071.35,-196.82"/>
<polygon fill="black" stroke="black" points="2072.56,-200.1 2080.93,-193.61 2070.34,-193.47 2072.56,-200.1"/>
</g>
<!-- node76 -->
<g id="node77" class="node">
<title>node76</title>
<path fill="#ffffff" stroke="black" d="M2250.5,-197C2250.5,-197 2193.5,-197 2193.5,-197 2187.5,-197 2181.5,-191 2181.5,-185 2181.5,-185 2181.5,-156 2181.5,-156 2181.5,-150 2187.5,-144 2193.5,-144 2193.5,-144 2250.5,-144 2250.5,-144 2256.5,-144 2262.5,-150 2262.5,-156 2262.5,-156 2262.5,-185 2262.5,-185 2262.5,-191 2256.5,-197 2250.5,-197"/>
<text text-anchor="middle" x="2222" y="-181.8" font-family="Arial" font-size="14.00">p</text>
<text text-anchor="middle" x="2222" y="-166.8" font-family="Arial" font-size="14.00">#item&#45;1&#45;11</text>
<text text-anchor="middle" x="2222" y="-151.8" font-family="Arial" font-size="14.00">.facts&#45;item</text>
</g>
<!-- node25&#45;&gt;node76 -->
<g id="edge76" class="edge">
<title>node25&#45;&gt;node76</title>
<path fill="none" stroke="black" d="M1830.73,-249.31C1906.35,-245.73 2046.62,-234.56 2171.53,-196.67"/>
<polygon fill="black" stroke="black" points="2172.75,-199.95 2181.26,-193.65 2170.68,-193.27 2172.75,-199.95"/>
</g>
<!-- node77 -->
<g id="node78" class="node">
<title>node77</title>
<path fill="#ffffff" stroke="black" d="M2349,-197C2349,-197 2293,-197 2293,-197 2287,-197 2281,-191 2281,-185 2281,-185 2281,-156 2281,-156 2281,-150 2287,-144 2293,-144 2293,-144 2349,-144 2349,-144 2355,-144 2361,-150 2361,-156 2361,-156 2361,-185 2361,-185 2361,-191 2355,-197 2349,-197"/>
<text text-anchor="middle" x="2321" y="-181.8" font-family="Arial" font-size="14.00">p</text>
<text text-anchor="middle" x="2321" y="-166.8" font-family="Arial" font-size="14.00">#item&#45;1&#45;9</text>
<text text-anchor="middle" x="2321" y="-151.8" font-family="Arial" font-size="14.00">.facts&#45;item</text>
</g>
<!-- node25&#45;&gt;node77 -->
<g id="edge77" class="edge">
<title>node25&#45;&gt;node77</title>
<path fill="none" stroke="black" d="M1830.52,-251.58C1921.45,-251.16 2109.25,-244.3 2271.2,-196.75"/>
<polygon fill="black" stroke="black" points="2272.28,-200.08 2280.85,-193.86 2270.27,-193.38 2272.28,-200.08"/>
</g>
<!-- node27 -->
<g id="node28" class="node">
<title>node27</title>
<path fill="#ffffff" stroke="black" d="M618,-108C618,-108 588,-108 588,-108 582,-108 576,-102 576,-96 576,-96 576,-84 576,-84 576,-78 582,-72 588,-72 588,-72 618,-72 618,-72 624,-72 630,-78 630,-84 630,-84 630,-96 630,-96 630,-102 624,-108 618,-108"/>
<text text-anchor="middle" x="603" y="-86.3" font-family="Arial" font-size="14.00">h3</text>
</g>
<!-- node26&#45;&gt;node27 -->
<g id="edge27" class="edge">
<title>node26&#45;&gt;node27</title>
<path fill="none" stroke="black" d="M651.42,-143.8C643.18,-134.8 633.94,-124.73 625.76,-115.81"/>
<polygon fill="black" stroke="black" points="628.23,-113.33 618.9,-108.33 623.08,-118.07 628.23,-113.33"/>
</g>
<!-- node28 -->
<g id="node29" class="node">
<title>node28</title>
<path fill="#ffffff" stroke="black" d="M690,-108C690,-108 660,-108 660,-108 654,-108 648,-102 648,-96 648,-96 648,-84 648,-84 648,-78 654,-72 660,-72 660,-72 690,-72 690,-72 696,-72 702,-78 702,-84 702,-84 702,-96 702,-96 702,-102 696,-108 690,-108"/>
<text text-anchor="middle" x="675" y="-86.3" font-family="Arial" font-size="14.00">dl</text>
</g>
<!-- node26&#45;&gt;node28 -->
<g id="edge28" class="edge">
<title>node26&#45;&gt;node28</title>
<path fill="none" stroke="black" d="M675,-143.8C675,-135.71 675,-126.76 675,-118.55"/>
<polygon fill="black" stroke="black" points="678.5,-118.33 675,-108.33 671.5,-118.33 678.5,-118.33"/>
</g>
<!-- node29 -->
<g id="node30" class="node">
<title>node29</title>
<path fill="#ffffff" stroke="black" d="M42,-36C42,-36 12,-36 12,-36 6,-36 0,-30 0,-24 0,-24 0,-12 0,-12 0,-6 6,0 12,0 12,0 42,0 42,0 48,0 54,-6 54,-12 54,-12 54,-24 54,-24 54,-30 48,-36 42,-36"/>
<text text-anchor="middle" x="27" y="-14.3" font-family="Arial" font-size="14.00">dt</text>
</g>
<!-- node28&#45;&gt;node29 -->
<g id="edge29" class="edge">
<title>node28&#45;&gt;node29</title>
<path fill="none" stroke="black" d="M647.88,-74.89C644.94,-73.76 641.95,-72.76 639,-72 393.74,-8.91 313.45,-97.6 63.83,-35.58"/>
<polygon fill="black" stroke="black" points="64.67,-32.18 54.12,-33.11 62.95,-38.96 64.67,-32.18"/>
</g>
<!-- node30 -->
<g id="node31" class="node">
<title>node30</title>
<path fill="#ffffff" stroke="black" d="M114,-36C114,-36 84,-36 84,-36 78,-36 72,-30 72,-24 72,-24 72,-12 72,-12 72,-6 78,0 84,0 84,0 114,0 114,0 120,0 126,-6 126,-12 126,-12 126,-24 126,-24 126,-30 120,-36 114,-36"/>
<text text-anchor="middle" x="99" y="-14.3" font-family="Arial" font-size="14.00">dd</text>
</g>
<!-- node28&#45;&gt;node30 -->
<g id="edge30" class="edge">
<title>node28&#45;&gt;node30</title>
<path fill="none" stroke="black" d="M647.88,-74.92C644.94,-73.78 641.94,-72.77 639,-72 424.94,-15.92 354.31,-90.67 135.96,-35.62"/>
<polygon fill="black" stroke="black" points="136.68,-32.19 126.12,-33.08 134.93,-38.97 136.68,-32.19"/>
</g>
<!-- node31 -->
<g id="node32" class="node">
<title>node31</title>
<path fill="#ffffff" stroke="black" d="M186,-36C186,-36 156,-36 156,-36 150,-36 144,-30 144,-24 144,-24 144,-12 144,-12 144,-6 150,0 156,0 156,0 186,0 186,0 192,0 198,-6 198,-12 198,-12 198,-24 198,-24 198,-30 192,-36 186,-36"/>
<text text-anchor="middle" x="171" y="-14.3" font-family="Arial" font-size="14.00">dt</text>
</g>
<!-- node28&#45;&gt;node31 -->
<g id="edge31" class="edge">
<title>node28&#45;&gt;node31</title>
<path fill="none" stroke="black" d="M647.87,-74.96C644.93,-73.81 641.94,-72.79 639,-72 456.1,-22.92 395.16,-83.78 208.01,-35.65"/>
<polygon fill="black" stroke="black" points="208.69,-32.22 198.13,-33.04 206.91,-38.98 208.69,-32.22"/>
</g>
<!-- node32 -->
<g id="node33" class="node">
<title>node32</title>
<path fill="#ffffff" stroke="black" d="M258,-36C258,-36 228,-36 228,-36 222,-36 216,-30 216,-24 216,-24 216,-12 216,-12 216,-6 222,0 228,0 228,0 258,0 258,0 264,0 270,-6 270,-12 270,-12 270,-24 270,-24 270,-30 264,-36 258,-36"/>
<text text-anchor="middle" x="243" y="-14.3" font-family="Arial" font-size="14.00">dd</text>
</g>
<!-- node28&#45;&gt;node32 -->
<g id="edge32" class="edge">
<title>node28&#45;&gt;node32</title>
<path fill="none" stroke="black" d="M647.85,-75.01C644.92,-73.85 641.93,-72.81 639,-72 487.22,-29.93 436.05,-76.95 280.08,-35.7"/>
<polygon fill="black" stroke="black" points="280.71,-32.25 270.15,-32.99 278.87,-39 280.71,-32.25"/>
</g>
<!-- node33 -->
<g id="node34" class="node">
<title>node33</title>
<path fill="#ffffff" stroke="black" d="M330,-36C330,-36 300,-36 300,-36 294,-36 288,-30 288,-24 288,-24 288,-12 288,-12 288,-6 294,0 300,0 300,0 330,0 330,0 336,0 342,-6 342,-12 342,-12 342,-24 342,-24 342,-30 336,-36 330,-36"/>
<text text-anchor="middle" x="315" y="-14.3" font-family="Arial" font-size="14.00">dt</text>
</g>
<!-- node28&#45;&gt;node33 -->
<g id="edge33" class="edge">
<title>node28&#45;&gt;node33</title>
<path fill="none" stroke="black" d="M647.83,-75.08C644.9,-73.91 641.92,-72.85 639,-72 518.27,-36.92 476.97,-70.21 352.1,-35.75"/>
<polygon fill="black" stroke="black" points="352.74,-32.3 342.17,-32.92 350.82,-39.03 352.74,-32.3"/>
</g>
<!-- node34 -->
<g id="node35" class="node">
<title>node34</title>
<path fill="#ffffff" stroke="black" d="M402,-36C402,-36 372,-36 372,-36 366,-36 360,-30 360,-24 360,-24 360,-12 360,-12 360,-6 366,0 372,0 372,0 402,0 402,0 408,0 414,-6 414,-12 414,-12 414,-24 414,-24 414,-30 408,-36 402,-36"/>
<text text-anchor="middle" x="387" y="-14.3" font-family="Arial" font-size="14.00">dd</text>
</g>
<!-- node28&#45;&gt;node34 -->
<g id="edge34" class="edge">
<title>node28&#45;&gt;node34</title>
<path fill="none" stroke="black" d="M647.8,-75.2C644.87,-74.01 641.9,-72.91 639,-72 549.11,-43.88 517.9,-63.68 423.82,-35.75"/>
<polygon fill="black" stroke="black" points="424.79,-32.39 414.2,-32.8 422.74,-39.08 424.79,-32.39"/>
</g>
<!-- node35 -->
<g id="node36" class="node">
<title>node35</title>
<path fill="#ffffff" stroke="black" d="M474,-36C474,-36 444,-36 444,-36 438,-36 432,-30 432,-24 432,-24 432,-12 432,-12 432,-6 438,0 444,0 444,0 474,0 474,0 480,0 486,-6 486,-12 486,-12 486,-24 486,-24 486,-30 480,-36 474,-36"/>
<text text-anchor="middle" x="459" y="-14.3" font-family="Arial" font-size="14.00">dt</text>
</g>
<!-- node28&#45;&gt;node35 -->
<g id="edge35" class="edge">
<title>node28&#45;&gt;node35</title>
<path fill="none" stroke="black" d="M647.72,-75.44C644.81,-74.2 641.86,-73.02 639,-72 579.79,-50.85 559.07,-57.47 495.92,-35.95"/>
<polygon fill="black" stroke="black" points="496.88,-32.58 486.28,-32.56 494.56,-39.18 496.88,-32.58"/>
</g>
<!-- node36 -->
<g id="node37" class="node">
<title>node36</title>
<path fill="#ffffff" stroke="black" d="M546,-36C546,-36 516,-36 516,-36 510,-36 504,-30 504,-24 504,-24 504,-12 504,-12 504,-6 510,0 516,0 516,0 546,0 546,0 552,0 558,-6 558,-12 558,-12 558,-24 558,-24 558,-30 552,-36 546,-36"/>
<text text-anchor="middle" x="531" y="-14.3" font-family="Arial" font-size="14.00">dd</text>
</g>
<!-- node28&#45;&gt;node36 -->
<g id="edge36" class="edge">
<title>node28&#45;&gt;node36</title>
<path fill="none" stroke="black" d="M647.91,-75.83C625.23,-64.81 592.64,-48.97 567.63,-36.81"/>
<polygon fill="black" stroke="black" points="568.98,-33.57 558.45,-32.35 565.92,-39.87 568.98,-33.57"/>
</g>
<!-- node37 -->
<g id="node38" class="node">
<title>node37</title>
<path fill="#ffffff" stroke="black" d="M618,-36C618,-36 588,-36 588,-36 582,-36 576,-30 576,-24 576,-24 576,-12 576,-12 576,-6 582,0 588,0 588,0 618,0 618,0 624,0 630,-6 630,-12 630,-12 630,-24 630,-24 630,-30 624,-36 618,-36"/>
<text text-anchor="middle" x="603" y="-14.3" font-family="Arial" font-size="14.00">dt</text>
</g>
<!-- node28&#45;&gt;node37 -->
<g id="edge37" class="edge">
<title>node28&#45;&gt;node37</title>
<path fill="none" stroke="black" d="M657.2,-71.7C648.4,-63.14 637.62,-52.66 628,-43.3"/>
<polygon fill="black" stroke="black" points="630.2,-40.57 620.59,-36.1 625.32,-45.58 630.2,-40.57"/>
</g>
<!-- node38 -->
<g id="node39" class="node">
<title>node38</title>
<path fill="#ffffff" stroke="black" d="M690,-36C690,-36 660,-36 660,-36 654,-36 648,-30 648,-24 648,-24 648,-12 648,-12 648,-6 654,0 660,0 660,0 690,0 690,0 696,0 702,-6 702,-12 702,-12 702,-24 702,-24 702,-30 696,-36 690,-36"/>
<text text-anchor="middle" x="675" y="-14.3" font-family="Arial" font-size="14.00">dd</text>
</g>
<!-- node28&#45;&gt;node38 -->
<g id="edge38" class="edge">
<title>node28&#45;&gt;node38</title>
<path fill="none" stroke="black" d="M675,-71.7C675,-63.98 675,-54.71 675,-46.11"/>
<polygon fill="black" stroke="black" points="678.5,-46.1 675,-36.1 671.5,-46.1 678.5,-46.1"/>
</g>
<!-- node39 -->
<g id="node40" class="node">
<title>node39</title>
<path fill="#ffffff" stroke="black" d="M762,-36C762,-36 732,-36 732,-36 726,-36 720,-30 720,-24 720,-24 720,-12 720,-12 720,-6 726,0 732,0 732,0 762,0 762,0 768,0 774,-6 774,-12 774,-12 774,-24 774,-24 774,-30 768,-36 762,-36"/>
<text text-anchor="middle" x="747" y="-14.3" font-family="Arial" font-size="14.00">dt</text>
</g>
<!-- node28&#45;&gt;node39 -->
<g id="edge39" class="edge">
<title>node28&#45;&gt;node39</title>
<path fill="none" stroke="black" d="M692.8,-71.7C701.6,-63.14 712.38,-52.66 722,-43.3"/>
<polygon fill="black" stroke="black" points="724.68,-45.58 729.41,-36.1 719.8,-40.57 724.68,-45.58"/>
</g>
<!-- node40 -->
<g id="node41" class="node">
<title>node40</title>
<path fill="#ffffff" stroke="black" d="M834,-36C834,-36 804,-36 804,-36 798,-36 792,-30 792,-24 792,-24 792,-12 792,-12 792,-6 798,0 804,0 804,0 834,0 834,0 840,0 846,-6 846,-12 846,-12 846,-24 846,-24 846,-30 840,-36 834,-36"/>
<text text-anchor="middle" x="819" y="-14.3" font-family="Arial" font-size="14.00">dd</text>
</g>
<!-- node28&#45;&gt;node40 -->
<g id="edge40" class="edge">
<title>node28&#45;&gt;node40</title>
<path fill="none" stroke="black" d="M702.09,-75.83C724.77,-64.81 757.36,-48.97 782.37,-36.81"/>
<polygon fill="black" stroke="black" points="784.08,-39.87 791.55,-32.35 781.02,-33.57 784.08,-39.87"/>
</g>
<!-- node41 -->
<g id="node42" class="node">
<title>node41</title>
<path fill="#ffffff" stroke="black" d="M906,-36C906,-36 876,-36 876,-36 870,-36 864,-30 864,-24 864,-24 864,-12 864,-12 864,-6 870,0 876,0 876,0 906,0 906,0 912,0 918,-6 918,-12 918,-12 918,-24 918,-24 918,-30 912,-36 906,-36"/>
<text text-anchor="middle" x="891" y="-14.3" font-family="Arial" font-size="14.00">dt</text>
</g>
<!-- node28&#45;&gt;node41 -->
<g id="edge41" class="edge">
<title>node28&#45;&gt;node41</title>
<path fill="none" stroke="black" d="M702.27,-82.38C736.1,-73.86 795.59,-57.9 854.27,-36"/>
<polygon fill="black" stroke="black" points="855.56,-39.26 863.67,-32.44 853.08,-32.71 855.56,-39.26"/>
</g>
<!-- node42 -->
<g id="node43" class="node">
<title>node42</title>
<path fill="#ffffff" stroke="black" d="M978,-36C978,-36 948,-36 948,-36 942,-36 936,-30 936,-24 936,-24 936,-12 936,-12 936,-6 942,0 948,0 948,0 978,0 978,0 984,0 990,-6 990,-12 990,-12 990,-24 990,-24 990,-30 984,-36 978,-36"/>
<text text-anchor="middle" x="963" y="-14.3" font-family="Arial" font-size="14.00">dd</text>
</g>
<!-- node28&#45;&gt;node42 -->
<g id="edge42" class="edge">
<title>node28&#45;&gt;node42</title>
<path fill="none" stroke="black" d="M702.03,-85.44C747.08,-79.05 840.28,-63.92 926.13,-35.88"/>
<polygon fill="black" stroke="black" points="927.38,-39.16 935.76,-32.67 925.16,-32.52 927.38,-39.16"/>
</g>
<!-- node43 -->
<g id="node44" class="node">
<title>node43</title>
<path fill="#ffffff" stroke="black" d="M1050,-36C1050,-36 1020,-36 1020,-36 1014,-36 1008,-30 1008,-24 1008,-24 1008,-12 1008,-12 1008,-6 1014,0 1020,0 1020,0 1050,0 1050,0 1056,0 1062,-6 1062,-12 1062,-12 1062,-24 1062,-24 1062,-30 1056,-36 1050,-36"/>
<text text-anchor="middle" x="1035" y="-14.3" font-family="Arial" font-size="14.00">dt</text>
</g>
<!-- node28&#45;&gt;node43 -->
<g id="edge43" class="edge">
<title>node28&#45;&gt;node43</title>
<path fill="none" stroke="black" d="M702.04,-87.13C756.8,-82.82 884.55,-70.03 997.92,-35.85"/>
<polygon fill="black" stroke="black" points="999.27,-39.1 1007.8,-32.81 997.21,-32.41 999.27,-39.1"/>
</g>
<!-- node44 -->
<g id="node45" class="node">
<title>node44</title>
<path fill="#ffffff" stroke="black" d="M1122,-36C1122,-36 1092,-36 1092,-36 1086,-36 1080,-30 1080,-24 1080,-24 1080,-12 1080,-12 1080,-6 1086,0 1092,0 1092,0 1122,0 1122,0 1128,0 1134,-6 1134,-12 1134,-12 1134,-24 1134,-24 1134,-30 1128,-36 1122,-36"/>
<text text-anchor="middle" x="1107" y="-14.3" font-family="Arial" font-size="14.00">dd</text>
</g>
<!-- node28&#45;&gt;node44 -->
<g id="edge44" class="edge">
<title>node28&#45;&gt;node44</title>
<path fill="none" stroke="black" d="M702.01,-88.23C765.46,-85.84 928.73,-76.22 1070.12,-35.73"/>
<polygon fill="black" stroke="black" points="1071.21,-39.06 1079.83,-32.89 1069.25,-32.34 1071.21,-39.06"/>
</g>
<!-- node45 -->
<g id="node46" class="node">
<title>node45</title>
<path fill="#ffffff" stroke="black" d="M1194,-36C1194,-36 1164,-36 1164,-36 1158,-36 1152,-30 1152,-24 1152,-24 1152,-12 1152,-12 1152,-6 1158,0 1164,0 1164,0 1194,0 1194,0 1200,0 1206,-6 1206,-12 1206,-12 1206,-24 1206,-24 1206,-30 1200,-36 1194,-36"/>
<text text-anchor="middle" x="1179" y="-14.3" font-family="Arial" font-size="14.00">dt</text>
</g>
<!-- node28&#45;&gt;node45 -->
<g id="edge45" class="edge">
<title>node28&#45;&gt;node45</title>
<path fill="none" stroke="black" d="M702.24,-89C773.79,-88.37 972.62,-82.46 1142.01,-35.72"/>
<polygon fill="black" stroke="black" points="1143.17,-39.03 1151.84,-32.96 1141.27,-32.3 1143.17,-39.03"/>
</g>
<!-- node46 -->
<g id="node47" class="node">
<title>node46</title>
<path fill="#ffffff" stroke="black" d="M1266,-36C1266,-36 1236,-36 1236,-36 1230,-36 1224,-30 1224,-24 1224,-24 1224,-12 1224,-12 1224,-6 1230,0 1236,0 1236,0 1266,0 1266,0 1272,0 1278,-6 1278,-12 1278,-12 1278,-24 1278,-24 1278,-30 1272,-36 1266,-36"/>
<text text-anchor="middle" x="1251" y="-14.3" font-family="Arial" font-size="14.00">dd</text>
</g>
<!-- node28&#45;&gt;node46 -->
<g id="edge46" class="edge">
<title>node28&#45;&gt;node46</title>
<path fill="none" stroke="black" d="M702.28,-89.58C781.23,-90.58 1016.35,-88.79 1214.17,-35.65"/>
<polygon fill="black" stroke="black" points="1215.14,-39.02 1223.86,-33 1213.29,-32.26 1215.14,-39.02"/>
</g>
<!-- node48 -->
<g id="node49" class="node">
<title>node48</title>
<path fill="#ffffff" stroke="black" d="M1332,-108C1332,-108 1302,-108 1302,-108 1296,-108 1290,-102 1290,-96 1290,-96 1290,-84 1290,-84 1290,-78 1296,-72 1302,-72 1302,-72 1332,-72 1332,-72 1338,-72 1344,-78 1344,-84 1344,-84 1344,-96 1344,-96 1344,-102 1338,-108 1332,-108"/>
<text text-anchor="middle" x="1317" y="-86.3" font-family="Arial" font-size="14.00">h3</text>
</g>
<!-- node47&#45;&gt;node48 -->
<g id="edge48" class="edge">
<title>node47&#45;&gt;node48</title>
<path fill="none" stroke="black" d="M1317,-143.8C1317,-135.71 1317,-126.76 1317,-118.55"/>
<polygon fill="black" stroke="black" points="1320.5,-118.33 1317,-108.33 1313.5,-118.33 1320.5,-118.33"/>
</g>
<!-- node49 -->
<g id="node50" class="node">
<title>node49</title>
<path fill="#ffffff" stroke="black" d="M1914,-108C1914,-108 1884,-108 1884,-108 1878,-108 1872,-102 1872,-96 1872,-96 1872,-84 1872,-84 1872,-78 1878,-72 1884,-72 1884,-72 1914,-72 1914,-72 1920,-72 1926,-78 1926,-84 1926,-84 1926,-96 1926,-96 1926,-102 1920,-108 1914,-108"/>
<text text-anchor="middle" x="1899" y="-86.3" font-family="Arial" font-size="14.00">dl</text>
</g>
<!-- node47&#45;&gt;node49 -->
<g id="edge49" class="edge">
<title>node47&#45;&gt;node49</title>
<path fill="none" stroke="black" d="M1374.81,-146.44C1377.9,-145.54 1380.97,-144.72 1384,-144 1559.45,-102.34 1776.22,-93.43 1861.77,-91.52"/>
<polygon fill="black" stroke="black" points="1861.85,-95.02 1871.78,-91.32 1861.71,-88.02 1861.85,-95.02"/>
</g>
<!-- node50 -->
<g id="node51" class="node">
<title>node50</title>
<path fill="#ffffff" stroke="black" d="M1338,-36C1338,-36 1308,-36 1308,-36 1302,-36 1296,-30 1296,-24 1296,-24 1296,-12 1296,-12 1296,-6 1302,0 1308,0 1308,0 1338,0 1338,0 1344,0 1350,-6 1350,-12 1350,-12 1350,-24 1350,-24 1350,-30 1344,-36 1338,-36"/>
<text text-anchor="middle" x="1323" y="-14.3" font-family="Arial" font-size="14.00">dt</text>
</g>
<!-- node49&#45;&gt;node50 -->
<g id="edge50" class="edge">
<title>node49&#45;&gt;node50</title>
<path fill="none" stroke="black" d="M1871.72,-89.58C1792.77,-90.58 1557.65,-88.79 1359.83,-35.65"/>
<polygon fill="black" stroke="black" points="1360.71,-32.26 1350.14,-33 1358.86,-39.02 1360.71,-32.26"/>
</g>
<!-- node51 -->
<g id="node52" class="node">
<title>node51</title>
<path fill="#ffffff" stroke="black" d="M1410,-36C1410,-36 1380,-36 1380,-36 1374,-36 1368,-30 1368,-24 1368,-24 1368,-12 1368,-12 1368,-6 1374,0 1380,0 1380,0 1410,0 1410,0 1416,0 1422,-6 1422,-12 1422,-12 1422,-24 1422,-24 1422,-30 1416,-36 1410,-36"/>
<text text-anchor="middle" x="1395" y="-14.3" font-family="Arial" font-size="14.00">dd</text>
</g>
<!-- node49&#45;&gt;node51 -->
<g id="edge51" class="edge">
<title>node49&#45;&gt;node51</title>
<path fill="none" stroke="black" d="M1871.76,-89C1800.21,-88.37 1601.38,-82.46 1431.99,-35.72"/>
<polygon fill="black" stroke="black" points="1432.73,-32.3 1422.16,-32.96 1430.83,-39.03 1432.73,-32.3"/>
</g>
<!-- node52 -->
<g id="node53" class="node">
<title>node52</title>
<path fill="#ffffff" stroke="black" d="M1482,-36C1482,-36 1452,-36 1452,-36 1446,-36 1440,-30 1440,-24 1440,-24 1440,-12 1440,-12 1440,-6 1446,0 1452,0 1452,0 1482,0 1482,0 1488,0 1494,-6 1494,-12 1494,-12 1494,-24 1494,-24 1494,-30 1488,-36 1482,-36"/>
<text text-anchor="middle" x="1467" y="-14.3" font-family="Arial" font-size="14.00">dt</text>
</g>
<!-- node49&#45;&gt;node52 -->
<g id="edge52" class="edge">
<title>node49&#45;&gt;node52</title>
<path fill="none" stroke="black" d="M1871.99,-88.23C1808.54,-85.84 1645.27,-76.22 1503.88,-35.73"/>
<polygon fill="black" stroke="black" points="1504.75,-32.34 1494.17,-32.89 1502.79,-39.06 1504.75,-32.34"/>
</g>
<!-- node53 -->
<g id="node54" class="node">
<title>node53</title>
<path fill="#ffffff" stroke="black" d="M1554,-36C1554,-36 1524,-36 1524,-36 1518,-36 1512,-30 1512,-24 1512,-24 1512,-12 1512,-12 1512,-6 1518,0 1524,0 1524,0 1554,0 1554,0 1560,0 1566,-6 1566,-12 1566,-12 1566,-24 1566,-24 1566,-30 1560,-36 1554,-36"/>
<text text-anchor="middle" x="1539" y="-14.3" font-family="Arial" font-size="14.00">dd</text>
</g>
<!-- node49&#45;&gt;node53 -->
<g id="edge53" class="edge">
<title>node49&#45;&gt;node53</title>
<path fill="none" stroke="black" d="M1871.96,-87.13C1817.2,-82.82 1689.45,-70.03 1576.08,-35.85"/>
<polygon fill="black" stroke="black" points="1576.79,-32.41 1566.2,-32.81 1574.73,-39.1 1576.79,-32.41"/>
</g>
<!-- node54 -->
<g id="node55" class="node">
<title>node54</title>
<path fill="#ffffff" stroke="black" d="M1626,-36C1626,-36 1596,-36 1596,-36 1590,-36 1584,-30 1584,-24 1584,-24 1584,-12 1584,-12 1584,-6 1590,0 1596,0 1596,0 1626,0 1626,0 1632,0 1638,-6 1638,-12 1638,-12 1638,-24 1638,-24 1638,-30 1632,-36 1626,-36"/>
<text text-anchor="middle" x="1611" y="-14.3" font-family="Arial" font-size="14.00">dt</text>
</g>
<!-- node49&#45;&gt;node54 -->
<g id="edge54" class="edge">
<title>node49&#45;&gt;node54</title>
<path fill="none" stroke="black" d="M1871.97,-85.44C1826.92,-79.05 1733.72,-63.92 1647.87,-35.88"/>
<polygon fill="black" stroke="black" points="1648.84,-32.52 1638.24,-32.67 1646.62,-39.16 1648.84,-32.52"/>
</g>
<!-- node55 -->
<g id="node56" class="node">
<title>node55</title>
<path fill="#ffffff" stroke="black" d="M1698,-36C1698,-36 1668,-36 1668,-36 1662,-36 1656,-30 1656,-24 1656,-24 1656,-12 1656,-12 1656,-6 1662,0 1668,0 1668,0 1698,0 1698,0 1704,0 1710,-6 1710,-12 1710,-12 1710,-24 1710,-24 1710,-30 1704,-36 1698,-36"/>
<text text-anchor="middle" x="1683" y="-14.3" font-family="Arial" font-size="14.00">dd</text>
</g>
<!-- node49&#45;&gt;node55 -->
<g id="edge55" class="edge">
<title>node49&#45;&gt;node55</title>
<path fill="none" stroke="black" d="M1871.73,-82.38C1837.9,-73.86 1778.41,-57.9 1719.73,-36"/>
<polygon fill="black" stroke="black" points="1720.92,-32.71 1710.33,-32.44 1718.44,-39.26 1720.92,-32.71"/>
</g>
<!-- node56 -->
<g id="node57" class="node">
<title>node56</title>
<path fill="#ffffff" stroke="black" d="M1770,-36C1770,-36 1740,-36 1740,-36 1734,-36 1728,-30 1728,-24 1728,-24 1728,-12 1728,-12 1728,-6 1734,0 1740,0 1740,0 1770,0 1770,0 1776,0 1782,-6 1782,-12 1782,-12 1782,-24 1782,-24 1782,-30 1776,-36 1770,-36"/>
<text text-anchor="middle" x="1755" y="-14.3" font-family="Arial" font-size="14.00">dt</text>
</g>
<!-- node49&#45;&gt;node56 -->
<g id="edge56" class="edge">
<title>node49&#45;&gt;node56</title>
<path fill="none" stroke="black" d="M1871.91,-75.83C1849.23,-64.81 1816.64,-48.97 1791.63,-36.81"/>
<polygon fill="black" stroke="black" points="1792.98,-33.57 1782.45,-32.35 1789.92,-39.87 1792.98,-33.57"/>
</g>
<!-- node57 -->
<g id="node58" class="node">
<title>node57</title>
<path fill="#ffffff" stroke="black" d="M1842,-36C1842,-36 1812,-36 1812,-36 1806,-36 1800,-30 1800,-24 1800,-24 1800,-12 1800,-12 1800,-6 1806,0 1812,0 1812,0 1842,0 1842,0 1848,0 1854,-6 1854,-12 1854,-12 1854,-24 1854,-24 1854,-30 1848,-36 1842,-36"/>
<text text-anchor="middle" x="1827" y="-14.3" font-family="Arial" font-size="14.00">dd</text>
</g>
<!-- node49&#45;&gt;node57 -->
<g id="edge57" class="edge">
<title>node49&#45;&gt;node57</title>
<path fill="none" stroke="black" d="M1881.2,-71.7C1872.4,-63.14 1861.62,-52.66 1852,-43.3"/>
<polygon fill="black" stroke="black" points="1854.2,-40.57 1844.59,-36.1 1849.32,-45.58 1854.2,-40.57"/>
</g>
<!-- node58 -->
<g id="node59" class="node">
<title>node58</title>
<path fill="#ffffff" stroke="black" d="M1914,-36C1914,-36 1884,-36 1884,-36 1878,-36 1872,-30 1872,-24 1872,-24 1872,-12 1872,-12 1872,-6 1878,0 1884,0 1884,0 1914,0 1914,0 1920,0 1926,-6 1926,-12 1926,-12 1926,-24 1926,-24 1926,-30 1920,-36 1914,-36"/>
<text text-anchor="middle" x="1899" y="-14.3" font-family="Arial" font-size="14.00">dt</text>
</g>
<!-- node49&#45;&gt;node58 -->
<g id="edge58" class="edge">
<title>node49&#45;&gt;node58</title>
<path fill="none" stroke="black" d="M1899,-71.7C1899,-63.98 1899,-54.71 1899,-46.11"/>
<polygon fill="black" stroke="black" points="1902.5,-46.1 1899,-36.1 1895.5,-46.1 1902.5,-46.1"/>
</g>
<!-- node59 -->
<g id="node60" class="node">
<title>node59</title>
<path fill="#ffffff" stroke="black" d="M1986,-36C1986,-36 1956,-36 1956,-36 1950,-36 1944,-30 1944,-24 1944,-24 1944,-12 1944,-12 1944,-6 1950,0 1956,0 1956,0 1986,0 1986,0 1992,0 1998,-6 1998,-12 1998,-12 1998,-24 1998,-24 1998,-30 1992,-36 1986,-36"/>
<text text-anchor="middle" x="1971" y="-14.3" font-family="Arial" font-size="14.00">dd</text>
</g>
<!-- node49&#45;&gt;node59 -->
<g id="edge59" class="edge">
<title>node49&#45;&gt;node59</title>
<path fill="none" stroke="black" d="M1916.8,-71.7C1925.6,-63.14 1936.38,-52.66 1946,-43.3"/>
<polygon fill="black" stroke="black" points="1948.68,-45.58 1953.41,-36.1 1943.8,-40.57 1948.68,-45.58"/>
</g>
<!-- node60 -->
<g id="node61" class="node">
<title>node60</title>
<path fill="#ffffff" stroke="black" d="M2058,-36C2058,-36 2028,-36 2028,-36 2022,-36 2016,-30 2016,-24 2016,-24 2016,-12 2016,-12 2016,-6 2022,0 2028,0 2028,0 2058,0 2058,0 2064,0 2070,-6 2070,-12 2070,-12 2070,-24 2070,-24 2070,-30 2064,-36 2058,-36"/>
<text text-anchor="middle" x="2043" y="-14.3" font-family="Arial" font-size="14.00">dt</text>
</g>
<!-- node49&#45;&gt;node60 -->
<g id="edge60" class="edge">
<title>node49&#45;&gt;node60</title>
<path fill="none" stroke="black" d="M1926.09,-75.83C1948.77,-64.81 1981.36,-48.97 2006.37,-36.81"/>
<polygon fill="black" stroke="black" points="2008.08,-39.87 2015.55,-32.35 2005.02,-33.57 2008.08,-39.87"/>
</g>
<!-- node61 -->
<g id="node62" class="node">
<title>node61</title>
<path fill="#ffffff" stroke="black" d="M2130,-36C2130,-36 2100,-36 2100,-36 2094,-36 2088,-30 2088,-24 2088,-24 2088,-12 2088,-12 2088,-6 2094,0 2100,0 2100,0 2130,0 2130,0 2136,0 2142,-6 2142,-12 2142,-12 2142,-24 2142,-24 2142,-30 2136,-36 2130,-36"/>
<text text-anchor="middle" x="2115" y="-14.3" font-family="Arial" font-size="14.00">dd</text>
</g>
<!-- node49&#45;&gt;node61 -->
<g id="edge61" class="edge">
<title>node49&#45;&gt;node61</title>
<path fill="none" stroke="black" d="M1926.27,-82.38C1960.1,-73.86 2019.59,-57.9 2078.27,-36"/>
<polygon fill="black" stroke="black" points="2079.56,-39.26 2087.67,-32.44 2077.08,-32.71 2079.56,-39.26"/>
</g>
<!-- node62 -->
<g id="node63" class="node">
<title>node62</title>
<path fill="#ffffff" stroke="black" d="M2202,-36C2202,-36 2172,-36 2172,-36 2166,-36 2160,-30 2160,-24 2160,-24 2160,-12 2160,-12 2160,-6 2166,0 2172,0 2172,0 2202,0 2202,0 2208,0 2214,-6 2214,-12 2214,-12 2214,-24 2214,-24 2214,-30 2208,-36 2202,-36"/>
<text text-anchor="middle" x="2187" y="-14.3" font-family="Arial" font-size="14.00">dt</text>
</g>
<!-- node49&#45;&gt;node62 -->
<g id="edge62" class="edge">
<title>node49&#45;&gt;node62</title>
<path fill="none" stroke="black" d="M1926.03,-85.44C1971.08,-79.05 2064.28,-63.92 2150.13,-35.88"/>
<polygon fill="black" stroke="black" points="2151.38,-39.16 2159.76,-32.67 2149.16,-32.52 2151.38,-39.16"/>
</g>
<!-- node63 -->
<g id="node64" class="node">
<title>node63</title>
<path fill="#ffffff" stroke="black" d="M2274,-36C2274,-36 2244,-36 2244,-36 2238,-36 2232,-30 2232,-24 2232,-24 2232,-12 2232,-12 2232,-6 2238,0 2244,0 2244,0 2274,0 2274,0 2280,0 2286,-6 2286,-12 2286,-12 2286,-24 2286,-24 2286,-30 2280,-36 2274,-36"/>
<text text-anchor="middle" x="2259" y="-14.3" font-family="Arial" font-size="14.00">dd</text>
</g>
<!-- node49&#45;&gt;node63 -->
<g id="edge63" class="edge">
<title>node49&#45;&gt;node63</title>
<path fill="none" stroke="black" d="M1926.04,-87.13C1980.8,-82.82 2108.55,-70.03 2221.92,-35.85"/>
<polygon fill="black" stroke="black" points="2223.27,-39.1 2231.8,-32.81 2221.21,-32.41 2223.27,-39.1"/>
</g>
<!-- node64 -->
<g id="node65" class="node">
<title>node64</title>
<path fill="#ffffff" stroke="black" d="M2346,-36C2346,-36 2316,-36 2316,-36 2310,-36 2304,-30 2304,-24 2304,-24 2304,-12 2304,-12 2304,-6 2310,0 2316,0 2316,0 2346,0 2346,0 2352,0 2358,-6 2358,-12 2358,-12 2358,-24 2358,-24 2358,-30 2352,-36 2346,-36"/>
<text text-anchor="middle" x="2331" y="-14.3" font-family="Arial" font-size="14.00">dt</text>
</g>
<!-- node49&#45;&gt;node64 -->
<g id="edge64" class="edge">
<title>node49&#45;&gt;node64</title>
<path fill="none" stroke="black" d="M1926.01,-88.23C1989.46,-85.84 2152.73,-76.22 2294.12,-35.73"/>
<polygon fill="black" stroke="black" points="2295.21,-39.06 2303.83,-32.89 2293.25,-32.34 2295.21,-39.06"/>
</g>
<!-- node65 -->
<g id="node66" class="node">
<title>node65</title>
<path fill="#ffffff" stroke="black" d="M2418,-36C2418,-36 2388,-36 2388,-36 2382,-36 2376,-30 2376,-24 2376,-24 2376,-12 2376,-12 2376,-6 2382,0 2388,0 2388,0 2418,0 2418,0 2424,0 2430,-6 2430,-12 2430,-12 2430,-24 2430,-24 2430,-30 2424,-36 2418,-36"/>
<text text-anchor="middle" x="2403" y="-14.3" font-family="Arial" font-size="14.00">dd</text>
</g>
<!-- node49&#45;&gt;node65 -->
<g id="edge65" class="edge">
<title>node49&#45;&gt;node65</title>
<path fill="none" stroke="black" d="M1926.24,-89C1997.79,-88.37 2196.62,-82.46 2366.01,-35.72"/>
<polygon fill="black" stroke="black" points="2367.17,-39.03 2375.84,-32.96 2365.27,-32.3 2367.17,-39.03"/>
</g>
<!-- node66 -->
<g id="node67" class="node">
<title>node66</title>
<path fill="#ffffff" stroke="black" d="M2490,-36C2490,-36 2460,-36 2460,-36 2454,-36 2448,-30 2448,-24 2448,-24 2448,-12 2448,-12 2448,-6 2454,0 2460,0 2460,0 2490,0 2490,0 2496,0 2502,-6 2502,-12 2502,-12 2502,-24 2502,-24 2502,-30 2496,-36 2490,-36"/>
<text text-anchor="middle" x="2475" y="-14.3" font-family="Arial" font-size="14.00">dt</text>
</g>
<!-- node49&#45;&gt;node66 -->
<g id="edge66" class="edge">
<title>node49&#45;&gt;node66</title>
<path fill="none" stroke="black" d="M1926.28,-89.58C2005.23,-90.58 2240.35,-88.79 2438.17,-35.65"/>
<polygon fill="black" stroke="black" points="2439.14,-39.02 2447.86,-33 2437.29,-32.26 2439.14,-39.02"/>
</g>
<!-- node67 -->
<g id="node68" class="node">
<title>node67</title>
<path fill="#ffffff" stroke="black" d="M2562,-36C2562,-36 2532,-36 2532,-36 2526,-36 2520,-30 2520,-24 2520,-24 2520,-12 2520,-12 2520,-6 2526,0 2532,0 2532,0 2562,0 2562,0 2568,0 2574,-6 2574,-12 2574,-12 2574,-24 2574,-24 2574,-30 2568,-36 2562,-36"/>
<text text-anchor="middle" x="2547" y="-14.3" font-family="Arial" font-size="14.00">dd</text>
</g>
<!-- node49&#45;&gt;node67 -->
<g id="edge67" class="edge">
<title>node49&#45;&gt;node67</title>
<path fill="none" stroke="black" d="M1926.24,-87.92C2027.07,-83.74 2379.59,-67.35 2510.12,-35.55"/>
<polygon fill="black" stroke="black" points="2511.06,-38.92 2519.87,-33.03 2509.31,-32.15 2511.06,-38.92"/>
</g>
</g>
</svg>
