<?xml version="1.0" encoding="UTF-8" standalone="no"?>
<!DOCTYPE svg PUBLIC "-//W3C//DTD SVG 1.1//EN"
 "http://www.w3.org/Graphics/SVG/1.1/DTD/svg11.dtd">
<!-- Generated by graphviz version 2.43.0 (0)
 -->
<!-- Title: DOM Pages: 1 -->
<svg width="2297pt" height="497pt"
 viewBox="0.00 0.00 2297.00 497.00" xmlns="http://www.w3.org/2000/svg" xmlns:xlink="http://www.w3.org/1999/xlink">
<g id="graph0" class="graph" transform="scale(1 1) rotate(0) translate(4 493)">
<title>DOM</title>
<polygon fill="white" stroke="transparent" points="-4,4 -4,-493 2293,-493 2293,4 -4,4"/>
<!-- node0 -->
<g id="node1" class="node">
<title>node0</title>
<path fill="#ffe6e6" stroke="black" d="M1021,-489C1021,-489 991,-489 991,-489 985,-489 979,-483 979,-477 979,-477 979,-465 979,-465 979,-459 985,-453 991,-453 991,-453 1021,-453 1021,-453 1027,-453 1033,-459 1033,-465 1033,-465 1033,-477 1033,-477 1033,-483 1027,-489 1021,-489"/>
<text text-anchor="middle" x="1006" y="-467.3" font-family="Arial" font-size="14.00">html</text>
</g>
<!-- node1 -->
<g id="node2" class="node">
<title>node1</title>
<path fill="#e6f3ff" stroke="black" d="M690,-417C690,-417 660,-417 660,-417 654,-417 648,-411 648,-405 648,-405 648,-393 648,-393 648,-387 654,-381 660,-381 660,-381 690,-381 690,-381 696,-381 702,-387 702,-393 702,-393 702,-405 702,-405 702,-411 696,-417 690,-417"/>
<text text-anchor="middle" x="675" y="-395.3" font-family="Arial" font-size="14.00">head</text>
</g>
<!-- node0&#45;&gt;node1 -->
<g id="edge1" class="edge">
<title>node0&#45;&gt;node1</title>
<path fill="none" stroke="black" d="M978.91,-464.27C920,-451.81 780.09,-422.22 712.64,-407.96"/>
<polygon fill="black" stroke="black" points="712.97,-404.45 702.46,-405.81 711.52,-411.3 712.97,-404.45"/>
</g>
<!-- node20 -->
<g id="node21" class="node">
<title>node20</title>
<path fill="#e6ffe6" stroke="black" d="M1390,-417C1390,-417 1360,-417 1360,-417 1354,-417 1348,-411 1348,-405 1348,-405 1348,-393 1348,-393 1348,-387 1354,-381 1360,-381 1360,-381 1390,-381 1390,-381 1396,-381 1402,-387 1402,-393 1402,-393 1402,-405 1402,-405 1402,-411 1396,-417 1390,-417"/>
<text text-anchor="middle" x="1375" y="-395.3" font-family="Arial" font-size="14.00">body</text>
</g>
<!-- node0&#45;&gt;node20 -->
<g id="edge20" class="edge">
<title>node0&#45;&gt;node20</title>
<path fill="none" stroke="black" d="M1033.13,-464.85C1098.31,-452.49 1263.76,-421.1 1337.98,-407.02"/>
<polygon fill="black" stroke="black" points="1338.65,-410.46 1347.83,-405.15 1337.35,-403.58 1338.65,-410.46"/>
</g>
<!-- node2 -->
<g id="node3" class="node">
<title>node2</title>
<path fill="#ffffff" stroke="black" d="M42,-344C42,-344 12,-344 12,-344 6,-344 0,-338 0,-332 0,-332 0,-320 0,-320 0,-314 6,-308 12,-308 12,-308 42,-308 42,-308 48,-308 54,-314 54,-320 54,-320 54,-332 54,-332 54,-338 48,-344 42,-344"/>
<text text-anchor="middle" x="27" y="-322.3" font-family="Arial" font-size="14.00">meta</text>
</g>
<!-- node1&#45;&gt;node2 -->
<g id="edge2" class="edge">
<title>node1&#45;&gt;node2</title>
<path fill="none" stroke="black" d="M647.74,-397C546.84,-393.09 194.07,-377.57 63.81,-344.49"/>
<polygon fill="black" stroke="black" points="64.65,-341.09 54.09,-341.87 62.83,-347.85 64.65,-341.09"/>
</g>
<!-- node3 -->
<g id="node4" class="node">
<title>node3</title>
<path fill="#ffffff" stroke="black" d="M114,-344C114,-344 84,-344 84,-344 78,-344 72,-338 72,-332 72,-332 72,-320 72,-320 72,-314 78,-308 84,-308 84,-308 114,-308 114,-308 120,-308 126,-314 126,-320 126,-320 126,-332 126,-332 126,-338 120,-344 114,-344"/>
<text text-anchor="middle" x="99" y="-322.3" font-family="Arial" font-size="14.00">meta</text>
</g>
<!-- node1&#45;&gt;node3 -->
<g id="edge3" class="edge">
<title>node1&#45;&gt;node3</title>
<path fill="none" stroke="black" d="M647.73,-396.64C554.99,-391.81 251.6,-374.35 136.04,-344.57"/>
<polygon fill="black" stroke="black" points="136.67,-341.11 126.1,-341.83 134.81,-347.86 136.67,-341.11"/>
</g>
<!-- node4 -->
<g id="node5" class="node">
<title>node4</title>
<path fill="#ffffff" stroke="black" d="M186,-344C186,-344 156,-344 156,-344 150,-344 144,-338 144,-332 144,-332 144,-320 144,-320 144,-314 150,-308 156,-308 156,-308 186,-308 186,-308 192,-308 198,-314 198,-320 198,-320 198,-332 198,-332 198,-338 192,-344 186,-344"/>
<text text-anchor="middle" x="171" y="-322.3" font-family="Arial" font-size="14.00">meta</text>
</g>
<!-- node1&#45;&gt;node4 -->
<g id="edge4" class="edge">
<title>node1&#45;&gt;node4</title>
<path fill="none" stroke="black" d="M647.96,-398.21C576.5,-398.07 377.07,-393.3 207.93,-344.67"/>
<polygon fill="black" stroke="black" points="208.69,-341.25 198.11,-341.79 206.72,-347.96 208.69,-341.25"/>
</g>
<!-- node5 -->
<g id="node6" class="node">
<title>node5</title>
<path fill="#ffffff" stroke="black" d="M258,-344C258,-344 228,-344 228,-344 222,-344 216,-338 216,-332 216,-332 216,-320 216,-320 216,-314 222,-308 228,-308 228,-308 258,-308 258,-308 264,-308 270,-314 270,-320 270,-320 270,-332 270,-332 270,-338 264,-344 258,-344"/>
<text text-anchor="middle" x="243" y="-322.3" font-family="Arial" font-size="14.00">meta</text>
</g>
<!-- node1&#45;&gt;node5 -->
<g id="edge5" class="edge">
<title>node1&#45;&gt;node5</title>
<path fill="none" stroke="black" d="M647.93,-397.43C584.35,-395.46 420.82,-386.69 279.81,-344.68"/>
<polygon fill="black" stroke="black" points="280.71,-341.29 270.13,-341.73 278.68,-347.99 280.71,-341.29"/>
</g>
<!-- node6 -->
<g id="node7" class="node">
<title>node6</title>
<path fill="#ffffff" stroke="black" d="M330,-344C330,-344 300,-344 300,-344 294,-344 288,-338 288,-332 288,-332 288,-320 288,-320 288,-314 294,-308 300,-308 300,-308 330,-308 330,-308 336,-308 342,-314 342,-320 342,-320 342,-332 342,-332 342,-338 336,-344 330,-344"/>
<text text-anchor="middle" x="315" y="-322.3" font-family="Arial" font-size="14.00">meta</text>
</g>
<!-- node1&#45;&gt;node6 -->
<g id="edge6" class="edge">
<title>node1&#45;&gt;node6</title>
<path fill="none" stroke="black" d="M647.9,-396.33C593.03,-392.37 465.08,-380.19 352,-344.8"/>
<polygon fill="black" stroke="black" points="352.75,-341.36 342.16,-341.64 350.61,-348.02 352.75,-341.36"/>
</g>
<!-- node7 -->
<g id="node8" class="node">
<title>node7</title>
<path fill="#ffffff" stroke="black" d="M402,-344C402,-344 372,-344 372,-344 366,-344 360,-338 360,-332 360,-332 360,-320 360,-320 360,-314 366,-308 372,-308 372,-308 402,-308 402,-308 408,-308 414,-314 414,-320 414,-320 414,-332 414,-332 414,-338 408,-344 402,-344"/>
<text text-anchor="middle" x="387" y="-322.3" font-family="Arial" font-size="14.00">meta</text>
</g>
<!-- node1&#45;&gt;node7 -->
<g id="edge7" class="edge">
<title>node1&#45;&gt;node7</title>
<path fill="none" stroke="black" d="M647.9,-394.63C602.76,-388.51 509.43,-373.79 423.8,-344.82"/>
<polygon fill="black" stroke="black" points="424.8,-341.47 414.2,-341.51 422.51,-348.08 424.8,-341.47"/>
</g>
<!-- node8 -->
<g id="node9" class="node">
<title>node8</title>
<path fill="#ffffff" stroke="black" d="M474,-344C474,-344 444,-344 444,-344 438,-344 432,-338 432,-332 432,-332 432,-320 432,-320 432,-314 438,-308 444,-308 444,-308 474,-308 474,-308 480,-308 486,-314 486,-320 486,-320 486,-332 486,-332 486,-338 480,-344 474,-344"/>
<text text-anchor="middle" x="459" y="-322.3" font-family="Arial" font-size="14.00">title</text>
</g>
<!-- node1&#45;&gt;node8 -->
<g id="edge8" class="edge">
<title>node1&#45;&gt;node8</title>
<path fill="none" stroke="black" d="M647.97,-391.64C614.12,-383.33 554.36,-367.53 495.69,-344.95"/>
<polygon fill="black" stroke="black" points="496.88,-341.66 486.29,-341.27 494.32,-348.18 496.88,-341.66"/>
</g>
<!-- node9 -->
<g id="node10" class="node">
<title>node9</title>
<path fill="#ffffff" stroke="black" d="M546,-344C546,-344 516,-344 516,-344 510,-344 504,-338 504,-332 504,-332 504,-320 504,-320 504,-314 510,-308 516,-308 516,-308 546,-308 546,-308 552,-308 558,-314 558,-320 558,-320 558,-332 558,-332 558,-338 552,-344 546,-344"/>
<text text-anchor="middle" x="531" y="-322.3" font-family="Arial" font-size="14.00">link</text>
</g>
<!-- node1&#45;&gt;node9 -->
<g id="edge9" class="edge">
<title>node1&#45;&gt;node9</title>
<path fill="none" stroke="black" d="M647.9,-384.77C627.92,-375 599.86,-361.25 567.39,-345.18"/>
<polygon fill="black" stroke="black" points="568.63,-341.89 558.12,-340.58 565.52,-348.16 568.63,-341.89"/>
</g>
<!-- node10 -->
<g id="node11" class="node">
<title>node10</title>
<path fill="#ffffff" stroke="black" d="M618,-344C618,-344 588,-344 588,-344 582,-344 576,-338 576,-332 576,-332 576,-320 576,-320 576,-314 582,-308 588,-308 588,-308 618,-308 618,-308 624,-308 630,-314 630,-320 630,-320 630,-332 630,-332 630,-338 624,-344 618,-344"/>
<text text-anchor="middle" x="603" y="-322.3" font-family="Arial" font-size="14.00">link</text>
</g>
<!-- node1&#45;&gt;node10 -->
<g id="edge10" class="edge">
<title>node1&#45;&gt;node10</title>
<path fill="none" stroke="black" d="M657.57,-380.81C648.55,-371.92 637.39,-360.91 627.51,-351.17"/>
<polygon fill="black" stroke="black" points="629.85,-348.56 620.27,-344.03 624.93,-353.54 629.85,-348.56"/>
</g>
<!-- node11 -->
<g id="node12" class="node">
<title>node11</title>
<path fill="#ffffff" stroke="black" d="M690,-344C690,-344 660,-344 660,-344 654,-344 648,-338 648,-332 648,-332 648,-320 648,-320 648,-314 654,-308 660,-308 660,-308 690,-308 690,-308 696,-308 702,-314 702,-320 702,-320 702,-332 702,-332 702,-338 696,-344 690,-344"/>
<text text-anchor="middle" x="675" y="-322.3" font-family="Arial" font-size="14.00">link</text>
</g>
<!-- node1&#45;&gt;node11 -->
<g id="edge11" class="edge">
<title>node1&#45;&gt;node11</title>
<path fill="none" stroke="black" d="M675,-380.81C675,-372.79 675,-363.05 675,-354.07"/>
<polygon fill="black" stroke="black" points="678.5,-354.03 675,-344.03 671.5,-354.03 678.5,-354.03"/>
</g>
<!-- node12 -->
<g id="node13" class="node">
<title>node12</title>
<path fill="#ffffff" stroke="black" d="M762,-344C762,-344 732,-344 732,-344 726,-344 720,-338 720,-332 720,-332 720,-320 720,-320 720,-314 726,-308 732,-308 732,-308 762,-308 762,-308 768,-308 774,-314 774,-320 774,-320 774,-332 774,-332 774,-338 768,-344 762,-344"/>
<text text-anchor="middle" x="747" y="-322.3" font-family="Arial" font-size="14.00">link</text>
</g>
<!-- node1&#45;&gt;node12 -->
<g id="edge12" class="edge">
<title>node1&#45;&gt;node12</title>
<path fill="none" stroke="black" d="M692.43,-380.81C701.45,-371.92 712.61,-360.91 722.49,-351.17"/>
<polygon fill="black" stroke="black" points="725.07,-353.54 729.73,-344.03 720.15,-348.56 725.07,-353.54"/>
</g>
<!-- node13 -->
<g id="node14" class="node">
<title>node13</title>
<path fill="#ffffff" stroke="black" d="M834,-344C834,-344 804,-344 804,-344 798,-344 792,-338 792,-332 792,-332 792,-320 792,-320 792,-314 798,-308 804,-308 804,-308 834,-308 834,-308 840,-308 846,-314 846,-320 846,-320 846,-332 846,-332 846,-338 840,-344 834,-344"/>
<text text-anchor="middle" x="819" y="-322.3" font-family="Arial" font-size="14.00">link</text>
</g>
<!-- node1&#45;&gt;node13 -->
<g id="edge13" class="edge">
<title>node1&#45;&gt;node13</title>
<path fill="none" stroke="black" d="M702.1,-384.77C722.08,-375 750.14,-361.25 782.61,-345.18"/>
<polygon fill="black" stroke="black" points="784.48,-348.16 791.88,-340.58 781.37,-341.89 784.48,-348.16"/>
</g>
<!-- node14 -->
<g id="node15" class="node">
<title>node14</title>
<path fill="#ffffff" stroke="black" d="M906,-344C906,-344 876,-344 876,-344 870,-344 864,-338 864,-332 864,-332 864,-320 864,-320 864,-314 870,-308 876,-308 876,-308 906,-308 906,-308 912,-308 918,-314 918,-320 918,-320 918,-332 918,-332 918,-338 912,-344 906,-344"/>
<text text-anchor="middle" x="891" y="-322.3" font-family="Arial" font-size="14.00">link</text>
</g>
<!-- node1&#45;&gt;node14 -->
<g id="edge14" class="edge">
<title>node1&#45;&gt;node14</title>
<path fill="none" stroke="black" d="M702.03,-391.64C735.88,-383.33 795.64,-367.53 854.31,-344.95"/>
<polygon fill="black" stroke="black" points="855.68,-348.18 863.71,-341.27 853.12,-341.66 855.68,-348.18"/>
</g>
<!-- node15 -->
<g id="node16" class="node">
<title>node15</title>
<path fill="#ffffff" stroke="black" d="M978,-344C978,-344 948,-344 948,-344 942,-344 936,-338 936,-332 936,-332 936,-320 936,-320 936,-314 942,-308 948,-308 948,-308 978,-308 978,-308 984,-308 990,-314 990,-320 990,-320 990,-332 990,-332 990,-338 984,-344 978,-344"/>
<text text-anchor="middle" x="963" y="-322.3" font-family="Arial" font-size="14.00">link</text>
</g>
<!-- node1&#45;&gt;node15 -->
<g id="edge15" class="edge">
<title>node1&#45;&gt;node15</title>
<path fill="none" stroke="black" d="M702.1,-394.63C747.24,-388.51 840.57,-373.79 926.2,-344.82"/>
<polygon fill="black" stroke="black" points="927.49,-348.08 935.8,-341.51 925.2,-341.47 927.49,-348.08"/>
</g>
<!-- node16 -->
<g id="node17" class="node">
<title>node16</title>
<path fill="#ffffff" stroke="black" d="M1050,-344C1050,-344 1020,-344 1020,-344 1014,-344 1008,-338 1008,-332 1008,-332 1008,-320 1008,-320 1008,-314 1014,-308 1020,-308 1020,-308 1050,-308 1050,-308 1056,-308 1062,-314 1062,-320 1062,-320 1062,-332 1062,-332 1062,-338 1056,-344 1050,-344"/>
<text text-anchor="middle" x="1035" y="-322.3" font-family="Arial" font-size="14.00">link</text>
</g>
<!-- node1&#45;&gt;node16 -->
<g id="edge16" class="edge">
<title>node1&#45;&gt;node16</title>
<path fill="none" stroke="black" d="M702.1,-396.33C756.97,-392.37 884.92,-380.19 998,-344.8"/>
<polygon fill="black" stroke="black" points="999.39,-348.02 1007.84,-341.64 997.25,-341.36 999.39,-348.02"/>
</g>
<!-- node17 -->
<g id="node18" class="node">
<title>node17</title>
<path fill="#ffffff" stroke="black" d="M1122,-344C1122,-344 1092,-344 1092,-344 1086,-344 1080,-338 1080,-332 1080,-332 1080,-320 1080,-320 1080,-314 1086,-308 1092,-308 1092,-308 1122,-308 1122,-308 1128,-308 1134,-314 1134,-320 1134,-320 1134,-332 1134,-332 1134,-338 1128,-344 1122,-344"/>
<text text-anchor="middle" x="1107" y="-322.3" font-family="Arial" font-size="14.00">link</text>
</g>
<!-- node1&#45;&gt;node17 -->
<g id="edge17" class="edge">
<title>node1&#45;&gt;node17</title>
<path fill="none" stroke="black" d="M702.07,-397.43C765.65,-395.46 929.18,-386.69 1070.19,-344.68"/>
<polygon fill="black" stroke="black" points="1071.32,-347.99 1079.87,-341.73 1069.29,-341.29 1071.32,-347.99"/>
</g>
<!-- node18 -->
<g id="node19" class="node">
<title>node18</title>
<path fill="#ffffff" stroke="black" d="M1194,-344C1194,-344 1164,-344 1164,-344 1158,-344 1152,-338 1152,-332 1152,-332 1152,-320 1152,-320 1152,-314 1158,-308 1164,-308 1164,-308 1194,-308 1194,-308 1200,-308 1206,-314 1206,-320 1206,-320 1206,-332 1206,-332 1206,-338 1200,-344 1194,-344"/>
<text text-anchor="middle" x="1179" y="-322.3" font-family="Arial" font-size="14.00">link</text>
</g>
<!-- node1&#45;&gt;node18 -->
<g id="edge18" class="edge">
<title>node1&#45;&gt;node18</title>
<path fill="none" stroke="black" d="M702.04,-398.21C773.5,-398.07 972.93,-393.3 1142.07,-344.67"/>
<polygon fill="black" stroke="black" points="1143.28,-347.96 1151.89,-341.79 1141.31,-341.25 1143.28,-347.96"/>
</g>
<!-- node19 -->
<g id="node20" class="node">
<title>node19</title>
<path fill="#ffffff" stroke="black" d="M1276,-344C1276,-344 1236,-344 1236,-344 1230,-344 1224,-338 1224,-332 1224,-332 1224,-320 1224,-320 1224,-314 1230,-308 1236,-308 1236,-308 1276,-308 1276,-308 1282,-308 1288,-314 1288,-320 1288,-320 1288,-332 1288,-332 1288,-338 1282,-344 1276,-344"/>
<text text-anchor="middle" x="1256" y="-322.3" font-family="Arial" font-size="14.00">noscript</text>
</g>
<!-- node1&#45;&gt;node19 -->
<g id="edge19" class="edge">
<title>node1&#45;&gt;node19</title>
<path fill="none" stroke="black" d="M702.22,-398.33C780.98,-398.65 1015.66,-395.22 1213.95,-344.82"/>
<polygon fill="black" stroke="black" points="1214.86,-348.2 1223.66,-342.3 1213.1,-341.42 1214.86,-348.2"/>
</g>
<!-- node21 -->
<g id="node22" class="node">
<title>node21</title>
<path fill="#fff4e6" stroke="black" d="M1356,-345C1356,-345 1318,-345 1318,-345 1312,-345 1306,-339 1306,-333 1306,-333 1306,-319 1306,-319 1306,-313 1312,-307 1318,-307 1318,-307 1356,-307 1356,-307 1362,-307 1368,-313 1368,-319 1368,-319 1368,-333 1368,-333 1368,-339 1362,-345 1356,-345"/>
<text text-anchor="middle" x="1337" y="-329.8" font-family="Arial" font-size="14.00">header</text>
<text text-anchor="middle" x="1337" y="-314.8" font-family="Arial" font-size="14.00">.header</text>
</g>
<!-- node20&#45;&gt;node21 -->
<g id="edge21" class="edge">
<title>node20&#45;&gt;node21</title>
<path fill="none" stroke="black" d="M1365.8,-380.81C1361.5,-372.77 1356.27,-363 1351.46,-354.01"/>
<polygon fill="black" stroke="black" points="1354.45,-352.18 1346.64,-345.02 1348.28,-355.49 1354.45,-352.18"/>
</g>
<!-- node22 -->
<g id="node23" class="node">
<title>node22</title>
<path fill="#f0e6ff" stroke="black" d="M1428,-344C1428,-344 1398,-344 1398,-344 1392,-344 1386,-338 1386,-332 1386,-332 1386,-320 1386,-320 1386,-314 1392,-308 1398,-308 1398,-308 1428,-308 1428,-308 1434,-308 1440,-314 1440,-320 1440,-320 1440,-332 1440,-332 1440,-338 1434,-344 1428,-344"/>
<text text-anchor="middle" x="1413" y="-322.3" font-family="Arial" font-size="14.00">main</text>
</g>
<!-- node20&#45;&gt;node22 -->
<g id="edge22" class="edge">
<title>node20&#45;&gt;node22</title>
<path fill="none" stroke="black" d="M1384.2,-380.81C1388.68,-372.44 1394.16,-362.2 1399.14,-352.9"/>
<polygon fill="black" stroke="black" points="1402.25,-354.5 1403.89,-344.03 1396.08,-351.19 1402.25,-354.5"/>
</g>
<!-- node44 -->
<g id="node45" class="node">
<title>node44</title>
<path fill="#ffe6f0" stroke="black" d="M1501.5,-345C1501.5,-345 1470.5,-345 1470.5,-345 1464.5,-345 1458.5,-339 1458.5,-333 1458.5,-333 1458.5,-319 1458.5,-319 1458.5,-313 1464.5,-307 1470.5,-307 1470.5,-307 1501.5,-307 1501.5,-307 1507.5,-307 1513.5,-313 1513.5,-319 1513.5,-319 1513.5,-333 1513.5,-333 1513.5,-339 1507.5,-345 1501.5,-345"/>
<text text-anchor="middle" x="1486" y="-329.8" font-family="Arial" font-size="14.00">footer</text>
<text text-anchor="middle" x="1486" y="-314.8" font-family="Arial" font-size="14.00">.footer</text>
</g>
<!-- node20&#45;&gt;node44 -->
<g id="edge44" class="edge">
<title>node20&#45;&gt;node44</title>
<path fill="none" stroke="black" d="M1401.59,-380.99C1416.09,-371.72 1434.25,-360.1 1450,-350.02"/>
<polygon fill="black" stroke="black" points="1451.93,-352.95 1458.47,-344.61 1448.16,-347.05 1451.93,-352.95"/>
</g>
<!-- node23 -->
<g id="node24" class="node">
<title>node23</title>
<path fill="#ffffff" stroke="black" d="M1393,-263.5C1393,-263.5 1341,-263.5 1341,-263.5 1335,-263.5 1329,-257.5 1329,-251.5 1329,-251.5 1329,-237.5 1329,-237.5 1329,-231.5 1335,-225.5 1341,-225.5 1341,-225.5 1393,-225.5 1393,-225.5 1399,-225.5 1405,-231.5 1405,-237.5 1405,-237.5 1405,-251.5 1405,-251.5 1405,-257.5 1399,-263.5 1393,-263.5"/>
<text text-anchor="middle" x="1367" y="-248.3" font-family="Arial" font-size="14.00">h2</text>
<text text-anchor="middle" x="1367" y="-233.3" font-family="Arial" font-size="14.00">.page&#45;title</text>
</g>
<!-- node22&#45;&gt;node23 -->
<g id="edge23" class="edge">
<title>node22&#45;&gt;node23</title>
<path fill="none" stroke="black" d="M1403.02,-307.75C1397.06,-297.44 1389.35,-284.13 1382.6,-272.46"/>
<polygon fill="black" stroke="black" points="1385.48,-270.45 1377.44,-263.54 1379.42,-273.95 1385.48,-270.45"/>
</g>
<!-- node24 -->
<g id="node25" class="node">
<title>node24</title>
<path fill="#ffffcc" stroke="black" d="M1485,-271C1485,-271 1435,-271 1435,-271 1429,-271 1423,-265 1423,-259 1423,-259 1423,-230 1423,-230 1423,-224 1429,-218 1435,-218 1435,-218 1485,-218 1485,-218 1491,-218 1497,-224 1497,-230 1497,-230 1497,-259 1497,-259 1497,-265 1491,-271 1485,-271"/>
<text text-anchor="middle" x="1460" y="-255.8" font-family="Arial" font-size="14.00">section</text>
<text text-anchor="middle" x="1460" y="-240.8" font-family="Arial" font-size="14.00">#glossary</text>
<text text-anchor="middle" x="1460" y="-225.8" font-family="Arial" font-size="14.00">.glossary</text>
</g>
<!-- node22&#45;&gt;node24 -->
<g id="edge24" class="edge">
<title>node22&#45;&gt;node24</title>
<path fill="none" stroke="black" d="M1423.2,-307.75C1428.04,-299.57 1433.99,-289.49 1439.7,-279.85"/>
<polygon fill="black" stroke="black" points="1442.74,-281.57 1444.82,-271.18 1436.72,-278 1442.74,-281.57"/>
</g>
<!-- node25 -->
<g id="node26" class="node">
<title>node25</title>
<path fill="#ffffff" stroke="black" d="M1283,-182C1283,-182 1253,-182 1253,-182 1247,-182 1241,-176 1241,-170 1241,-170 1241,-158 1241,-158 1241,-152 1247,-146 1253,-146 1253,-146 1283,-146 1283,-146 1289,-146 1295,-152 1295,-158 1295,-158 1295,-170 1295,-170 1295,-176 1289,-182 1283,-182"/>
<text text-anchor="middle" x="1268" y="-160.3" font-family="Arial" font-size="14.00">p</text>
</g>
<!-- node24&#45;&gt;node25 -->
<g id="edge25" class="edge">
<title>node24&#45;&gt;node25</title>
<path fill="none" stroke="black" d="M1422.85,-222.26C1419.88,-220.76 1416.91,-219.32 1414,-218 1377.73,-201.49 1334.68,-186.38 1304.76,-176.55"/>
<polygon fill="black" stroke="black" points="1305.74,-173.19 1295.15,-173.43 1303.58,-179.85 1305.74,-173.19"/>
</g>
<!-- node27 -->
<g id="node28" class="node">
<title>node27</title>
<path fill="#ffffff" stroke="black" d="M1667,-182C1667,-182 1637,-182 1637,-182 1631,-182 1625,-176 1625,-170 1625,-170 1625,-158 1625,-158 1625,-152 1631,-146 1637,-146 1637,-146 1667,-146 1667,-146 1673,-146 1679,-152 1679,-158 1679,-158 1679,-170 1679,-170 1679,-176 1673,-182 1667,-182"/>
<text text-anchor="middle" x="1652" y="-160.3" font-family="Arial" font-size="14.00">dl</text>
</g>
<!-- node24&#45;&gt;node27 -->
<g id="edge27" class="edge">
<title>node24&#45;&gt;node27</title>
<path fill="none" stroke="black" d="M1497.02,-228.36C1531.14,-214.42 1581.48,-193.83 1615.45,-179.94"/>
<polygon fill="black" stroke="black" points="1617.07,-183.06 1625,-176.04 1614.42,-176.58 1617.07,-183.06"/>
</g>
<!-- node26 -->
<g id="node27" class="node">
<title>node26</title>
<path fill="#ffffff" stroke="black" d="M1040.5,-110C1040.5,-110 869.5,-110 869.5,-110 863.5,-110 857.5,-104 857.5,-98 857.5,-98 857.5,-84 857.5,-84 857.5,-78 863.5,-72 869.5,-72 869.5,-72 1040.5,-72 1040.5,-72 1046.5,-72 1052.5,-78 1052.5,-84 1052.5,-84 1052.5,-98 1052.5,-98 1052.5,-104 1046.5,-110 1040.5,-110"/>
<text text-anchor="middle" x="955" y="-94.8" font-family="Arial" font-size="14.00">i</text>
<text text-anchor="middle" x="955" y="-79.8" font-family="Arial" font-size="14.00">.fa&#45;duotone .fa&#45;circle&#45;question</text>
</g>
<!-- node25&#45;&gt;node26 -->
<g id="edge26" class="edge">
<title>node25&#45;&gt;node26</title>
<path fill="none" stroke="black" d="M1240.77,-156.82C1197.48,-147 1111.06,-127.4 1044.53,-112.31"/>
<polygon fill="black" stroke="black" points="1044.98,-108.82 1034.45,-110.02 1043.43,-115.65 1044.98,-108.82"/>
</g>
<!-- node28 -->
<g id="node29" class="node">
<title>node28</title>
<path fill="#ffffff" stroke="black" d="M1187,-110C1187,-110 1083,-110 1083,-110 1077,-110 1071,-104 1071,-98 1071,-98 1071,-84 1071,-84 1071,-78 1077,-72 1083,-72 1083,-72 1187,-72 1187,-72 1193,-72 1199,-78 1199,-84 1199,-84 1199,-98 1199,-98 1199,-104 1193,-110 1187,-110"/>
<text text-anchor="middle" x="1135" y="-94.8" font-family="Arial" font-size="14.00">dt</text>
<text text-anchor="middle" x="1135" y="-79.8" font-family="Arial" font-size="14.00">#glossary&#45;attribute</text>
</g>
<!-- node27&#45;&gt;node28 -->
<g id="edge28" class="edge">
<title>node27&#45;&gt;node28</title>
<path fill="none" stroke="black" d="M1624.8,-160.93C1556.53,-155.47 1372.33,-139.22 1209.59,-110.17"/>
<polygon fill="black" stroke="black" points="1209.86,-106.67 1199.39,-108.33 1208.61,-113.56 1209.86,-106.67"/>
</g>
<!-- node29 -->
<g id="node30" class="node">
<title>node29</title>
<path fill="#ffffff" stroke="black" d="M1259,-109C1259,-109 1229,-109 1229,-109 1223,-109 1217,-103 1217,-97 1217,-97 1217,-85 1217,-85 1217,-79 1223,-73 1229,-73 1229,-73 1259,-73 1259,-73 1265,-73 1271,-79 1271,-85 1271,-85 1271,-97 1271,-97 1271,-103 1265,-109 1259,-109"/>
<text text-anchor="middle" x="1244" y="-87.3" font-family="Arial" font-size="14.00">dd</text>
</g>
<!-- node27&#45;&gt;node29 -->
<g id="edge29" class="edge">
<title>node27&#45;&gt;node29</title>
<path fill="none" stroke="black" d="M1624.73,-162.1C1563.85,-159.48 1412.49,-149.48 1280.97,-109.74"/>
<polygon fill="black" stroke="black" points="1281.72,-106.31 1271.14,-106.7 1279.66,-113 1281.72,-106.31"/>
</g>
<!-- node32 -->
<g id="node33" class="node">
<title>node32</title>
<path fill="#ffffff" stroke="black" d="M1376.5,-110C1376.5,-110 1301.5,-110 1301.5,-110 1295.5,-110 1289.5,-104 1289.5,-98 1289.5,-98 1289.5,-84 1289.5,-84 1289.5,-78 1295.5,-72 1301.5,-72 1301.5,-72 1376.5,-72 1376.5,-72 1382.5,-72 1388.5,-78 1388.5,-84 1388.5,-84 1388.5,-98 1388.5,-98 1388.5,-104 1382.5,-110 1376.5,-110"/>
<text text-anchor="middle" x="1339" y="-94.8" font-family="Arial" font-size="14.00">dt</text>
<text text-anchor="middle" x="1339" y="-79.8" font-family="Arial" font-size="14.00">#glossary&#45;css</text>
</g>
<!-- node27&#45;&gt;node32 -->
<g id="edge32" class="edge">
<title>node27&#45;&gt;node32</title>
<path fill="none" stroke="black" d="M1624.75,-158.15C1579.73,-149.96 1486.85,-132.31 1398.7,-110.06"/>
<polygon fill="black" stroke="black" points="1399.36,-106.62 1388.8,-107.54 1397.63,-113.4 1399.36,-106.62"/>
</g>
<!-- node33 -->
<g id="node34" class="node">
<title>node33</title>
<path fill="#ffffff" stroke="black" d="M1449,-109C1449,-109 1419,-109 1419,-109 1413,-109 1407,-103 1407,-97 1407,-97 1407,-85 1407,-85 1407,-79 1413,-73 1419,-73 1419,-73 1449,-73 1449,-73 1455,-73 1461,-79 1461,-85 1461,-85 1461,-97 1461,-97 1461,-103 1455,-109 1449,-109"/>
<text text-anchor="middle" x="1434" y="-87.3" font-family="Arial" font-size="14.00">dd</text>
</g>
<!-- node27&#45;&gt;node33 -->
<g id="edge33" class="edge">
<title>node27&#45;&gt;node33</title>
<path fill="none" stroke="black" d="M1624.97,-156.75C1590.81,-148.51 1530.18,-132.72 1470.8,-109.99"/>
<polygon fill="black" stroke="black" points="1471.87,-106.65 1461.29,-106.28 1469.33,-113.17 1471.87,-106.65"/>
</g>
<!-- node34 -->
<g id="node35" class="node">
<title>node34</title>
<path fill="#ffffff" stroke="black" d="M1595,-110C1595,-110 1491,-110 1491,-110 1485,-110 1479,-104 1479,-98 1479,-98 1479,-84 1479,-84 1479,-78 1485,-72 1491,-72 1491,-72 1595,-72 1595,-72 1601,-72 1607,-78 1607,-84 1607,-84 1607,-98 1607,-98 1607,-104 1601,-110 1595,-110"/>
<text text-anchor="middle" x="1543" y="-94.8" font-family="Arial" font-size="14.00">dt</text>
<text text-anchor="middle" x="1543" y="-79.8" font-family="Arial" font-size="14.00">#glossary&#45;element</text>
</g>
<!-- node27&#45;&gt;node34 -->
<g id="edge34" class="edge">
<title>node27&#45;&gt;node34</title>
<path fill="none" stroke="black" d="M1625.89,-145.99C1611.99,-136.94 1594.68,-125.66 1579.47,-115.75"/>
<polygon fill="black" stroke="black" points="1581.09,-112.63 1570.8,-110.11 1577.27,-118.5 1581.09,-112.63"/>
</g>
<!-- node35 -->
<g id="node36" class="node">
<title>node35</title>
<path fill="#ffffff" stroke="black" d="M1667,-109C1667,-109 1637,-109 1637,-109 1631,-109 1625,-103 1625,-97 1625,-97 1625,-85 1625,-85 1625,-79 1631,-73 1637,-73 1637,-73 1667,-73 1667,-73 1673,-73 1679,-79 1679,-85 1679,-85 1679,-97 1679,-97 1679,-103 1673,-109 1667,-109"/>
<text text-anchor="middle" x="1652" y="-87.3" font-family="Arial" font-size="14.00">dd</text>
</g>
<!-- node27&#45;&gt;node35 -->
<g id="edge35" class="edge">
<title>node27&#45;&gt;node35</title>
<path fill="none" stroke="black" d="M1652,-145.81C1652,-137.79 1652,-128.05 1652,-119.07"/>
<polygon fill="black" stroke="black" points="1655.5,-119.03 1652,-109.03 1648.5,-119.03 1655.5,-119.03"/>
</g>
<!-- node37 -->
<g id="node38" class="node">
<title>node37</title>
<path fill="#ffffff" stroke="black" d="M1790.5,-110C1790.5,-110 1709.5,-110 1709.5,-110 1703.5,-110 1697.5,-104 1697.5,-98 1697.5,-98 1697.5,-84 1697.5,-84 1697.5,-78 1703.5,-72 1709.5,-72 1709.5,-72 1790.5,-72 1790.5,-72 1796.5,-72 1802.5,-78 1802.5,-84 1802.5,-84 1802.5,-98 1802.5,-98 1802.5,-104 1796.5,-110 1790.5,-110"/>
<text text-anchor="middle" x="1750" y="-94.8" font-family="Arial" font-size="14.00">dt</text>
<text text-anchor="middle" x="1750" y="-79.8" font-family="Arial" font-size="14.00">#glossary&#45;html</text>
</g>
<!-- node27&#45;&gt;node37 -->
<g id="edge37" class="edge">
<title>node27&#45;&gt;node37</title>
<path fill="none" stroke="black" d="M1675.72,-145.81C1688.11,-136.84 1703.46,-125.72 1716.98,-115.92"/>
<polygon fill="black" stroke="black" points="1719.08,-118.72 1725.13,-110.02 1714.98,-113.05 1719.08,-118.72"/>
</g>
<!-- node38 -->
<g id="node39" class="node">
<title>node38</title>
<path fill="#ffffff" stroke="black" d="M1863,-109C1863,-109 1833,-109 1833,-109 1827,-109 1821,-103 1821,-97 1821,-97 1821,-85 1821,-85 1821,-79 1827,-73 1833,-73 1833,-73 1863,-73 1863,-73 1869,-73 1875,-79 1875,-85 1875,-85 1875,-97 1875,-97 1875,-103 1869,-109 1863,-109"/>
<text text-anchor="middle" x="1848" y="-87.3" font-family="Arial" font-size="14.00">dd</text>
</g>
<!-- node27&#45;&gt;node38 -->
<g id="edge38" class="edge">
<title>node27&#45;&gt;node38</title>
<path fill="none" stroke="black" d="M1679.12,-155.15C1711.08,-145.62 1765.6,-128.52 1811,-110 1811.1,-109.96 1811.2,-109.92 1811.3,-109.88"/>
<polygon fill="black" stroke="black" points="1812.94,-112.98 1820.7,-105.77 1810.14,-106.57 1812.94,-112.98"/>
</g>
<!-- node39 -->
<g id="node40" class="node">
<title>node39</title>
<path fill="#ffffff" stroke="black" d="M2017,-110C2017,-110 1905,-110 1905,-110 1899,-110 1893,-104 1893,-98 1893,-98 1893,-84 1893,-84 1893,-78 1899,-72 1905,-72 1905,-72 2017,-72 2017,-72 2023,-72 2029,-78 2029,-84 2029,-84 2029,-98 2029,-98 2029,-104 2023,-110 2017,-110"/>
<text text-anchor="middle" x="1961" y="-94.8" font-family="Arial" font-size="14.00">dt</text>
<text text-anchor="middle" x="1961" y="-79.8" font-family="Arial" font-size="14.00">#glossary&#45;javascript</text>
</g>
<!-- node27&#45;&gt;node39 -->
<g id="edge39" class="edge">
<title>node27&#45;&gt;node39</title>
<path fill="none" stroke="black" d="M1679.16,-156.84C1720.79,-147.39 1803.17,-128.66 1883.23,-110.17"/>
<polygon fill="black" stroke="black" points="1884.03,-113.58 1892.98,-107.92 1882.45,-106.76 1884.03,-113.58"/>
</g>
<!-- node40 -->
<g id="node41" class="node">
<title>node40</title>
<path fill="#ffffff" stroke="black" d="M2089,-109C2089,-109 2059,-109 2059,-109 2053,-109 2047,-103 2047,-97 2047,-97 2047,-85 2047,-85 2047,-79 2053,-73 2059,-73 2059,-73 2089,-73 2089,-73 2095,-73 2101,-79 2101,-85 2101,-85 2101,-97 2101,-97 2101,-103 2095,-109 2089,-109"/>
<text text-anchor="middle" x="2074" y="-87.3" font-family="Arial" font-size="14.00">dd</text>
</g>
<!-- node27&#45;&gt;node40 -->
<g id="edge40" class="edge">
<title>node27&#45;&gt;node40</title>
<path fill="none" stroke="black" d="M1679.33,-162.29C1741.91,-160.04 1900.14,-150.74 2037.05,-109.73"/>
<polygon fill="black" stroke="black" points="2038.33,-112.99 2046.87,-106.72 2036.28,-106.3 2038.33,-112.99"/>
</g>
<!-- node41 -->
<g id="node42" class="node">
<title>node41</title>
<path fill="#ffffff" stroke="black" d="M2205,-110C2205,-110 2131,-110 2131,-110 2125,-110 2119,-104 2119,-98 2119,-98 2119,-84 2119,-84 2119,-78 2125,-72 2131,-72 2131,-72 2205,-72 2205,-72 2211,-72 2217,-78 2217,-84 2217,-84 2217,-98 2217,-98 2217,-104 2211,-110 2205,-110"/>
<text text-anchor="middle" x="2168" y="-94.8" font-family="Arial" font-size="14.00">dt</text>
<text text-anchor="middle" x="2168" y="-79.8" font-family="Arial" font-size="14.00">#glossary&#45;tag</text>
</g>
<!-- node27&#45;&gt;node41 -->
<g id="edge41" class="edge">
<title>node27&#45;&gt;node41</title>
<path fill="none" stroke="black" d="M1679.13,-161.62C1749.02,-157.7 1940.97,-144.59 2108.8,-110.04"/>
<polygon fill="black" stroke="black" points="2109.73,-113.42 2118.8,-107.95 2108.3,-106.57 2109.73,-113.42"/>
</g>
<!-- node42 -->
<g id="node43" class="node">
<title>node42</title>
<path fill="#ffffff" stroke="black" d="M2277,-109C2277,-109 2247,-109 2247,-109 2241,-109 2235,-103 2235,-97 2235,-97 2235,-85 2235,-85 2235,-79 2241,-73 2247,-73 2247,-73 2277,-73 2277,-73 2283,-73 2289,-79 2289,-85 2289,-85 2289,-97 2289,-97 2289,-103 2283,-109 2277,-109"/>
<text text-anchor="middle" x="2262" y="-87.3" font-family="Arial" font-size="14.00">dd</text>
</g>
<!-- node27&#45;&gt;node42 -->
<g id="edge42" class="edge">
<title>node27&#45;&gt;node42</title>
<path fill="none" stroke="black" d="M1679.25,-161.82C1775.9,-157.44 2102.55,-140.86 2225.07,-109.53"/>
<polygon fill="black" stroke="black" points="2226.18,-112.86 2234.91,-106.85 2224.34,-106.1 2226.18,-112.86"/>
</g>
<!-- node30 -->
<g id="node31" class="node">
<title>node30</title>
<path fill="#ffffff" stroke="black" d="M1223,-36C1223,-36 1193,-36 1193,-36 1187,-36 1181,-30 1181,-24 1181,-24 1181,-12 1181,-12 1181,-6 1187,0 1193,0 1193,0 1223,0 1223,0 1229,0 1235,-6 1235,-12 1235,-12 1235,-24 1235,-24 1235,-30 1229,-36 1223,-36"/>
<text text-anchor="middle" x="1208" y="-14.3" font-family="Arial" font-size="14.00">code</text>
</g>
<!-- node29&#45;&gt;node30 -->
<g id="edge30" class="edge">
<title>node29&#45;&gt;node30</title>
<path fill="none" stroke="black" d="M1235.29,-72.81C1231.08,-64.53 1225.95,-54.41 1221.28,-45.19"/>
<polygon fill="black" stroke="black" points="1224.28,-43.37 1216.63,-36.03 1218.04,-46.53 1224.28,-43.37"/>
</g>
<!-- node31 -->
<g id="node32" class="node">
<title>node31</title>
<path fill="#ffffff" stroke="black" d="M1295,-36C1295,-36 1265,-36 1265,-36 1259,-36 1253,-30 1253,-24 1253,-24 1253,-12 1253,-12 1253,-6 1259,0 1265,0 1265,0 1295,0 1295,0 1301,0 1307,-6 1307,-12 1307,-12 1307,-24 1307,-24 1307,-30 1301,-36 1295,-36"/>
<text text-anchor="middle" x="1280" y="-14.3" font-family="Arial" font-size="14.00">code</text>
</g>
<!-- node29&#45;&gt;node31 -->
<g id="edge31" class="edge">
<title>node29&#45;&gt;node31</title>
<path fill="none" stroke="black" d="M1252.71,-72.81C1256.92,-64.53 1262.05,-54.41 1266.72,-45.19"/>
<polygon fill="black" stroke="black" points="1269.96,-46.53 1271.37,-36.03 1263.72,-43.37 1269.96,-46.53"/>
</g>
<!-- node36 -->
<g id="node37" class="node">
<title>node36</title>
<path fill="#ffffff" stroke="black" d="M1667,-36C1667,-36 1637,-36 1637,-36 1631,-36 1625,-30 1625,-24 1625,-24 1625,-12 1625,-12 1625,-6 1631,0 1637,0 1637,0 1667,0 1667,0 1673,0 1679,-6 1679,-12 1679,-12 1679,-24 1679,-24 1679,-30 1673,-36 1667,-36"/>
<text text-anchor="middle" x="1652" y="-14.3" font-family="Arial" font-size="14.00">code</text>
</g>
<!-- node35&#45;&gt;node36 -->
<g id="edge36" class="edge">
<title>node35&#45;&gt;node36</title>
<path fill="none" stroke="black" d="M1652,-72.81C1652,-64.79 1652,-55.05 1652,-46.07"/>
<polygon fill="black" stroke="black" points="1655.5,-46.03 1652,-36.03 1648.5,-46.03 1655.5,-46.03"/>
</g>
<!-- node43 -->
<g id="node44" class="node">
<title>node43</title>
<path fill="#ffffff" stroke="black" d="M2277,-36C2277,-36 2247,-36 2247,-36 2241,-36 2235,-30 2235,-24 2235,-24 2235,-12 2235,-12 2235,-6 2241,0 2247,0 2247,0 2277,0 2277,0 2283,0 2289,-6 2289,-12 2289,-12 2289,-24 2289,-24 2289,-30 2283,-36 2277,-36"/>
<text text-anchor="middle" x="2262" y="-14.3" font-family="Arial" font-size="14.00">code</text>
</g>
<!-- node42&#45;&gt;node43 -->
<g id="edge43" class="edge">
<title>node42&#45;&gt;node43</title>
<path fill="none" stroke="black" d="M2262,-72.81C2262,-64.79 2262,-55.05 2262,-46.07"/>
<polygon fill="black" stroke="black" points="2265.5,-46.03 2262,-36.03 2258.5,-46.03 2265.5,-46.03"/>
</g>
</g>
</svg>
