<?xml version="1.0" encoding="UTF-8" standalone="no"?>
<!DOCTYPE svg PUBLIC "-//W3C//DTD SVG 1.1//EN"
 "http://www.w3.org/Graphics/SVG/1.1/DTD/svg11.dtd">
<!-- Generated by graphviz version 2.43.0 (0)
 -->
<!-- Title: DOM Pages: 1 -->
<svg width="1737pt" height="457pt"
 viewBox="0.00 0.00 1737.00 457.00" xmlns="http://www.w3.org/2000/svg" xmlns:xlink="http://www.w3.org/1999/xlink">
<g id="graph0" class="graph" transform="scale(1 1) rotate(0) translate(4 453)">
<title>DOM</title>
<polygon fill="white" stroke="transparent" points="-4,4 -4,-453 1733,-453 1733,4 -4,4"/>
<!-- node0 -->
<g id="node1" class="node">
<title>node0</title>
<path fill="#ffe6e6" stroke="black" d="M1021,-449C1021,-449 991,-449 991,-449 985,-449 979,-443 979,-437 979,-437 979,-425 979,-425 979,-419 985,-413 991,-413 991,-413 1021,-413 1021,-413 1027,-413 1033,-419 1033,-425 1033,-425 1033,-437 1033,-437 1033,-443 1027,-449 1021,-449"/>
<text text-anchor="middle" x="1006" y="-427.3" font-family="Arial" font-size="14.00">html</text>
</g>
<!-- node1 -->
<g id="node2" class="node">
<title>node1</title>
<path fill="#e6f3ff" stroke="black" d="M690,-377C690,-377 660,-377 660,-377 654,-377 648,-371 648,-365 648,-365 648,-353 648,-353 648,-347 654,-341 660,-341 660,-341 690,-341 690,-341 696,-341 702,-347 702,-353 702,-353 702,-365 702,-365 702,-371 696,-377 690,-377"/>
<text text-anchor="middle" x="675" y="-355.3" font-family="Arial" font-size="14.00">head</text>
</g>
<!-- node0&#45;&gt;node1 -->
<g id="edge1" class="edge">
<title>node0&#45;&gt;node1</title>
<path fill="none" stroke="black" d="M978.91,-424.27C920,-411.81 780.09,-382.22 712.64,-367.96"/>
<polygon fill="black" stroke="black" points="712.97,-364.45 702.46,-365.81 711.52,-371.3 712.97,-364.45"/>
</g>
<!-- node20 -->
<g id="node21" class="node">
<title>node20</title>
<path fill="#e6ffe6" stroke="black" d="M1390,-377C1390,-377 1360,-377 1360,-377 1354,-377 1348,-371 1348,-365 1348,-365 1348,-353 1348,-353 1348,-347 1354,-341 1360,-341 1360,-341 1390,-341 1390,-341 1396,-341 1402,-347 1402,-353 1402,-353 1402,-365 1402,-365 1402,-371 1396,-377 1390,-377"/>
<text text-anchor="middle" x="1375" y="-355.3" font-family="Arial" font-size="14.00">body</text>
</g>
<!-- node0&#45;&gt;node20 -->
<g id="edge20" class="edge">
<title>node0&#45;&gt;node20</title>
<path fill="none" stroke="black" d="M1033.13,-424.85C1098.31,-412.49 1263.76,-381.1 1337.98,-367.02"/>
<polygon fill="black" stroke="black" points="1338.65,-370.46 1347.83,-365.15 1337.35,-363.58 1338.65,-370.46"/>
</g>
<!-- node2 -->
<g id="node3" class="node">
<title>node2</title>
<path fill="#ffffff" stroke="black" d="M42,-304C42,-304 12,-304 12,-304 6,-304 0,-298 0,-292 0,-292 0,-280 0,-280 0,-274 6,-268 12,-268 12,-268 42,-268 42,-268 48,-268 54,-274 54,-280 54,-280 54,-292 54,-292 54,-298 48,-304 42,-304"/>
<text text-anchor="middle" x="27" y="-282.3" font-family="Arial" font-size="14.00">meta</text>
</g>
<!-- node1&#45;&gt;node2 -->
<g id="edge2" class="edge">
<title>node1&#45;&gt;node2</title>
<path fill="none" stroke="black" d="M647.74,-357C546.84,-353.09 194.07,-337.57 63.81,-304.49"/>
<polygon fill="black" stroke="black" points="64.65,-301.09 54.09,-301.87 62.83,-307.85 64.65,-301.09"/>
</g>
<!-- node3 -->
<g id="node4" class="node">
<title>node3</title>
<path fill="#ffffff" stroke="black" d="M114,-304C114,-304 84,-304 84,-304 78,-304 72,-298 72,-292 72,-292 72,-280 72,-280 72,-274 78,-268 84,-268 84,-268 114,-268 114,-268 120,-268 126,-274 126,-280 126,-280 126,-292 126,-292 126,-298 120,-304 114,-304"/>
<text text-anchor="middle" x="99" y="-282.3" font-family="Arial" font-size="14.00">meta</text>
</g>
<!-- node1&#45;&gt;node3 -->
<g id="edge3" class="edge">
<title>node1&#45;&gt;node3</title>
<path fill="none" stroke="black" d="M647.73,-356.64C554.99,-351.81 251.6,-334.35 136.04,-304.57"/>
<polygon fill="black" stroke="black" points="136.67,-301.11 126.1,-301.83 134.81,-307.86 136.67,-301.11"/>
</g>
<!-- node4 -->
<g id="node5" class="node">
<title>node4</title>
<path fill="#ffffff" stroke="black" d="M186,-304C186,-304 156,-304 156,-304 150,-304 144,-298 144,-292 144,-292 144,-280 144,-280 144,-274 150,-268 156,-268 156,-268 186,-268 186,-268 192,-268 198,-274 198,-280 198,-280 198,-292 198,-292 198,-298 192,-304 186,-304"/>
<text text-anchor="middle" x="171" y="-282.3" font-family="Arial" font-size="14.00">meta</text>
</g>
<!-- node1&#45;&gt;node4 -->
<g id="edge4" class="edge">
<title>node1&#45;&gt;node4</title>
<path fill="none" stroke="black" d="M647.96,-358.21C576.5,-358.07 377.07,-353.3 207.93,-304.67"/>
<polygon fill="black" stroke="black" points="208.69,-301.25 198.11,-301.79 206.72,-307.96 208.69,-301.25"/>
</g>
<!-- node5 -->
<g id="node6" class="node">
<title>node5</title>
<path fill="#ffffff" stroke="black" d="M258,-304C258,-304 228,-304 228,-304 222,-304 216,-298 216,-292 216,-292 216,-280 216,-280 216,-274 222,-268 228,-268 228,-268 258,-268 258,-268 264,-268 270,-274 270,-280 270,-280 270,-292 270,-292 270,-298 264,-304 258,-304"/>
<text text-anchor="middle" x="243" y="-282.3" font-family="Arial" font-size="14.00">meta</text>
</g>
<!-- node1&#45;&gt;node5 -->
<g id="edge5" class="edge">
<title>node1&#45;&gt;node5</title>
<path fill="none" stroke="black" d="M647.93,-357.43C584.35,-355.46 420.82,-346.69 279.81,-304.68"/>
<polygon fill="black" stroke="black" points="280.71,-301.29 270.13,-301.73 278.68,-307.99 280.71,-301.29"/>
</g>
<!-- node6 -->
<g id="node7" class="node">
<title>node6</title>
<path fill="#ffffff" stroke="black" d="M330,-304C330,-304 300,-304 300,-304 294,-304 288,-298 288,-292 288,-292 288,-280 288,-280 288,-274 294,-268 300,-268 300,-268 330,-268 330,-268 336,-268 342,-274 342,-280 342,-280 342,-292 342,-292 342,-298 336,-304 330,-304"/>
<text text-anchor="middle" x="315" y="-282.3" font-family="Arial" font-size="14.00">meta</text>
</g>
<!-- node1&#45;&gt;node6 -->
<g id="edge6" class="edge">
<title>node1&#45;&gt;node6</title>
<path fill="none" stroke="black" d="M647.9,-356.33C593.03,-352.37 465.08,-340.19 352,-304.8"/>
<polygon fill="black" stroke="black" points="352.75,-301.36 342.16,-301.64 350.61,-308.02 352.75,-301.36"/>
</g>
<!-- node7 -->
<g id="node8" class="node">
<title>node7</title>
<path fill="#ffffff" stroke="black" d="M402,-304C402,-304 372,-304 372,-304 366,-304 360,-298 360,-292 360,-292 360,-280 360,-280 360,-274 366,-268 372,-268 372,-268 402,-268 402,-268 408,-268 414,-274 414,-280 414,-280 414,-292 414,-292 414,-298 408,-304 402,-304"/>
<text text-anchor="middle" x="387" y="-282.3" font-family="Arial" font-size="14.00">meta</text>
</g>
<!-- node1&#45;&gt;node7 -->
<g id="edge7" class="edge">
<title>node1&#45;&gt;node7</title>
<path fill="none" stroke="black" d="M647.9,-354.63C602.76,-348.51 509.43,-333.79 423.8,-304.82"/>
<polygon fill="black" stroke="black" points="424.8,-301.47 414.2,-301.51 422.51,-308.08 424.8,-301.47"/>
</g>
<!-- node8 -->
<g id="node9" class="node">
<title>node8</title>
<path fill="#ffffff" stroke="black" d="M474,-304C474,-304 444,-304 444,-304 438,-304 432,-298 432,-292 432,-292 432,-280 432,-280 432,-274 438,-268 444,-268 444,-268 474,-268 474,-268 480,-268 486,-274 486,-280 486,-280 486,-292 486,-292 486,-298 480,-304 474,-304"/>
<text text-anchor="middle" x="459" y="-282.3" font-family="Arial" font-size="14.00">title</text>
</g>
<!-- node1&#45;&gt;node8 -->
<g id="edge8" class="edge">
<title>node1&#45;&gt;node8</title>
<path fill="none" stroke="black" d="M647.97,-351.64C614.12,-343.33 554.36,-327.53 495.69,-304.95"/>
<polygon fill="black" stroke="black" points="496.88,-301.66 486.29,-301.27 494.32,-308.18 496.88,-301.66"/>
</g>
<!-- node9 -->
<g id="node10" class="node">
<title>node9</title>
<path fill="#ffffff" stroke="black" d="M546,-304C546,-304 516,-304 516,-304 510,-304 504,-298 504,-292 504,-292 504,-280 504,-280 504,-274 510,-268 516,-268 516,-268 546,-268 546,-268 552,-268 558,-274 558,-280 558,-280 558,-292 558,-292 558,-298 552,-304 546,-304"/>
<text text-anchor="middle" x="531" y="-282.3" font-family="Arial" font-size="14.00">link</text>
</g>
<!-- node1&#45;&gt;node9 -->
<g id="edge9" class="edge">
<title>node1&#45;&gt;node9</title>
<path fill="none" stroke="black" d="M647.9,-344.77C627.92,-335 599.86,-321.25 567.39,-305.18"/>
<polygon fill="black" stroke="black" points="568.63,-301.89 558.12,-300.58 565.52,-308.16 568.63,-301.89"/>
</g>
<!-- node10 -->
<g id="node11" class="node">
<title>node10</title>
<path fill="#ffffff" stroke="black" d="M618,-304C618,-304 588,-304 588,-304 582,-304 576,-298 576,-292 576,-292 576,-280 576,-280 576,-274 582,-268 588,-268 588,-268 618,-268 618,-268 624,-268 630,-274 630,-280 630,-280 630,-292 630,-292 630,-298 624,-304 618,-304"/>
<text text-anchor="middle" x="603" y="-282.3" font-family="Arial" font-size="14.00">link</text>
</g>
<!-- node1&#45;&gt;node10 -->
<g id="edge10" class="edge">
<title>node1&#45;&gt;node10</title>
<path fill="none" stroke="black" d="M657.57,-340.81C648.55,-331.92 637.39,-320.91 627.51,-311.17"/>
<polygon fill="black" stroke="black" points="629.85,-308.56 620.27,-304.03 624.93,-313.54 629.85,-308.56"/>
</g>
<!-- node11 -->
<g id="node12" class="node">
<title>node11</title>
<path fill="#ffffff" stroke="black" d="M690,-304C690,-304 660,-304 660,-304 654,-304 648,-298 648,-292 648,-292 648,-280 648,-280 648,-274 654,-268 660,-268 660,-268 690,-268 690,-268 696,-268 702,-274 702,-280 702,-280 702,-292 702,-292 702,-298 696,-304 690,-304"/>
<text text-anchor="middle" x="675" y="-282.3" font-family="Arial" font-size="14.00">link</text>
</g>
<!-- node1&#45;&gt;node11 -->
<g id="edge11" class="edge">
<title>node1&#45;&gt;node11</title>
<path fill="none" stroke="black" d="M675,-340.81C675,-332.79 675,-323.05 675,-314.07"/>
<polygon fill="black" stroke="black" points="678.5,-314.03 675,-304.03 671.5,-314.03 678.5,-314.03"/>
</g>
<!-- node12 -->
<g id="node13" class="node">
<title>node12</title>
<path fill="#ffffff" stroke="black" d="M762,-304C762,-304 732,-304 732,-304 726,-304 720,-298 720,-292 720,-292 720,-280 720,-280 720,-274 726,-268 732,-268 732,-268 762,-268 762,-268 768,-268 774,-274 774,-280 774,-280 774,-292 774,-292 774,-298 768,-304 762,-304"/>
<text text-anchor="middle" x="747" y="-282.3" font-family="Arial" font-size="14.00">link</text>
</g>
<!-- node1&#45;&gt;node12 -->
<g id="edge12" class="edge">
<title>node1&#45;&gt;node12</title>
<path fill="none" stroke="black" d="M692.43,-340.81C701.45,-331.92 712.61,-320.91 722.49,-311.17"/>
<polygon fill="black" stroke="black" points="725.07,-313.54 729.73,-304.03 720.15,-308.56 725.07,-313.54"/>
</g>
<!-- node13 -->
<g id="node14" class="node">
<title>node13</title>
<path fill="#ffffff" stroke="black" d="M834,-304C834,-304 804,-304 804,-304 798,-304 792,-298 792,-292 792,-292 792,-280 792,-280 792,-274 798,-268 804,-268 804,-268 834,-268 834,-268 840,-268 846,-274 846,-280 846,-280 846,-292 846,-292 846,-298 840,-304 834,-304"/>
<text text-anchor="middle" x="819" y="-282.3" font-family="Arial" font-size="14.00">link</text>
</g>
<!-- node1&#45;&gt;node13 -->
<g id="edge13" class="edge">
<title>node1&#45;&gt;node13</title>
<path fill="none" stroke="black" d="M702.1,-344.77C722.08,-335 750.14,-321.25 782.61,-305.18"/>
<polygon fill="black" stroke="black" points="784.48,-308.16 791.88,-300.58 781.37,-301.89 784.48,-308.16"/>
</g>
<!-- node14 -->
<g id="node15" class="node">
<title>node14</title>
<path fill="#ffffff" stroke="black" d="M906,-304C906,-304 876,-304 876,-304 870,-304 864,-298 864,-292 864,-292 864,-280 864,-280 864,-274 870,-268 876,-268 876,-268 906,-268 906,-268 912,-268 918,-274 918,-280 918,-280 918,-292 918,-292 918,-298 912,-304 906,-304"/>
<text text-anchor="middle" x="891" y="-282.3" font-family="Arial" font-size="14.00">link</text>
</g>
<!-- node1&#45;&gt;node14 -->
<g id="edge14" class="edge">
<title>node1&#45;&gt;node14</title>
<path fill="none" stroke="black" d="M702.03,-351.64C735.88,-343.33 795.64,-327.53 854.31,-304.95"/>
<polygon fill="black" stroke="black" points="855.68,-308.18 863.71,-301.27 853.12,-301.66 855.68,-308.18"/>
</g>
<!-- node15 -->
<g id="node16" class="node">
<title>node15</title>
<path fill="#ffffff" stroke="black" d="M978,-304C978,-304 948,-304 948,-304 942,-304 936,-298 936,-292 936,-292 936,-280 936,-280 936,-274 942,-268 948,-268 948,-268 978,-268 978,-268 984,-268 990,-274 990,-280 990,-280 990,-292 990,-292 990,-298 984,-304 978,-304"/>
<text text-anchor="middle" x="963" y="-282.3" font-family="Arial" font-size="14.00">link</text>
</g>
<!-- node1&#45;&gt;node15 -->
<g id="edge15" class="edge">
<title>node1&#45;&gt;node15</title>
<path fill="none" stroke="black" d="M702.1,-354.63C747.24,-348.51 840.57,-333.79 926.2,-304.82"/>
<polygon fill="black" stroke="black" points="927.49,-308.08 935.8,-301.51 925.2,-301.47 927.49,-308.08"/>
</g>
<!-- node16 -->
<g id="node17" class="node">
<title>node16</title>
<path fill="#ffffff" stroke="black" d="M1050,-304C1050,-304 1020,-304 1020,-304 1014,-304 1008,-298 1008,-292 1008,-292 1008,-280 1008,-280 1008,-274 1014,-268 1020,-268 1020,-268 1050,-268 1050,-268 1056,-268 1062,-274 1062,-280 1062,-280 1062,-292 1062,-292 1062,-298 1056,-304 1050,-304"/>
<text text-anchor="middle" x="1035" y="-282.3" font-family="Arial" font-size="14.00">link</text>
</g>
<!-- node1&#45;&gt;node16 -->
<g id="edge16" class="edge">
<title>node1&#45;&gt;node16</title>
<path fill="none" stroke="black" d="M702.1,-356.33C756.97,-352.37 884.92,-340.19 998,-304.8"/>
<polygon fill="black" stroke="black" points="999.39,-308.02 1007.84,-301.64 997.25,-301.36 999.39,-308.02"/>
</g>
<!-- node17 -->
<g id="node18" class="node">
<title>node17</title>
<path fill="#ffffff" stroke="black" d="M1122,-304C1122,-304 1092,-304 1092,-304 1086,-304 1080,-298 1080,-292 1080,-292 1080,-280 1080,-280 1080,-274 1086,-268 1092,-268 1092,-268 1122,-268 1122,-268 1128,-268 1134,-274 1134,-280 1134,-280 1134,-292 1134,-292 1134,-298 1128,-304 1122,-304"/>
<text text-anchor="middle" x="1107" y="-282.3" font-family="Arial" font-size="14.00">link</text>
</g>
<!-- node1&#45;&gt;node17 -->
<g id="edge17" class="edge">
<title>node1&#45;&gt;node17</title>
<path fill="none" stroke="black" d="M702.07,-357.43C765.65,-355.46 929.18,-346.69 1070.19,-304.68"/>
<polygon fill="black" stroke="black" points="1071.32,-307.99 1079.87,-301.73 1069.29,-301.29 1071.32,-307.99"/>
</g>
<!-- node18 -->
<g id="node19" class="node">
<title>node18</title>
<path fill="#ffffff" stroke="black" d="M1194,-304C1194,-304 1164,-304 1164,-304 1158,-304 1152,-298 1152,-292 1152,-292 1152,-280 1152,-280 1152,-274 1158,-268 1164,-268 1164,-268 1194,-268 1194,-268 1200,-268 1206,-274 1206,-280 1206,-280 1206,-292 1206,-292 1206,-298 1200,-304 1194,-304"/>
<text text-anchor="middle" x="1179" y="-282.3" font-family="Arial" font-size="14.00">link</text>
</g>
<!-- node1&#45;&gt;node18 -->
<g id="edge18" class="edge">
<title>node1&#45;&gt;node18</title>
<path fill="none" stroke="black" d="M702.04,-358.21C773.5,-358.07 972.93,-353.3 1142.07,-304.67"/>
<polygon fill="black" stroke="black" points="1143.28,-307.96 1151.89,-301.79 1141.31,-301.25 1143.28,-307.96"/>
</g>
<!-- node19 -->
<g id="node20" class="node">
<title>node19</title>
<path fill="#ffffff" stroke="black" d="M1276,-304C1276,-304 1236,-304 1236,-304 1230,-304 1224,-298 1224,-292 1224,-292 1224,-280 1224,-280 1224,-274 1230,-268 1236,-268 1236,-268 1276,-268 1276,-268 1282,-268 1288,-274 1288,-280 1288,-280 1288,-292 1288,-292 1288,-298 1282,-304 1276,-304"/>
<text text-anchor="middle" x="1256" y="-282.3" font-family="Arial" font-size="14.00">noscript</text>
</g>
<!-- node1&#45;&gt;node19 -->
<g id="edge19" class="edge">
<title>node1&#45;&gt;node19</title>
<path fill="none" stroke="black" d="M702.22,-358.33C780.98,-358.65 1015.66,-355.22 1213.95,-304.82"/>
<polygon fill="black" stroke="black" points="1214.86,-308.2 1223.66,-302.3 1213.1,-301.42 1214.86,-308.2"/>
</g>
<!-- node21 -->
<g id="node22" class="node">
<title>node21</title>
<path fill="#fff4e6" stroke="black" d="M1356,-305C1356,-305 1318,-305 1318,-305 1312,-305 1306,-299 1306,-293 1306,-293 1306,-279 1306,-279 1306,-273 1312,-267 1318,-267 1318,-267 1356,-267 1356,-267 1362,-267 1368,-273 1368,-279 1368,-279 1368,-293 1368,-293 1368,-299 1362,-305 1356,-305"/>
<text text-anchor="middle" x="1337" y="-289.8" font-family="Arial" font-size="14.00">header</text>
<text text-anchor="middle" x="1337" y="-274.8" font-family="Arial" font-size="14.00">.header</text>
</g>
<!-- node20&#45;&gt;node21 -->
<g id="edge21" class="edge">
<title>node20&#45;&gt;node21</title>
<path fill="none" stroke="black" d="M1365.8,-340.81C1361.5,-332.77 1356.27,-323 1351.46,-314.01"/>
<polygon fill="black" stroke="black" points="1354.45,-312.18 1346.64,-305.02 1348.28,-315.49 1354.45,-312.18"/>
</g>
<!-- node22 -->
<g id="node23" class="node">
<title>node22</title>
<path fill="#f0e6ff" stroke="black" d="M1428,-305C1428,-305 1398,-305 1398,-305 1392,-305 1386,-299 1386,-293 1386,-293 1386,-279 1386,-279 1386,-273 1392,-267 1398,-267 1398,-267 1428,-267 1428,-267 1434,-267 1440,-273 1440,-279 1440,-279 1440,-293 1440,-293 1440,-299 1434,-305 1428,-305"/>
<text text-anchor="middle" x="1413" y="-289.8" font-family="Arial" font-size="14.00">main</text>
<text text-anchor="middle" x="1413" y="-274.8" font-family="Arial" font-size="14.00">.main</text>
</g>
<!-- node20&#45;&gt;node22 -->
<g id="edge22" class="edge">
<title>node20&#45;&gt;node22</title>
<path fill="none" stroke="black" d="M1384.2,-340.81C1388.5,-332.77 1393.73,-323 1398.54,-314.01"/>
<polygon fill="black" stroke="black" points="1401.72,-315.49 1403.36,-305.02 1395.55,-312.18 1401.72,-315.49"/>
</g>
<!-- node41 -->
<g id="node42" class="node">
<title>node41</title>
<path fill="#ffe6f0" stroke="black" d="M1501.5,-305C1501.5,-305 1470.5,-305 1470.5,-305 1464.5,-305 1458.5,-299 1458.5,-293 1458.5,-293 1458.5,-279 1458.5,-279 1458.5,-273 1464.5,-267 1470.5,-267 1470.5,-267 1501.5,-267 1501.5,-267 1507.5,-267 1513.5,-273 1513.5,-279 1513.5,-279 1513.5,-293 1513.5,-293 1513.5,-299 1507.5,-305 1501.5,-305"/>
<text text-anchor="middle" x="1486" y="-289.8" font-family="Arial" font-size="14.00">footer</text>
<text text-anchor="middle" x="1486" y="-274.8" font-family="Arial" font-size="14.00">.footer</text>
</g>
<!-- node20&#45;&gt;node41 -->
<g id="edge41" class="edge">
<title>node20&#45;&gt;node41</title>
<path fill="none" stroke="black" d="M1401.59,-340.99C1416.09,-331.72 1434.25,-320.1 1450,-310.02"/>
<polygon fill="black" stroke="black" points="1451.93,-312.95 1458.47,-304.61 1448.16,-307.05 1451.93,-312.95"/>
</g>
<!-- node23 -->
<g id="node24" class="node">
<title>node23</title>
<path fill="#ffffcc" stroke="black" d="M1093,-231C1093,-231 1013,-231 1013,-231 1007,-231 1001,-225 1001,-219 1001,-219 1001,-190 1001,-190 1001,-184 1007,-178 1013,-178 1013,-178 1093,-178 1093,-178 1099,-178 1105,-184 1105,-190 1105,-190 1105,-219 1105,-219 1105,-225 1099,-231 1093,-231"/>
<text text-anchor="middle" x="1053" y="-215.8" font-family="Arial" font-size="14.00">section</text>
<text text-anchor="middle" x="1053" y="-200.8" font-family="Arial" font-size="14.00">#index&#45;block&#45;1</text>
<text text-anchor="middle" x="1053" y="-185.8" font-family="Arial" font-size="14.00">.index&#45;block</text>
</g>
<!-- node22&#45;&gt;node23 -->
<g id="edge23" class="edge">
<title>node22&#45;&gt;node23</title>
<path fill="none" stroke="black" d="M1385.82,-270.44C1382.89,-269.16 1379.91,-267.98 1377,-267 1288.69,-237.18 1181.68,-220.42 1115.46,-212.16"/>
<polygon fill="black" stroke="black" points="1115.54,-208.65 1105.19,-210.91 1114.69,-215.6 1115.54,-208.65"/>
</g>
<!-- node33 -->
<g id="node34" class="node">
<title>node33</title>
<path fill="#ffffcc" stroke="black" d="M1390,-231C1390,-231 1310,-231 1310,-231 1304,-231 1298,-225 1298,-219 1298,-219 1298,-190 1298,-190 1298,-184 1304,-178 1310,-178 1310,-178 1390,-178 1390,-178 1396,-178 1402,-184 1402,-190 1402,-190 1402,-219 1402,-219 1402,-225 1396,-231 1390,-231"/>
<text text-anchor="middle" x="1350" y="-215.8" font-family="Arial" font-size="14.00">section</text>
<text text-anchor="middle" x="1350" y="-200.8" font-family="Arial" font-size="14.00">#index&#45;block&#45;2</text>
<text text-anchor="middle" x="1350" y="-185.8" font-family="Arial" font-size="14.00">.index&#45;block</text>
</g>
<!-- node22&#45;&gt;node33 -->
<g id="edge33" class="edge">
<title>node22&#45;&gt;node33</title>
<path fill="none" stroke="black" d="M1398.7,-266.96C1392.12,-258.66 1384.1,-248.53 1376.48,-238.91"/>
<polygon fill="black" stroke="black" points="1379.16,-236.67 1370.21,-231 1373.68,-241.01 1379.16,-236.67"/>
</g>
<!-- node39 -->
<g id="node40" class="node">
<title>node39</title>
<path fill="#ffffcc" stroke="black" d="M1522,-231C1522,-231 1432,-231 1432,-231 1426,-231 1420,-225 1420,-219 1420,-219 1420,-190 1420,-190 1420,-184 1426,-178 1432,-178 1432,-178 1522,-178 1522,-178 1528,-178 1534,-184 1534,-190 1534,-190 1534,-219 1534,-219 1534,-225 1528,-231 1522,-231"/>
<text text-anchor="middle" x="1477" y="-215.8" font-family="Arial" font-size="14.00">section</text>
<text text-anchor="middle" x="1477" y="-200.8" font-family="Arial" font-size="14.00">#portrait&#45;block&#45;1</text>
<text text-anchor="middle" x="1477" y="-185.8" font-family="Arial" font-size="14.00">.portrait&#45;block</text>
</g>
<!-- node22&#45;&gt;node39 -->
<g id="edge39" class="edge">
<title>node22&#45;&gt;node39</title>
<path fill="none" stroke="black" d="M1427.52,-266.96C1434.21,-258.66 1442.36,-248.53 1450.1,-238.91"/>
<polygon fill="black" stroke="black" points="1452.92,-240.99 1456.47,-231 1447.47,-236.6 1452.92,-240.99"/>
</g>
<!-- node40 -->
<g id="node41" class="node">
<title>node40</title>
<path fill="#ffffcc" stroke="black" d="M1654,-231C1654,-231 1564,-231 1564,-231 1558,-231 1552,-225 1552,-219 1552,-219 1552,-190 1552,-190 1552,-184 1558,-178 1564,-178 1564,-178 1654,-178 1654,-178 1660,-178 1666,-184 1666,-190 1666,-190 1666,-219 1666,-219 1666,-225 1660,-231 1654,-231"/>
<text text-anchor="middle" x="1609" y="-215.8" font-family="Arial" font-size="14.00">section</text>
<text text-anchor="middle" x="1609" y="-200.8" font-family="Arial" font-size="14.00">#portrait&#45;block&#45;2</text>
<text text-anchor="middle" x="1609" y="-185.8" font-family="Arial" font-size="14.00">.portrait&#45;block</text>
</g>
<!-- node22&#45;&gt;node40 -->
<g id="edge40" class="edge">
<title>node22&#45;&gt;node40</title>
<path fill="none" stroke="black" d="M1440.39,-270.96C1443.28,-269.58 1446.19,-268.24 1449,-267 1487.23,-250.17 1499.61,-247.39 1542.2,-231.27"/>
<polygon fill="black" stroke="black" points="1543.67,-234.46 1551.77,-227.62 1541.18,-227.92 1543.67,-234.46"/>
</g>
<!-- node24 -->
<g id="node25" class="node">
<title>node24</title>
<path fill="#ffffff" stroke="black" d="M741,-134.5C741,-134.5 689,-134.5 689,-134.5 683,-134.5 677,-128.5 677,-122.5 677,-122.5 677,-108.5 677,-108.5 677,-102.5 683,-96.5 689,-96.5 689,-96.5 741,-96.5 741,-96.5 747,-96.5 753,-102.5 753,-108.5 753,-108.5 753,-122.5 753,-122.5 753,-128.5 747,-134.5 741,-134.5"/>
<text text-anchor="middle" x="715" y="-119.3" font-family="Arial" font-size="14.00">h2</text>
<text text-anchor="middle" x="715" y="-104.3" font-family="Arial" font-size="14.00">.page&#45;title</text>
</g>
<!-- node23&#45;&gt;node24 -->
<g id="edge24" class="edge">
<title>node23&#45;&gt;node24</title>
<path fill="none" stroke="black" d="M1000.75,-197.09C941.51,-188.78 842.68,-171.7 762,-142 759.47,-141.07 756.92,-140.02 754.37,-138.9"/>
<polygon fill="black" stroke="black" points="755.78,-135.7 745.25,-134.55 752.77,-142.01 755.78,-135.7"/>
</g>
<!-- node25 -->
<g id="node26" class="node">
<title>node25</title>
<path fill="#f5f5f5" stroke="black" d="M925,-134.5C925,-134.5 783,-134.5 783,-134.5 777,-134.5 771,-128.5 771,-122.5 771,-122.5 771,-108.5 771,-108.5 771,-102.5 777,-96.5 783,-96.5 783,-96.5 925,-96.5 925,-96.5 931,-96.5 937,-102.5 937,-108.5 937,-108.5 937,-122.5 937,-122.5 937,-128.5 931,-134.5 925,-134.5"/>
<text text-anchor="middle" x="854" y="-119.3" font-family="Arial" font-size="14.00">div</text>
<text text-anchor="middle" x="854" y="-104.3" font-family="Arial" font-size="14.00">.circular&#45;button&#45;container</text>
</g>
<!-- node23&#45;&gt;node25 -->
<g id="edge25" class="edge">
<title>node23&#45;&gt;node25</title>
<path fill="none" stroke="black" d="M1000.98,-180.76C971.26,-167.76 934.16,-151.54 904.67,-138.65"/>
<polygon fill="black" stroke="black" points="905.94,-135.39 895.38,-134.59 903.14,-141.8 905.94,-135.39"/>
</g>
<!-- node28 -->
<g id="node29" class="node">
<title>node28</title>
<path fill="#f5f5f5" stroke="black" d="M1124,-134.5C1124,-134.5 982,-134.5 982,-134.5 976,-134.5 970,-128.5 970,-122.5 970,-122.5 970,-108.5 970,-108.5 970,-102.5 976,-96.5 982,-96.5 982,-96.5 1124,-96.5 1124,-96.5 1130,-96.5 1136,-102.5 1136,-108.5 1136,-108.5 1136,-122.5 1136,-122.5 1136,-128.5 1130,-134.5 1124,-134.5"/>
<text text-anchor="middle" x="1053" y="-119.3" font-family="Arial" font-size="14.00">div</text>
<text text-anchor="middle" x="1053" y="-104.3" font-family="Arial" font-size="14.00">.circular&#45;button&#45;container</text>
</g>
<!-- node23&#45;&gt;node28 -->
<g id="edge28" class="edge">
<title>node23&#45;&gt;node28</title>
<path fill="none" stroke="black" d="M1053,-177.87C1053,-167.42 1053,-155.3 1053,-144.61"/>
<polygon fill="black" stroke="black" points="1056.5,-144.51 1053,-134.51 1049.5,-144.51 1056.5,-144.51"/>
</g>
<!-- node32 -->
<g id="node33" class="node">
<title>node32</title>
<path fill="#ffffff" stroke="black" d="M1274,-142C1274,-142 1166,-142 1166,-142 1160,-142 1154,-136 1154,-130 1154,-130 1154,-101 1154,-101 1154,-95 1160,-89 1166,-89 1166,-89 1274,-89 1274,-89 1280,-89 1286,-95 1286,-101 1286,-101 1286,-130 1286,-130 1286,-136 1280,-142 1274,-142"/>
<text text-anchor="middle" x="1220" y="-126.8" font-family="Arial" font-size="14.00">button</text>
<text text-anchor="middle" x="1220" y="-111.8" font-family="Arial" font-size="14.00">#animations&#45;button</text>
<text text-anchor="middle" x="1220" y="-96.8" font-family="Arial" font-size="14.00">.button&#45;rectangle</text>
</g>
<!-- node23&#45;&gt;node32 -->
<g id="edge32" class="edge">
<title>node23&#45;&gt;node32</title>
<path fill="none" stroke="black" d="M1102.2,-177.87C1120.89,-168.13 1142.35,-156.95 1161.79,-146.82"/>
<polygon fill="black" stroke="black" points="1163.61,-149.82 1170.86,-142.1 1160.38,-143.62 1163.61,-149.82"/>
</g>
<!-- node26 -->
<g id="node27" class="node">
<title>node26</title>
<path fill="#ffffff" stroke="black" d="M775,-53C775,-53 705,-53 705,-53 699,-53 693,-47 693,-41 693,-41 693,-12 693,-12 693,-6 699,0 705,0 705,0 775,0 775,0 781,0 787,-6 787,-12 787,-12 787,-41 787,-41 787,-47 781,-53 775,-53"/>
<text text-anchor="middle" x="740" y="-37.8" font-family="Arial" font-size="14.00">a</text>
<text text-anchor="middle" x="740" y="-22.8" font-family="Arial" font-size="14.00">#light&#45;button</text>
<text text-anchor="middle" x="740" y="-7.8" font-family="Arial" font-size="14.00">.button&#45;circle</text>
</g>
<!-- node25&#45;&gt;node26 -->
<g id="edge26" class="edge">
<title>node25&#45;&gt;node26</title>
<path fill="none" stroke="black" d="M830.38,-96.47C816.38,-85.79 798.24,-71.95 781.89,-59.47"/>
<polygon fill="black" stroke="black" points="783.61,-56.38 773.53,-53.09 779.36,-61.94 783.61,-56.38"/>
</g>
<!-- node27 -->
<g id="node28" class="node">
<title>node27</title>
<path fill="#ffffff" stroke="black" d="M887,-53C887,-53 817,-53 817,-53 811,-53 805,-47 805,-41 805,-41 805,-12 805,-12 805,-6 811,0 817,0 817,0 887,0 887,0 893,0 899,-6 899,-12 899,-12 899,-41 899,-41 899,-47 893,-53 887,-53"/>
<text text-anchor="middle" x="852" y="-37.8" font-family="Arial" font-size="14.00">a</text>
<text text-anchor="middle" x="852" y="-22.8" font-family="Arial" font-size="14.00">#dark&#45;button</text>
<text text-anchor="middle" x="852" y="-7.8" font-family="Arial" font-size="14.00">.button&#45;circle</text>
</g>
<!-- node25&#45;&gt;node27 -->
<g id="edge27" class="edge">
<title>node25&#45;&gt;node27</title>
<path fill="none" stroke="black" d="M853.59,-96.47C853.36,-86.87 853.09,-74.71 852.82,-63.28"/>
<polygon fill="black" stroke="black" points="856.32,-63.01 852.59,-53.09 849.32,-63.17 856.32,-63.01"/>
</g>
<!-- node29 -->
<g id="node30" class="node">
<title>node29</title>
<path fill="#ffffff" stroke="black" d="M1036.5,-53C1036.5,-53 929.5,-53 929.5,-53 923.5,-53 917.5,-47 917.5,-41 917.5,-41 917.5,-12 917.5,-12 917.5,-6 923.5,0 929.5,0 929.5,0 1036.5,0 1036.5,0 1042.5,0 1048.5,-6 1048.5,-12 1048.5,-12 1048.5,-41 1048.5,-41 1048.5,-47 1042.5,-53 1036.5,-53"/>
<text text-anchor="middle" x="983" y="-37.8" font-family="Arial" font-size="14.00">a</text>
<text text-anchor="middle" x="983" y="-22.8" font-family="Arial" font-size="14.00">#normal&#45;button</text>
<text text-anchor="middle" x="983" y="-7.8" font-family="Arial" font-size="14.00">.button&#45;circle&#45;small</text>
</g>
<!-- node28&#45;&gt;node29 -->
<g id="edge29" class="edge">
<title>node28&#45;&gt;node29</title>
<path fill="none" stroke="black" d="M1038.5,-96.47C1030.3,-86.28 1019.78,-73.21 1010.11,-61.2"/>
<polygon fill="black" stroke="black" points="1012.59,-58.69 1003.59,-53.09 1007.13,-63.08 1012.59,-58.69"/>
</g>
<!-- node30 -->
<g id="node31" class="node">
<title>node30</title>
<path fill="#ffffff" stroke="black" d="M1185.5,-53C1185.5,-53 1078.5,-53 1078.5,-53 1072.5,-53 1066.5,-47 1066.5,-41 1066.5,-41 1066.5,-12 1066.5,-12 1066.5,-6 1072.5,0 1078.5,0 1078.5,0 1185.5,0 1185.5,0 1191.5,0 1197.5,-6 1197.5,-12 1197.5,-12 1197.5,-41 1197.5,-41 1197.5,-47 1191.5,-53 1185.5,-53"/>
<text text-anchor="middle" x="1132" y="-37.8" font-family="Arial" font-size="14.00">a</text>
<text text-anchor="middle" x="1132" y="-22.8" font-family="Arial" font-size="14.00">#subdued&#45;button</text>
<text text-anchor="middle" x="1132" y="-7.8" font-family="Arial" font-size="14.00">.button&#45;circle&#45;small</text>
</g>
<!-- node28&#45;&gt;node30 -->
<g id="edge30" class="edge">
<title>node28&#45;&gt;node30</title>
<path fill="none" stroke="black" d="M1069.37,-96.47C1078.8,-86.09 1090.95,-72.71 1102.03,-60.5"/>
<polygon fill="black" stroke="black" points="1104.63,-62.85 1108.76,-53.09 1099.45,-58.14 1104.63,-62.85"/>
</g>
<!-- node31 -->
<g id="node32" class="node">
<title>node31</title>
<path fill="#ffffff" stroke="black" d="M1334.5,-53C1334.5,-53 1227.5,-53 1227.5,-53 1221.5,-53 1215.5,-47 1215.5,-41 1215.5,-41 1215.5,-12 1215.5,-12 1215.5,-6 1221.5,0 1227.5,0 1227.5,0 1334.5,0 1334.5,0 1340.5,0 1346.5,-6 1346.5,-12 1346.5,-12 1346.5,-41 1346.5,-41 1346.5,-47 1340.5,-53 1334.5,-53"/>
<text text-anchor="middle" x="1281" y="-37.8" font-family="Arial" font-size="14.00">a</text>
<text text-anchor="middle" x="1281" y="-22.8" font-family="Arial" font-size="14.00">#vibrant&#45;button</text>
<text text-anchor="middle" x="1281" y="-7.8" font-family="Arial" font-size="14.00">.button&#45;circle&#45;small</text>
</g>
<!-- node28&#45;&gt;node31 -->
<g id="edge31" class="edge">
<title>node28&#45;&gt;node31</title>
<path fill="none" stroke="black" d="M1100.24,-96.47C1130.64,-84.87 1170.83,-69.54 1205.59,-56.28"/>
<polygon fill="black" stroke="black" points="1207.14,-59.43 1215.23,-52.6 1204.64,-52.89 1207.14,-59.43"/>
</g>
<!-- node34 -->
<g id="node35" class="node">
<title>node34</title>
<path fill="#ffffff" stroke="black" d="M1376,-134.5C1376,-134.5 1324,-134.5 1324,-134.5 1318,-134.5 1312,-128.5 1312,-122.5 1312,-122.5 1312,-108.5 1312,-108.5 1312,-102.5 1318,-96.5 1324,-96.5 1324,-96.5 1376,-96.5 1376,-96.5 1382,-96.5 1388,-102.5 1388,-108.5 1388,-108.5 1388,-122.5 1388,-122.5 1388,-128.5 1382,-134.5 1376,-134.5"/>
<text text-anchor="middle" x="1350" y="-119.3" font-family="Arial" font-size="14.00">h2</text>
<text text-anchor="middle" x="1350" y="-104.3" font-family="Arial" font-size="14.00">.page&#45;title</text>
</g>
<!-- node33&#45;&gt;node34 -->
<g id="edge34" class="edge">
<title>node33&#45;&gt;node34</title>
<path fill="none" stroke="black" d="M1350,-177.87C1350,-167.42 1350,-155.3 1350,-144.61"/>
<polygon fill="black" stroke="black" points="1353.5,-144.51 1350,-134.51 1346.5,-144.51 1353.5,-144.51"/>
</g>
<!-- node35 -->
<g id="node36" class="node">
<title>node35</title>
<path fill="#f5f5f5" stroke="black" d="M1646,-134.5C1646,-134.5 1422,-134.5 1422,-134.5 1416,-134.5 1410,-128.5 1410,-122.5 1410,-122.5 1410,-108.5 1410,-108.5 1410,-102.5 1416,-96.5 1422,-96.5 1422,-96.5 1646,-96.5 1646,-96.5 1652,-96.5 1658,-102.5 1658,-108.5 1658,-108.5 1658,-122.5 1658,-122.5 1658,-128.5 1652,-134.5 1646,-134.5"/>
<text text-anchor="middle" x="1534" y="-119.3" font-family="Arial" font-size="14.00">div</text>
<text text-anchor="middle" x="1534" y="-104.3" font-family="Arial" font-size="14.00">.circular&#45;button&#45;container .path&#45;buttons</text>
</g>
<!-- node33&#45;&gt;node35 -->
<g id="edge35" class="edge">
<title>node33&#45;&gt;node35</title>
<path fill="none" stroke="black" d="M1402.23,-178.8C1428.73,-166.27 1460.67,-151.17 1486.47,-138.97"/>
<polygon fill="black" stroke="black" points="1488.14,-142.06 1495.68,-134.62 1485.14,-135.73 1488.14,-142.06"/>
</g>
<!-- node36 -->
<g id="node37" class="node">
<title>node36</title>
<path fill="#ffffff" stroke="black" d="M1447,-53C1447,-53 1377,-53 1377,-53 1371,-53 1365,-47 1365,-41 1365,-41 1365,-12 1365,-12 1365,-6 1371,0 1377,0 1377,0 1447,0 1447,0 1453,0 1459,-6 1459,-12 1459,-12 1459,-41 1459,-41 1459,-47 1453,-53 1447,-53"/>
<text text-anchor="middle" x="1412" y="-37.8" font-family="Arial" font-size="14.00">a</text>
<text text-anchor="middle" x="1412" y="-22.8" font-family="Arial" font-size="14.00">#start&#45;button</text>
<text text-anchor="middle" x="1412" y="-7.8" font-family="Arial" font-size="14.00">.button&#45;circle</text>
</g>
<!-- node35&#45;&gt;node36 -->
<g id="edge36" class="edge">
<title>node35&#45;&gt;node36</title>
<path fill="none" stroke="black" d="M1508.72,-96.47C1493.61,-85.69 1473.97,-71.69 1456.35,-59.13"/>
<polygon fill="black" stroke="black" points="1458.06,-56.05 1447.89,-53.09 1454,-61.75 1458.06,-56.05"/>
</g>
<!-- node37 -->
<g id="node38" class="node">
<title>node37</title>
<path fill="#ffffff" stroke="black" d="M1582.5,-53C1582.5,-53 1489.5,-53 1489.5,-53 1483.5,-53 1477.5,-47 1477.5,-41 1477.5,-41 1477.5,-12 1477.5,-12 1477.5,-6 1483.5,0 1489.5,0 1489.5,0 1582.5,0 1582.5,0 1588.5,0 1594.5,-6 1594.5,-12 1594.5,-12 1594.5,-41 1594.5,-41 1594.5,-47 1588.5,-53 1582.5,-53"/>
<text text-anchor="middle" x="1536" y="-37.8" font-family="Arial" font-size="14.00">a</text>
<text text-anchor="middle" x="1536" y="-22.8" font-family="Arial" font-size="14.00">#students&#45;button</text>
<text text-anchor="middle" x="1536" y="-7.8" font-family="Arial" font-size="14.00">.button&#45;circle</text>
</g>
<!-- node35&#45;&gt;node37 -->
<g id="edge37" class="edge">
<title>node35&#45;&gt;node37</title>
<path fill="none" stroke="black" d="M1534.41,-96.47C1534.64,-86.87 1534.91,-74.71 1535.18,-63.28"/>
<polygon fill="black" stroke="black" points="1538.68,-63.17 1535.41,-53.09 1531.68,-63.01 1538.68,-63.17"/>
</g>
<!-- node38 -->
<g id="node39" class="node">
<title>node38</title>
<path fill="#ffffff" stroke="black" d="M1717,-53C1717,-53 1625,-53 1625,-53 1619,-53 1613,-47 1613,-41 1613,-41 1613,-12 1613,-12 1613,-6 1619,0 1625,0 1625,0 1717,0 1717,0 1723,0 1729,-6 1729,-12 1729,-12 1729,-41 1729,-41 1729,-47 1723,-53 1717,-53"/>
<text text-anchor="middle" x="1671" y="-37.8" font-family="Arial" font-size="14.00">a</text>
<text text-anchor="middle" x="1671" y="-22.8" font-family="Arial" font-size="14.00">#mentors&#45;button</text>
<text text-anchor="middle" x="1671" y="-7.8" font-family="Arial" font-size="14.00">.button&#45;circle</text>
</g>
<!-- node35&#45;&gt;node38 -->
<g id="edge38" class="edge">
<title>node35&#45;&gt;node38</title>
<path fill="none" stroke="black" d="M1562.39,-96.47C1579.59,-85.55 1602.01,-71.31 1622.01,-58.61"/>
<polygon fill="black" stroke="black" points="1624.13,-61.41 1630.7,-53.09 1620.38,-55.5 1624.13,-61.41"/>
</g>
</g>
</svg>
