<?xml version="1.0" encoding="UTF-8" standalone="no"?>
<!DOCTYPE svg PUBLIC "-//W3C//DTD SVG 1.1//EN"
 "http://www.w3.org/Graphics/SVG/1.1/DTD/svg11.dtd">
<!-- Generated by graphviz version 2.43.0 (0)
 -->
<!-- Title: DOM Pages: 1 -->
<svg width="1601pt" height="351pt"
 viewBox="0.00 0.00 1601.00 351.00" xmlns="http://www.w3.org/2000/svg" xmlns:xlink="http://www.w3.org/1999/xlink">
<g id="graph0" class="graph" transform="scale(1 1) rotate(0) translate(4 347)">
<title>DOM</title>
<polygon fill="white" stroke="transparent" points="-4,4 -4,-347 1597,-347 1597,4 -4,4"/>
<!-- node0 -->
<g id="node1" class="node">
<title>node0</title>
<path fill="#ffe6e6" stroke="black" d="M1021,-343C1021,-343 991,-343 991,-343 985,-343 979,-337 979,-331 979,-331 979,-319 979,-319 979,-313 985,-307 991,-307 991,-307 1021,-307 1021,-307 1027,-307 1033,-313 1033,-319 1033,-319 1033,-331 1033,-331 1033,-337 1027,-343 1021,-343"/>
<text text-anchor="middle" x="1006" y="-321.3" font-family="Arial" font-size="14.00">html</text>
</g>
<!-- node1 -->
<g id="node2" class="node">
<title>node1</title>
<path fill="#e6f3ff" stroke="black" d="M690,-271C690,-271 660,-271 660,-271 654,-271 648,-265 648,-259 648,-259 648,-247 648,-247 648,-241 654,-235 660,-235 660,-235 690,-235 690,-235 696,-235 702,-241 702,-247 702,-247 702,-259 702,-259 702,-265 696,-271 690,-271"/>
<text text-anchor="middle" x="675" y="-249.3" font-family="Arial" font-size="14.00">head</text>
</g>
<!-- node0&#45;&gt;node1 -->
<g id="edge1" class="edge">
<title>node0&#45;&gt;node1</title>
<path fill="none" stroke="black" d="M978.91,-318.27C920,-305.81 780.09,-276.22 712.64,-261.96"/>
<polygon fill="black" stroke="black" points="712.97,-258.45 702.46,-259.81 711.52,-265.3 712.97,-258.45"/>
</g>
<!-- node20 -->
<g id="node21" class="node">
<title>node20</title>
<path fill="#e6ffe6" stroke="black" d="M1390,-271C1390,-271 1360,-271 1360,-271 1354,-271 1348,-265 1348,-259 1348,-259 1348,-247 1348,-247 1348,-241 1354,-235 1360,-235 1360,-235 1390,-235 1390,-235 1396,-235 1402,-241 1402,-247 1402,-247 1402,-259 1402,-259 1402,-265 1396,-271 1390,-271"/>
<text text-anchor="middle" x="1375" y="-249.3" font-family="Arial" font-size="14.00">body</text>
</g>
<!-- node0&#45;&gt;node20 -->
<g id="edge20" class="edge">
<title>node0&#45;&gt;node20</title>
<path fill="none" stroke="black" d="M1033.13,-318.85C1098.31,-306.49 1263.76,-275.1 1337.98,-261.02"/>
<polygon fill="black" stroke="black" points="1338.65,-264.46 1347.83,-259.15 1337.35,-257.58 1338.65,-264.46"/>
</g>
<!-- node2 -->
<g id="node3" class="node">
<title>node2</title>
<path fill="#ffffff" stroke="black" d="M42,-198C42,-198 12,-198 12,-198 6,-198 0,-192 0,-186 0,-186 0,-174 0,-174 0,-168 6,-162 12,-162 12,-162 42,-162 42,-162 48,-162 54,-168 54,-174 54,-174 54,-186 54,-186 54,-192 48,-198 42,-198"/>
<text text-anchor="middle" x="27" y="-176.3" font-family="Arial" font-size="14.00">meta</text>
</g>
<!-- node1&#45;&gt;node2 -->
<g id="edge2" class="edge">
<title>node1&#45;&gt;node2</title>
<path fill="none" stroke="black" d="M647.74,-251C546.84,-247.09 194.07,-231.57 63.81,-198.49"/>
<polygon fill="black" stroke="black" points="64.65,-195.09 54.09,-195.87 62.83,-201.85 64.65,-195.09"/>
</g>
<!-- node3 -->
<g id="node4" class="node">
<title>node3</title>
<path fill="#ffffff" stroke="black" d="M114,-198C114,-198 84,-198 84,-198 78,-198 72,-192 72,-186 72,-186 72,-174 72,-174 72,-168 78,-162 84,-162 84,-162 114,-162 114,-162 120,-162 126,-168 126,-174 126,-174 126,-186 126,-186 126,-192 120,-198 114,-198"/>
<text text-anchor="middle" x="99" y="-176.3" font-family="Arial" font-size="14.00">meta</text>
</g>
<!-- node1&#45;&gt;node3 -->
<g id="edge3" class="edge">
<title>node1&#45;&gt;node3</title>
<path fill="none" stroke="black" d="M647.73,-250.64C554.99,-245.81 251.6,-228.35 136.04,-198.57"/>
<polygon fill="black" stroke="black" points="136.67,-195.11 126.1,-195.83 134.81,-201.86 136.67,-195.11"/>
</g>
<!-- node4 -->
<g id="node5" class="node">
<title>node4</title>
<path fill="#ffffff" stroke="black" d="M186,-198C186,-198 156,-198 156,-198 150,-198 144,-192 144,-186 144,-186 144,-174 144,-174 144,-168 150,-162 156,-162 156,-162 186,-162 186,-162 192,-162 198,-168 198,-174 198,-174 198,-186 198,-186 198,-192 192,-198 186,-198"/>
<text text-anchor="middle" x="171" y="-176.3" font-family="Arial" font-size="14.00">meta</text>
</g>
<!-- node1&#45;&gt;node4 -->
<g id="edge4" class="edge">
<title>node1&#45;&gt;node4</title>
<path fill="none" stroke="black" d="M647.96,-252.21C576.5,-252.07 377.07,-247.3 207.93,-198.67"/>
<polygon fill="black" stroke="black" points="208.69,-195.25 198.11,-195.79 206.72,-201.96 208.69,-195.25"/>
</g>
<!-- node5 -->
<g id="node6" class="node">
<title>node5</title>
<path fill="#ffffff" stroke="black" d="M258,-198C258,-198 228,-198 228,-198 222,-198 216,-192 216,-186 216,-186 216,-174 216,-174 216,-168 222,-162 228,-162 228,-162 258,-162 258,-162 264,-162 270,-168 270,-174 270,-174 270,-186 270,-186 270,-192 264,-198 258,-198"/>
<text text-anchor="middle" x="243" y="-176.3" font-family="Arial" font-size="14.00">meta</text>
</g>
<!-- node1&#45;&gt;node5 -->
<g id="edge5" class="edge">
<title>node1&#45;&gt;node5</title>
<path fill="none" stroke="black" d="M647.93,-251.43C584.35,-249.46 420.82,-240.69 279.81,-198.68"/>
<polygon fill="black" stroke="black" points="280.71,-195.29 270.13,-195.73 278.68,-201.99 280.71,-195.29"/>
</g>
<!-- node6 -->
<g id="node7" class="node">
<title>node6</title>
<path fill="#ffffff" stroke="black" d="M330,-198C330,-198 300,-198 300,-198 294,-198 288,-192 288,-186 288,-186 288,-174 288,-174 288,-168 294,-162 300,-162 300,-162 330,-162 330,-162 336,-162 342,-168 342,-174 342,-174 342,-186 342,-186 342,-192 336,-198 330,-198"/>
<text text-anchor="middle" x="315" y="-176.3" font-family="Arial" font-size="14.00">meta</text>
</g>
<!-- node1&#45;&gt;node6 -->
<g id="edge6" class="edge">
<title>node1&#45;&gt;node6</title>
<path fill="none" stroke="black" d="M647.9,-250.33C593.03,-246.37 465.08,-234.19 352,-198.8"/>
<polygon fill="black" stroke="black" points="352.75,-195.36 342.16,-195.64 350.61,-202.02 352.75,-195.36"/>
</g>
<!-- node7 -->
<g id="node8" class="node">
<title>node7</title>
<path fill="#ffffff" stroke="black" d="M402,-198C402,-198 372,-198 372,-198 366,-198 360,-192 360,-186 360,-186 360,-174 360,-174 360,-168 366,-162 372,-162 372,-162 402,-162 402,-162 408,-162 414,-168 414,-174 414,-174 414,-186 414,-186 414,-192 408,-198 402,-198"/>
<text text-anchor="middle" x="387" y="-176.3" font-family="Arial" font-size="14.00">meta</text>
</g>
<!-- node1&#45;&gt;node7 -->
<g id="edge7" class="edge">
<title>node1&#45;&gt;node7</title>
<path fill="none" stroke="black" d="M647.9,-248.63C602.76,-242.51 509.43,-227.79 423.8,-198.82"/>
<polygon fill="black" stroke="black" points="424.8,-195.47 414.2,-195.51 422.51,-202.08 424.8,-195.47"/>
</g>
<!-- node8 -->
<g id="node9" class="node">
<title>node8</title>
<path fill="#ffffff" stroke="black" d="M474,-198C474,-198 444,-198 444,-198 438,-198 432,-192 432,-186 432,-186 432,-174 432,-174 432,-168 438,-162 444,-162 444,-162 474,-162 474,-162 480,-162 486,-168 486,-174 486,-174 486,-186 486,-186 486,-192 480,-198 474,-198"/>
<text text-anchor="middle" x="459" y="-176.3" font-family="Arial" font-size="14.00">meta</text>
</g>
<!-- node1&#45;&gt;node8 -->
<g id="edge8" class="edge">
<title>node1&#45;&gt;node8</title>
<path fill="none" stroke="black" d="M647.97,-245.64C614.12,-237.33 554.36,-221.53 495.69,-198.95"/>
<polygon fill="black" stroke="black" points="496.88,-195.66 486.29,-195.27 494.32,-202.18 496.88,-195.66"/>
</g>
<!-- node9 -->
<g id="node10" class="node">
<title>node9</title>
<path fill="#ffffff" stroke="black" d="M546,-198C546,-198 516,-198 516,-198 510,-198 504,-192 504,-186 504,-186 504,-174 504,-174 504,-168 510,-162 516,-162 516,-162 546,-162 546,-162 552,-162 558,-168 558,-174 558,-174 558,-186 558,-186 558,-192 552,-198 546,-198"/>
<text text-anchor="middle" x="531" y="-176.3" font-family="Arial" font-size="14.00">title</text>
</g>
<!-- node1&#45;&gt;node9 -->
<g id="edge9" class="edge">
<title>node1&#45;&gt;node9</title>
<path fill="none" stroke="black" d="M647.9,-238.77C627.92,-229 599.86,-215.25 567.39,-199.18"/>
<polygon fill="black" stroke="black" points="568.63,-195.89 558.12,-194.58 565.52,-202.16 568.63,-195.89"/>
</g>
<!-- node10 -->
<g id="node11" class="node">
<title>node10</title>
<path fill="#ffffff" stroke="black" d="M618,-198C618,-198 588,-198 588,-198 582,-198 576,-192 576,-186 576,-186 576,-174 576,-174 576,-168 582,-162 588,-162 588,-162 618,-162 618,-162 624,-162 630,-168 630,-174 630,-174 630,-186 630,-186 630,-192 624,-198 618,-198"/>
<text text-anchor="middle" x="603" y="-176.3" font-family="Arial" font-size="14.00">link</text>
</g>
<!-- node1&#45;&gt;node10 -->
<g id="edge10" class="edge">
<title>node1&#45;&gt;node10</title>
<path fill="none" stroke="black" d="M657.57,-234.81C648.55,-225.92 637.39,-214.91 627.51,-205.17"/>
<polygon fill="black" stroke="black" points="629.85,-202.56 620.27,-198.03 624.93,-207.54 629.85,-202.56"/>
</g>
<!-- node11 -->
<g id="node12" class="node">
<title>node11</title>
<path fill="#ffffff" stroke="black" d="M690,-198C690,-198 660,-198 660,-198 654,-198 648,-192 648,-186 648,-186 648,-174 648,-174 648,-168 654,-162 660,-162 660,-162 690,-162 690,-162 696,-162 702,-168 702,-174 702,-174 702,-186 702,-186 702,-192 696,-198 690,-198"/>
<text text-anchor="middle" x="675" y="-176.3" font-family="Arial" font-size="14.00">link</text>
</g>
<!-- node1&#45;&gt;node11 -->
<g id="edge11" class="edge">
<title>node1&#45;&gt;node11</title>
<path fill="none" stroke="black" d="M675,-234.81C675,-226.79 675,-217.05 675,-208.07"/>
<polygon fill="black" stroke="black" points="678.5,-208.03 675,-198.03 671.5,-208.03 678.5,-208.03"/>
</g>
<!-- node12 -->
<g id="node13" class="node">
<title>node12</title>
<path fill="#ffffff" stroke="black" d="M762,-198C762,-198 732,-198 732,-198 726,-198 720,-192 720,-186 720,-186 720,-174 720,-174 720,-168 726,-162 732,-162 732,-162 762,-162 762,-162 768,-162 774,-168 774,-174 774,-174 774,-186 774,-186 774,-192 768,-198 762,-198"/>
<text text-anchor="middle" x="747" y="-176.3" font-family="Arial" font-size="14.00">link</text>
</g>
<!-- node1&#45;&gt;node12 -->
<g id="edge12" class="edge">
<title>node1&#45;&gt;node12</title>
<path fill="none" stroke="black" d="M692.43,-234.81C701.45,-225.92 712.61,-214.91 722.49,-205.17"/>
<polygon fill="black" stroke="black" points="725.07,-207.54 729.73,-198.03 720.15,-202.56 725.07,-207.54"/>
</g>
<!-- node13 -->
<g id="node14" class="node">
<title>node13</title>
<path fill="#ffffff" stroke="black" d="M834,-198C834,-198 804,-198 804,-198 798,-198 792,-192 792,-186 792,-186 792,-174 792,-174 792,-168 798,-162 804,-162 804,-162 834,-162 834,-162 840,-162 846,-168 846,-174 846,-174 846,-186 846,-186 846,-192 840,-198 834,-198"/>
<text text-anchor="middle" x="819" y="-176.3" font-family="Arial" font-size="14.00">link</text>
</g>
<!-- node1&#45;&gt;node13 -->
<g id="edge13" class="edge">
<title>node1&#45;&gt;node13</title>
<path fill="none" stroke="black" d="M702.1,-238.77C722.08,-229 750.14,-215.25 782.61,-199.18"/>
<polygon fill="black" stroke="black" points="784.48,-202.16 791.88,-194.58 781.37,-195.89 784.48,-202.16"/>
</g>
<!-- node14 -->
<g id="node15" class="node">
<title>node14</title>
<path fill="#ffffff" stroke="black" d="M906,-198C906,-198 876,-198 876,-198 870,-198 864,-192 864,-186 864,-186 864,-174 864,-174 864,-168 870,-162 876,-162 876,-162 906,-162 906,-162 912,-162 918,-168 918,-174 918,-174 918,-186 918,-186 918,-192 912,-198 906,-198"/>
<text text-anchor="middle" x="891" y="-176.3" font-family="Arial" font-size="14.00">link</text>
</g>
<!-- node1&#45;&gt;node14 -->
<g id="edge14" class="edge">
<title>node1&#45;&gt;node14</title>
<path fill="none" stroke="black" d="M702.03,-245.64C735.88,-237.33 795.64,-221.53 854.31,-198.95"/>
<polygon fill="black" stroke="black" points="855.68,-202.18 863.71,-195.27 853.12,-195.66 855.68,-202.18"/>
</g>
<!-- node15 -->
<g id="node16" class="node">
<title>node15</title>
<path fill="#ffffff" stroke="black" d="M978,-198C978,-198 948,-198 948,-198 942,-198 936,-192 936,-186 936,-186 936,-174 936,-174 936,-168 942,-162 948,-162 948,-162 978,-162 978,-162 984,-162 990,-168 990,-174 990,-174 990,-186 990,-186 990,-192 984,-198 978,-198"/>
<text text-anchor="middle" x="963" y="-176.3" font-family="Arial" font-size="14.00">link</text>
</g>
<!-- node1&#45;&gt;node15 -->
<g id="edge15" class="edge">
<title>node1&#45;&gt;node15</title>
<path fill="none" stroke="black" d="M702.1,-248.63C747.24,-242.51 840.57,-227.79 926.2,-198.82"/>
<polygon fill="black" stroke="black" points="927.49,-202.08 935.8,-195.51 925.2,-195.47 927.49,-202.08"/>
</g>
<!-- node16 -->
<g id="node17" class="node">
<title>node16</title>
<path fill="#ffffff" stroke="black" d="M1050,-198C1050,-198 1020,-198 1020,-198 1014,-198 1008,-192 1008,-186 1008,-186 1008,-174 1008,-174 1008,-168 1014,-162 1020,-162 1020,-162 1050,-162 1050,-162 1056,-162 1062,-168 1062,-174 1062,-174 1062,-186 1062,-186 1062,-192 1056,-198 1050,-198"/>
<text text-anchor="middle" x="1035" y="-176.3" font-family="Arial" font-size="14.00">link</text>
</g>
<!-- node1&#45;&gt;node16 -->
<g id="edge16" class="edge">
<title>node1&#45;&gt;node16</title>
<path fill="none" stroke="black" d="M702.1,-250.33C756.97,-246.37 884.92,-234.19 998,-198.8"/>
<polygon fill="black" stroke="black" points="999.39,-202.02 1007.84,-195.64 997.25,-195.36 999.39,-202.02"/>
</g>
<!-- node17 -->
<g id="node18" class="node">
<title>node17</title>
<path fill="#ffffff" stroke="black" d="M1122,-198C1122,-198 1092,-198 1092,-198 1086,-198 1080,-192 1080,-186 1080,-186 1080,-174 1080,-174 1080,-168 1086,-162 1092,-162 1092,-162 1122,-162 1122,-162 1128,-162 1134,-168 1134,-174 1134,-174 1134,-186 1134,-186 1134,-192 1128,-198 1122,-198"/>
<text text-anchor="middle" x="1107" y="-176.3" font-family="Arial" font-size="14.00">link</text>
</g>
<!-- node1&#45;&gt;node17 -->
<g id="edge17" class="edge">
<title>node1&#45;&gt;node17</title>
<path fill="none" stroke="black" d="M702.07,-251.43C765.65,-249.46 929.18,-240.69 1070.19,-198.68"/>
<polygon fill="black" stroke="black" points="1071.32,-201.99 1079.87,-195.73 1069.29,-195.29 1071.32,-201.99"/>
</g>
<!-- node18 -->
<g id="node19" class="node">
<title>node18</title>
<path fill="#ffffff" stroke="black" d="M1194,-198C1194,-198 1164,-198 1164,-198 1158,-198 1152,-192 1152,-186 1152,-186 1152,-174 1152,-174 1152,-168 1158,-162 1164,-162 1164,-162 1194,-162 1194,-162 1200,-162 1206,-168 1206,-174 1206,-174 1206,-186 1206,-186 1206,-192 1200,-198 1194,-198"/>
<text text-anchor="middle" x="1179" y="-176.3" font-family="Arial" font-size="14.00">link</text>
</g>
<!-- node1&#45;&gt;node18 -->
<g id="edge18" class="edge">
<title>node1&#45;&gt;node18</title>
<path fill="none" stroke="black" d="M702.04,-252.21C773.5,-252.07 972.93,-247.3 1142.07,-198.67"/>
<polygon fill="black" stroke="black" points="1143.28,-201.96 1151.89,-195.79 1141.31,-195.25 1143.28,-201.96"/>
</g>
<!-- node19 -->
<g id="node20" class="node">
<title>node19</title>
<path fill="#ffffff" stroke="black" d="M1276,-198C1276,-198 1236,-198 1236,-198 1230,-198 1224,-192 1224,-186 1224,-186 1224,-174 1224,-174 1224,-168 1230,-162 1236,-162 1236,-162 1276,-162 1276,-162 1282,-162 1288,-168 1288,-174 1288,-174 1288,-186 1288,-186 1288,-192 1282,-198 1276,-198"/>
<text text-anchor="middle" x="1256" y="-176.3" font-family="Arial" font-size="14.00">noscript</text>
</g>
<!-- node1&#45;&gt;node19 -->
<g id="edge19" class="edge">
<title>node1&#45;&gt;node19</title>
<path fill="none" stroke="black" d="M702.22,-252.33C780.98,-252.65 1015.66,-249.22 1213.95,-198.82"/>
<polygon fill="black" stroke="black" points="1214.86,-202.2 1223.66,-196.3 1213.1,-195.42 1214.86,-202.2"/>
</g>
<!-- node21 -->
<g id="node22" class="node">
<title>node21</title>
<path fill="#fff4e6" stroke="black" d="M1356,-199C1356,-199 1318,-199 1318,-199 1312,-199 1306,-193 1306,-187 1306,-187 1306,-173 1306,-173 1306,-167 1312,-161 1318,-161 1318,-161 1356,-161 1356,-161 1362,-161 1368,-167 1368,-173 1368,-173 1368,-187 1368,-187 1368,-193 1362,-199 1356,-199"/>
<text text-anchor="middle" x="1337" y="-183.8" font-family="Arial" font-size="14.00">header</text>
<text text-anchor="middle" x="1337" y="-168.8" font-family="Arial" font-size="14.00">.header</text>
</g>
<!-- node20&#45;&gt;node21 -->
<g id="edge21" class="edge">
<title>node20&#45;&gt;node21</title>
<path fill="none" stroke="black" d="M1365.8,-234.81C1361.5,-226.77 1356.27,-217 1351.46,-208.01"/>
<polygon fill="black" stroke="black" points="1354.45,-206.18 1346.64,-199.02 1348.28,-209.49 1354.45,-206.18"/>
</g>
<!-- node22 -->
<g id="node23" class="node">
<title>node22</title>
<path fill="#f0e6ff" stroke="black" d="M1428,-198C1428,-198 1398,-198 1398,-198 1392,-198 1386,-192 1386,-186 1386,-186 1386,-174 1386,-174 1386,-168 1392,-162 1398,-162 1398,-162 1428,-162 1428,-162 1434,-162 1440,-168 1440,-174 1440,-174 1440,-186 1440,-186 1440,-192 1434,-198 1428,-198"/>
<text text-anchor="middle" x="1413" y="-176.3" font-family="Arial" font-size="14.00">main</text>
</g>
<!-- node20&#45;&gt;node22 -->
<g id="edge22" class="edge">
<title>node20&#45;&gt;node22</title>
<path fill="none" stroke="black" d="M1384.2,-234.81C1388.68,-226.44 1394.16,-216.2 1399.14,-206.9"/>
<polygon fill="black" stroke="black" points="1402.25,-208.5 1403.89,-198.03 1396.08,-205.19 1402.25,-208.5"/>
</g>
<!-- node29 -->
<g id="node30" class="node">
<title>node29</title>
<path fill="#ffe6f0" stroke="black" d="M1501.5,-199C1501.5,-199 1470.5,-199 1470.5,-199 1464.5,-199 1458.5,-193 1458.5,-187 1458.5,-187 1458.5,-173 1458.5,-173 1458.5,-167 1464.5,-161 1470.5,-161 1470.5,-161 1501.5,-161 1501.5,-161 1507.5,-161 1513.5,-167 1513.5,-173 1513.5,-173 1513.5,-187 1513.5,-187 1513.5,-193 1507.5,-199 1501.5,-199"/>
<text text-anchor="middle" x="1486" y="-183.8" font-family="Arial" font-size="14.00">footer</text>
<text text-anchor="middle" x="1486" y="-168.8" font-family="Arial" font-size="14.00">.footer</text>
</g>
<!-- node20&#45;&gt;node29 -->
<g id="edge29" class="edge">
<title>node20&#45;&gt;node29</title>
<path fill="none" stroke="black" d="M1401.59,-234.99C1416.09,-225.72 1434.25,-214.1 1450,-204.02"/>
<polygon fill="black" stroke="black" points="1451.93,-206.95 1458.47,-198.61 1448.16,-201.05 1451.93,-206.95"/>
</g>
<!-- node23 -->
<g id="node24" class="node">
<title>node23</title>
<path fill="#ffffff" stroke="black" d="M1395,-117.5C1395,-117.5 1343,-117.5 1343,-117.5 1337,-117.5 1331,-111.5 1331,-105.5 1331,-105.5 1331,-91.5 1331,-91.5 1331,-85.5 1337,-79.5 1343,-79.5 1343,-79.5 1395,-79.5 1395,-79.5 1401,-79.5 1407,-85.5 1407,-91.5 1407,-91.5 1407,-105.5 1407,-105.5 1407,-111.5 1401,-117.5 1395,-117.5"/>
<text text-anchor="middle" x="1369" y="-102.3" font-family="Arial" font-size="14.00">h2</text>
<text text-anchor="middle" x="1369" y="-87.3" font-family="Arial" font-size="14.00">.page&#45;title</text>
</g>
<!-- node22&#45;&gt;node23 -->
<g id="edge23" class="edge">
<title>node22&#45;&gt;node23</title>
<path fill="none" stroke="black" d="M1403.45,-161.75C1397.75,-151.44 1390.38,-138.13 1383.92,-126.46"/>
<polygon fill="black" stroke="black" points="1386.89,-124.6 1378.99,-117.54 1380.77,-127.99 1386.89,-124.6"/>
</g>
<!-- node24 -->
<g id="node25" class="node">
<title>node24</title>
<path fill="#ffffcc" stroke="black" d="M1479,-125C1479,-125 1437,-125 1437,-125 1431,-125 1425,-119 1425,-113 1425,-113 1425,-84 1425,-84 1425,-78 1431,-72 1437,-72 1437,-72 1479,-72 1479,-72 1485,-72 1491,-78 1491,-84 1491,-84 1491,-113 1491,-113 1491,-119 1485,-125 1479,-125"/>
<text text-anchor="middle" x="1458" y="-109.8" font-family="Arial" font-size="14.00">section</text>
<text text-anchor="middle" x="1458" y="-94.8" font-family="Arial" font-size="14.00">#license</text>
<text text-anchor="middle" x="1458" y="-79.8" font-family="Arial" font-size="14.00">.license</text>
</g>
<!-- node22&#45;&gt;node24 -->
<g id="edge24" class="edge">
<title>node22&#45;&gt;node24</title>
<path fill="none" stroke="black" d="M1422.76,-161.75C1427.35,-153.65 1432.98,-143.7 1438.39,-134.14"/>
<polygon fill="black" stroke="black" points="1441.59,-135.6 1443.47,-125.18 1435.49,-132.15 1441.59,-135.6"/>
</g>
<!-- node25 -->
<g id="node26" class="node">
<title>node25</title>
<path fill="#ffffff" stroke="black" d="M1365,-36C1365,-36 1335,-36 1335,-36 1329,-36 1323,-30 1323,-24 1323,-24 1323,-12 1323,-12 1323,-6 1329,0 1335,0 1335,0 1365,0 1365,0 1371,0 1377,-6 1377,-12 1377,-12 1377,-24 1377,-24 1377,-30 1371,-36 1365,-36"/>
<text text-anchor="middle" x="1350" y="-14.3" font-family="Arial" font-size="14.00">h3</text>
</g>
<!-- node24&#45;&gt;node25 -->
<g id="edge25" class="edge">
<title>node24&#45;&gt;node25</title>
<path fill="none" stroke="black" d="M1424.72,-73.31C1410.96,-63.31 1395.09,-51.77 1381.53,-41.91"/>
<polygon fill="black" stroke="black" points="1383.56,-39.07 1373.42,-36.02 1379.45,-44.73 1383.56,-39.07"/>
</g>
<!-- node26 -->
<g id="node27" class="node">
<title>node26</title>
<path fill="#ffffff" stroke="black" d="M1437,-36C1437,-36 1407,-36 1407,-36 1401,-36 1395,-30 1395,-24 1395,-24 1395,-12 1395,-12 1395,-6 1401,0 1407,0 1407,0 1437,0 1437,0 1443,0 1449,-6 1449,-12 1449,-12 1449,-24 1449,-24 1449,-30 1443,-36 1437,-36"/>
<text text-anchor="middle" x="1422" y="-14.3" font-family="Arial" font-size="14.00">p</text>
</g>
<!-- node24&#45;&gt;node26 -->
<g id="edge26" class="edge">
<title>node24&#45;&gt;node26</title>
<path fill="none" stroke="black" d="M1446.21,-71.8C1442.34,-63.35 1438.03,-53.95 1434.13,-45.45"/>
<polygon fill="black" stroke="black" points="1437.3,-43.96 1429.95,-36.33 1430.93,-46.88 1437.3,-43.96"/>
</g>
<!-- node27 -->
<g id="node28" class="node">
<title>node27</title>
<path fill="#ffffff" stroke="black" d="M1509,-36C1509,-36 1479,-36 1479,-36 1473,-36 1467,-30 1467,-24 1467,-24 1467,-12 1467,-12 1467,-6 1473,0 1479,0 1479,0 1509,0 1509,0 1515,0 1521,-6 1521,-12 1521,-12 1521,-24 1521,-24 1521,-30 1515,-36 1509,-36"/>
<text text-anchor="middle" x="1494" y="-14.3" font-family="Arial" font-size="14.00">p</text>
</g>
<!-- node24&#45;&gt;node27 -->
<g id="edge27" class="edge">
<title>node24&#45;&gt;node27</title>
<path fill="none" stroke="black" d="M1469.79,-71.8C1473.66,-63.35 1477.97,-53.95 1481.87,-45.45"/>
<polygon fill="black" stroke="black" points="1485.07,-46.88 1486.05,-36.33 1478.7,-43.96 1485.07,-46.88"/>
</g>
<!-- node28 -->
<g id="node29" class="node">
<title>node28</title>
<path fill="#ffffff" stroke="black" d="M1581,-36C1581,-36 1551,-36 1551,-36 1545,-36 1539,-30 1539,-24 1539,-24 1539,-12 1539,-12 1539,-6 1545,0 1551,0 1551,0 1581,0 1581,0 1587,0 1593,-6 1593,-12 1593,-12 1593,-24 1593,-24 1593,-30 1587,-36 1581,-36"/>
<text text-anchor="middle" x="1566" y="-14.3" font-family="Arial" font-size="14.00">p</text>
</g>
<!-- node24&#45;&gt;node28 -->
<g id="edge28" class="edge">
<title>node24&#45;&gt;node28</title>
<path fill="none" stroke="black" d="M1491.28,-73.31C1505.04,-63.31 1520.91,-51.77 1534.47,-41.91"/>
<polygon fill="black" stroke="black" points="1536.55,-44.73 1542.58,-36.02 1532.44,-39.07 1536.55,-44.73"/>
</g>
</g>
</svg>
