<?xml version="1.0" encoding="UTF-8" standalone="no"?>
<!DOCTYPE svg PUBLIC "-//W3C//DTD SVG 1.1//EN"
 "http://www.w3.org/Graphics/SVG/1.1/DTD/svg11.dtd">
<!-- Generated by graphviz version 2.43.0 (0)
 -->
<!-- Title: DOM Pages: 1 -->
<svg width="1744pt" height="425pt"
 viewBox="0.00 0.00 1744.00 425.00" xmlns="http://www.w3.org/2000/svg" xmlns:xlink="http://www.w3.org/1999/xlink">
<g id="graph0" class="graph" transform="scale(1 1) rotate(0) translate(4 421)">
<title>DOM</title>
<polygon fill="white" stroke="transparent" points="-4,4 -4,-421 1740,-421 1740,4 -4,4"/>
<!-- node0 -->
<g id="node1" class="node">
<title>node0</title>
<path fill="#ffe6e6" stroke="black" d="M1057,-417C1057,-417 1027,-417 1027,-417 1021,-417 1015,-411 1015,-405 1015,-405 1015,-393 1015,-393 1015,-387 1021,-381 1027,-381 1027,-381 1057,-381 1057,-381 1063,-381 1069,-387 1069,-393 1069,-393 1069,-405 1069,-405 1069,-411 1063,-417 1057,-417"/>
<text text-anchor="middle" x="1042" y="-395.3" font-family="Arial" font-size="14.00">html</text>
</g>
<!-- node1 -->
<g id="node2" class="node">
<title>node1</title>
<path fill="#e6f3ff" stroke="black" d="M726,-345C726,-345 696,-345 696,-345 690,-345 684,-339 684,-333 684,-333 684,-321 684,-321 684,-315 690,-309 696,-309 696,-309 726,-309 726,-309 732,-309 738,-315 738,-321 738,-321 738,-333 738,-333 738,-339 732,-345 726,-345"/>
<text text-anchor="middle" x="711" y="-323.3" font-family="Arial" font-size="14.00">head</text>
</g>
<!-- node0&#45;&gt;node1 -->
<g id="edge1" class="edge">
<title>node0&#45;&gt;node1</title>
<path fill="none" stroke="black" d="M1014.91,-392.27C956,-379.81 816.09,-350.22 748.64,-335.96"/>
<polygon fill="black" stroke="black" points="748.97,-332.45 738.46,-333.81 747.52,-339.3 748.97,-332.45"/>
</g>
<!-- node21 -->
<g id="node22" class="node">
<title>node21</title>
<path fill="#e6ffe6" stroke="black" d="M1476,-345C1476,-345 1446,-345 1446,-345 1440,-345 1434,-339 1434,-333 1434,-333 1434,-321 1434,-321 1434,-315 1440,-309 1446,-309 1446,-309 1476,-309 1476,-309 1482,-309 1488,-315 1488,-321 1488,-321 1488,-333 1488,-333 1488,-339 1482,-345 1476,-345"/>
<text text-anchor="middle" x="1461" y="-323.3" font-family="Arial" font-size="14.00">body</text>
</g>
<!-- node0&#45;&gt;node21 -->
<g id="edge21" class="edge">
<title>node0&#45;&gt;node21</title>
<path fill="none" stroke="black" d="M1069.17,-393.46C1141.86,-381.32 1340.91,-348.06 1423.9,-334.2"/>
<polygon fill="black" stroke="black" points="1424.61,-337.63 1433.89,-332.53 1423.45,-330.72 1424.61,-337.63"/>
</g>
<!-- node2 -->
<g id="node3" class="node">
<title>node2</title>
<path fill="#ffffff" stroke="black" d="M42,-272C42,-272 12,-272 12,-272 6,-272 0,-266 0,-260 0,-260 0,-248 0,-248 0,-242 6,-236 12,-236 12,-236 42,-236 42,-236 48,-236 54,-242 54,-248 54,-248 54,-260 54,-260 54,-266 48,-272 42,-272"/>
<text text-anchor="middle" x="27" y="-250.3" font-family="Arial" font-size="14.00">meta</text>
</g>
<!-- node1&#45;&gt;node2 -->
<g id="edge2" class="edge">
<title>node1&#45;&gt;node2</title>
<path fill="none" stroke="black" d="M683.99,-325.16C579.59,-321.7 201.92,-307.24 63.98,-272.53"/>
<polygon fill="black" stroke="black" points="64.65,-269.08 54.08,-269.88 62.84,-275.85 64.65,-269.08"/>
</g>
<!-- node3 -->
<g id="node4" class="node">
<title>node3</title>
<path fill="#ffffff" stroke="black" d="M114,-272C114,-272 84,-272 84,-272 78,-272 72,-266 72,-260 72,-260 72,-248 72,-248 72,-242 78,-236 84,-236 84,-236 114,-236 114,-236 120,-236 126,-242 126,-248 126,-248 126,-260 126,-260 126,-266 120,-272 114,-272"/>
<text text-anchor="middle" x="99" y="-250.3" font-family="Arial" font-size="14.00">meta</text>
</g>
<!-- node1&#45;&gt;node3 -->
<g id="edge3" class="edge">
<title>node1&#45;&gt;node3</title>
<path fill="none" stroke="black" d="M683.99,-324.84C587.45,-320.5 259.04,-303.98 135.97,-272.54"/>
<polygon fill="black" stroke="black" points="136.66,-269.1 126.09,-269.85 134.82,-275.85 136.66,-269.1"/>
</g>
<!-- node4 -->
<g id="node5" class="node">
<title>node4</title>
<path fill="#ffffff" stroke="black" d="M186,-272C186,-272 156,-272 156,-272 150,-272 144,-266 144,-260 144,-260 144,-248 144,-248 144,-242 150,-236 156,-236 156,-236 186,-236 186,-236 192,-236 198,-242 198,-248 198,-248 198,-260 198,-260 198,-266 192,-272 186,-272"/>
<text text-anchor="middle" x="171" y="-250.3" font-family="Arial" font-size="14.00">meta</text>
</g>
<!-- node1&#45;&gt;node4 -->
<g id="edge4" class="edge">
<title>node1&#45;&gt;node4</title>
<path fill="none" stroke="black" d="M683.85,-326.51C608.55,-327.24 391.12,-324.59 207.9,-272.65"/>
<polygon fill="black" stroke="black" points="208.68,-269.23 198.1,-269.81 206.74,-275.96 208.68,-269.23"/>
</g>
<!-- node5 -->
<g id="node6" class="node">
<title>node5</title>
<path fill="#ffffff" stroke="black" d="M258,-272C258,-272 228,-272 228,-272 222,-272 216,-266 216,-260 216,-260 216,-248 216,-248 216,-242 222,-236 228,-236 228,-236 258,-236 258,-236 264,-236 270,-242 270,-248 270,-248 270,-260 270,-260 270,-266 264,-272 258,-272"/>
<text text-anchor="middle" x="243" y="-250.3" font-family="Arial" font-size="14.00">meta</text>
</g>
<!-- node1&#45;&gt;node5 -->
<g id="edge5" class="edge">
<title>node1&#45;&gt;node5</title>
<path fill="none" stroke="black" d="M683.8,-325.85C616.07,-324.81 434.77,-317.95 279.82,-272.66"/>
<polygon fill="black" stroke="black" points="280.7,-269.27 270.12,-269.76 278.7,-275.98 280.7,-269.27"/>
</g>
<!-- node6 -->
<g id="node7" class="node">
<title>node6</title>
<path fill="#ffffff" stroke="black" d="M330,-272C330,-272 300,-272 300,-272 294,-272 288,-266 288,-260 288,-260 288,-248 288,-248 288,-242 294,-236 300,-236 300,-236 330,-236 330,-236 336,-236 342,-242 342,-248 342,-248 342,-260 342,-260 342,-266 336,-272 330,-272"/>
<text text-anchor="middle" x="315" y="-250.3" font-family="Arial" font-size="14.00">meta</text>
</g>
<!-- node1&#45;&gt;node6 -->
<g id="edge6" class="edge">
<title>node1&#45;&gt;node6</title>
<path fill="none" stroke="black" d="M683.7,-324.92C624.24,-321.97 478.85,-311.39 352.01,-272.76"/>
<polygon fill="black" stroke="black" points="352.73,-269.32 342.14,-269.69 350.65,-276 352.73,-269.32"/>
</g>
<!-- node7 -->
<g id="node8" class="node">
<title>node7</title>
<path fill="#ffffff" stroke="black" d="M402,-272C402,-272 372,-272 372,-272 366,-272 360,-266 360,-260 360,-260 360,-248 360,-248 360,-242 366,-236 372,-236 372,-236 402,-236 402,-236 408,-236 414,-242 414,-248 414,-248 414,-260 414,-260 414,-266 408,-272 402,-272"/>
<text text-anchor="middle" x="387" y="-250.3" font-family="Arial" font-size="14.00">meta</text>
</g>
<!-- node1&#45;&gt;node7 -->
<g id="edge7" class="edge">
<title>node1&#45;&gt;node7</title>
<path fill="none" stroke="black" d="M683.76,-323.57C633.51,-318.53 523,-304.93 423.74,-272.75"/>
<polygon fill="black" stroke="black" points="424.77,-269.41 414.18,-269.58 422.57,-276.05 424.77,-269.41"/>
</g>
<!-- node8 -->
<g id="node9" class="node">
<title>node8</title>
<path fill="#ffffff" stroke="black" d="M474,-272C474,-272 444,-272 444,-272 438,-272 432,-266 432,-260 432,-260 432,-248 432,-248 432,-242 438,-236 444,-236 444,-236 474,-236 474,-236 480,-236 486,-242 486,-248 486,-248 486,-260 486,-260 486,-266 480,-272 474,-272"/>
<text text-anchor="middle" x="459" y="-250.3" font-family="Arial" font-size="14.00">title</text>
</g>
<!-- node1&#45;&gt;node8 -->
<g id="edge8" class="edge">
<title>node1&#45;&gt;node8</title>
<path fill="none" stroke="black" d="M683.82,-321.35C644.09,-314.12 567.88,-298.64 495.9,-272.93"/>
<polygon fill="black" stroke="black" points="496.83,-269.54 486.24,-269.41 494.43,-276.12 496.83,-269.54"/>
</g>
<!-- node9 -->
<g id="node10" class="node">
<title>node9</title>
<path fill="#ffffff" stroke="black" d="M546,-272C546,-272 516,-272 516,-272 510,-272 504,-266 504,-260 504,-260 504,-248 504,-248 504,-242 510,-236 516,-236 516,-236 546,-236 546,-236 552,-236 558,-242 558,-248 558,-248 558,-260 558,-260 558,-266 552,-272 546,-272"/>
<text text-anchor="middle" x="531" y="-250.3" font-family="Arial" font-size="14.00">link</text>
</g>
<!-- node1&#45;&gt;node9 -->
<g id="edge9" class="edge">
<title>node1&#45;&gt;node9</title>
<path fill="none" stroke="black" d="M683.84,-317.01C656.51,-307.75 613.04,-292.43 567.75,-273.12"/>
<polygon fill="black" stroke="black" points="568.94,-269.82 558.37,-269.08 566.17,-276.25 568.94,-269.82"/>
</g>
<!-- node10 -->
<g id="node11" class="node">
<title>node10</title>
<path fill="#ffffff" stroke="black" d="M618,-272C618,-272 588,-272 588,-272 582,-272 576,-266 576,-260 576,-260 576,-248 576,-248 576,-242 582,-236 588,-236 588,-236 618,-236 618,-236 624,-236 630,-242 630,-248 630,-248 630,-260 630,-260 630,-266 624,-272 618,-272"/>
<text text-anchor="middle" x="603" y="-250.3" font-family="Arial" font-size="14.00">link</text>
</g>
<!-- node1&#45;&gt;node10 -->
<g id="edge10" class="edge">
<title>node1&#45;&gt;node10</title>
<path fill="none" stroke="black" d="M685.13,-308.99C670.94,-299.67 653.16,-287.97 637.77,-277.86"/>
<polygon fill="black" stroke="black" points="639.31,-274.68 629.03,-272.11 635.47,-280.53 639.31,-274.68"/>
</g>
<!-- node11 -->
<g id="node12" class="node">
<title>node11</title>
<path fill="#ffffff" stroke="black" d="M690,-272C690,-272 660,-272 660,-272 654,-272 648,-266 648,-260 648,-260 648,-248 648,-248 648,-242 654,-236 660,-236 660,-236 690,-236 690,-236 696,-236 702,-242 702,-248 702,-248 702,-260 702,-260 702,-266 696,-272 690,-272"/>
<text text-anchor="middle" x="675" y="-250.3" font-family="Arial" font-size="14.00">link</text>
</g>
<!-- node1&#45;&gt;node11 -->
<g id="edge11" class="edge">
<title>node1&#45;&gt;node11</title>
<path fill="none" stroke="black" d="M702.29,-308.81C698.08,-300.53 692.95,-290.41 688.28,-281.19"/>
<polygon fill="black" stroke="black" points="691.28,-279.37 683.63,-272.03 685.04,-282.53 691.28,-279.37"/>
</g>
<!-- node12 -->
<g id="node13" class="node">
<title>node12</title>
<path fill="#ffffff" stroke="black" d="M762,-272C762,-272 732,-272 732,-272 726,-272 720,-266 720,-260 720,-260 720,-248 720,-248 720,-242 726,-236 732,-236 732,-236 762,-236 762,-236 768,-236 774,-242 774,-248 774,-248 774,-260 774,-260 774,-266 768,-272 762,-272"/>
<text text-anchor="middle" x="747" y="-250.3" font-family="Arial" font-size="14.00">link</text>
</g>
<!-- node1&#45;&gt;node12 -->
<g id="edge12" class="edge">
<title>node1&#45;&gt;node12</title>
<path fill="none" stroke="black" d="M719.71,-308.81C723.92,-300.53 729.05,-290.41 733.72,-281.19"/>
<polygon fill="black" stroke="black" points="736.96,-282.53 738.37,-272.03 730.72,-279.37 736.96,-282.53"/>
</g>
<!-- node13 -->
<g id="node14" class="node">
<title>node13</title>
<path fill="#ffffff" stroke="black" d="M834,-272C834,-272 804,-272 804,-272 798,-272 792,-266 792,-260 792,-260 792,-248 792,-248 792,-242 798,-236 804,-236 804,-236 834,-236 834,-236 840,-236 846,-242 846,-248 846,-248 846,-260 846,-260 846,-266 840,-272 834,-272"/>
<text text-anchor="middle" x="819" y="-250.3" font-family="Arial" font-size="14.00">link</text>
</g>
<!-- node1&#45;&gt;node13 -->
<g id="edge13" class="edge">
<title>node1&#45;&gt;node13</title>
<path fill="none" stroke="black" d="M736.87,-308.99C751.06,-299.67 768.84,-287.97 784.23,-277.86"/>
<polygon fill="black" stroke="black" points="786.53,-280.53 792.97,-272.11 782.69,-274.68 786.53,-280.53"/>
</g>
<!-- node14 -->
<g id="node15" class="node">
<title>node14</title>
<path fill="#ffffff" stroke="black" d="M906,-272C906,-272 876,-272 876,-272 870,-272 864,-266 864,-260 864,-260 864,-248 864,-248 864,-242 870,-236 876,-236 876,-236 906,-236 906,-236 912,-236 918,-242 918,-248 918,-248 918,-260 918,-260 918,-266 912,-272 906,-272"/>
<text text-anchor="middle" x="891" y="-250.3" font-family="Arial" font-size="14.00">link</text>
</g>
<!-- node1&#45;&gt;node14 -->
<g id="edge14" class="edge">
<title>node1&#45;&gt;node14</title>
<path fill="none" stroke="black" d="M738.16,-317.01C765.49,-307.75 808.96,-292.43 854.25,-273.12"/>
<polygon fill="black" stroke="black" points="855.83,-276.25 863.63,-269.08 853.06,-269.82 855.83,-276.25"/>
</g>
<!-- node15 -->
<g id="node16" class="node">
<title>node15</title>
<path fill="#ffffff" stroke="black" d="M978,-272C978,-272 948,-272 948,-272 942,-272 936,-266 936,-260 936,-260 936,-248 936,-248 936,-242 942,-236 948,-236 948,-236 978,-236 978,-236 984,-236 990,-242 990,-248 990,-248 990,-260 990,-260 990,-266 984,-272 978,-272"/>
<text text-anchor="middle" x="963" y="-250.3" font-family="Arial" font-size="14.00">link</text>
</g>
<!-- node1&#45;&gt;node15 -->
<g id="edge15" class="edge">
<title>node1&#45;&gt;node15</title>
<path fill="none" stroke="black" d="M738.18,-321.35C777.91,-314.12 854.12,-298.64 926.1,-272.93"/>
<polygon fill="black" stroke="black" points="927.57,-276.12 935.76,-269.41 925.17,-269.54 927.57,-276.12"/>
</g>
<!-- node16 -->
<g id="node17" class="node">
<title>node16</title>
<path fill="#ffffff" stroke="black" d="M1050,-272C1050,-272 1020,-272 1020,-272 1014,-272 1008,-266 1008,-260 1008,-260 1008,-248 1008,-248 1008,-242 1014,-236 1020,-236 1020,-236 1050,-236 1050,-236 1056,-236 1062,-242 1062,-248 1062,-248 1062,-260 1062,-260 1062,-266 1056,-272 1050,-272"/>
<text text-anchor="middle" x="1035" y="-250.3" font-family="Arial" font-size="14.00">link</text>
</g>
<!-- node1&#45;&gt;node16 -->
<g id="edge16" class="edge">
<title>node1&#45;&gt;node16</title>
<path fill="none" stroke="black" d="M738.24,-323.57C788.49,-318.53 899,-304.93 998.26,-272.75"/>
<polygon fill="black" stroke="black" points="999.43,-276.05 1007.82,-269.58 997.23,-269.41 999.43,-276.05"/>
</g>
<!-- node17 -->
<g id="node18" class="node">
<title>node17</title>
<path fill="#ffffff" stroke="black" d="M1122,-272C1122,-272 1092,-272 1092,-272 1086,-272 1080,-266 1080,-260 1080,-260 1080,-248 1080,-248 1080,-242 1086,-236 1092,-236 1092,-236 1122,-236 1122,-236 1128,-236 1134,-242 1134,-248 1134,-248 1134,-260 1134,-260 1134,-266 1128,-272 1122,-272"/>
<text text-anchor="middle" x="1107" y="-250.3" font-family="Arial" font-size="14.00">link</text>
</g>
<!-- node1&#45;&gt;node17 -->
<g id="edge17" class="edge">
<title>node1&#45;&gt;node17</title>
<path fill="none" stroke="black" d="M738.3,-324.92C797.76,-321.97 943.15,-311.39 1069.99,-272.76"/>
<polygon fill="black" stroke="black" points="1071.35,-276 1079.86,-269.69 1069.27,-269.32 1071.35,-276"/>
</g>
<!-- node18 -->
<g id="node19" class="node">
<title>node18</title>
<path fill="#ffffff" stroke="black" d="M1194,-272C1194,-272 1164,-272 1164,-272 1158,-272 1152,-266 1152,-260 1152,-260 1152,-248 1152,-248 1152,-242 1158,-236 1164,-236 1164,-236 1194,-236 1194,-236 1200,-236 1206,-242 1206,-248 1206,-248 1206,-260 1206,-260 1206,-266 1200,-272 1194,-272"/>
<text text-anchor="middle" x="1179" y="-250.3" font-family="Arial" font-size="14.00">link</text>
</g>
<!-- node1&#45;&gt;node18 -->
<g id="edge18" class="edge">
<title>node1&#45;&gt;node18</title>
<path fill="none" stroke="black" d="M738.2,-325.85C805.93,-324.81 987.23,-317.95 1142.18,-272.66"/>
<polygon fill="black" stroke="black" points="1143.3,-275.98 1151.88,-269.76 1141.3,-269.27 1143.3,-275.98"/>
</g>
<!-- node19 -->
<g id="node20" class="node">
<title>node19</title>
<path fill="#ffffff" stroke="black" d="M1266,-272C1266,-272 1236,-272 1236,-272 1230,-272 1224,-266 1224,-260 1224,-260 1224,-248 1224,-248 1224,-242 1230,-236 1236,-236 1236,-236 1266,-236 1266,-236 1272,-236 1278,-242 1278,-248 1278,-248 1278,-260 1278,-260 1278,-266 1272,-272 1266,-272"/>
<text text-anchor="middle" x="1251" y="-250.3" font-family="Arial" font-size="14.00">link</text>
</g>
<!-- node1&#45;&gt;node19 -->
<g id="edge19" class="edge">
<title>node1&#45;&gt;node19</title>
<path fill="none" stroke="black" d="M738.15,-326.51C813.45,-327.24 1030.88,-324.59 1214.1,-272.65"/>
<polygon fill="black" stroke="black" points="1215.26,-275.96 1223.9,-269.81 1213.32,-269.23 1215.26,-275.96"/>
</g>
<!-- node20 -->
<g id="node21" class="node">
<title>node20</title>
<path fill="#ffffff" stroke="black" d="M1348,-272C1348,-272 1308,-272 1308,-272 1302,-272 1296,-266 1296,-260 1296,-260 1296,-248 1296,-248 1296,-242 1302,-236 1308,-236 1308,-236 1348,-236 1348,-236 1354,-236 1360,-242 1360,-248 1360,-248 1360,-260 1360,-260 1360,-266 1354,-272 1348,-272"/>
<text text-anchor="middle" x="1328" y="-250.3" font-family="Arial" font-size="14.00">noscript</text>
</g>
<!-- node1&#45;&gt;node20 -->
<g id="edge20" class="edge">
<title>node1&#45;&gt;node20</title>
<path fill="none" stroke="black" d="M738.22,-326.56C820.47,-327.63 1073.3,-326.21 1285.89,-272.82"/>
<polygon fill="black" stroke="black" points="1286.84,-276.19 1295.66,-270.32 1285.11,-269.41 1286.84,-276.19"/>
</g>
<!-- node22 -->
<g id="node23" class="node">
<title>node22</title>
<path fill="#fff4e6" stroke="black" d="M1428,-273C1428,-273 1390,-273 1390,-273 1384,-273 1378,-267 1378,-261 1378,-261 1378,-247 1378,-247 1378,-241 1384,-235 1390,-235 1390,-235 1428,-235 1428,-235 1434,-235 1440,-241 1440,-247 1440,-247 1440,-261 1440,-261 1440,-267 1434,-273 1428,-273"/>
<text text-anchor="middle" x="1409" y="-257.8" font-family="Arial" font-size="14.00">header</text>
<text text-anchor="middle" x="1409" y="-242.8" font-family="Arial" font-size="14.00">.header</text>
</g>
<!-- node21&#45;&gt;node22 -->
<g id="edge22" class="edge">
<title>node21&#45;&gt;node22</title>
<path fill="none" stroke="black" d="M1448.41,-308.81C1442.34,-300.52 1434.92,-290.39 1428.16,-281.16"/>
<polygon fill="black" stroke="black" points="1430.93,-279.02 1422.2,-273.02 1425.28,-283.16 1430.93,-279.02"/>
</g>
<!-- node23 -->
<g id="node24" class="node">
<title>node23</title>
<path fill="#f5f5f5" stroke="black" d="M1556,-273C1556,-273 1470,-273 1470,-273 1464,-273 1458,-267 1458,-261 1458,-261 1458,-247 1458,-247 1458,-241 1464,-235 1470,-235 1470,-235 1556,-235 1556,-235 1562,-235 1568,-241 1568,-247 1568,-247 1568,-261 1568,-261 1568,-267 1562,-273 1556,-273"/>
<text text-anchor="middle" x="1513" y="-257.8" font-family="Arial" font-size="14.00">div</text>
<text text-anchor="middle" x="1513" y="-242.8" font-family="Arial" font-size="14.00">.page&#45;container</text>
</g>
<!-- node21&#45;&gt;node23 -->
<g id="edge23" class="edge">
<title>node21&#45;&gt;node23</title>
<path fill="none" stroke="black" d="M1473.59,-308.81C1479.66,-300.52 1487.08,-290.39 1493.84,-281.16"/>
<polygon fill="black" stroke="black" points="1496.72,-283.16 1499.8,-273.02 1491.07,-279.02 1496.72,-283.16"/>
</g>
<!-- node31 -->
<g id="node32" class="node">
<title>node31</title>
<path fill="#ffe6f0" stroke="black" d="M1629.5,-273C1629.5,-273 1598.5,-273 1598.5,-273 1592.5,-273 1586.5,-267 1586.5,-261 1586.5,-261 1586.5,-247 1586.5,-247 1586.5,-241 1592.5,-235 1598.5,-235 1598.5,-235 1629.5,-235 1629.5,-235 1635.5,-235 1641.5,-241 1641.5,-247 1641.5,-247 1641.5,-261 1641.5,-261 1641.5,-267 1635.5,-273 1629.5,-273"/>
<text text-anchor="middle" x="1614" y="-257.8" font-family="Arial" font-size="14.00">footer</text>
<text text-anchor="middle" x="1614" y="-242.8" font-family="Arial" font-size="14.00">.footer</text>
</g>
<!-- node21&#45;&gt;node31 -->
<g id="edge31" class="edge">
<title>node21&#45;&gt;node31</title>
<path fill="none" stroke="black" d="M1488.27,-313.76C1511.84,-303.14 1546.76,-287.26 1577,-273 1577.09,-272.96 1577.19,-272.91 1577.28,-272.87"/>
<polygon fill="black" stroke="black" points="1578.63,-276.1 1586.15,-268.64 1575.62,-269.78 1578.63,-276.1"/>
</g>
<!-- node24 -->
<g id="node25" class="node">
<title>node24</title>
<path fill="#e6ffff" stroke="black" d="M1471,-198C1471,-198 1441,-198 1441,-198 1435,-198 1429,-192 1429,-186 1429,-186 1429,-174 1429,-174 1429,-168 1435,-162 1441,-162 1441,-162 1471,-162 1471,-162 1477,-162 1483,-168 1483,-174 1483,-174 1483,-186 1483,-186 1483,-192 1477,-198 1471,-198"/>
<text text-anchor="middle" x="1456" y="-176.3" font-family="Arial" font-size="14.00">nav</text>
</g>
<!-- node23&#45;&gt;node24 -->
<g id="edge24" class="edge">
<title>node23&#45;&gt;node24</title>
<path fill="none" stroke="black" d="M1498.62,-234.83C1491.78,-226.2 1483.49,-215.73 1476.05,-206.33"/>
<polygon fill="black" stroke="black" points="1478.74,-204.09 1469.79,-198.42 1473.25,-208.43 1478.74,-204.09"/>
</g>
<!-- node26 -->
<g id="node27" class="node">
<title>node26</title>
<path fill="#f0e6ff" stroke="black" d="M1607.5,-199C1607.5,-199 1532.5,-199 1532.5,-199 1526.5,-199 1520.5,-193 1520.5,-187 1520.5,-187 1520.5,-173 1520.5,-173 1520.5,-167 1526.5,-161 1532.5,-161 1532.5,-161 1607.5,-161 1607.5,-161 1613.5,-161 1619.5,-167 1619.5,-173 1619.5,-173 1619.5,-187 1619.5,-187 1619.5,-193 1613.5,-199 1607.5,-199"/>
<text text-anchor="middle" x="1570" y="-183.8" font-family="Arial" font-size="14.00">main</text>
<text text-anchor="middle" x="1570" y="-168.8" font-family="Arial" font-size="14.00">.main&#45;content</text>
</g>
<!-- node23&#45;&gt;node26 -->
<g id="edge26" class="edge">
<title>node23&#45;&gt;node26</title>
<path fill="none" stroke="black" d="M1527.38,-234.83C1533.95,-226.54 1541.85,-216.56 1549.06,-207.45"/>
<polygon fill="black" stroke="black" points="1551.96,-209.43 1555.42,-199.41 1546.47,-205.08 1551.96,-209.43"/>
</g>
<!-- node25 -->
<g id="node26" class="node">
<title>node25</title>
<path fill="#f5f5f5" stroke="black" d="M1502,-117.5C1502,-117.5 1370,-117.5 1370,-117.5 1364,-117.5 1358,-111.5 1358,-105.5 1358,-105.5 1358,-91.5 1358,-91.5 1358,-85.5 1364,-79.5 1370,-79.5 1370,-79.5 1502,-79.5 1502,-79.5 1508,-79.5 1514,-85.5 1514,-91.5 1514,-91.5 1514,-105.5 1514,-105.5 1514,-111.5 1508,-117.5 1502,-117.5"/>
<text text-anchor="middle" x="1436" y="-102.3" font-family="Arial" font-size="14.00">div</text>
<text text-anchor="middle" x="1436" y="-87.3" font-family="Arial" font-size="14.00">#lessons&#45;nav&#45;container</text>
</g>
<!-- node24&#45;&gt;node25 -->
<g id="edge25" class="edge">
<title>node24&#45;&gt;node25</title>
<path fill="none" stroke="black" d="M1451.66,-161.75C1449.14,-151.75 1445.92,-138.92 1443.05,-127.5"/>
<polygon fill="black" stroke="black" points="1446.37,-126.39 1440.54,-117.54 1439.59,-128.1 1446.37,-126.39"/>
</g>
<!-- node27 -->
<g id="node28" class="node">
<title>node27</title>
<path fill="#ffffff" stroke="black" d="M1596,-117.5C1596,-117.5 1544,-117.5 1544,-117.5 1538,-117.5 1532,-111.5 1532,-105.5 1532,-105.5 1532,-91.5 1532,-91.5 1532,-85.5 1538,-79.5 1544,-79.5 1544,-79.5 1596,-79.5 1596,-79.5 1602,-79.5 1608,-85.5 1608,-91.5 1608,-91.5 1608,-105.5 1608,-105.5 1608,-111.5 1602,-117.5 1596,-117.5"/>
<text text-anchor="middle" x="1570" y="-102.3" font-family="Arial" font-size="14.00">h2</text>
<text text-anchor="middle" x="1570" y="-87.3" font-family="Arial" font-size="14.00">.page&#45;title</text>
</g>
<!-- node26&#45;&gt;node27 -->
<g id="edge27" class="edge">
<title>node26&#45;&gt;node27</title>
<path fill="none" stroke="black" d="M1570,-160.96C1570,-151.17 1570,-138.85 1570,-127.81"/>
<polygon fill="black" stroke="black" points="1573.5,-127.74 1570,-117.74 1566.5,-127.74 1573.5,-127.74"/>
</g>
<!-- node28 -->
<g id="node29" class="node">
<title>node28</title>
<path fill="#ffffcc" stroke="black" d="M1707.5,-125C1707.5,-125 1638.5,-125 1638.5,-125 1632.5,-125 1626.5,-119 1626.5,-113 1626.5,-113 1626.5,-84 1626.5,-84 1626.5,-78 1632.5,-72 1638.5,-72 1638.5,-72 1707.5,-72 1707.5,-72 1713.5,-72 1719.5,-78 1719.5,-84 1719.5,-84 1719.5,-113 1719.5,-113 1719.5,-119 1713.5,-125 1707.5,-125"/>
<text text-anchor="middle" x="1673" y="-109.8" font-family="Arial" font-size="14.00">section</text>
<text text-anchor="middle" x="1673" y="-94.8" font-family="Arial" font-size="14.00">#mentor&#45;info</text>
<text text-anchor="middle" x="1673" y="-79.8" font-family="Arial" font-size="14.00">.student&#45;info</text>
</g>
<!-- node26&#45;&gt;node28 -->
<g id="edge28" class="edge">
<title>node26&#45;&gt;node28</title>
<path fill="none" stroke="black" d="M1593.37,-160.96C1604.78,-152.16 1618.83,-141.31 1631.95,-131.19"/>
<polygon fill="black" stroke="black" points="1634.18,-133.88 1639.96,-125 1629.9,-128.34 1634.18,-133.88"/>
</g>
<!-- node29 -->
<g id="node30" class="node">
<title>node29</title>
<path fill="#ffffff" stroke="black" d="M1652,-36C1652,-36 1622,-36 1622,-36 1616,-36 1610,-30 1610,-24 1610,-24 1610,-12 1610,-12 1610,-6 1616,0 1622,0 1622,0 1652,0 1652,0 1658,0 1664,-6 1664,-12 1664,-12 1664,-24 1664,-24 1664,-30 1658,-36 1652,-36"/>
<text text-anchor="middle" x="1637" y="-14.3" font-family="Arial" font-size="14.00">h3</text>
</g>
<!-- node28&#45;&gt;node29 -->
<g id="edge29" class="edge">
<title>node28&#45;&gt;node29</title>
<path fill="none" stroke="black" d="M1661.21,-71.8C1657.34,-63.35 1653.03,-53.95 1649.13,-45.45"/>
<polygon fill="black" stroke="black" points="1652.3,-43.96 1644.95,-36.33 1645.93,-46.88 1652.3,-43.96"/>
</g>
<!-- node30 -->
<g id="node31" class="node">
<title>node30</title>
<path fill="#ffffff" stroke="black" d="M1724,-36C1724,-36 1694,-36 1694,-36 1688,-36 1682,-30 1682,-24 1682,-24 1682,-12 1682,-12 1682,-6 1688,0 1694,0 1694,0 1724,0 1724,0 1730,0 1736,-6 1736,-12 1736,-12 1736,-24 1736,-24 1736,-30 1730,-36 1724,-36"/>
<text text-anchor="middle" x="1709" y="-14.3" font-family="Arial" font-size="14.00">p</text>
</g>
<!-- node28&#45;&gt;node30 -->
<g id="edge30" class="edge">
<title>node28&#45;&gt;node30</title>
<path fill="none" stroke="black" d="M1684.79,-71.8C1688.66,-63.35 1692.97,-53.95 1696.87,-45.45"/>
<polygon fill="black" stroke="black" points="1700.07,-46.88 1701.05,-36.33 1693.7,-43.96 1700.07,-46.88"/>
</g>
</g>
</svg>
