<?xml version="1.0" encoding="UTF-8" standalone="no"?>
<!DOCTYPE svg PUBLIC "-//W3C//DTD SVG 1.1//EN"
 "http://www.w3.org/Graphics/SVG/1.1/DTD/svg11.dtd">
<!-- Generated by graphviz version 2.43.0 (0)
 -->
<!-- Title: DOM Pages: 1 -->
<svg width="2093pt" height="569pt"
 viewBox="0.00 0.00 2093.00 569.00" xmlns="http://www.w3.org/2000/svg" xmlns:xlink="http://www.w3.org/1999/xlink">
<g id="graph0" class="graph" transform="scale(1 1) rotate(0) translate(4 565)">
<title>DOM</title>
<polygon fill="white" stroke="transparent" points="-4,4 -4,-565 2089,-565 2089,4 -4,4"/>
<!-- node0 -->
<g id="node1" class="node">
<title>node0</title>
<path fill="#ffe6e6" stroke="black" d="M949,-561C949,-561 919,-561 919,-561 913,-561 907,-555 907,-549 907,-549 907,-537 907,-537 907,-531 913,-525 919,-525 919,-525 949,-525 949,-525 955,-525 961,-531 961,-537 961,-537 961,-549 961,-549 961,-555 955,-561 949,-561"/>
<text text-anchor="middle" x="934" y="-539.3" font-family="Arial" font-size="14.00">html</text>
</g>
<!-- node1 -->
<g id="node2" class="node">
<title>node1</title>
<path fill="#e6f3ff" stroke="black" d="M654,-489C654,-489 624,-489 624,-489 618,-489 612,-483 612,-477 612,-477 612,-465 612,-465 612,-459 618,-453 624,-453 624,-453 654,-453 654,-453 660,-453 666,-459 666,-465 666,-465 666,-477 666,-477 666,-483 660,-489 654,-489"/>
<text text-anchor="middle" x="639" y="-467.3" font-family="Arial" font-size="14.00">head</text>
</g>
<!-- node0&#45;&gt;node1 -->
<g id="edge1" class="edge">
<title>node0&#45;&gt;node1</title>
<path fill="none" stroke="black" d="M906.78,-535.54C853.65,-522.93 736.12,-495.04 675.99,-480.78"/>
<polygon fill="black" stroke="black" points="676.7,-477.35 666.16,-478.44 675.08,-484.16 676.7,-477.35"/>
</g>
<!-- node19 -->
<g id="node20" class="node">
<title>node19</title>
<path fill="#e6ffe6" stroke="black" d="M1318,-489C1318,-489 1288,-489 1288,-489 1282,-489 1276,-483 1276,-477 1276,-477 1276,-465 1276,-465 1276,-459 1282,-453 1288,-453 1288,-453 1318,-453 1318,-453 1324,-453 1330,-459 1330,-465 1330,-465 1330,-477 1330,-477 1330,-483 1324,-489 1318,-489"/>
<text text-anchor="middle" x="1303" y="-467.3" font-family="Arial" font-size="14.00">body</text>
</g>
<!-- node0&#45;&gt;node19 -->
<g id="edge19" class="edge">
<title>node0&#45;&gt;node19</title>
<path fill="none" stroke="black" d="M961.13,-536.85C1026.31,-524.49 1191.76,-493.1 1265.98,-479.02"/>
<polygon fill="black" stroke="black" points="1266.65,-482.46 1275.83,-477.15 1265.35,-475.58 1266.65,-482.46"/>
</g>
<!-- node2 -->
<g id="node3" class="node">
<title>node2</title>
<path fill="#ffffff" stroke="black" d="M42,-416C42,-416 12,-416 12,-416 6,-416 0,-410 0,-404 0,-404 0,-392 0,-392 0,-386 6,-380 12,-380 12,-380 42,-380 42,-380 48,-380 54,-386 54,-392 54,-392 54,-404 54,-404 54,-410 48,-416 42,-416"/>
<text text-anchor="middle" x="27" y="-394.3" font-family="Arial" font-size="14.00">meta</text>
</g>
<!-- node1&#45;&gt;node2 -->
<g id="edge2" class="edge">
<title>node1&#45;&gt;node2</title>
<path fill="none" stroke="black" d="M611.99,-468.84C515.45,-464.5 187.04,-447.98 63.97,-416.54"/>
<polygon fill="black" stroke="black" points="64.66,-413.1 54.09,-413.85 62.82,-419.85 64.66,-413.1"/>
</g>
<!-- node3 -->
<g id="node4" class="node">
<title>node3</title>
<path fill="#ffffff" stroke="black" d="M114,-416C114,-416 84,-416 84,-416 78,-416 72,-410 72,-404 72,-404 72,-392 72,-392 72,-386 78,-380 84,-380 84,-380 114,-380 114,-380 120,-380 126,-386 126,-392 126,-392 126,-404 126,-404 126,-410 120,-416 114,-416"/>
<text text-anchor="middle" x="99" y="-394.3" font-family="Arial" font-size="14.00">meta</text>
</g>
<!-- node1&#45;&gt;node3 -->
<g id="edge3" class="edge">
<title>node1&#45;&gt;node3</title>
<path fill="none" stroke="black" d="M611.85,-470.51C536.55,-471.24 319.12,-468.59 135.9,-416.65"/>
<polygon fill="black" stroke="black" points="136.68,-413.23 126.1,-413.81 134.74,-419.96 136.68,-413.23"/>
</g>
<!-- node4 -->
<g id="node5" class="node">
<title>node4</title>
<path fill="#ffffff" stroke="black" d="M186,-416C186,-416 156,-416 156,-416 150,-416 144,-410 144,-404 144,-404 144,-392 144,-392 144,-386 150,-380 156,-380 156,-380 186,-380 186,-380 192,-380 198,-386 198,-392 198,-392 198,-404 198,-404 198,-410 192,-416 186,-416"/>
<text text-anchor="middle" x="171" y="-394.3" font-family="Arial" font-size="14.00">meta</text>
</g>
<!-- node1&#45;&gt;node4 -->
<g id="edge4" class="edge">
<title>node1&#45;&gt;node4</title>
<path fill="none" stroke="black" d="M611.8,-469.85C544.07,-468.81 362.77,-461.95 207.82,-416.66"/>
<polygon fill="black" stroke="black" points="208.7,-413.27 198.12,-413.76 206.7,-419.98 208.7,-413.27"/>
</g>
<!-- node5 -->
<g id="node6" class="node">
<title>node5</title>
<path fill="#ffffff" stroke="black" d="M258,-416C258,-416 228,-416 228,-416 222,-416 216,-410 216,-404 216,-404 216,-392 216,-392 216,-386 222,-380 228,-380 228,-380 258,-380 258,-380 264,-380 270,-386 270,-392 270,-392 270,-404 270,-404 270,-410 264,-416 258,-416"/>
<text text-anchor="middle" x="243" y="-394.3" font-family="Arial" font-size="14.00">meta</text>
</g>
<!-- node1&#45;&gt;node5 -->
<g id="edge5" class="edge">
<title>node1&#45;&gt;node5</title>
<path fill="none" stroke="black" d="M611.7,-468.92C552.24,-465.97 406.85,-455.39 280.01,-416.76"/>
<polygon fill="black" stroke="black" points="280.73,-413.32 270.14,-413.69 278.65,-420 280.73,-413.32"/>
</g>
<!-- node6 -->
<g id="node7" class="node">
<title>node6</title>
<path fill="#ffffff" stroke="black" d="M330,-416C330,-416 300,-416 300,-416 294,-416 288,-410 288,-404 288,-404 288,-392 288,-392 288,-386 294,-380 300,-380 300,-380 330,-380 330,-380 336,-380 342,-386 342,-392 342,-392 342,-404 342,-404 342,-410 336,-416 330,-416"/>
<text text-anchor="middle" x="315" y="-394.3" font-family="Arial" font-size="14.00">meta</text>
</g>
<!-- node1&#45;&gt;node6 -->
<g id="edge6" class="edge">
<title>node1&#45;&gt;node6</title>
<path fill="none" stroke="black" d="M611.76,-467.57C561.51,-462.53 451,-448.93 351.74,-416.75"/>
<polygon fill="black" stroke="black" points="352.77,-413.41 342.18,-413.58 350.57,-420.05 352.77,-413.41"/>
</g>
<!-- node7 -->
<g id="node8" class="node">
<title>node7</title>
<path fill="#ffffff" stroke="black" d="M402,-416C402,-416 372,-416 372,-416 366,-416 360,-410 360,-404 360,-404 360,-392 360,-392 360,-386 366,-380 372,-380 372,-380 402,-380 402,-380 408,-380 414,-386 414,-392 414,-392 414,-404 414,-404 414,-410 408,-416 402,-416"/>
<text text-anchor="middle" x="387" y="-394.3" font-family="Arial" font-size="14.00">meta</text>
</g>
<!-- node1&#45;&gt;node7 -->
<g id="edge7" class="edge">
<title>node1&#45;&gt;node7</title>
<path fill="none" stroke="black" d="M611.82,-465.35C572.09,-458.12 495.88,-442.64 423.9,-416.93"/>
<polygon fill="black" stroke="black" points="424.83,-413.54 414.24,-413.41 422.43,-420.12 424.83,-413.54"/>
</g>
<!-- node8 -->
<g id="node9" class="node">
<title>node8</title>
<path fill="#ffffff" stroke="black" d="M474,-416C474,-416 444,-416 444,-416 438,-416 432,-410 432,-404 432,-404 432,-392 432,-392 432,-386 438,-380 444,-380 444,-380 474,-380 474,-380 480,-380 486,-386 486,-392 486,-392 486,-404 486,-404 486,-410 480,-416 474,-416"/>
<text text-anchor="middle" x="459" y="-394.3" font-family="Arial" font-size="14.00">title</text>
</g>
<!-- node1&#45;&gt;node8 -->
<g id="edge8" class="edge">
<title>node1&#45;&gt;node8</title>
<path fill="none" stroke="black" d="M611.84,-461.01C584.51,-451.75 541.04,-436.43 495.75,-417.12"/>
<polygon fill="black" stroke="black" points="496.94,-413.82 486.37,-413.08 494.17,-420.25 496.94,-413.82"/>
</g>
<!-- node9 -->
<g id="node10" class="node">
<title>node9</title>
<path fill="#ffffff" stroke="black" d="M546,-416C546,-416 516,-416 516,-416 510,-416 504,-410 504,-404 504,-404 504,-392 504,-392 504,-386 510,-380 516,-380 516,-380 546,-380 546,-380 552,-380 558,-386 558,-392 558,-392 558,-404 558,-404 558,-410 552,-416 546,-416"/>
<text text-anchor="middle" x="531" y="-394.3" font-family="Arial" font-size="14.00">link</text>
</g>
<!-- node1&#45;&gt;node9 -->
<g id="edge9" class="edge">
<title>node1&#45;&gt;node9</title>
<path fill="none" stroke="black" d="M613.13,-452.99C598.94,-443.67 581.16,-431.97 565.77,-421.86"/>
<polygon fill="black" stroke="black" points="567.31,-418.68 557.03,-416.11 563.47,-424.53 567.31,-418.68"/>
</g>
<!-- node10 -->
<g id="node11" class="node">
<title>node10</title>
<path fill="#ffffff" stroke="black" d="M618,-416C618,-416 588,-416 588,-416 582,-416 576,-410 576,-404 576,-404 576,-392 576,-392 576,-386 582,-380 588,-380 588,-380 618,-380 618,-380 624,-380 630,-386 630,-392 630,-392 630,-404 630,-404 630,-410 624,-416 618,-416"/>
<text text-anchor="middle" x="603" y="-394.3" font-family="Arial" font-size="14.00">link</text>
</g>
<!-- node1&#45;&gt;node10 -->
<g id="edge10" class="edge">
<title>node1&#45;&gt;node10</title>
<path fill="none" stroke="black" d="M630.29,-452.81C626.08,-444.53 620.95,-434.41 616.28,-425.19"/>
<polygon fill="black" stroke="black" points="619.28,-423.37 611.63,-416.03 613.04,-426.53 619.28,-423.37"/>
</g>
<!-- node11 -->
<g id="node12" class="node">
<title>node11</title>
<path fill="#ffffff" stroke="black" d="M690,-416C690,-416 660,-416 660,-416 654,-416 648,-410 648,-404 648,-404 648,-392 648,-392 648,-386 654,-380 660,-380 660,-380 690,-380 690,-380 696,-380 702,-386 702,-392 702,-392 702,-404 702,-404 702,-410 696,-416 690,-416"/>
<text text-anchor="middle" x="675" y="-394.3" font-family="Arial" font-size="14.00">link</text>
</g>
<!-- node1&#45;&gt;node11 -->
<g id="edge11" class="edge">
<title>node1&#45;&gt;node11</title>
<path fill="none" stroke="black" d="M647.71,-452.81C651.92,-444.53 657.05,-434.41 661.72,-425.19"/>
<polygon fill="black" stroke="black" points="664.96,-426.53 666.37,-416.03 658.72,-423.37 664.96,-426.53"/>
</g>
<!-- node12 -->
<g id="node13" class="node">
<title>node12</title>
<path fill="#ffffff" stroke="black" d="M762,-416C762,-416 732,-416 732,-416 726,-416 720,-410 720,-404 720,-404 720,-392 720,-392 720,-386 726,-380 732,-380 732,-380 762,-380 762,-380 768,-380 774,-386 774,-392 774,-392 774,-404 774,-404 774,-410 768,-416 762,-416"/>
<text text-anchor="middle" x="747" y="-394.3" font-family="Arial" font-size="14.00">link</text>
</g>
<!-- node1&#45;&gt;node12 -->
<g id="edge12" class="edge">
<title>node1&#45;&gt;node12</title>
<path fill="none" stroke="black" d="M664.87,-452.99C679.06,-443.67 696.84,-431.97 712.23,-421.86"/>
<polygon fill="black" stroke="black" points="714.53,-424.53 720.97,-416.11 710.69,-418.68 714.53,-424.53"/>
</g>
<!-- node13 -->
<g id="node14" class="node">
<title>node13</title>
<path fill="#ffffff" stroke="black" d="M834,-416C834,-416 804,-416 804,-416 798,-416 792,-410 792,-404 792,-404 792,-392 792,-392 792,-386 798,-380 804,-380 804,-380 834,-380 834,-380 840,-380 846,-386 846,-392 846,-392 846,-404 846,-404 846,-410 840,-416 834,-416"/>
<text text-anchor="middle" x="819" y="-394.3" font-family="Arial" font-size="14.00">link</text>
</g>
<!-- node1&#45;&gt;node13 -->
<g id="edge13" class="edge">
<title>node1&#45;&gt;node13</title>
<path fill="none" stroke="black" d="M666.16,-461.01C693.49,-451.75 736.96,-436.43 782.25,-417.12"/>
<polygon fill="black" stroke="black" points="783.83,-420.25 791.63,-413.08 781.06,-413.82 783.83,-420.25"/>
</g>
<!-- node14 -->
<g id="node15" class="node">
<title>node14</title>
<path fill="#ffffff" stroke="black" d="M906,-416C906,-416 876,-416 876,-416 870,-416 864,-410 864,-404 864,-404 864,-392 864,-392 864,-386 870,-380 876,-380 876,-380 906,-380 906,-380 912,-380 918,-386 918,-392 918,-392 918,-404 918,-404 918,-410 912,-416 906,-416"/>
<text text-anchor="middle" x="891" y="-394.3" font-family="Arial" font-size="14.00">link</text>
</g>
<!-- node1&#45;&gt;node14 -->
<g id="edge14" class="edge">
<title>node1&#45;&gt;node14</title>
<path fill="none" stroke="black" d="M666.18,-465.35C705.91,-458.12 782.12,-442.64 854.1,-416.93"/>
<polygon fill="black" stroke="black" points="855.57,-420.12 863.76,-413.41 853.17,-413.54 855.57,-420.12"/>
</g>
<!-- node15 -->
<g id="node16" class="node">
<title>node15</title>
<path fill="#ffffff" stroke="black" d="M978,-416C978,-416 948,-416 948,-416 942,-416 936,-410 936,-404 936,-404 936,-392 936,-392 936,-386 942,-380 948,-380 948,-380 978,-380 978,-380 984,-380 990,-386 990,-392 990,-392 990,-404 990,-404 990,-410 984,-416 978,-416"/>
<text text-anchor="middle" x="963" y="-394.3" font-family="Arial" font-size="14.00">link</text>
</g>
<!-- node1&#45;&gt;node15 -->
<g id="edge15" class="edge">
<title>node1&#45;&gt;node15</title>
<path fill="none" stroke="black" d="M666.24,-467.57C716.49,-462.53 827,-448.93 926.26,-416.75"/>
<polygon fill="black" stroke="black" points="927.43,-420.05 935.82,-413.58 925.23,-413.41 927.43,-420.05"/>
</g>
<!-- node16 -->
<g id="node17" class="node">
<title>node16</title>
<path fill="#ffffff" stroke="black" d="M1050,-416C1050,-416 1020,-416 1020,-416 1014,-416 1008,-410 1008,-404 1008,-404 1008,-392 1008,-392 1008,-386 1014,-380 1020,-380 1020,-380 1050,-380 1050,-380 1056,-380 1062,-386 1062,-392 1062,-392 1062,-404 1062,-404 1062,-410 1056,-416 1050,-416"/>
<text text-anchor="middle" x="1035" y="-394.3" font-family="Arial" font-size="14.00">link</text>
</g>
<!-- node1&#45;&gt;node16 -->
<g id="edge16" class="edge">
<title>node1&#45;&gt;node16</title>
<path fill="none" stroke="black" d="M666.3,-468.92C725.76,-465.97 871.15,-455.39 997.99,-416.76"/>
<polygon fill="black" stroke="black" points="999.35,-420 1007.86,-413.69 997.27,-413.32 999.35,-420"/>
</g>
<!-- node17 -->
<g id="node18" class="node">
<title>node17</title>
<path fill="#ffffff" stroke="black" d="M1122,-416C1122,-416 1092,-416 1092,-416 1086,-416 1080,-410 1080,-404 1080,-404 1080,-392 1080,-392 1080,-386 1086,-380 1092,-380 1092,-380 1122,-380 1122,-380 1128,-380 1134,-386 1134,-392 1134,-392 1134,-404 1134,-404 1134,-410 1128,-416 1122,-416"/>
<text text-anchor="middle" x="1107" y="-394.3" font-family="Arial" font-size="14.00">link</text>
</g>
<!-- node1&#45;&gt;node17 -->
<g id="edge17" class="edge">
<title>node1&#45;&gt;node17</title>
<path fill="none" stroke="black" d="M666.2,-469.85C733.93,-468.81 915.23,-461.95 1070.18,-416.66"/>
<polygon fill="black" stroke="black" points="1071.3,-419.98 1079.88,-413.76 1069.3,-413.27 1071.3,-419.98"/>
</g>
<!-- node18 -->
<g id="node19" class="node">
<title>node18</title>
<path fill="#ffffff" stroke="black" d="M1204,-416C1204,-416 1164,-416 1164,-416 1158,-416 1152,-410 1152,-404 1152,-404 1152,-392 1152,-392 1152,-386 1158,-380 1164,-380 1164,-380 1204,-380 1204,-380 1210,-380 1216,-386 1216,-392 1216,-392 1216,-404 1216,-404 1216,-410 1210,-416 1204,-416"/>
<text text-anchor="middle" x="1184" y="-394.3" font-family="Arial" font-size="14.00">noscript</text>
</g>
<!-- node1&#45;&gt;node18 -->
<g id="edge18" class="edge">
<title>node1&#45;&gt;node18</title>
<path fill="none" stroke="black" d="M666.03,-470.06C741,-469.63 957.67,-464.27 1141.8,-416.87"/>
<polygon fill="black" stroke="black" points="1142.87,-420.2 1151.65,-414.28 1141.09,-413.43 1142.87,-420.2"/>
</g>
<!-- node20 -->
<g id="node21" class="node">
<title>node20</title>
<path fill="#fff4e6" stroke="black" d="M1284,-417C1284,-417 1246,-417 1246,-417 1240,-417 1234,-411 1234,-405 1234,-405 1234,-391 1234,-391 1234,-385 1240,-379 1246,-379 1246,-379 1284,-379 1284,-379 1290,-379 1296,-385 1296,-391 1296,-391 1296,-405 1296,-405 1296,-411 1290,-417 1284,-417"/>
<text text-anchor="middle" x="1265" y="-401.8" font-family="Arial" font-size="14.00">header</text>
<text text-anchor="middle" x="1265" y="-386.8" font-family="Arial" font-size="14.00">.header</text>
</g>
<!-- node19&#45;&gt;node20 -->
<g id="edge20" class="edge">
<title>node19&#45;&gt;node20</title>
<path fill="none" stroke="black" d="M1293.8,-452.81C1289.5,-444.77 1284.27,-435 1279.46,-426.01"/>
<polygon fill="black" stroke="black" points="1282.45,-424.18 1274.64,-417.02 1276.28,-427.49 1282.45,-424.18"/>
</g>
<!-- node21 -->
<g id="node22" class="node">
<title>node21</title>
<path fill="#f0e6ff" stroke="black" d="M1356,-416C1356,-416 1326,-416 1326,-416 1320,-416 1314,-410 1314,-404 1314,-404 1314,-392 1314,-392 1314,-386 1320,-380 1326,-380 1326,-380 1356,-380 1356,-380 1362,-380 1368,-386 1368,-392 1368,-392 1368,-404 1368,-404 1368,-410 1362,-416 1356,-416"/>
<text text-anchor="middle" x="1341" y="-394.3" font-family="Arial" font-size="14.00">main</text>
</g>
<!-- node19&#45;&gt;node21 -->
<g id="edge21" class="edge">
<title>node19&#45;&gt;node21</title>
<path fill="none" stroke="black" d="M1312.2,-452.81C1316.68,-444.44 1322.16,-434.2 1327.14,-424.9"/>
<polygon fill="black" stroke="black" points="1330.25,-426.5 1331.89,-416.03 1324.08,-423.19 1330.25,-426.5"/>
</g>
<!-- node61 -->
<g id="node62" class="node">
<title>node61</title>
<path fill="#ffe6f0" stroke="black" d="M1429.5,-417C1429.5,-417 1398.5,-417 1398.5,-417 1392.5,-417 1386.5,-411 1386.5,-405 1386.5,-405 1386.5,-391 1386.5,-391 1386.5,-385 1392.5,-379 1398.5,-379 1398.5,-379 1429.5,-379 1429.5,-379 1435.5,-379 1441.5,-385 1441.5,-391 1441.5,-391 1441.5,-405 1441.5,-405 1441.5,-411 1435.5,-417 1429.5,-417"/>
<text text-anchor="middle" x="1414" y="-401.8" font-family="Arial" font-size="14.00">footer</text>
<text text-anchor="middle" x="1414" y="-386.8" font-family="Arial" font-size="14.00">.footer</text>
</g>
<!-- node19&#45;&gt;node61 -->
<g id="edge61" class="edge">
<title>node19&#45;&gt;node61</title>
<path fill="none" stroke="black" d="M1329.59,-452.99C1344.09,-443.72 1362.25,-432.1 1378,-422.02"/>
<polygon fill="black" stroke="black" points="1379.93,-424.95 1386.47,-416.61 1376.16,-419.05 1379.93,-424.95"/>
</g>
<!-- node22 -->
<g id="node23" class="node">
<title>node22</title>
<path fill="#ffffff" stroke="black" d="M1314,-343C1314,-343 1262,-343 1262,-343 1256,-343 1250,-337 1250,-331 1250,-331 1250,-317 1250,-317 1250,-311 1256,-305 1262,-305 1262,-305 1314,-305 1314,-305 1320,-305 1326,-311 1326,-317 1326,-317 1326,-331 1326,-331 1326,-337 1320,-343 1314,-343"/>
<text text-anchor="middle" x="1288" y="-327.8" font-family="Arial" font-size="14.00">h2</text>
<text text-anchor="middle" x="1288" y="-312.8" font-family="Arial" font-size="14.00">.page&#45;title</text>
</g>
<!-- node21&#45;&gt;node22 -->
<g id="edge22" class="edge">
<title>node21&#45;&gt;node22</title>
<path fill="none" stroke="black" d="M1328.44,-379.94C1322.14,-371.38 1314.38,-360.83 1307.34,-351.27"/>
<polygon fill="black" stroke="black" points="1310.14,-349.18 1301.4,-343.2 1304.51,-353.33 1310.14,-349.18"/>
</g>
<!-- node23 -->
<g id="node24" class="node">
<title>node23</title>
<path fill="#f5f5f5" stroke="black" d="M1434,-343C1434,-343 1356,-343 1356,-343 1350,-343 1344,-337 1344,-331 1344,-331 1344,-317 1344,-317 1344,-311 1350,-305 1356,-305 1356,-305 1434,-305 1434,-305 1440,-305 1446,-311 1446,-317 1446,-317 1446,-331 1446,-331 1446,-337 1440,-343 1434,-343"/>
<text text-anchor="middle" x="1395" y="-327.8" font-family="Arial" font-size="14.00">div</text>
<text text-anchor="middle" x="1395" y="-312.8" font-family="Arial" font-size="14.00">.text&#45;container</text>
</g>
<!-- node21&#45;&gt;node23 -->
<g id="edge23" class="edge">
<title>node21&#45;&gt;node23</title>
<path fill="none" stroke="black" d="M1353.8,-379.94C1360.21,-371.38 1368.13,-360.83 1375.3,-351.27"/>
<polygon fill="black" stroke="black" points="1378.15,-353.3 1381.35,-343.2 1372.55,-349.1 1378.15,-353.3"/>
</g>
<!-- node24 -->
<g id="node25" class="node">
<title>node24</title>
<path fill="#ffffcc" stroke="black" d="M1229,-269C1229,-269 1159,-269 1159,-269 1153,-269 1147,-263 1147,-257 1147,-257 1147,-228 1147,-228 1147,-222 1153,-216 1159,-216 1159,-216 1229,-216 1229,-216 1235,-216 1241,-222 1241,-228 1241,-228 1241,-257 1241,-257 1241,-263 1235,-269 1229,-269"/>
<text text-anchor="middle" x="1194" y="-253.8" font-family="Arial" font-size="14.00">section</text>
<text text-anchor="middle" x="1194" y="-238.8" font-family="Arial" font-size="14.00">#introduction</text>
<text text-anchor="middle" x="1194" y="-223.8" font-family="Arial" font-size="14.00">.text&#45;block</text>
</g>
<!-- node23&#45;&gt;node24 -->
<g id="edge24" class="edge">
<title>node23&#45;&gt;node24</title>
<path fill="none" stroke="black" d="M1349.39,-304.96C1320.1,-293.38 1281.85,-278.25 1250.62,-265.9"/>
<polygon fill="black" stroke="black" points="1251.76,-262.58 1241.18,-262.16 1249.19,-269.09 1251.76,-262.58"/>
</g>
<!-- node28 -->
<g id="node29" class="node">
<title>node28</title>
<path fill="#ffffcc" stroke="black" d="M1376,-269C1376,-269 1280,-269 1280,-269 1274,-269 1268,-263 1268,-257 1268,-257 1268,-228 1268,-228 1268,-222 1274,-216 1280,-216 1280,-216 1376,-216 1376,-216 1382,-216 1388,-222 1388,-228 1388,-228 1388,-257 1388,-257 1388,-263 1382,-269 1376,-269"/>
<text text-anchor="middle" x="1328" y="-253.8" font-family="Arial" font-size="14.00">section</text>
<text text-anchor="middle" x="1328" y="-238.8" font-family="Arial" font-size="14.00">#prior&#45;knowledge</text>
<text text-anchor="middle" x="1328" y="-223.8" font-family="Arial" font-size="14.00">.text&#45;block</text>
</g>
<!-- node23&#45;&gt;node28 -->
<g id="edge28" class="edge">
<title>node23&#45;&gt;node28</title>
<path fill="none" stroke="black" d="M1379.8,-304.96C1372.8,-296.66 1364.26,-286.53 1356.16,-276.91"/>
<polygon fill="black" stroke="black" points="1358.61,-274.39 1349.49,-269 1353.26,-278.91 1358.61,-274.39"/>
</g>
<!-- node31 -->
<g id="node32" class="node">
<title>node31</title>
<path fill="#ffffcc" stroke="black" d="M1507.5,-269C1507.5,-269 1418.5,-269 1418.5,-269 1412.5,-269 1406.5,-263 1406.5,-257 1406.5,-257 1406.5,-228 1406.5,-228 1406.5,-222 1412.5,-216 1418.5,-216 1418.5,-216 1507.5,-216 1507.5,-216 1513.5,-216 1519.5,-222 1519.5,-228 1519.5,-228 1519.5,-257 1519.5,-257 1519.5,-263 1513.5,-269 1507.5,-269"/>
<text text-anchor="middle" x="1463" y="-253.8" font-family="Arial" font-size="14.00">section</text>
<text text-anchor="middle" x="1463" y="-238.8" font-family="Arial" font-size="14.00">#what&#45;you&#45;need</text>
<text text-anchor="middle" x="1463" y="-223.8" font-family="Arial" font-size="14.00">.text&#45;block</text>
</g>
<!-- node23&#45;&gt;node31 -->
<g id="edge31" class="edge">
<title>node23&#45;&gt;node31</title>
<path fill="none" stroke="black" d="M1410.43,-304.96C1417.6,-296.57 1426.37,-286.33 1434.67,-276.62"/>
<polygon fill="black" stroke="black" points="1437.35,-278.88 1441.19,-269 1432.03,-274.33 1437.35,-278.88"/>
</g>
<!-- node48 -->
<g id="node49" class="node">
<title>node48</title>
<path fill="#ffffcc" stroke="black" d="M1872.5,-269C1872.5,-269 1811.5,-269 1811.5,-269 1805.5,-269 1799.5,-263 1799.5,-257 1799.5,-257 1799.5,-228 1799.5,-228 1799.5,-222 1805.5,-216 1811.5,-216 1811.5,-216 1872.5,-216 1872.5,-216 1878.5,-216 1884.5,-222 1884.5,-228 1884.5,-228 1884.5,-257 1884.5,-257 1884.5,-263 1878.5,-269 1872.5,-269"/>
<text text-anchor="middle" x="1842" y="-253.8" font-family="Arial" font-size="14.00">section</text>
<text text-anchor="middle" x="1842" y="-238.8" font-family="Arial" font-size="14.00">#off&#45;you&#45;go</text>
<text text-anchor="middle" x="1842" y="-223.8" font-family="Arial" font-size="14.00">.text&#45;block</text>
</g>
<!-- node23&#45;&gt;node48 -->
<g id="edge48" class="edge">
<title>node23&#45;&gt;node48</title>
<path fill="none" stroke="black" d="M1446.28,-313.88C1531.86,-298.66 1702.95,-268.23 1789.41,-252.85"/>
<polygon fill="black" stroke="black" points="1790.03,-256.3 1799.27,-251.1 1788.81,-249.41 1790.03,-256.3"/>
</g>
<!-- node25 -->
<g id="node26" class="node">
<title>node25</title>
<path fill="#ffffff" stroke="black" d="M1137,-180C1137,-180 1107,-180 1107,-180 1101,-180 1095,-174 1095,-168 1095,-168 1095,-156 1095,-156 1095,-150 1101,-144 1107,-144 1107,-144 1137,-144 1137,-144 1143,-144 1149,-150 1149,-156 1149,-156 1149,-168 1149,-168 1149,-174 1143,-180 1137,-180"/>
<text text-anchor="middle" x="1122" y="-158.3" font-family="Arial" font-size="14.00">h2</text>
</g>
<!-- node24&#45;&gt;node25 -->
<g id="edge25" class="edge">
<title>node24&#45;&gt;node25</title>
<path fill="none" stroke="black" d="M1170.42,-215.8C1162.18,-206.8 1152.94,-196.73 1144.76,-187.81"/>
<polygon fill="black" stroke="black" points="1147.23,-185.33 1137.9,-180.33 1142.08,-190.07 1147.23,-185.33"/>
</g>
<!-- node26 -->
<g id="node27" class="node">
<title>node26</title>
<path fill="#ffffff" stroke="black" d="M1209,-180C1209,-180 1179,-180 1179,-180 1173,-180 1167,-174 1167,-168 1167,-168 1167,-156 1167,-156 1167,-150 1173,-144 1179,-144 1179,-144 1209,-144 1209,-144 1215,-144 1221,-150 1221,-156 1221,-156 1221,-168 1221,-168 1221,-174 1215,-180 1209,-180"/>
<text text-anchor="middle" x="1194" y="-158.3" font-family="Arial" font-size="14.00">p</text>
</g>
<!-- node24&#45;&gt;node26 -->
<g id="edge26" class="edge">
<title>node24&#45;&gt;node26</title>
<path fill="none" stroke="black" d="M1194,-215.8C1194,-207.71 1194,-198.76 1194,-190.55"/>
<polygon fill="black" stroke="black" points="1197.5,-190.33 1194,-180.33 1190.5,-190.33 1197.5,-190.33"/>
</g>
<!-- node27 -->
<g id="node28" class="node">
<title>node27</title>
<path fill="#ffffff" stroke="black" d="M1209,-108C1209,-108 1179,-108 1179,-108 1173,-108 1167,-102 1167,-96 1167,-96 1167,-84 1167,-84 1167,-78 1173,-72 1179,-72 1179,-72 1209,-72 1209,-72 1215,-72 1221,-78 1221,-84 1221,-84 1221,-96 1221,-96 1221,-102 1215,-108 1209,-108"/>
<text text-anchor="middle" x="1194" y="-86.3" font-family="Arial" font-size="14.00">strong</text>
</g>
<!-- node26&#45;&gt;node27 -->
<g id="edge27" class="edge">
<title>node26&#45;&gt;node27</title>
<path fill="none" stroke="black" d="M1194,-143.7C1194,-135.98 1194,-126.71 1194,-118.11"/>
<polygon fill="black" stroke="black" points="1197.5,-118.1 1194,-108.1 1190.5,-118.1 1197.5,-118.1"/>
</g>
<!-- node29 -->
<g id="node30" class="node">
<title>node29</title>
<path fill="#ffffff" stroke="black" d="M1281,-180C1281,-180 1251,-180 1251,-180 1245,-180 1239,-174 1239,-168 1239,-168 1239,-156 1239,-156 1239,-150 1245,-144 1251,-144 1251,-144 1281,-144 1281,-144 1287,-144 1293,-150 1293,-156 1293,-156 1293,-168 1293,-168 1293,-174 1287,-180 1281,-180"/>
<text text-anchor="middle" x="1266" y="-158.3" font-family="Arial" font-size="14.00">h3</text>
</g>
<!-- node28&#45;&gt;node29 -->
<g id="edge29" class="edge">
<title>node28&#45;&gt;node29</title>
<path fill="none" stroke="black" d="M1307.7,-215.8C1300.74,-206.99 1292.96,-197.14 1286.03,-188.36"/>
<polygon fill="black" stroke="black" points="1288.63,-186.01 1279.69,-180.33 1283.14,-190.35 1288.63,-186.01"/>
</g>
<!-- node30 -->
<g id="node31" class="node">
<title>node30</title>
<path fill="#ffffff" stroke="black" d="M1353,-180C1353,-180 1323,-180 1323,-180 1317,-180 1311,-174 1311,-168 1311,-168 1311,-156 1311,-156 1311,-150 1317,-144 1323,-144 1323,-144 1353,-144 1353,-144 1359,-144 1365,-150 1365,-156 1365,-156 1365,-168 1365,-168 1365,-174 1359,-180 1353,-180"/>
<text text-anchor="middle" x="1338" y="-158.3" font-family="Arial" font-size="14.00">p</text>
</g>
<!-- node28&#45;&gt;node30 -->
<g id="edge30" class="edge">
<title>node28&#45;&gt;node30</title>
<path fill="none" stroke="black" d="M1331.27,-215.8C1332.32,-207.62 1333.47,-198.55 1334.53,-190.27"/>
<polygon fill="black" stroke="black" points="1338,-190.69 1335.79,-180.33 1331.06,-189.81 1338,-190.69"/>
</g>
<!-- node32 -->
<g id="node33" class="node">
<title>node32</title>
<path fill="#ffffff" stroke="black" d="M1425,-180C1425,-180 1395,-180 1395,-180 1389,-180 1383,-174 1383,-168 1383,-168 1383,-156 1383,-156 1383,-150 1389,-144 1395,-144 1395,-144 1425,-144 1425,-144 1431,-144 1437,-150 1437,-156 1437,-156 1437,-168 1437,-168 1437,-174 1431,-180 1425,-180"/>
<text text-anchor="middle" x="1410" y="-158.3" font-family="Arial" font-size="14.00">h3</text>
</g>
<!-- node31&#45;&gt;node32 -->
<g id="edge32" class="edge">
<title>node31&#45;&gt;node32</title>
<path fill="none" stroke="black" d="M1445.65,-215.8C1439.76,-207.08 1433.19,-197.34 1427.3,-188.63"/>
<polygon fill="black" stroke="black" points="1430.2,-186.66 1421.7,-180.33 1424.4,-190.58 1430.2,-186.66"/>
</g>
<!-- node33 -->
<g id="node34" class="node">
<title>node33</title>
<path fill="#e6e6ff" stroke="black" d="M1497,-180C1497,-180 1467,-180 1467,-180 1461,-180 1455,-174 1455,-168 1455,-168 1455,-156 1455,-156 1455,-150 1461,-144 1467,-144 1467,-144 1497,-144 1497,-144 1503,-144 1509,-150 1509,-156 1509,-156 1509,-168 1509,-168 1509,-174 1503,-180 1497,-180"/>
<text text-anchor="middle" x="1482" y="-158.3" font-family="Arial" font-size="14.00">ul</text>
</g>
<!-- node31&#45;&gt;node33 -->
<g id="edge33" class="edge">
<title>node31&#45;&gt;node33</title>
<path fill="none" stroke="black" d="M1469.22,-215.8C1471.2,-207.62 1473.39,-198.55 1475.4,-190.27"/>
<polygon fill="black" stroke="black" points="1478.85,-190.87 1477.81,-180.33 1472.05,-189.23 1478.85,-190.87"/>
</g>
<!-- node34 -->
<g id="node35" class="node">
<title>node34</title>
<path fill="#f0f0ff" stroke="black" d="M1281,-108C1281,-108 1251,-108 1251,-108 1245,-108 1239,-102 1239,-96 1239,-96 1239,-84 1239,-84 1239,-78 1245,-72 1251,-72 1251,-72 1281,-72 1281,-72 1287,-72 1293,-78 1293,-84 1293,-84 1293,-96 1293,-96 1293,-102 1287,-108 1281,-108"/>
<text text-anchor="middle" x="1266" y="-86.3" font-family="Arial" font-size="14.00">li</text>
</g>
<!-- node33&#45;&gt;node34 -->
<g id="edge34" class="edge">
<title>node33&#45;&gt;node34</title>
<path fill="none" stroke="black" d="M1454.72,-147.44C1451.81,-146.2 1448.86,-145.02 1446,-144 1386.79,-122.85 1366.07,-129.47 1302.92,-107.95"/>
<polygon fill="black" stroke="black" points="1303.88,-104.58 1293.28,-104.56 1301.56,-111.18 1303.88,-104.58"/>
</g>
<!-- node36 -->
<g id="node37" class="node">
<title>node36</title>
<path fill="#f0f0ff" stroke="black" d="M1353,-108C1353,-108 1323,-108 1323,-108 1317,-108 1311,-102 1311,-96 1311,-96 1311,-84 1311,-84 1311,-78 1317,-72 1323,-72 1323,-72 1353,-72 1353,-72 1359,-72 1365,-78 1365,-84 1365,-84 1365,-96 1365,-96 1365,-102 1359,-108 1353,-108"/>
<text text-anchor="middle" x="1338" y="-86.3" font-family="Arial" font-size="14.00">li</text>
</g>
<!-- node33&#45;&gt;node36 -->
<g id="edge36" class="edge">
<title>node33&#45;&gt;node36</title>
<path fill="none" stroke="black" d="M1454.91,-147.83C1432.23,-136.81 1399.64,-120.97 1374.63,-108.81"/>
<polygon fill="black" stroke="black" points="1375.98,-105.57 1365.45,-104.35 1372.92,-111.87 1375.98,-105.57"/>
</g>
<!-- node38 -->
<g id="node39" class="node">
<title>node38</title>
<path fill="#f0f0ff" stroke="black" d="M1425,-108C1425,-108 1395,-108 1395,-108 1389,-108 1383,-102 1383,-96 1383,-96 1383,-84 1383,-84 1383,-78 1389,-72 1395,-72 1395,-72 1425,-72 1425,-72 1431,-72 1437,-78 1437,-84 1437,-84 1437,-96 1437,-96 1437,-102 1431,-108 1425,-108"/>
<text text-anchor="middle" x="1410" y="-86.3" font-family="Arial" font-size="14.00">li</text>
</g>
<!-- node33&#45;&gt;node38 -->
<g id="edge38" class="edge">
<title>node33&#45;&gt;node38</title>
<path fill="none" stroke="black" d="M1464.2,-143.7C1455.4,-135.14 1444.62,-124.66 1435,-115.3"/>
<polygon fill="black" stroke="black" points="1437.2,-112.57 1427.59,-108.1 1432.32,-117.58 1437.2,-112.57"/>
</g>
<!-- node40 -->
<g id="node41" class="node">
<title>node40</title>
<path fill="#f0f0ff" stroke="black" d="M1497,-108C1497,-108 1467,-108 1467,-108 1461,-108 1455,-102 1455,-96 1455,-96 1455,-84 1455,-84 1455,-78 1461,-72 1467,-72 1467,-72 1497,-72 1497,-72 1503,-72 1509,-78 1509,-84 1509,-84 1509,-96 1509,-96 1509,-102 1503,-108 1497,-108"/>
<text text-anchor="middle" x="1482" y="-86.3" font-family="Arial" font-size="14.00">li</text>
</g>
<!-- node33&#45;&gt;node40 -->
<g id="edge40" class="edge">
<title>node33&#45;&gt;node40</title>
<path fill="none" stroke="black" d="M1482,-143.7C1482,-135.98 1482,-126.71 1482,-118.11"/>
<polygon fill="black" stroke="black" points="1485.5,-118.1 1482,-108.1 1478.5,-118.1 1485.5,-118.1"/>
</g>
<!-- node42 -->
<g id="node43" class="node">
<title>node42</title>
<path fill="#f0f0ff" stroke="black" d="M1569,-108C1569,-108 1539,-108 1539,-108 1533,-108 1527,-102 1527,-96 1527,-96 1527,-84 1527,-84 1527,-78 1533,-72 1539,-72 1539,-72 1569,-72 1569,-72 1575,-72 1581,-78 1581,-84 1581,-84 1581,-96 1581,-96 1581,-102 1575,-108 1569,-108"/>
<text text-anchor="middle" x="1554" y="-86.3" font-family="Arial" font-size="14.00">li</text>
</g>
<!-- node33&#45;&gt;node42 -->
<g id="edge42" class="edge">
<title>node33&#45;&gt;node42</title>
<path fill="none" stroke="black" d="M1499.8,-143.7C1508.6,-135.14 1519.38,-124.66 1529,-115.3"/>
<polygon fill="black" stroke="black" points="1531.68,-117.58 1536.41,-108.1 1526.8,-112.57 1531.68,-117.58"/>
</g>
<!-- node44 -->
<g id="node45" class="node">
<title>node44</title>
<path fill="#f0f0ff" stroke="black" d="M1641,-108C1641,-108 1611,-108 1611,-108 1605,-108 1599,-102 1599,-96 1599,-96 1599,-84 1599,-84 1599,-78 1605,-72 1611,-72 1611,-72 1641,-72 1641,-72 1647,-72 1653,-78 1653,-84 1653,-84 1653,-96 1653,-96 1653,-102 1647,-108 1641,-108"/>
<text text-anchor="middle" x="1626" y="-86.3" font-family="Arial" font-size="14.00">li</text>
</g>
<!-- node33&#45;&gt;node44 -->
<g id="edge44" class="edge">
<title>node33&#45;&gt;node44</title>
<path fill="none" stroke="black" d="M1509.09,-147.83C1531.77,-136.81 1564.36,-120.97 1589.37,-108.81"/>
<polygon fill="black" stroke="black" points="1591.08,-111.87 1598.55,-104.35 1588.02,-105.57 1591.08,-111.87"/>
</g>
<!-- node46 -->
<g id="node47" class="node">
<title>node46</title>
<path fill="#f0f0ff" stroke="black" d="M1713,-108C1713,-108 1683,-108 1683,-108 1677,-108 1671,-102 1671,-96 1671,-96 1671,-84 1671,-84 1671,-78 1677,-72 1683,-72 1683,-72 1713,-72 1713,-72 1719,-72 1725,-78 1725,-84 1725,-84 1725,-96 1725,-96 1725,-102 1719,-108 1713,-108"/>
<text text-anchor="middle" x="1698" y="-86.3" font-family="Arial" font-size="14.00">li</text>
</g>
<!-- node33&#45;&gt;node46 -->
<g id="edge46" class="edge">
<title>node33&#45;&gt;node46</title>
<path fill="none" stroke="black" d="M1509.27,-154.38C1543.1,-145.86 1602.59,-129.9 1661.27,-108"/>
<polygon fill="black" stroke="black" points="1662.56,-111.26 1670.67,-104.44 1660.08,-104.71 1662.56,-111.26"/>
</g>
<!-- node35 -->
<g id="node36" class="node">
<title>node35</title>
<path fill="#ffffff" stroke="black" d="M1281,-36C1281,-36 1251,-36 1251,-36 1245,-36 1239,-30 1239,-24 1239,-24 1239,-12 1239,-12 1239,-6 1245,0 1251,0 1251,0 1281,0 1281,0 1287,0 1293,-6 1293,-12 1293,-12 1293,-24 1293,-24 1293,-30 1287,-36 1281,-36"/>
<text text-anchor="middle" x="1266" y="-14.3" font-family="Arial" font-size="14.00">strong</text>
</g>
<!-- node34&#45;&gt;node35 -->
<g id="edge35" class="edge">
<title>node34&#45;&gt;node35</title>
<path fill="none" stroke="black" d="M1266,-71.7C1266,-63.98 1266,-54.71 1266,-46.11"/>
<polygon fill="black" stroke="black" points="1269.5,-46.1 1266,-36.1 1262.5,-46.1 1269.5,-46.1"/>
</g>
<!-- node37 -->
<g id="node38" class="node">
<title>node37</title>
<path fill="#ffffff" stroke="black" d="M1353,-36C1353,-36 1323,-36 1323,-36 1317,-36 1311,-30 1311,-24 1311,-24 1311,-12 1311,-12 1311,-6 1317,0 1323,0 1323,0 1353,0 1353,0 1359,0 1365,-6 1365,-12 1365,-12 1365,-24 1365,-24 1365,-30 1359,-36 1353,-36"/>
<text text-anchor="middle" x="1338" y="-14.3" font-family="Arial" font-size="14.00">strong</text>
</g>
<!-- node36&#45;&gt;node37 -->
<g id="edge37" class="edge">
<title>node36&#45;&gt;node37</title>
<path fill="none" stroke="black" d="M1338,-71.7C1338,-63.98 1338,-54.71 1338,-46.11"/>
<polygon fill="black" stroke="black" points="1341.5,-46.1 1338,-36.1 1334.5,-46.1 1341.5,-46.1"/>
</g>
<!-- node39 -->
<g id="node40" class="node">
<title>node39</title>
<path fill="#ffffff" stroke="black" d="M1425,-36C1425,-36 1395,-36 1395,-36 1389,-36 1383,-30 1383,-24 1383,-24 1383,-12 1383,-12 1383,-6 1389,0 1395,0 1395,0 1425,0 1425,0 1431,0 1437,-6 1437,-12 1437,-12 1437,-24 1437,-24 1437,-30 1431,-36 1425,-36"/>
<text text-anchor="middle" x="1410" y="-14.3" font-family="Arial" font-size="14.00">strong</text>
</g>
<!-- node38&#45;&gt;node39 -->
<g id="edge39" class="edge">
<title>node38&#45;&gt;node39</title>
<path fill="none" stroke="black" d="M1410,-71.7C1410,-63.98 1410,-54.71 1410,-46.11"/>
<polygon fill="black" stroke="black" points="1413.5,-46.1 1410,-36.1 1406.5,-46.1 1413.5,-46.1"/>
</g>
<!-- node41 -->
<g id="node42" class="node">
<title>node41</title>
<path fill="#ffffff" stroke="black" d="M1497,-36C1497,-36 1467,-36 1467,-36 1461,-36 1455,-30 1455,-24 1455,-24 1455,-12 1455,-12 1455,-6 1461,0 1467,0 1467,0 1497,0 1497,0 1503,0 1509,-6 1509,-12 1509,-12 1509,-24 1509,-24 1509,-30 1503,-36 1497,-36"/>
<text text-anchor="middle" x="1482" y="-14.3" font-family="Arial" font-size="14.00">strong</text>
</g>
<!-- node40&#45;&gt;node41 -->
<g id="edge41" class="edge">
<title>node40&#45;&gt;node41</title>
<path fill="none" stroke="black" d="M1482,-71.7C1482,-63.98 1482,-54.71 1482,-46.11"/>
<polygon fill="black" stroke="black" points="1485.5,-46.1 1482,-36.1 1478.5,-46.1 1485.5,-46.1"/>
</g>
<!-- node43 -->
<g id="node44" class="node">
<title>node43</title>
<path fill="#ffffff" stroke="black" d="M1569,-36C1569,-36 1539,-36 1539,-36 1533,-36 1527,-30 1527,-24 1527,-24 1527,-12 1527,-12 1527,-6 1533,0 1539,0 1539,0 1569,0 1569,0 1575,0 1581,-6 1581,-12 1581,-12 1581,-24 1581,-24 1581,-30 1575,-36 1569,-36"/>
<text text-anchor="middle" x="1554" y="-14.3" font-family="Arial" font-size="14.00">strong</text>
</g>
<!-- node42&#45;&gt;node43 -->
<g id="edge43" class="edge">
<title>node42&#45;&gt;node43</title>
<path fill="none" stroke="black" d="M1554,-71.7C1554,-63.98 1554,-54.71 1554,-46.11"/>
<polygon fill="black" stroke="black" points="1557.5,-46.1 1554,-36.1 1550.5,-46.1 1557.5,-46.1"/>
</g>
<!-- node45 -->
<g id="node46" class="node">
<title>node45</title>
<path fill="#ffffff" stroke="black" d="M1641,-36C1641,-36 1611,-36 1611,-36 1605,-36 1599,-30 1599,-24 1599,-24 1599,-12 1599,-12 1599,-6 1605,0 1611,0 1611,0 1641,0 1641,0 1647,0 1653,-6 1653,-12 1653,-12 1653,-24 1653,-24 1653,-30 1647,-36 1641,-36"/>
<text text-anchor="middle" x="1626" y="-14.3" font-family="Arial" font-size="14.00">strong</text>
</g>
<!-- node44&#45;&gt;node45 -->
<g id="edge45" class="edge">
<title>node44&#45;&gt;node45</title>
<path fill="none" stroke="black" d="M1626,-71.7C1626,-63.98 1626,-54.71 1626,-46.11"/>
<polygon fill="black" stroke="black" points="1629.5,-46.1 1626,-36.1 1622.5,-46.1 1629.5,-46.1"/>
</g>
<!-- node47 -->
<g id="node48" class="node">
<title>node47</title>
<path fill="#ffffff" stroke="black" d="M1713,-36C1713,-36 1683,-36 1683,-36 1677,-36 1671,-30 1671,-24 1671,-24 1671,-12 1671,-12 1671,-6 1677,0 1683,0 1683,0 1713,0 1713,0 1719,0 1725,-6 1725,-12 1725,-12 1725,-24 1725,-24 1725,-30 1719,-36 1713,-36"/>
<text text-anchor="middle" x="1698" y="-14.3" font-family="Arial" font-size="14.00">strong</text>
</g>
<!-- node46&#45;&gt;node47 -->
<g id="edge47" class="edge">
<title>node46&#45;&gt;node47</title>
<path fill="none" stroke="black" d="M1698,-71.7C1698,-63.98 1698,-54.71 1698,-46.11"/>
<polygon fill="black" stroke="black" points="1701.5,-46.1 1698,-36.1 1694.5,-46.1 1701.5,-46.1"/>
</g>
<!-- node49 -->
<g id="node50" class="node">
<title>node49</title>
<path fill="#ffffff" stroke="black" d="M1713,-180C1713,-180 1683,-180 1683,-180 1677,-180 1671,-174 1671,-168 1671,-168 1671,-156 1671,-156 1671,-150 1677,-144 1683,-144 1683,-144 1713,-144 1713,-144 1719,-144 1725,-150 1725,-156 1725,-156 1725,-168 1725,-168 1725,-174 1719,-180 1713,-180"/>
<text text-anchor="middle" x="1698" y="-158.3" font-family="Arial" font-size="14.00">h3</text>
</g>
<!-- node48&#45;&gt;node49 -->
<g id="edge49" class="edge">
<title>node48&#45;&gt;node49</title>
<path fill="none" stroke="black" d="M1799.19,-218.16C1778.43,-206.85 1753.78,-193.41 1734.01,-182.63"/>
<polygon fill="black" stroke="black" points="1735.47,-179.44 1725.01,-177.73 1732.12,-185.59 1735.47,-179.44"/>
</g>
<!-- node50 -->
<g id="node51" class="node">
<title>node50</title>
<path fill="#ffffff" stroke="black" d="M1785,-180C1785,-180 1755,-180 1755,-180 1749,-180 1743,-174 1743,-168 1743,-168 1743,-156 1743,-156 1743,-150 1749,-144 1755,-144 1755,-144 1785,-144 1785,-144 1791,-144 1797,-150 1797,-156 1797,-156 1797,-168 1797,-168 1797,-174 1791,-180 1785,-180"/>
<text text-anchor="middle" x="1770" y="-158.3" font-family="Arial" font-size="14.00">p</text>
</g>
<!-- node48&#45;&gt;node50 -->
<g id="edge50" class="edge">
<title>node48&#45;&gt;node50</title>
<path fill="none" stroke="black" d="M1818.42,-215.8C1810.18,-206.8 1800.94,-196.73 1792.76,-187.81"/>
<polygon fill="black" stroke="black" points="1795.23,-185.33 1785.9,-180.33 1790.08,-190.07 1795.23,-185.33"/>
</g>
<!-- node51 -->
<g id="node52" class="node">
<title>node51</title>
<path fill="#ffffff" stroke="black" d="M1857,-180C1857,-180 1827,-180 1827,-180 1821,-180 1815,-174 1815,-168 1815,-168 1815,-156 1815,-156 1815,-150 1821,-144 1827,-144 1827,-144 1857,-144 1857,-144 1863,-144 1869,-150 1869,-156 1869,-156 1869,-168 1869,-168 1869,-174 1863,-180 1857,-180"/>
<text text-anchor="middle" x="1842" y="-158.3" font-family="Arial" font-size="14.00">p</text>
</g>
<!-- node48&#45;&gt;node51 -->
<g id="edge51" class="edge">
<title>node48&#45;&gt;node51</title>
<path fill="none" stroke="black" d="M1842,-215.8C1842,-207.71 1842,-198.76 1842,-190.55"/>
<polygon fill="black" stroke="black" points="1845.5,-190.33 1842,-180.33 1838.5,-190.33 1845.5,-190.33"/>
</g>
<!-- node54 -->
<g id="node55" class="node">
<title>node54</title>
<path fill="#ffffff" stroke="black" d="M1929,-180C1929,-180 1899,-180 1899,-180 1893,-180 1887,-174 1887,-168 1887,-168 1887,-156 1887,-156 1887,-150 1893,-144 1899,-144 1899,-144 1929,-144 1929,-144 1935,-144 1941,-150 1941,-156 1941,-156 1941,-168 1941,-168 1941,-174 1935,-180 1929,-180"/>
<text text-anchor="middle" x="1914" y="-158.3" font-family="Arial" font-size="14.00">p</text>
</g>
<!-- node48&#45;&gt;node54 -->
<g id="edge54" class="edge">
<title>node48&#45;&gt;node54</title>
<path fill="none" stroke="black" d="M1865.58,-215.8C1873.82,-206.8 1883.06,-196.73 1891.24,-187.81"/>
<polygon fill="black" stroke="black" points="1893.92,-190.07 1898.1,-180.33 1888.77,-185.33 1893.92,-190.07"/>
</g>
<!-- node57 -->
<g id="node58" class="node">
<title>node57</title>
<path fill="#ffffff" stroke="black" d="M2001,-180C2001,-180 1971,-180 1971,-180 1965,-180 1959,-174 1959,-168 1959,-168 1959,-156 1959,-156 1959,-150 1965,-144 1971,-144 1971,-144 2001,-144 2001,-144 2007,-144 2013,-150 2013,-156 2013,-156 2013,-168 2013,-168 2013,-174 2007,-180 2001,-180"/>
<text text-anchor="middle" x="1986" y="-158.3" font-family="Arial" font-size="14.00">p</text>
</g>
<!-- node48&#45;&gt;node57 -->
<g id="edge57" class="edge">
<title>node48&#45;&gt;node57</title>
<path fill="none" stroke="black" d="M1884.81,-218.16C1905.57,-206.85 1930.22,-193.41 1949.99,-182.63"/>
<polygon fill="black" stroke="black" points="1951.88,-185.59 1958.99,-177.73 1948.53,-179.44 1951.88,-185.59"/>
</g>
<!-- node58 -->
<g id="node59" class="node">
<title>node58</title>
<path fill="#ffffff" stroke="black" d="M2073,-180C2073,-180 2043,-180 2043,-180 2037,-180 2031,-174 2031,-168 2031,-168 2031,-156 2031,-156 2031,-150 2037,-144 2043,-144 2043,-144 2073,-144 2073,-144 2079,-144 2085,-150 2085,-156 2085,-156 2085,-168 2085,-168 2085,-174 2079,-180 2073,-180"/>
<text text-anchor="middle" x="2058" y="-158.3" font-family="Arial" font-size="14.00">p</text>
</g>
<!-- node48&#45;&gt;node58 -->
<g id="edge58" class="edge">
<title>node48&#45;&gt;node58</title>
<path fill="none" stroke="black" d="M1884.68,-228.41C1919.38,-217.43 1969.69,-200.76 2021.31,-180.08"/>
<polygon fill="black" stroke="black" points="2022.67,-183.31 2030.62,-176.32 2020.04,-176.82 2022.67,-183.31"/>
</g>
<!-- node52 -->
<g id="node53" class="node">
<title>node52</title>
<path fill="#ffffff" stroke="black" d="M1785,-108C1785,-108 1755,-108 1755,-108 1749,-108 1743,-102 1743,-96 1743,-96 1743,-84 1743,-84 1743,-78 1749,-72 1755,-72 1755,-72 1785,-72 1785,-72 1791,-72 1797,-78 1797,-84 1797,-84 1797,-96 1797,-96 1797,-102 1791,-108 1785,-108"/>
<text text-anchor="middle" x="1770" y="-86.3" font-family="Arial" font-size="14.00">a</text>
</g>
<!-- node51&#45;&gt;node52 -->
<g id="edge52" class="edge">
<title>node51&#45;&gt;node52</title>
<path fill="none" stroke="black" d="M1824.2,-143.7C1815.4,-135.14 1804.62,-124.66 1795,-115.3"/>
<polygon fill="black" stroke="black" points="1797.2,-112.57 1787.59,-108.1 1792.32,-117.58 1797.2,-112.57"/>
</g>
<!-- node53 -->
<g id="node54" class="node">
<title>node53</title>
<path fill="#ffffff" stroke="black" d="M1857,-108C1857,-108 1827,-108 1827,-108 1821,-108 1815,-102 1815,-96 1815,-96 1815,-84 1815,-84 1815,-78 1821,-72 1827,-72 1827,-72 1857,-72 1857,-72 1863,-72 1869,-78 1869,-84 1869,-84 1869,-96 1869,-96 1869,-102 1863,-108 1857,-108"/>
<text text-anchor="middle" x="1842" y="-86.3" font-family="Arial" font-size="14.00">a</text>
</g>
<!-- node51&#45;&gt;node53 -->
<g id="edge53" class="edge">
<title>node51&#45;&gt;node53</title>
<path fill="none" stroke="black" d="M1842,-143.7C1842,-135.98 1842,-126.71 1842,-118.11"/>
<polygon fill="black" stroke="black" points="1845.5,-118.1 1842,-108.1 1838.5,-118.1 1845.5,-118.1"/>
</g>
<!-- node55 -->
<g id="node56" class="node">
<title>node55</title>
<path fill="#ffffff" stroke="black" d="M1929,-108C1929,-108 1899,-108 1899,-108 1893,-108 1887,-102 1887,-96 1887,-96 1887,-84 1887,-84 1887,-78 1893,-72 1899,-72 1899,-72 1929,-72 1929,-72 1935,-72 1941,-78 1941,-84 1941,-84 1941,-96 1941,-96 1941,-102 1935,-108 1929,-108"/>
<text text-anchor="middle" x="1914" y="-86.3" font-family="Arial" font-size="14.00">a</text>
</g>
<!-- node54&#45;&gt;node55 -->
<g id="edge55" class="edge">
<title>node54&#45;&gt;node55</title>
<path fill="none" stroke="black" d="M1914,-143.7C1914,-135.98 1914,-126.71 1914,-118.11"/>
<polygon fill="black" stroke="black" points="1917.5,-118.1 1914,-108.1 1910.5,-118.1 1917.5,-118.1"/>
</g>
<!-- node56 -->
<g id="node57" class="node">
<title>node56</title>
<path fill="#ffffff" stroke="black" d="M2001,-108C2001,-108 1971,-108 1971,-108 1965,-108 1959,-102 1959,-96 1959,-96 1959,-84 1959,-84 1959,-78 1965,-72 1971,-72 1971,-72 2001,-72 2001,-72 2007,-72 2013,-78 2013,-84 2013,-84 2013,-96 2013,-96 2013,-102 2007,-108 2001,-108"/>
<text text-anchor="middle" x="1986" y="-86.3" font-family="Arial" font-size="14.00">a</text>
</g>
<!-- node54&#45;&gt;node56 -->
<g id="edge56" class="edge">
<title>node54&#45;&gt;node56</title>
<path fill="none" stroke="black" d="M1931.8,-143.7C1940.6,-135.14 1951.38,-124.66 1961,-115.3"/>
<polygon fill="black" stroke="black" points="1963.68,-117.58 1968.41,-108.1 1958.8,-112.57 1963.68,-117.58"/>
</g>
<!-- node59 -->
<g id="node60" class="node">
<title>node59</title>
<path fill="#ffffff" stroke="black" d="M2073,-108C2073,-108 2043,-108 2043,-108 2037,-108 2031,-102 2031,-96 2031,-96 2031,-84 2031,-84 2031,-78 2037,-72 2043,-72 2043,-72 2073,-72 2073,-72 2079,-72 2085,-78 2085,-84 2085,-84 2085,-96 2085,-96 2085,-102 2079,-108 2073,-108"/>
<text text-anchor="middle" x="2058" y="-86.3" font-family="Arial" font-size="14.00">a</text>
</g>
<!-- node58&#45;&gt;node59 -->
<g id="edge59" class="edge">
<title>node58&#45;&gt;node59</title>
<path fill="none" stroke="black" d="M2058,-143.7C2058,-135.98 2058,-126.71 2058,-118.11"/>
<polygon fill="black" stroke="black" points="2061.5,-118.1 2058,-108.1 2054.5,-118.1 2061.5,-118.1"/>
</g>
<!-- node60 -->
<g id="node61" class="node">
<title>node60</title>
<path fill="#ffffff" stroke="black" d="M2073,-36C2073,-36 2043,-36 2043,-36 2037,-36 2031,-30 2031,-24 2031,-24 2031,-12 2031,-12 2031,-6 2037,0 2043,0 2043,0 2073,0 2073,0 2079,0 2085,-6 2085,-12 2085,-12 2085,-24 2085,-24 2085,-30 2079,-36 2073,-36"/>
<text text-anchor="middle" x="2058" y="-14.3" font-family="Arial" font-size="14.00">strong</text>
</g>
<!-- node59&#45;&gt;node60 -->
<g id="edge60" class="edge">
<title>node59&#45;&gt;node60</title>
<path fill="none" stroke="black" d="M2058,-71.7C2058,-63.98 2058,-54.71 2058,-46.11"/>
<polygon fill="black" stroke="black" points="2061.5,-46.1 2058,-36.1 2054.5,-46.1 2061.5,-46.1"/>
</g>
</g>
</svg>
