<?xml version="1.0" encoding="UTF-8" standalone="no"?>
<!DOCTYPE svg PUBLIC "-//W3C//DTD SVG 1.1//EN"
 "http://www.w3.org/Graphics/SVG/1.1/DTD/svg11.dtd">
<!-- Generated by graphviz version 2.43.0 (0)
 -->
<!-- Title: DOM Pages: 1 -->
<svg width="2525pt" height="914pt"
 viewBox="0.00 0.00 2525.00 914.00" xmlns="http://www.w3.org/2000/svg" xmlns:xlink="http://www.w3.org/1999/xlink">
<g id="graph0" class="graph" transform="scale(1 1) rotate(0) translate(4 910)">
<title>DOM</title>
<polygon fill="white" stroke="transparent" points="-4,4 -4,-910 2521,-910 2521,4 -4,4"/>
<!-- node0 -->
<g id="node1" class="node">
<title>node0</title>
<path fill="#ffe6e6" stroke="black" d="M1109,-906C1109,-906 1079,-906 1079,-906 1073,-906 1067,-900 1067,-894 1067,-894 1067,-882 1067,-882 1067,-876 1073,-870 1079,-870 1079,-870 1109,-870 1109,-870 1115,-870 1121,-876 1121,-882 1121,-882 1121,-894 1121,-894 1121,-900 1115,-906 1109,-906"/>
<text text-anchor="middle" x="1094" y="-884.3" font-family="Arial" font-size="14.00">html</text>
</g>
<!-- node1 -->
<g id="node2" class="node">
<title>node1</title>
<path fill="#e6f3ff" stroke="black" d="M726,-834C726,-834 696,-834 696,-834 690,-834 684,-828 684,-822 684,-822 684,-810 684,-810 684,-804 690,-798 696,-798 696,-798 726,-798 726,-798 732,-798 738,-804 738,-810 738,-810 738,-822 738,-822 738,-828 732,-834 726,-834"/>
<text text-anchor="middle" x="711" y="-812.3" font-family="Arial" font-size="14.00">head</text>
</g>
<!-- node0&#45;&gt;node1 -->
<g id="edge1" class="edge">
<title>node0&#45;&gt;node1</title>
<path fill="none" stroke="black" d="M1066.76,-882.02C999.43,-869.72 825.08,-837.85 748.27,-823.81"/>
<polygon fill="black" stroke="black" points="748.56,-820.31 738.1,-821.95 747.31,-827.19 748.56,-820.31"/>
</g>
<!-- node21 -->
<g id="node22" class="node">
<title>node21</title>
<path fill="#e6ffe6" stroke="black" d="M1528,-834C1528,-834 1498,-834 1498,-834 1492,-834 1486,-828 1486,-822 1486,-822 1486,-810 1486,-810 1486,-804 1492,-798 1498,-798 1498,-798 1528,-798 1528,-798 1534,-798 1540,-804 1540,-810 1540,-810 1540,-822 1540,-822 1540,-828 1534,-834 1528,-834"/>
<text text-anchor="middle" x="1513" y="-812.3" font-family="Arial" font-size="14.00">body</text>
</g>
<!-- node0&#45;&gt;node21 -->
<g id="edge21" class="edge">
<title>node0&#45;&gt;node21</title>
<path fill="none" stroke="black" d="M1121.17,-882.46C1193.86,-870.32 1392.91,-837.06 1475.9,-823.2"/>
<polygon fill="black" stroke="black" points="1476.61,-826.63 1485.89,-821.53 1475.45,-819.72 1476.61,-826.63"/>
</g>
<!-- node2 -->
<g id="node3" class="node">
<title>node2</title>
<path fill="#ffffff" stroke="black" d="M42,-753.5C42,-753.5 12,-753.5 12,-753.5 6,-753.5 0,-747.5 0,-741.5 0,-741.5 0,-729.5 0,-729.5 0,-723.5 6,-717.5 12,-717.5 12,-717.5 42,-717.5 42,-717.5 48,-717.5 54,-723.5 54,-729.5 54,-729.5 54,-741.5 54,-741.5 54,-747.5 48,-753.5 42,-753.5"/>
<text text-anchor="middle" x="27" y="-731.8" font-family="Arial" font-size="14.00">meta</text>
</g>
<!-- node1&#45;&gt;node2 -->
<g id="edge2" class="edge">
<title>node1&#45;&gt;node2</title>
<path fill="none" stroke="black" d="M683.82,-814.68C576.18,-813.12 179.95,-804.55 63,-762 60.61,-761.13 58.23,-760.05 55.9,-758.84"/>
<polygon fill="black" stroke="black" points="57.63,-755.8 47.25,-753.64 54.02,-761.79 57.63,-755.8"/>
</g>
<!-- node3 -->
<g id="node4" class="node">
<title>node3</title>
<path fill="#ffffff" stroke="black" d="M114,-753.5C114,-753.5 84,-753.5 84,-753.5 78,-753.5 72,-747.5 72,-741.5 72,-741.5 72,-729.5 72,-729.5 72,-723.5 78,-717.5 84,-717.5 84,-717.5 114,-717.5 114,-717.5 120,-717.5 126,-723.5 126,-729.5 126,-729.5 126,-741.5 126,-741.5 126,-747.5 120,-753.5 114,-753.5"/>
<text text-anchor="middle" x="99" y="-731.8" font-family="Arial" font-size="14.00">meta</text>
</g>
<!-- node1&#45;&gt;node3 -->
<g id="edge3" class="edge">
<title>node1&#45;&gt;node3</title>
<path fill="none" stroke="black" d="M683.82,-814.36C583.96,-811.73 237.79,-799.99 135,-762 132.61,-761.12 130.24,-760.03 127.91,-758.82"/>
<polygon fill="black" stroke="black" points="129.64,-755.77 119.27,-753.6 126.02,-761.76 129.64,-755.77"/>
</g>
<!-- node4 -->
<g id="node5" class="node">
<title>node4</title>
<path fill="#ffffff" stroke="black" d="M186,-753.5C186,-753.5 156,-753.5 156,-753.5 150,-753.5 144,-747.5 144,-741.5 144,-741.5 144,-729.5 144,-729.5 144,-723.5 150,-717.5 156,-717.5 156,-717.5 186,-717.5 186,-717.5 192,-717.5 198,-723.5 198,-729.5 198,-729.5 198,-741.5 198,-741.5 198,-747.5 192,-753.5 186,-753.5"/>
<text text-anchor="middle" x="171" y="-731.8" font-family="Arial" font-size="14.00">meta</text>
</g>
<!-- node1&#45;&gt;node4 -->
<g id="edge4" class="edge">
<title>node1&#45;&gt;node4</title>
<path fill="none" stroke="black" d="M683.81,-813.95C592.21,-810.14 295.71,-795.44 207,-762 204.62,-761.1 202.25,-760.01 199.92,-758.78"/>
<polygon fill="black" stroke="black" points="201.65,-755.74 191.29,-753.55 198.02,-761.72 201.65,-755.74"/>
</g>
<!-- node5 -->
<g id="node6" class="node">
<title>node5</title>
<path fill="#ffffff" stroke="black" d="M258,-753.5C258,-753.5 228,-753.5 228,-753.5 222,-753.5 216,-747.5 216,-741.5 216,-741.5 216,-729.5 216,-729.5 216,-723.5 222,-717.5 228,-717.5 228,-717.5 258,-717.5 258,-717.5 264,-717.5 270,-723.5 270,-729.5 270,-729.5 270,-741.5 270,-741.5 270,-747.5 264,-753.5 258,-753.5"/>
<text text-anchor="middle" x="243" y="-731.8" font-family="Arial" font-size="14.00">meta</text>
</g>
<!-- node1&#45;&gt;node5 -->
<g id="edge5" class="edge">
<title>node1&#45;&gt;node5</title>
<path fill="none" stroke="black" d="M683.72,-813.4C600.94,-808.28 353.7,-790.9 279,-762 276.85,-761.17 274.71,-760.18 272.61,-759.09"/>
<polygon fill="black" stroke="black" points="274.08,-755.88 263.7,-753.74 270.47,-761.89 274.08,-755.88"/>
</g>
<!-- node6 -->
<g id="node7" class="node">
<title>node6</title>
<path fill="#ffffff" stroke="black" d="M330,-753.5C330,-753.5 300,-753.5 300,-753.5 294,-753.5 288,-747.5 288,-741.5 288,-741.5 288,-729.5 288,-729.5 288,-723.5 294,-717.5 300,-717.5 300,-717.5 330,-717.5 330,-717.5 336,-717.5 342,-723.5 342,-729.5 342,-729.5 342,-741.5 342,-741.5 342,-747.5 336,-753.5 330,-753.5"/>
<text text-anchor="middle" x="315" y="-731.8" font-family="Arial" font-size="14.00">meta</text>
</g>
<!-- node1&#45;&gt;node6 -->
<g id="edge6" class="edge">
<title>node1&#45;&gt;node6</title>
<path fill="none" stroke="black" d="M683.69,-815.25C622.03,-814.92 468.28,-809.01 351,-762 348.86,-761.14 346.73,-760.14 344.63,-759.03"/>
<polygon fill="black" stroke="black" points="346.11,-755.83 335.74,-753.64 342.48,-761.81 346.11,-755.83"/>
</g>
<!-- node7 -->
<g id="node8" class="node">
<title>node7</title>
<path fill="#ffffff" stroke="black" d="M402,-753.5C402,-753.5 372,-753.5 372,-753.5 366,-753.5 360,-747.5 360,-741.5 360,-741.5 360,-729.5 360,-729.5 360,-723.5 366,-717.5 372,-717.5 372,-717.5 402,-717.5 402,-717.5 408,-717.5 414,-723.5 414,-729.5 414,-729.5 414,-741.5 414,-741.5 414,-747.5 408,-753.5 402,-753.5"/>
<text text-anchor="middle" x="387" y="-731.8" font-family="Arial" font-size="14.00">meta</text>
</g>
<!-- node1&#45;&gt;node7 -->
<g id="edge7" class="edge">
<title>node1&#45;&gt;node7</title>
<path fill="none" stroke="black" d="M683.68,-813.88C631.19,-810.89 513.41,-800.13 423,-762 420.94,-761.13 418.87,-760.12 416.84,-759.03"/>
<polygon fill="black" stroke="black" points="418.55,-755.97 408.18,-753.76 414.91,-761.95 418.55,-755.97"/>
</g>
<!-- node8 -->
<g id="node9" class="node">
<title>node8</title>
<path fill="#ffffff" stroke="black" d="M474,-753.5C474,-753.5 444,-753.5 444,-753.5 438,-753.5 432,-747.5 432,-741.5 432,-741.5 432,-729.5 432,-729.5 432,-723.5 438,-717.5 444,-717.5 444,-717.5 474,-717.5 474,-717.5 480,-717.5 486,-723.5 486,-729.5 486,-729.5 486,-741.5 486,-741.5 486,-747.5 480,-753.5 474,-753.5"/>
<text text-anchor="middle" x="459" y="-731.8" font-family="Arial" font-size="14.00">title</text>
</g>
<!-- node1&#45;&gt;node8 -->
<g id="edge8" class="edge">
<title>node1&#45;&gt;node8</title>
<path fill="none" stroke="black" d="M683.66,-811.64C641.58,-805.75 559.1,-791.28 495,-762 492.96,-761.07 490.92,-760.02 488.9,-758.89"/>
<polygon fill="black" stroke="black" points="490.63,-755.84 480.28,-753.53 486.93,-761.78 490.63,-755.84"/>
</g>
<!-- node9 -->
<g id="node10" class="node">
<title>node9</title>
<path fill="#ffffff" stroke="black" d="M546,-753.5C546,-753.5 516,-753.5 516,-753.5 510,-753.5 504,-747.5 504,-741.5 504,-741.5 504,-729.5 504,-729.5 504,-723.5 510,-717.5 516,-717.5 516,-717.5 546,-717.5 546,-717.5 552,-717.5 558,-723.5 558,-729.5 558,-729.5 558,-741.5 558,-741.5 558,-747.5 552,-753.5 546,-753.5"/>
<text text-anchor="middle" x="531" y="-731.8" font-family="Arial" font-size="14.00">link</text>
</g>
<!-- node1&#45;&gt;node9 -->
<g id="edge9" class="edge">
<title>node1&#45;&gt;node9</title>
<path fill="none" stroke="black" d="M683.82,-807.35C654.18,-798.47 605.78,-782.41 567,-762 565.27,-761.09 563.53,-760.11 561.8,-759.08"/>
<polygon fill="black" stroke="black" points="563.58,-756.07 553.27,-753.63 559.82,-761.97 563.58,-756.07"/>
</g>
<!-- node10 -->
<g id="node11" class="node">
<title>node10</title>
<path fill="#ffffff" stroke="black" d="M618,-753.5C618,-753.5 588,-753.5 588,-753.5 582,-753.5 576,-747.5 576,-741.5 576,-741.5 576,-729.5 576,-729.5 576,-723.5 582,-717.5 588,-717.5 588,-717.5 618,-717.5 618,-717.5 624,-717.5 630,-723.5 630,-729.5 630,-729.5 630,-741.5 630,-741.5 630,-747.5 624,-753.5 618,-753.5"/>
<text text-anchor="middle" x="603" y="-731.8" font-family="Arial" font-size="14.00">link</text>
</g>
<!-- node1&#45;&gt;node10 -->
<g id="edge10" class="edge">
<title>node1&#45;&gt;node10</title>
<path fill="none" stroke="black" d="M687.57,-797.97C672.14,-786.75 651.75,-771.93 634.86,-759.66"/>
<polygon fill="black" stroke="black" points="636.54,-756.55 626.39,-753.5 632.42,-762.21 636.54,-756.55"/>
</g>
<!-- node11 -->
<g id="node12" class="node">
<title>node11</title>
<path fill="#ffffff" stroke="black" d="M690,-753.5C690,-753.5 660,-753.5 660,-753.5 654,-753.5 648,-747.5 648,-741.5 648,-741.5 648,-729.5 648,-729.5 648,-723.5 654,-717.5 660,-717.5 660,-717.5 690,-717.5 690,-717.5 696,-717.5 702,-723.5 702,-729.5 702,-729.5 702,-741.5 702,-741.5 702,-747.5 696,-753.5 690,-753.5"/>
<text text-anchor="middle" x="675" y="-731.8" font-family="Arial" font-size="14.00">link</text>
</g>
<!-- node1&#45;&gt;node11 -->
<g id="edge11" class="edge">
<title>node1&#45;&gt;node11</title>
<path fill="none" stroke="black" d="M703.19,-797.97C698.47,-787.68 692.36,-774.36 687.04,-762.75"/>
<polygon fill="black" stroke="black" points="690.15,-761.13 682.8,-753.5 683.78,-764.05 690.15,-761.13"/>
</g>
<!-- node12 -->
<g id="node13" class="node">
<title>node12</title>
<path fill="#ffffff" stroke="black" d="M762,-753.5C762,-753.5 732,-753.5 732,-753.5 726,-753.5 720,-747.5 720,-741.5 720,-741.5 720,-729.5 720,-729.5 720,-723.5 726,-717.5 732,-717.5 732,-717.5 762,-717.5 762,-717.5 768,-717.5 774,-723.5 774,-729.5 774,-729.5 774,-741.5 774,-741.5 774,-747.5 768,-753.5 762,-753.5"/>
<text text-anchor="middle" x="747" y="-731.8" font-family="Arial" font-size="14.00">link</text>
</g>
<!-- node1&#45;&gt;node12 -->
<g id="edge12" class="edge">
<title>node1&#45;&gt;node12</title>
<path fill="none" stroke="black" d="M718.81,-797.97C723.53,-787.68 729.64,-774.36 734.96,-762.75"/>
<polygon fill="black" stroke="black" points="738.22,-764.05 739.2,-753.5 731.85,-761.13 738.22,-764.05"/>
</g>
<!-- node13 -->
<g id="node14" class="node">
<title>node13</title>
<path fill="#ffffff" stroke="black" d="M834,-753.5C834,-753.5 804,-753.5 804,-753.5 798,-753.5 792,-747.5 792,-741.5 792,-741.5 792,-729.5 792,-729.5 792,-723.5 798,-717.5 804,-717.5 804,-717.5 834,-717.5 834,-717.5 840,-717.5 846,-723.5 846,-729.5 846,-729.5 846,-741.5 846,-741.5 846,-747.5 840,-753.5 834,-753.5"/>
<text text-anchor="middle" x="819" y="-731.8" font-family="Arial" font-size="14.00">link</text>
</g>
<!-- node1&#45;&gt;node13 -->
<g id="edge13" class="edge">
<title>node1&#45;&gt;node13</title>
<path fill="none" stroke="black" d="M734.43,-797.97C749.86,-786.75 770.25,-771.93 787.14,-759.66"/>
<polygon fill="black" stroke="black" points="789.58,-762.21 795.61,-753.5 785.46,-756.55 789.58,-762.21"/>
</g>
<!-- node14 -->
<g id="node15" class="node">
<title>node14</title>
<path fill="#ffffff" stroke="black" d="M906,-753.5C906,-753.5 876,-753.5 876,-753.5 870,-753.5 864,-747.5 864,-741.5 864,-741.5 864,-729.5 864,-729.5 864,-723.5 870,-717.5 876,-717.5 876,-717.5 906,-717.5 906,-717.5 912,-717.5 918,-723.5 918,-729.5 918,-729.5 918,-741.5 918,-741.5 918,-747.5 912,-753.5 906,-753.5"/>
<text text-anchor="middle" x="891" y="-731.8" font-family="Arial" font-size="14.00">link</text>
</g>
<!-- node1&#45;&gt;node14 -->
<g id="edge14" class="edge">
<title>node1&#45;&gt;node14</title>
<path fill="none" stroke="black" d="M738.18,-807.35C767.82,-798.47 816.22,-782.41 855,-762 856.73,-761.09 858.47,-760.11 860.2,-759.08"/>
<polygon fill="black" stroke="black" points="862.18,-761.97 868.73,-753.63 858.42,-756.07 862.18,-761.97"/>
</g>
<!-- node15 -->
<g id="node16" class="node">
<title>node15</title>
<path fill="#ffffff" stroke="black" d="M978,-753.5C978,-753.5 948,-753.5 948,-753.5 942,-753.5 936,-747.5 936,-741.5 936,-741.5 936,-729.5 936,-729.5 936,-723.5 942,-717.5 948,-717.5 948,-717.5 978,-717.5 978,-717.5 984,-717.5 990,-723.5 990,-729.5 990,-729.5 990,-741.5 990,-741.5 990,-747.5 984,-753.5 978,-753.5"/>
<text text-anchor="middle" x="963" y="-731.8" font-family="Arial" font-size="14.00">link</text>
</g>
<!-- node1&#45;&gt;node15 -->
<g id="edge15" class="edge">
<title>node1&#45;&gt;node15</title>
<path fill="none" stroke="black" d="M738.34,-811.64C780.42,-805.75 862.9,-791.28 927,-762 929.04,-761.07 931.08,-760.02 933.1,-758.89"/>
<polygon fill="black" stroke="black" points="935.07,-761.78 941.72,-753.53 931.37,-755.84 935.07,-761.78"/>
</g>
<!-- node16 -->
<g id="node17" class="node">
<title>node16</title>
<path fill="#ffffff" stroke="black" d="M1050,-753.5C1050,-753.5 1020,-753.5 1020,-753.5 1014,-753.5 1008,-747.5 1008,-741.5 1008,-741.5 1008,-729.5 1008,-729.5 1008,-723.5 1014,-717.5 1020,-717.5 1020,-717.5 1050,-717.5 1050,-717.5 1056,-717.5 1062,-723.5 1062,-729.5 1062,-729.5 1062,-741.5 1062,-741.5 1062,-747.5 1056,-753.5 1050,-753.5"/>
<text text-anchor="middle" x="1035" y="-731.8" font-family="Arial" font-size="14.00">link</text>
</g>
<!-- node1&#45;&gt;node16 -->
<g id="edge16" class="edge">
<title>node1&#45;&gt;node16</title>
<path fill="none" stroke="black" d="M738.32,-813.88C790.81,-810.89 908.59,-800.13 999,-762 1001.06,-761.13 1003.13,-760.12 1005.16,-759.03"/>
<polygon fill="black" stroke="black" points="1007.09,-761.95 1013.82,-753.76 1003.45,-755.97 1007.09,-761.95"/>
</g>
<!-- node17 -->
<g id="node18" class="node">
<title>node17</title>
<path fill="#ffffff" stroke="black" d="M1122,-753.5C1122,-753.5 1092,-753.5 1092,-753.5 1086,-753.5 1080,-747.5 1080,-741.5 1080,-741.5 1080,-729.5 1080,-729.5 1080,-723.5 1086,-717.5 1092,-717.5 1092,-717.5 1122,-717.5 1122,-717.5 1128,-717.5 1134,-723.5 1134,-729.5 1134,-729.5 1134,-741.5 1134,-741.5 1134,-747.5 1128,-753.5 1122,-753.5"/>
<text text-anchor="middle" x="1107" y="-731.8" font-family="Arial" font-size="14.00">link</text>
</g>
<!-- node1&#45;&gt;node17 -->
<g id="edge17" class="edge">
<title>node1&#45;&gt;node17</title>
<path fill="none" stroke="black" d="M738.31,-815.25C799.97,-814.92 953.72,-809.01 1071,-762 1073.14,-761.14 1075.27,-760.14 1077.37,-759.03"/>
<polygon fill="black" stroke="black" points="1079.52,-761.81 1086.26,-753.64 1075.89,-755.83 1079.52,-761.81"/>
</g>
<!-- node18 -->
<g id="node19" class="node">
<title>node18</title>
<path fill="#ffffff" stroke="black" d="M1194,-753.5C1194,-753.5 1164,-753.5 1164,-753.5 1158,-753.5 1152,-747.5 1152,-741.5 1152,-741.5 1152,-729.5 1152,-729.5 1152,-723.5 1158,-717.5 1164,-717.5 1164,-717.5 1194,-717.5 1194,-717.5 1200,-717.5 1206,-723.5 1206,-729.5 1206,-729.5 1206,-741.5 1206,-741.5 1206,-747.5 1200,-753.5 1194,-753.5"/>
<text text-anchor="middle" x="1179" y="-731.8" font-family="Arial" font-size="14.00">link</text>
</g>
<!-- node1&#45;&gt;node18 -->
<g id="edge18" class="edge">
<title>node1&#45;&gt;node18</title>
<path fill="none" stroke="black" d="M738.28,-813.4C821.06,-808.28 1068.3,-790.9 1143,-762 1145.15,-761.17 1147.29,-760.18 1149.39,-759.09"/>
<polygon fill="black" stroke="black" points="1151.53,-761.89 1158.3,-753.74 1147.92,-755.88 1151.53,-761.89"/>
</g>
<!-- node19 -->
<g id="node20" class="node">
<title>node19</title>
<path fill="#ffffff" stroke="black" d="M1266,-753.5C1266,-753.5 1236,-753.5 1236,-753.5 1230,-753.5 1224,-747.5 1224,-741.5 1224,-741.5 1224,-729.5 1224,-729.5 1224,-723.5 1230,-717.5 1236,-717.5 1236,-717.5 1266,-717.5 1266,-717.5 1272,-717.5 1278,-723.5 1278,-729.5 1278,-729.5 1278,-741.5 1278,-741.5 1278,-747.5 1272,-753.5 1266,-753.5"/>
<text text-anchor="middle" x="1251" y="-731.8" font-family="Arial" font-size="14.00">link</text>
</g>
<!-- node1&#45;&gt;node19 -->
<g id="edge19" class="edge">
<title>node1&#45;&gt;node19</title>
<path fill="none" stroke="black" d="M738.19,-813.95C829.79,-810.14 1126.29,-795.44 1215,-762 1217.38,-761.1 1219.75,-760.01 1222.08,-758.78"/>
<polygon fill="black" stroke="black" points="1223.98,-761.72 1230.71,-753.55 1220.35,-755.74 1223.98,-761.72"/>
</g>
<!-- node20 -->
<g id="node21" class="node">
<title>node20</title>
<path fill="#ffffff" stroke="black" d="M1348,-753.5C1348,-753.5 1308,-753.5 1308,-753.5 1302,-753.5 1296,-747.5 1296,-741.5 1296,-741.5 1296,-729.5 1296,-729.5 1296,-723.5 1302,-717.5 1308,-717.5 1308,-717.5 1348,-717.5 1348,-717.5 1354,-717.5 1360,-723.5 1360,-729.5 1360,-729.5 1360,-741.5 1360,-741.5 1360,-747.5 1354,-753.5 1348,-753.5"/>
<text text-anchor="middle" x="1328" y="-731.8" font-family="Arial" font-size="14.00">noscript</text>
</g>
<!-- node1&#45;&gt;node20 -->
<g id="edge20" class="edge">
<title>node1&#45;&gt;node20</title>
<path fill="none" stroke="black" d="M738.1,-814.16C837.71,-810.81 1183.12,-796.9 1287,-762 1289.93,-761.02 1292.86,-759.79 1295.73,-758.41"/>
<polygon fill="black" stroke="black" points="1297.52,-761.42 1304.65,-753.58 1294.19,-755.26 1297.52,-761.42"/>
</g>
<!-- node22 -->
<g id="node23" class="node">
<title>node22</title>
<path fill="#fff4e6" stroke="black" d="M1428,-754.5C1428,-754.5 1390,-754.5 1390,-754.5 1384,-754.5 1378,-748.5 1378,-742.5 1378,-742.5 1378,-728.5 1378,-728.5 1378,-722.5 1384,-716.5 1390,-716.5 1390,-716.5 1428,-716.5 1428,-716.5 1434,-716.5 1440,-722.5 1440,-728.5 1440,-728.5 1440,-742.5 1440,-742.5 1440,-748.5 1434,-754.5 1428,-754.5"/>
<text text-anchor="middle" x="1409" y="-739.3" font-family="Arial" font-size="14.00">header</text>
<text text-anchor="middle" x="1409" y="-724.3" font-family="Arial" font-size="14.00">.header</text>
</g>
<!-- node21&#45;&gt;node22 -->
<g id="edge22" class="edge">
<title>node21&#45;&gt;node22</title>
<path fill="none" stroke="black" d="M1490.43,-797.97C1475.99,-787.06 1457.02,-772.74 1441.02,-760.67"/>
<polygon fill="black" stroke="black" points="1443.06,-757.82 1432.97,-754.59 1438.84,-763.41 1443.06,-757.82"/>
</g>
<!-- node23 -->
<g id="node24" class="node">
<title>node23</title>
<path fill="#f5f5f5" stroke="black" d="M1556,-754.5C1556,-754.5 1470,-754.5 1470,-754.5 1464,-754.5 1458,-748.5 1458,-742.5 1458,-742.5 1458,-728.5 1458,-728.5 1458,-722.5 1464,-716.5 1470,-716.5 1470,-716.5 1556,-716.5 1556,-716.5 1562,-716.5 1568,-722.5 1568,-728.5 1568,-728.5 1568,-742.5 1568,-742.5 1568,-748.5 1562,-754.5 1556,-754.5"/>
<text text-anchor="middle" x="1513" y="-739.3" font-family="Arial" font-size="14.00">div</text>
<text text-anchor="middle" x="1513" y="-724.3" font-family="Arial" font-size="14.00">.page&#45;container</text>
</g>
<!-- node21&#45;&gt;node23 -->
<g id="edge23" class="edge">
<title>node21&#45;&gt;node23</title>
<path fill="none" stroke="black" d="M1513,-797.97C1513,-788.26 1513,-775.86 1513,-764.73"/>
<polygon fill="black" stroke="black" points="1516.5,-764.59 1513,-754.59 1509.5,-764.59 1516.5,-764.59"/>
</g>
<!-- node71 -->
<g id="node72" class="node">
<title>node71</title>
<path fill="#ffe6f0" stroke="black" d="M1629.5,-754.5C1629.5,-754.5 1598.5,-754.5 1598.5,-754.5 1592.5,-754.5 1586.5,-748.5 1586.5,-742.5 1586.5,-742.5 1586.5,-728.5 1586.5,-728.5 1586.5,-722.5 1592.5,-716.5 1598.5,-716.5 1598.5,-716.5 1629.5,-716.5 1629.5,-716.5 1635.5,-716.5 1641.5,-722.5 1641.5,-728.5 1641.5,-728.5 1641.5,-742.5 1641.5,-742.5 1641.5,-748.5 1635.5,-754.5 1629.5,-754.5"/>
<text text-anchor="middle" x="1614" y="-739.3" font-family="Arial" font-size="14.00">footer</text>
<text text-anchor="middle" x="1614" y="-724.3" font-family="Arial" font-size="14.00">.footer</text>
</g>
<!-- node21&#45;&gt;node71 -->
<g id="edge71" class="edge">
<title>node21&#45;&gt;node71</title>
<path fill="none" stroke="black" d="M1534.92,-797.97C1548.82,-787.16 1567.03,-773.01 1582.47,-761"/>
<polygon fill="black" stroke="black" points="1584.97,-763.49 1590.72,-754.59 1580.68,-757.97 1584.97,-763.49"/>
</g>
<!-- node72 -->
<g id="node73" class="node">
<title>node72</title>
<path fill="#f5f5f5" stroke="black" d="M1750.5,-762C1750.5,-762 1671.5,-762 1671.5,-762 1665.5,-762 1659.5,-756 1659.5,-750 1659.5,-750 1659.5,-721 1659.5,-721 1659.5,-715 1665.5,-709 1671.5,-709 1671.5,-709 1750.5,-709 1750.5,-709 1756.5,-709 1762.5,-715 1762.5,-721 1762.5,-721 1762.5,-750 1762.5,-750 1762.5,-756 1756.5,-762 1750.5,-762"/>
<text text-anchor="middle" x="1711" y="-746.8" font-family="Arial" font-size="14.00">div</text>
<text text-anchor="middle" x="1711" y="-731.8" font-family="Arial" font-size="14.00">#confirm&#45;clear</text>
<text text-anchor="middle" x="1711" y="-716.8" font-family="Arial" font-size="14.00">.popover</text>
</g>
<!-- node21&#45;&gt;node72 -->
<g id="edge72" class="edge">
<title>node21&#45;&gt;node72</title>
<path fill="none" stroke="black" d="M1540.12,-804.75C1567.82,-794.23 1612.03,-777.28 1650,-762 1650.1,-761.96 1650.19,-761.92 1650.29,-761.88"/>
<polygon fill="black" stroke="black" points="1651.51,-765.17 1659.46,-758.16 1648.87,-758.68 1651.51,-765.17"/>
</g>
<!-- node24 -->
<g id="node25" class="node">
<title>node24</title>
<path fill="#e6ffff" stroke="black" d="M1407,-672C1407,-672 1377,-672 1377,-672 1371,-672 1365,-666 1365,-660 1365,-660 1365,-648 1365,-648 1365,-642 1371,-636 1377,-636 1377,-636 1407,-636 1407,-636 1413,-636 1419,-642 1419,-648 1419,-648 1419,-660 1419,-660 1419,-666 1413,-672 1407,-672"/>
<text text-anchor="middle" x="1392" y="-650.3" font-family="Arial" font-size="14.00">nav</text>
</g>
<!-- node23&#45;&gt;node24 -->
<g id="edge24" class="edge">
<title>node23&#45;&gt;node24</title>
<path fill="none" stroke="black" d="M1485.54,-716.46C1468.09,-704.99 1445.34,-690.04 1426.64,-677.76"/>
<polygon fill="black" stroke="black" points="1428.38,-674.72 1418.1,-672.15 1424.54,-680.57 1428.38,-674.72"/>
</g>
<!-- node26 -->
<g id="node27" class="node">
<title>node26</title>
<path fill="#f0e6ff" stroke="black" d="M1566.5,-673C1566.5,-673 1491.5,-673 1491.5,-673 1485.5,-673 1479.5,-667 1479.5,-661 1479.5,-661 1479.5,-647 1479.5,-647 1479.5,-641 1485.5,-635 1491.5,-635 1491.5,-635 1566.5,-635 1566.5,-635 1572.5,-635 1578.5,-641 1578.5,-647 1578.5,-647 1578.5,-661 1578.5,-661 1578.5,-667 1572.5,-673 1566.5,-673"/>
<text text-anchor="middle" x="1529" y="-657.8" font-family="Arial" font-size="14.00">main</text>
<text text-anchor="middle" x="1529" y="-642.8" font-family="Arial" font-size="14.00">.main&#45;content</text>
</g>
<!-- node23&#45;&gt;node26 -->
<g id="edge26" class="edge">
<title>node23&#45;&gt;node26</title>
<path fill="none" stroke="black" d="M1516.63,-716.46C1518.6,-706.67 1521.08,-694.35 1523.3,-683.31"/>
<polygon fill="black" stroke="black" points="1526.79,-683.74 1525.33,-673.24 1519.92,-682.36 1526.79,-683.74"/>
</g>
<!-- node25 -->
<g id="node26" class="node">
<title>node25</title>
<path fill="#f5f5f5" stroke="black" d="M1392,-591.5C1392,-591.5 1260,-591.5 1260,-591.5 1254,-591.5 1248,-585.5 1248,-579.5 1248,-579.5 1248,-565.5 1248,-565.5 1248,-559.5 1254,-553.5 1260,-553.5 1260,-553.5 1392,-553.5 1392,-553.5 1398,-553.5 1404,-559.5 1404,-565.5 1404,-565.5 1404,-579.5 1404,-579.5 1404,-585.5 1398,-591.5 1392,-591.5"/>
<text text-anchor="middle" x="1326" y="-576.3" font-family="Arial" font-size="14.00">div</text>
<text text-anchor="middle" x="1326" y="-561.3" font-family="Arial" font-size="14.00">#lessons&#45;nav&#45;container</text>
</g>
<!-- node24&#45;&gt;node25 -->
<g id="edge25" class="edge">
<title>node24&#45;&gt;node25</title>
<path fill="none" stroke="black" d="M1377.68,-635.75C1368.87,-625.14 1357.41,-611.34 1347.52,-599.43"/>
<polygon fill="black" stroke="black" points="1350.06,-597 1340.98,-591.54 1344.67,-601.47 1350.06,-597"/>
</g>
<!-- node27 -->
<g id="node28" class="node">
<title>node27</title>
<path fill="#ffffff" stroke="black" d="M1486,-591.5C1486,-591.5 1434,-591.5 1434,-591.5 1428,-591.5 1422,-585.5 1422,-579.5 1422,-579.5 1422,-565.5 1422,-565.5 1422,-559.5 1428,-553.5 1434,-553.5 1434,-553.5 1486,-553.5 1486,-553.5 1492,-553.5 1498,-559.5 1498,-565.5 1498,-565.5 1498,-579.5 1498,-579.5 1498,-585.5 1492,-591.5 1486,-591.5"/>
<text text-anchor="middle" x="1460" y="-576.3" font-family="Arial" font-size="14.00">h2</text>
<text text-anchor="middle" x="1460" y="-561.3" font-family="Arial" font-size="14.00">.page&#45;title</text>
</g>
<!-- node26&#45;&gt;node27 -->
<g id="edge27" class="edge">
<title>node26&#45;&gt;node27</title>
<path fill="none" stroke="black" d="M1513.34,-634.96C1504.23,-624.46 1492.59,-611.05 1482.51,-599.44"/>
<polygon fill="black" stroke="black" points="1485.03,-597 1475.83,-591.74 1479.75,-601.59 1485.03,-597"/>
</g>
<!-- node28 -->
<g id="node29" class="node">
<title>node28</title>
<path fill="#ffffff" stroke="black" d="M1558,-590.5C1558,-590.5 1528,-590.5 1528,-590.5 1522,-590.5 1516,-584.5 1516,-578.5 1516,-578.5 1516,-566.5 1516,-566.5 1516,-560.5 1522,-554.5 1528,-554.5 1528,-554.5 1558,-554.5 1558,-554.5 1564,-554.5 1570,-560.5 1570,-566.5 1570,-566.5 1570,-578.5 1570,-578.5 1570,-584.5 1564,-590.5 1558,-590.5"/>
<text text-anchor="middle" x="1543" y="-568.8" font-family="Arial" font-size="14.00">p</text>
</g>
<!-- node26&#45;&gt;node28 -->
<g id="edge28" class="edge">
<title>node26&#45;&gt;node28</title>
<path fill="none" stroke="black" d="M1532.18,-634.96C1533.97,-624.79 1536.24,-611.88 1538.24,-600.52"/>
<polygon fill="black" stroke="black" points="1541.69,-601.11 1539.98,-590.65 1534.8,-599.89 1541.69,-601.11"/>
</g>
<!-- node29 -->
<g id="node30" class="node">
<title>node29</title>
<path fill="#ffffcc" stroke="black" d="M1671.5,-599C1671.5,-599 1600.5,-599 1600.5,-599 1594.5,-599 1588.5,-593 1588.5,-587 1588.5,-587 1588.5,-558 1588.5,-558 1588.5,-552 1594.5,-546 1600.5,-546 1600.5,-546 1671.5,-546 1671.5,-546 1677.5,-546 1683.5,-552 1683.5,-558 1683.5,-558 1683.5,-587 1683.5,-587 1683.5,-593 1677.5,-599 1671.5,-599"/>
<text text-anchor="middle" x="1636" y="-583.8" font-family="Arial" font-size="14.00">section</text>
<text text-anchor="middle" x="1636" y="-568.8" font-family="Arial" font-size="14.00">#student&#45;info</text>
<text text-anchor="middle" x="1636" y="-553.8" font-family="Arial" font-size="14.00">.student&#45;info</text>
</g>
<!-- node26&#45;&gt;node29 -->
<g id="edge29" class="edge">
<title>node26&#45;&gt;node29</title>
<path fill="none" stroke="black" d="M1553.28,-634.96C1565.13,-626.16 1579.73,-615.31 1593.35,-605.19"/>
<polygon fill="black" stroke="black" points="1595.74,-607.78 1601.68,-599 1591.56,-602.16 1595.74,-607.78"/>
</g>
<!-- node30 -->
<g id="node31" class="node">
<title>node30</title>
<path fill="#ffffff" stroke="black" d="M1593,-501.5C1593,-501.5 1563,-501.5 1563,-501.5 1557,-501.5 1551,-495.5 1551,-489.5 1551,-489.5 1551,-477.5 1551,-477.5 1551,-471.5 1557,-465.5 1563,-465.5 1563,-465.5 1593,-465.5 1593,-465.5 1599,-465.5 1605,-471.5 1605,-477.5 1605,-477.5 1605,-489.5 1605,-489.5 1605,-495.5 1599,-501.5 1593,-501.5"/>
<text text-anchor="middle" x="1578" y="-479.8" font-family="Arial" font-size="14.00">h3</text>
</g>
<!-- node29&#45;&gt;node30 -->
<g id="edge30" class="edge">
<title>node29&#45;&gt;node30</title>
<path fill="none" stroke="black" d="M1618.91,-545.87C1611.42,-534.64 1602.65,-521.48 1595.16,-510.24"/>
<polygon fill="black" stroke="black" points="1597.93,-508.08 1589.47,-501.7 1592.1,-511.96 1597.93,-508.08"/>
</g>
<!-- node31 -->
<g id="node32" class="node">
<title>node31</title>
<path fill="#f5f5f5" stroke="black" d="M1751,-510C1751,-510 1635,-510 1635,-510 1629,-510 1623,-504 1623,-498 1623,-498 1623,-469 1623,-469 1623,-463 1629,-457 1635,-457 1635,-457 1751,-457 1751,-457 1757,-457 1763,-463 1763,-469 1763,-469 1763,-498 1763,-498 1763,-504 1757,-510 1751,-510"/>
<text text-anchor="middle" x="1693" y="-494.8" font-family="Arial" font-size="14.00">div</text>
<text text-anchor="middle" x="1693" y="-479.8" font-family="Arial" font-size="14.00">#student&#45;information</text>
<text text-anchor="middle" x="1693" y="-464.8" font-family="Arial" font-size="14.00">.student&#45;information</text>
</g>
<!-- node29&#45;&gt;node31 -->
<g id="edge31" class="edge">
<title>node29&#45;&gt;node31</title>
<path fill="none" stroke="black" d="M1652.79,-545.87C1658.37,-537.36 1664.67,-527.75 1670.59,-518.7"/>
<polygon fill="black" stroke="black" points="1673.58,-520.53 1676.13,-510.25 1667.72,-516.7 1673.58,-520.53"/>
</g>
<!-- node32 -->
<g id="node33" class="node">
<title>node32</title>
<path fill="#ffffff" stroke="black" d="M1744.5,-421C1744.5,-421 1641.5,-421 1641.5,-421 1635.5,-421 1629.5,-415 1629.5,-409 1629.5,-409 1629.5,-395 1629.5,-395 1629.5,-389 1635.5,-383 1641.5,-383 1641.5,-383 1744.5,-383 1744.5,-383 1750.5,-383 1756.5,-389 1756.5,-395 1756.5,-395 1756.5,-409 1756.5,-409 1756.5,-415 1750.5,-421 1744.5,-421"/>
<text text-anchor="middle" x="1693" y="-405.8" font-family="Arial" font-size="14.00">form</text>
<text text-anchor="middle" x="1693" y="-390.8" font-family="Arial" font-size="14.00">#student&#45;info&#45;form</text>
</g>
<!-- node31&#45;&gt;node32 -->
<g id="edge32" class="edge">
<title>node31&#45;&gt;node32</title>
<path fill="none" stroke="black" d="M1693,-456.91C1693,-448.74 1693,-439.65 1693,-431.3"/>
<polygon fill="black" stroke="black" points="1696.5,-431.24 1693,-421.24 1689.5,-431.24 1696.5,-431.24"/>
</g>
<!-- node33 -->
<g id="node34" class="node">
<title>node33</title>
<path fill="#f5f5f5" stroke="black" d="M1400,-347C1400,-347 1296,-347 1296,-347 1290,-347 1284,-341 1284,-335 1284,-335 1284,-321 1284,-321 1284,-315 1290,-309 1296,-309 1296,-309 1400,-309 1400,-309 1406,-309 1412,-315 1412,-321 1412,-321 1412,-335 1412,-335 1412,-341 1406,-347 1400,-347"/>
<text text-anchor="middle" x="1348" y="-331.8" font-family="Arial" font-size="14.00">div</text>
<text text-anchor="middle" x="1348" y="-316.8" font-family="Arial" font-size="14.00">.student&#45;form&#45;item</text>
</g>
<!-- node32&#45;&gt;node33 -->
<g id="edge33" class="edge">
<title>node32&#45;&gt;node33</title>
<path fill="none" stroke="black" d="M1629.35,-389.22C1576.38,-379.22 1498.76,-364.11 1421.91,-347.16"/>
<polygon fill="black" stroke="black" points="1422.58,-343.72 1412.06,-344.97 1421.06,-350.55 1422.58,-343.72"/>
</g>
<!-- node39 -->
<g id="node40" class="node">
<title>node39</title>
<path fill="#ffffff" stroke="black" d="M1546,-347C1546,-347 1442,-347 1442,-347 1436,-347 1430,-341 1430,-335 1430,-335 1430,-321 1430,-321 1430,-315 1436,-309 1442,-309 1442,-309 1546,-309 1546,-309 1552,-309 1558,-315 1558,-321 1558,-321 1558,-335 1558,-335 1558,-341 1552,-347 1546,-347"/>
<text text-anchor="middle" x="1494" y="-331.8" font-family="Arial" font-size="14.00">h4</text>
<text text-anchor="middle" x="1494" y="-316.8" font-family="Arial" font-size="14.00">.student&#45;form&#45;item</text>
</g>
<!-- node32&#45;&gt;node39 -->
<g id="edge39" class="edge">
<title>node32&#45;&gt;node39</title>
<path fill="none" stroke="black" d="M1643.04,-382.92C1615.84,-373.08 1582,-360.84 1553.44,-350.51"/>
<polygon fill="black" stroke="black" points="1554.57,-347.19 1543.98,-347.08 1552.19,-353.78 1554.57,-347.19"/>
</g>
<!-- node40 -->
<g id="node41" class="node">
<title>node40</title>
<path fill="#f5f5f5" stroke="black" d="M1797.5,-347C1797.5,-347 1588.5,-347 1588.5,-347 1582.5,-347 1576.5,-341 1576.5,-335 1576.5,-335 1576.5,-321 1576.5,-321 1576.5,-315 1582.5,-309 1588.5,-309 1588.5,-309 1797.5,-309 1797.5,-309 1803.5,-309 1809.5,-315 1809.5,-321 1809.5,-321 1809.5,-335 1809.5,-335 1809.5,-341 1803.5,-347 1797.5,-347"/>
<text text-anchor="middle" x="1693" y="-331.8" font-family="Arial" font-size="14.00">div</text>
<text text-anchor="middle" x="1693" y="-316.8" font-family="Arial" font-size="14.00">.student&#45;form&#45;item .avatar&#45;container</text>
</g>
<!-- node32&#45;&gt;node40 -->
<g id="edge40" class="edge">
<title>node32&#45;&gt;node40</title>
<path fill="none" stroke="black" d="M1693,-382.83C1693,-375.13 1693,-365.97 1693,-357.42"/>
<polygon fill="black" stroke="black" points="1696.5,-357.41 1693,-347.41 1689.5,-357.41 1696.5,-357.41"/>
</g>
<!-- node67 -->
<g id="node68" class="node">
<title>node67</title>
<path fill="#ffffff" stroke="black" d="M1944,-347C1944,-347 1840,-347 1840,-347 1834,-347 1828,-341 1828,-335 1828,-335 1828,-321 1828,-321 1828,-315 1834,-309 1840,-309 1840,-309 1944,-309 1944,-309 1950,-309 1956,-315 1956,-321 1956,-321 1956,-335 1956,-335 1956,-341 1950,-347 1944,-347"/>
<text text-anchor="middle" x="1892" y="-331.8" font-family="Arial" font-size="14.00">hr</text>
<text text-anchor="middle" x="1892" y="-316.8" font-family="Arial" font-size="14.00">.student&#45;form&#45;item</text>
</g>
<!-- node32&#45;&gt;node67 -->
<g id="edge67" class="edge">
<title>node32&#45;&gt;node67</title>
<path fill="none" stroke="black" d="M1742.96,-382.92C1770.16,-373.08 1804,-360.84 1832.56,-350.51"/>
<polygon fill="black" stroke="black" points="1833.81,-353.78 1842.02,-347.08 1831.43,-347.19 1833.81,-353.78"/>
</g>
<!-- node68 -->
<g id="node69" class="node">
<title>node68</title>
<path fill="#f5f5f5" stroke="black" d="M2174,-347C2174,-347 1986,-347 1986,-347 1980,-347 1974,-341 1974,-335 1974,-335 1974,-321 1974,-321 1974,-315 1980,-309 1986,-309 1986,-309 2174,-309 2174,-309 2180,-309 2186,-315 2186,-321 2186,-321 2186,-335 2186,-335 2186,-341 2180,-347 2174,-347"/>
<text text-anchor="middle" x="2080" y="-331.8" font-family="Arial" font-size="14.00">div</text>
<text text-anchor="middle" x="2080" y="-316.8" font-family="Arial" font-size="14.00">.student&#45;form&#45;item .button&#45;group</text>
</g>
<!-- node32&#45;&gt;node68 -->
<g id="edge68" class="edge">
<title>node32&#45;&gt;node68</title>
<path fill="none" stroke="black" d="M1756.91,-389.11C1815.53,-378.2 1903.53,-361.83 1972.89,-348.93"/>
<polygon fill="black" stroke="black" points="1973.79,-352.32 1982.98,-347.05 1972.51,-345.44 1973.79,-352.32"/>
</g>
<!-- node34 -->
<g id="node35" class="node">
<title>node34</title>
<path fill="#ffffff" stroke="black" d="M1192,-264.5C1192,-264.5 1162,-264.5 1162,-264.5 1156,-264.5 1150,-258.5 1150,-252.5 1150,-252.5 1150,-240.5 1150,-240.5 1150,-234.5 1156,-228.5 1162,-228.5 1162,-228.5 1192,-228.5 1192,-228.5 1198,-228.5 1204,-234.5 1204,-240.5 1204,-240.5 1204,-252.5 1204,-252.5 1204,-258.5 1198,-264.5 1192,-264.5"/>
<text text-anchor="middle" x="1177" y="-242.8" font-family="Arial" font-size="14.00">h4</text>
</g>
<!-- node33&#45;&gt;node34 -->
<g id="edge34" class="edge">
<title>node33&#45;&gt;node34</title>
<path fill="none" stroke="black" d="M1294.44,-308.89C1269.11,-299.5 1238.83,-287.06 1213,-273 1211.28,-272.07 1209.55,-271.07 1207.83,-270.02"/>
<polygon fill="black" stroke="black" points="1209.63,-267.02 1199.33,-264.53 1205.83,-272.9 1209.63,-267.02"/>
</g>
<!-- node35 -->
<g id="node36" class="node">
<title>node35</title>
<path fill="#ffffff" stroke="black" d="M1264,-264.5C1264,-264.5 1234,-264.5 1234,-264.5 1228,-264.5 1222,-258.5 1222,-252.5 1222,-252.5 1222,-240.5 1222,-240.5 1222,-234.5 1228,-228.5 1234,-228.5 1234,-228.5 1264,-228.5 1264,-228.5 1270,-228.5 1276,-234.5 1276,-240.5 1276,-240.5 1276,-252.5 1276,-252.5 1276,-258.5 1270,-264.5 1264,-264.5"/>
<text text-anchor="middle" x="1249" y="-242.8" font-family="Arial" font-size="14.00">label</text>
</g>
<!-- node33&#45;&gt;node35 -->
<g id="edge35" class="edge">
<title>node33&#45;&gt;node35</title>
<path fill="none" stroke="black" d="M1325.54,-308.96C1311.58,-297.75 1293.48,-283.22 1278.39,-271.1"/>
<polygon fill="black" stroke="black" points="1280.35,-268.18 1270.36,-264.65 1275.96,-273.64 1280.35,-268.18"/>
</g>
<!-- node36 -->
<g id="node37" class="node">
<title>node36</title>
<path fill="#ffffff" stroke="black" d="M1389.5,-265.5C1389.5,-265.5 1306.5,-265.5 1306.5,-265.5 1300.5,-265.5 1294.5,-259.5 1294.5,-253.5 1294.5,-253.5 1294.5,-239.5 1294.5,-239.5 1294.5,-233.5 1300.5,-227.5 1306.5,-227.5 1306.5,-227.5 1389.5,-227.5 1389.5,-227.5 1395.5,-227.5 1401.5,-233.5 1401.5,-239.5 1401.5,-239.5 1401.5,-253.5 1401.5,-253.5 1401.5,-259.5 1395.5,-265.5 1389.5,-265.5"/>
<text text-anchor="middle" x="1348" y="-250.3" font-family="Arial" font-size="14.00">input</text>
<text text-anchor="middle" x="1348" y="-235.3" font-family="Arial" font-size="14.00">#student&#45;name</text>
</g>
<!-- node33&#45;&gt;node36 -->
<g id="edge36" class="edge">
<title>node33&#45;&gt;node36</title>
<path fill="none" stroke="black" d="M1348,-308.96C1348,-299.17 1348,-286.85 1348,-275.81"/>
<polygon fill="black" stroke="black" points="1351.5,-275.74 1348,-265.74 1344.5,-275.74 1351.5,-275.74"/>
</g>
<!-- node37 -->
<g id="node38" class="node">
<title>node37</title>
<path fill="#ffffff" stroke="black" d="M1462,-264.5C1462,-264.5 1432,-264.5 1432,-264.5 1426,-264.5 1420,-258.5 1420,-252.5 1420,-252.5 1420,-240.5 1420,-240.5 1420,-234.5 1426,-228.5 1432,-228.5 1432,-228.5 1462,-228.5 1462,-228.5 1468,-228.5 1474,-234.5 1474,-240.5 1474,-240.5 1474,-252.5 1474,-252.5 1474,-258.5 1468,-264.5 1462,-264.5"/>
<text text-anchor="middle" x="1447" y="-242.8" font-family="Arial" font-size="14.00">p</text>
</g>
<!-- node33&#45;&gt;node37 -->
<g id="edge37" class="edge">
<title>node33&#45;&gt;node37</title>
<path fill="none" stroke="black" d="M1370.46,-308.96C1384.42,-297.75 1402.52,-283.22 1417.61,-271.1"/>
<polygon fill="black" stroke="black" points="1420.04,-273.64 1425.64,-264.65 1415.65,-268.18 1420.04,-273.64"/>
</g>
<!-- node38 -->
<g id="node39" class="node">
<title>node38</title>
<path fill="#ffffff" stroke="black" d="M1534,-264.5C1534,-264.5 1504,-264.5 1504,-264.5 1498,-264.5 1492,-258.5 1492,-252.5 1492,-252.5 1492,-240.5 1492,-240.5 1492,-234.5 1498,-228.5 1504,-228.5 1504,-228.5 1534,-228.5 1534,-228.5 1540,-228.5 1546,-234.5 1546,-240.5 1546,-240.5 1546,-252.5 1546,-252.5 1546,-258.5 1540,-264.5 1534,-264.5"/>
<text text-anchor="middle" x="1519" y="-242.8" font-family="Arial" font-size="14.00">hr</text>
</g>
<!-- node33&#45;&gt;node38 -->
<g id="edge38" class="edge">
<title>node33&#45;&gt;node38</title>
<path fill="none" stroke="black" d="M1401.56,-308.89C1426.89,-299.5 1457.17,-287.06 1483,-273 1484.72,-272.07 1486.45,-271.07 1488.17,-270.02"/>
<polygon fill="black" stroke="black" points="1490.17,-272.9 1496.67,-264.53 1486.37,-267.02 1490.17,-272.9"/>
</g>
<!-- node41 -->
<g id="node42" class="node">
<title>node41</title>
<path fill="#ffffff" stroke="black" d="M1701.5,-265.5C1701.5,-265.5 1612.5,-265.5 1612.5,-265.5 1606.5,-265.5 1600.5,-259.5 1600.5,-253.5 1600.5,-253.5 1600.5,-239.5 1600.5,-239.5 1600.5,-233.5 1606.5,-227.5 1612.5,-227.5 1612.5,-227.5 1701.5,-227.5 1701.5,-227.5 1707.5,-227.5 1713.5,-233.5 1713.5,-239.5 1713.5,-239.5 1713.5,-253.5 1713.5,-253.5 1713.5,-259.5 1707.5,-265.5 1701.5,-265.5"/>
<text text-anchor="middle" x="1657" y="-250.3" font-family="Arial" font-size="14.00">output</text>
<text text-anchor="middle" x="1657" y="-235.3" font-family="Arial" font-size="14.00">#avatar&#45;preview</text>
</g>
<!-- node40&#45;&gt;node41 -->
<g id="edge41" class="edge">
<title>node40&#45;&gt;node41</title>
<path fill="none" stroke="black" d="M1684.83,-308.96C1680.31,-298.97 1674.59,-286.34 1669.51,-275.13"/>
<polygon fill="black" stroke="black" points="1672.57,-273.41 1665.26,-265.74 1666.2,-276.3 1672.57,-273.41"/>
</g>
<!-- node42 -->
<g id="node43" class="node">
<title>node42</title>
<path fill="#f5f5f5" stroke="black" d="M1858.5,-265.5C1858.5,-265.5 1743.5,-265.5 1743.5,-265.5 1737.5,-265.5 1731.5,-259.5 1731.5,-253.5 1731.5,-253.5 1731.5,-239.5 1731.5,-239.5 1731.5,-233.5 1737.5,-227.5 1743.5,-227.5 1743.5,-227.5 1858.5,-227.5 1858.5,-227.5 1864.5,-227.5 1870.5,-233.5 1870.5,-239.5 1870.5,-239.5 1870.5,-253.5 1870.5,-253.5 1870.5,-259.5 1864.5,-265.5 1858.5,-265.5"/>
<text text-anchor="middle" x="1801" y="-250.3" font-family="Arial" font-size="14.00">div</text>
<text text-anchor="middle" x="1801" y="-235.3" font-family="Arial" font-size="14.00">.student&#45;form&#45;avatar</text>
</g>
<!-- node40&#45;&gt;node42 -->
<g id="edge42" class="edge">
<title>node40&#45;&gt;node42</title>
<path fill="none" stroke="black" d="M1717.51,-308.96C1732.45,-297.96 1751.75,-283.76 1768.02,-271.78"/>
<polygon fill="black" stroke="black" points="1770.24,-274.49 1776.22,-265.74 1766.09,-268.85 1770.24,-274.49"/>
</g>
<!-- node43 -->
<g id="node44" class="node">
<title>node43</title>
<path fill="#ffffff" stroke="black" d="M1442.5,-184C1442.5,-184 1407.5,-184 1407.5,-184 1401.5,-184 1395.5,-178 1395.5,-172 1395.5,-172 1395.5,-160 1395.5,-160 1395.5,-154 1401.5,-148 1407.5,-148 1407.5,-148 1442.5,-148 1442.5,-148 1448.5,-148 1454.5,-154 1454.5,-160 1454.5,-160 1454.5,-172 1454.5,-172 1454.5,-178 1448.5,-184 1442.5,-184"/>
<text text-anchor="middle" x="1425" y="-162.3" font-family="Arial" font-size="14.00">fieldset</text>
</g>
<!-- node42&#45;&gt;node43 -->
<g id="edge43" class="edge">
<title>node42&#45;&gt;node43</title>
<path fill="none" stroke="black" d="M1748.59,-227.49C1739.77,-224.77 1730.67,-222.16 1722,-220 1631.1,-197.33 1522.23,-180.47 1464.88,-172.36"/>
<polygon fill="black" stroke="black" points="1465.18,-168.87 1454.79,-170.95 1464.21,-175.8 1465.18,-168.87"/>
</g>
<!-- node51 -->
<g id="node52" class="node">
<title>node51</title>
<path fill="#ffffff" stroke="black" d="M1818.5,-184C1818.5,-184 1783.5,-184 1783.5,-184 1777.5,-184 1771.5,-178 1771.5,-172 1771.5,-172 1771.5,-160 1771.5,-160 1771.5,-154 1777.5,-148 1783.5,-148 1783.5,-148 1818.5,-148 1818.5,-148 1824.5,-148 1830.5,-154 1830.5,-160 1830.5,-160 1830.5,-172 1830.5,-172 1830.5,-178 1824.5,-184 1818.5,-184"/>
<text text-anchor="middle" x="1801" y="-162.3" font-family="Arial" font-size="14.00">fieldset</text>
</g>
<!-- node42&#45;&gt;node51 -->
<g id="edge51" class="edge">
<title>node42&#45;&gt;node51</title>
<path fill="none" stroke="black" d="M1801,-227.29C1801,-217.51 1801,-205.25 1801,-194.35"/>
<polygon fill="black" stroke="black" points="1804.5,-194.03 1801,-184.03 1797.5,-194.03 1804.5,-194.03"/>
</g>
<!-- node59 -->
<g id="node60" class="node">
<title>node59</title>
<path fill="#ffffff" stroke="black" d="M2175.5,-184C2175.5,-184 2140.5,-184 2140.5,-184 2134.5,-184 2128.5,-178 2128.5,-172 2128.5,-172 2128.5,-160 2128.5,-160 2128.5,-154 2134.5,-148 2140.5,-148 2140.5,-148 2175.5,-148 2175.5,-148 2181.5,-148 2187.5,-154 2187.5,-160 2187.5,-160 2187.5,-172 2187.5,-172 2187.5,-178 2181.5,-184 2175.5,-184"/>
<text text-anchor="middle" x="2158" y="-162.3" font-family="Arial" font-size="14.00">fieldset</text>
</g>
<!-- node42&#45;&gt;node59 -->
<g id="edge59" class="edge">
<title>node42&#45;&gt;node59</title>
<path fill="none" stroke="black" d="M1870.68,-230.18C1944.53,-213.94 2058.57,-188.86 2118.34,-175.72"/>
<polygon fill="black" stroke="black" points="2119.14,-179.13 2128.16,-173.56 2117.64,-172.29 2119.14,-179.13"/>
</g>
<!-- node44 -->
<g id="node45" class="node">
<title>node44</title>
<path fill="#ffffff" stroke="black" d="M1245.5,-111C1245.5,-111 1212.5,-111 1212.5,-111 1206.5,-111 1200.5,-105 1200.5,-99 1200.5,-99 1200.5,-87 1200.5,-87 1200.5,-81 1206.5,-75 1212.5,-75 1212.5,-75 1245.5,-75 1245.5,-75 1251.5,-75 1257.5,-81 1257.5,-87 1257.5,-87 1257.5,-99 1257.5,-99 1257.5,-105 1251.5,-111 1245.5,-111"/>
<text text-anchor="middle" x="1229" y="-89.3" font-family="Arial" font-size="14.00">legend</text>
</g>
<!-- node43&#45;&gt;node44 -->
<g id="edge44" class="edge">
<title>node43&#45;&gt;node44</title>
<path fill="none" stroke="black" d="M1395.21,-156.17C1365.03,-146.97 1316.93,-131.61 1267.19,-111.86"/>
<polygon fill="black" stroke="black" points="1268.47,-108.6 1257.89,-108.12 1265.86,-115.1 1268.47,-108.6"/>
</g>
<!-- node45 -->
<g id="node46" class="node">
<title>node45</title>
<path fill="#f5f5f5" stroke="black" d="M1404,-112C1404,-112 1288,-112 1288,-112 1282,-112 1276,-106 1276,-100 1276,-100 1276,-86 1276,-86 1276,-80 1282,-74 1288,-74 1288,-74 1404,-74 1404,-74 1410,-74 1416,-80 1416,-86 1416,-86 1416,-100 1416,-100 1416,-106 1410,-112 1404,-112"/>
<text text-anchor="middle" x="1346" y="-96.8" font-family="Arial" font-size="14.00">div</text>
<text text-anchor="middle" x="1346" y="-81.8" font-family="Arial" font-size="14.00">.student&#45;form&#45;choice</text>
</g>
<!-- node43&#45;&gt;node45 -->
<g id="edge45" class="edge">
<title>node43&#45;&gt;node45</title>
<path fill="none" stroke="black" d="M1405.88,-147.81C1396.18,-139.09 1384.22,-128.35 1373.54,-118.75"/>
<polygon fill="black" stroke="black" points="1375.83,-116.1 1366.05,-112.02 1371.15,-121.31 1375.83,-116.1"/>
</g>
<!-- node48 -->
<g id="node49" class="node">
<title>node48</title>
<path fill="#f5f5f5" stroke="black" d="M1562,-112C1562,-112 1446,-112 1446,-112 1440,-112 1434,-106 1434,-100 1434,-100 1434,-86 1434,-86 1434,-80 1440,-74 1446,-74 1446,-74 1562,-74 1562,-74 1568,-74 1574,-80 1574,-86 1574,-86 1574,-100 1574,-100 1574,-106 1568,-112 1562,-112"/>
<text text-anchor="middle" x="1504" y="-96.8" font-family="Arial" font-size="14.00">div</text>
<text text-anchor="middle" x="1504" y="-81.8" font-family="Arial" font-size="14.00">.student&#45;form&#45;choice</text>
</g>
<!-- node43&#45;&gt;node48 -->
<g id="edge48" class="edge">
<title>node43&#45;&gt;node48</title>
<path fill="none" stroke="black" d="M1444.12,-147.81C1453.82,-139.09 1465.78,-128.35 1476.46,-118.75"/>
<polygon fill="black" stroke="black" points="1478.85,-121.31 1483.95,-112.02 1474.17,-116.1 1478.85,-121.31"/>
</g>
<!-- node46 -->
<g id="node47" class="node">
<title>node46</title>
<path fill="#ffffff" stroke="black" d="M1289,-38C1289,-38 1173,-38 1173,-38 1167,-38 1161,-32 1161,-26 1161,-26 1161,-12 1161,-12 1161,-6 1167,0 1173,0 1173,0 1289,0 1289,0 1295,0 1301,-6 1301,-12 1301,-12 1301,-26 1301,-26 1301,-32 1295,-38 1289,-38"/>
<text text-anchor="middle" x="1231" y="-22.8" font-family="Arial" font-size="14.00">input</text>
<text text-anchor="middle" x="1231" y="-7.8" font-family="Arial" font-size="14.00">#avatar&#45;choice&#45;witch</text>
</g>
<!-- node45&#45;&gt;node46 -->
<g id="edge46" class="edge">
<title>node45&#45;&gt;node46</title>
<path fill="none" stroke="black" d="M1316.98,-73.83C1302.27,-64.62 1284.24,-53.33 1268.49,-43.47"/>
<polygon fill="black" stroke="black" points="1270.34,-40.5 1260.01,-38.16 1266.63,-46.44 1270.34,-40.5"/>
</g>
<!-- node47 -->
<g id="node48" class="node">
<title>node47</title>
<path fill="#ffffff" stroke="black" d="M1361,-37C1361,-37 1331,-37 1331,-37 1325,-37 1319,-31 1319,-25 1319,-25 1319,-13 1319,-13 1319,-7 1325,-1 1331,-1 1331,-1 1361,-1 1361,-1 1367,-1 1373,-7 1373,-13 1373,-13 1373,-25 1373,-25 1373,-31 1367,-37 1361,-37"/>
<text text-anchor="middle" x="1346" y="-15.3" font-family="Arial" font-size="14.00">label</text>
</g>
<!-- node45&#45;&gt;node47 -->
<g id="edge47" class="edge">
<title>node45&#45;&gt;node47</title>
<path fill="none" stroke="black" d="M1346,-73.83C1346,-65.89 1346,-56.41 1346,-47.63"/>
<polygon fill="black" stroke="black" points="1349.5,-47.42 1346,-37.42 1342.5,-47.42 1349.5,-47.42"/>
</g>
<!-- node49 -->
<g id="node50" class="node">
<title>node49</title>
<path fill="#ffffff" stroke="black" d="M1527.5,-38C1527.5,-38 1402.5,-38 1402.5,-38 1396.5,-38 1390.5,-32 1390.5,-26 1390.5,-26 1390.5,-12 1390.5,-12 1390.5,-6 1396.5,0 1402.5,0 1402.5,0 1527.5,0 1527.5,0 1533.5,0 1539.5,-6 1539.5,-12 1539.5,-12 1539.5,-26 1539.5,-26 1539.5,-32 1533.5,-38 1527.5,-38"/>
<text text-anchor="middle" x="1465" y="-22.8" font-family="Arial" font-size="14.00">input</text>
<text text-anchor="middle" x="1465" y="-7.8" font-family="Arial" font-size="14.00">#avatar&#45;choice&#45;wizard</text>
</g>
<!-- node48&#45;&gt;node49 -->
<g id="edge49" class="edge">
<title>node48&#45;&gt;node49</title>
<path fill="none" stroke="black" d="M1494.16,-73.83C1489.8,-65.79 1484.59,-56.17 1479.78,-47.29"/>
<polygon fill="black" stroke="black" points="1482.81,-45.54 1474.97,-38.41 1476.66,-48.87 1482.81,-45.54"/>
</g>
<!-- node50 -->
<g id="node51" class="node">
<title>node50</title>
<path fill="#ffffff" stroke="black" d="M1599,-37C1599,-37 1569,-37 1569,-37 1563,-37 1557,-31 1557,-25 1557,-25 1557,-13 1557,-13 1557,-7 1563,-1 1569,-1 1569,-1 1599,-1 1599,-1 1605,-1 1611,-7 1611,-13 1611,-13 1611,-25 1611,-25 1611,-31 1605,-37 1599,-37"/>
<text text-anchor="middle" x="1584" y="-15.3" font-family="Arial" font-size="14.00">label</text>
</g>
<!-- node48&#45;&gt;node50 -->
<g id="edge50" class="edge">
<title>node48&#45;&gt;node50</title>
<path fill="none" stroke="black" d="M1524.19,-73.83C1534.24,-64.78 1546.54,-53.72 1557.36,-43.98"/>
<polygon fill="black" stroke="black" points="1559.83,-46.46 1564.92,-37.17 1555.15,-41.26 1559.83,-46.46"/>
</g>
<!-- node52 -->
<g id="node53" class="node">
<title>node52</title>
<path fill="#ffffff" stroke="black" d="M1700.5,-111C1700.5,-111 1667.5,-111 1667.5,-111 1661.5,-111 1655.5,-105 1655.5,-99 1655.5,-99 1655.5,-87 1655.5,-87 1655.5,-81 1661.5,-75 1667.5,-75 1667.5,-75 1700.5,-75 1700.5,-75 1706.5,-75 1712.5,-81 1712.5,-87 1712.5,-87 1712.5,-99 1712.5,-99 1712.5,-105 1706.5,-111 1700.5,-111"/>
<text text-anchor="middle" x="1684" y="-89.3" font-family="Arial" font-size="14.00">legend</text>
</g>
<!-- node51&#45;&gt;node52 -->
<g id="edge52" class="edge">
<title>node51&#45;&gt;node52</title>
<path fill="none" stroke="black" d="M1772.98,-147.99C1757.46,-138.58 1737.98,-126.76 1721.2,-116.57"/>
<polygon fill="black" stroke="black" points="1722.57,-113.31 1712.2,-111.11 1718.93,-119.29 1722.57,-113.31"/>
</g>
<!-- node53 -->
<g id="node54" class="node">
<title>node53</title>
<path fill="#f5f5f5" stroke="black" d="M1859,-112C1859,-112 1743,-112 1743,-112 1737,-112 1731,-106 1731,-100 1731,-100 1731,-86 1731,-86 1731,-80 1737,-74 1743,-74 1743,-74 1859,-74 1859,-74 1865,-74 1871,-80 1871,-86 1871,-86 1871,-100 1871,-100 1871,-106 1865,-112 1859,-112"/>
<text text-anchor="middle" x="1801" y="-96.8" font-family="Arial" font-size="14.00">div</text>
<text text-anchor="middle" x="1801" y="-81.8" font-family="Arial" font-size="14.00">.student&#45;form&#45;choice</text>
</g>
<!-- node51&#45;&gt;node53 -->
<g id="edge53" class="edge">
<title>node51&#45;&gt;node53</title>
<path fill="none" stroke="black" d="M1801,-147.81C1801,-140.11 1801,-130.82 1801,-122.15"/>
<polygon fill="black" stroke="black" points="1804.5,-122.02 1801,-112.02 1797.5,-122.02 1804.5,-122.02"/>
</g>
<!-- node56 -->
<g id="node57" class="node">
<title>node56</title>
<path fill="#f5f5f5" stroke="black" d="M2017,-112C2017,-112 1901,-112 1901,-112 1895,-112 1889,-106 1889,-100 1889,-100 1889,-86 1889,-86 1889,-80 1895,-74 1901,-74 1901,-74 2017,-74 2017,-74 2023,-74 2029,-80 2029,-86 2029,-86 2029,-100 2029,-100 2029,-106 2023,-112 2017,-112"/>
<text text-anchor="middle" x="1959" y="-96.8" font-family="Arial" font-size="14.00">div</text>
<text text-anchor="middle" x="1959" y="-81.8" font-family="Arial" font-size="14.00">.student&#45;form&#45;choice</text>
</g>
<!-- node51&#45;&gt;node56 -->
<g id="edge56" class="edge">
<title>node51&#45;&gt;node56</title>
<path fill="none" stroke="black" d="M1830.72,-151.65C1852.85,-141.7 1883.58,-127.89 1909.41,-116.28"/>
<polygon fill="black" stroke="black" points="1910.99,-119.41 1918.68,-112.12 1908.12,-113.03 1910.99,-119.41"/>
</g>
<!-- node54 -->
<g id="node55" class="node">
<title>node54</title>
<path fill="#ffffff" stroke="black" d="M1772.5,-38C1772.5,-38 1641.5,-38 1641.5,-38 1635.5,-38 1629.5,-32 1629.5,-26 1629.5,-26 1629.5,-12 1629.5,-12 1629.5,-6 1635.5,0 1641.5,0 1641.5,0 1772.5,0 1772.5,0 1778.5,0 1784.5,-6 1784.5,-12 1784.5,-12 1784.5,-26 1784.5,-26 1784.5,-32 1778.5,-38 1772.5,-38"/>
<text text-anchor="middle" x="1707" y="-22.8" font-family="Arial" font-size="14.00">input</text>
<text text-anchor="middle" x="1707" y="-7.8" font-family="Arial" font-size="14.00">#gender&#45;choice&#45;female</text>
</g>
<!-- node53&#45;&gt;node54 -->
<g id="edge54" class="edge">
<title>node53&#45;&gt;node54</title>
<path fill="none" stroke="black" d="M1777.28,-73.83C1765.59,-64.88 1751.33,-53.96 1738.72,-44.3"/>
<polygon fill="black" stroke="black" points="1740.78,-41.47 1730.71,-38.16 1736.52,-47.02 1740.78,-41.47"/>
</g>
<!-- node55 -->
<g id="node56" class="node">
<title>node55</title>
<path fill="#ffffff" stroke="black" d="M1845,-37C1845,-37 1815,-37 1815,-37 1809,-37 1803,-31 1803,-25 1803,-25 1803,-13 1803,-13 1803,-7 1809,-1 1815,-1 1815,-1 1845,-1 1845,-1 1851,-1 1857,-7 1857,-13 1857,-13 1857,-25 1857,-25 1857,-31 1851,-37 1845,-37"/>
<text text-anchor="middle" x="1830" y="-15.3" font-family="Arial" font-size="14.00">label</text>
</g>
<!-- node53&#45;&gt;node55 -->
<g id="edge55" class="edge">
<title>node53&#45;&gt;node55</title>
<path fill="none" stroke="black" d="M1808.32,-73.83C1811.62,-65.63 1815.59,-55.78 1819.22,-46.76"/>
<polygon fill="black" stroke="black" points="1822.49,-48 1822.98,-37.42 1816,-45.39 1822.49,-48"/>
</g>
<!-- node57 -->
<g id="node58" class="node">
<title>node57</title>
<path fill="#ffffff" stroke="black" d="M2007,-38C2007,-38 1887,-38 1887,-38 1881,-38 1875,-32 1875,-26 1875,-26 1875,-12 1875,-12 1875,-6 1881,0 1887,0 1887,0 2007,0 2007,0 2013,0 2019,-6 2019,-12 2019,-12 2019,-26 2019,-26 2019,-32 2013,-38 2007,-38"/>
<text text-anchor="middle" x="1947" y="-22.8" font-family="Arial" font-size="14.00">input</text>
<text text-anchor="middle" x="1947" y="-7.8" font-family="Arial" font-size="14.00">#gender&#45;choice&#45;male</text>
</g>
<!-- node56&#45;&gt;node57 -->
<g id="edge57" class="edge">
<title>node56&#45;&gt;node57</title>
<path fill="none" stroke="black" d="M1955.97,-73.83C1954.69,-66.13 1953.16,-56.97 1951.74,-48.42"/>
<polygon fill="black" stroke="black" points="1955.17,-47.7 1950.07,-38.41 1948.26,-48.85 1955.17,-47.7"/>
</g>
<!-- node58 -->
<g id="node59" class="node">
<title>node58</title>
<path fill="#ffffff" stroke="black" d="M2079,-37C2079,-37 2049,-37 2049,-37 2043,-37 2037,-31 2037,-25 2037,-25 2037,-13 2037,-13 2037,-7 2043,-1 2049,-1 2049,-1 2079,-1 2079,-1 2085,-1 2091,-7 2091,-13 2091,-13 2091,-25 2091,-25 2091,-31 2085,-37 2079,-37"/>
<text text-anchor="middle" x="2064" y="-15.3" font-family="Arial" font-size="14.00">label</text>
</g>
<!-- node56&#45;&gt;node58 -->
<g id="edge58" class="edge">
<title>node56&#45;&gt;node58</title>
<path fill="none" stroke="black" d="M1985.5,-73.83C1999.21,-64.43 2016.09,-52.86 2030.67,-42.85"/>
<polygon fill="black" stroke="black" points="2032.69,-45.71 2038.96,-37.17 2028.73,-39.94 2032.69,-45.71"/>
</g>
<!-- node60 -->
<g id="node61" class="node">
<title>node60</title>
<path fill="#ffffff" stroke="black" d="M2116.5,-111C2116.5,-111 2083.5,-111 2083.5,-111 2077.5,-111 2071.5,-105 2071.5,-99 2071.5,-99 2071.5,-87 2071.5,-87 2071.5,-81 2077.5,-75 2083.5,-75 2083.5,-75 2116.5,-75 2116.5,-75 2122.5,-75 2128.5,-81 2128.5,-87 2128.5,-87 2128.5,-99 2128.5,-99 2128.5,-105 2122.5,-111 2116.5,-111"/>
<text text-anchor="middle" x="2100" y="-89.3" font-family="Arial" font-size="14.00">legend</text>
</g>
<!-- node59&#45;&gt;node60 -->
<g id="edge60" class="edge">
<title>node59&#45;&gt;node60</title>
<path fill="none" stroke="black" d="M2143.96,-147.81C2136.91,-139.18 2128.23,-128.56 2120.45,-119.03"/>
<polygon fill="black" stroke="black" points="2122.95,-116.56 2113.91,-111.03 2117.53,-120.99 2122.95,-116.56"/>
</g>
<!-- node61 -->
<g id="node62" class="node">
<title>node61</title>
<path fill="#f5f5f5" stroke="black" d="M2275,-112C2275,-112 2159,-112 2159,-112 2153,-112 2147,-106 2147,-100 2147,-100 2147,-86 2147,-86 2147,-80 2153,-74 2159,-74 2159,-74 2275,-74 2275,-74 2281,-74 2287,-80 2287,-86 2287,-86 2287,-100 2287,-100 2287,-106 2281,-112 2275,-112"/>
<text text-anchor="middle" x="2217" y="-96.8" font-family="Arial" font-size="14.00">div</text>
<text text-anchor="middle" x="2217" y="-81.8" font-family="Arial" font-size="14.00">.student&#45;form&#45;choice</text>
</g>
<!-- node59&#45;&gt;node61 -->
<g id="edge61" class="edge">
<title>node59&#45;&gt;node61</title>
<path fill="none" stroke="black" d="M2172.28,-147.81C2179.25,-139.43 2187.77,-129.18 2195.5,-119.88"/>
<polygon fill="black" stroke="black" points="2198.33,-121.95 2202.03,-112.02 2192.94,-117.47 2198.33,-121.95"/>
</g>
<!-- node64 -->
<g id="node65" class="node">
<title>node64</title>
<path fill="#f5f5f5" stroke="black" d="M2446,-112C2446,-112 2330,-112 2330,-112 2324,-112 2318,-106 2318,-100 2318,-100 2318,-86 2318,-86 2318,-80 2324,-74 2330,-74 2330,-74 2446,-74 2446,-74 2452,-74 2458,-80 2458,-86 2458,-86 2458,-100 2458,-100 2458,-106 2452,-112 2446,-112"/>
<text text-anchor="middle" x="2388" y="-96.8" font-family="Arial" font-size="14.00">div</text>
<text text-anchor="middle" x="2388" y="-81.8" font-family="Arial" font-size="14.00">.student&#45;form&#45;choice</text>
</g>
<!-- node59&#45;&gt;node64 -->
<g id="edge64" class="edge">
<title>node59&#45;&gt;node64</title>
<path fill="none" stroke="black" d="M2187.6,-155.86C2220.76,-145.63 2275.63,-128.69 2319.58,-115.12"/>
<polygon fill="black" stroke="black" points="2320.82,-118.4 2329.35,-112.11 2318.76,-111.71 2320.82,-118.4"/>
</g>
<!-- node62 -->
<g id="node63" class="node">
<title>node62</title>
<path fill="#ffffff" stroke="black" d="M2228.5,-38C2228.5,-38 2121.5,-38 2121.5,-38 2115.5,-38 2109.5,-32 2109.5,-26 2109.5,-26 2109.5,-12 2109.5,-12 2109.5,-6 2115.5,0 2121.5,0 2121.5,0 2228.5,0 2228.5,0 2234.5,0 2240.5,-6 2240.5,-12 2240.5,-12 2240.5,-26 2240.5,-26 2240.5,-32 2234.5,-38 2228.5,-38"/>
<text text-anchor="middle" x="2175" y="-22.8" font-family="Arial" font-size="14.00">input</text>
<text text-anchor="middle" x="2175" y="-7.8" font-family="Arial" font-size="14.00">#age&#45;choice&#45;young</text>
</g>
<!-- node61&#45;&gt;node62 -->
<g id="edge62" class="edge">
<title>node61&#45;&gt;node62</title>
<path fill="none" stroke="black" d="M2206.4,-73.83C2201.71,-65.79 2196.1,-56.17 2190.92,-47.29"/>
<polygon fill="black" stroke="black" points="2193.8,-45.29 2185.74,-38.41 2187.76,-48.81 2193.8,-45.29"/>
</g>
<!-- node63 -->
<g id="node64" class="node">
<title>node63</title>
<path fill="#ffffff" stroke="black" d="M2301,-37C2301,-37 2271,-37 2271,-37 2265,-37 2259,-31 2259,-25 2259,-25 2259,-13 2259,-13 2259,-7 2265,-1 2271,-1 2271,-1 2301,-1 2301,-1 2307,-1 2313,-7 2313,-13 2313,-13 2313,-25 2313,-25 2313,-31 2307,-37 2301,-37"/>
<text text-anchor="middle" x="2286" y="-15.3" font-family="Arial" font-size="14.00">label</text>
</g>
<!-- node61&#45;&gt;node63 -->
<g id="edge63" class="edge">
<title>node61&#45;&gt;node63</title>
<path fill="none" stroke="black" d="M2234.41,-73.83C2242.85,-65.02 2253.12,-54.31 2262.27,-44.76"/>
<polygon fill="black" stroke="black" points="2264.92,-47.06 2269.31,-37.42 2259.86,-42.22 2264.92,-47.06"/>
</g>
<!-- node65 -->
<g id="node66" class="node">
<title>node65</title>
<path fill="#ffffff" stroke="black" d="M2432.5,-38C2432.5,-38 2343.5,-38 2343.5,-38 2337.5,-38 2331.5,-32 2331.5,-26 2331.5,-26 2331.5,-12 2331.5,-12 2331.5,-6 2337.5,0 2343.5,0 2343.5,0 2432.5,0 2432.5,0 2438.5,0 2444.5,-6 2444.5,-12 2444.5,-12 2444.5,-26 2444.5,-26 2444.5,-32 2438.5,-38 2432.5,-38"/>
<text text-anchor="middle" x="2388" y="-22.8" font-family="Arial" font-size="14.00">input</text>
<text text-anchor="middle" x="2388" y="-7.8" font-family="Arial" font-size="14.00">#age&#45;choice&#45;old</text>
</g>
<!-- node64&#45;&gt;node65 -->
<g id="edge65" class="edge">
<title>node64&#45;&gt;node65</title>
<path fill="none" stroke="black" d="M2388,-73.83C2388,-66.13 2388,-56.97 2388,-48.42"/>
<polygon fill="black" stroke="black" points="2391.5,-48.41 2388,-38.41 2384.5,-48.41 2391.5,-48.41"/>
</g>
<!-- node66 -->
<g id="node67" class="node">
<title>node66</title>
<path fill="#ffffff" stroke="black" d="M2505,-37C2505,-37 2475,-37 2475,-37 2469,-37 2463,-31 2463,-25 2463,-25 2463,-13 2463,-13 2463,-7 2469,-1 2475,-1 2475,-1 2505,-1 2505,-1 2511,-1 2517,-7 2517,-13 2517,-13 2517,-25 2517,-25 2517,-31 2511,-37 2505,-37"/>
<text text-anchor="middle" x="2490" y="-15.3" font-family="Arial" font-size="14.00">label</text>
</g>
<!-- node64&#45;&gt;node66 -->
<g id="edge66" class="edge">
<title>node64&#45;&gt;node66</title>
<path fill="none" stroke="black" d="M2413.74,-73.83C2426.93,-64.52 2443.15,-53.07 2457.23,-43.13"/>
<polygon fill="black" stroke="black" points="2459.52,-45.8 2465.67,-37.17 2455.49,-40.08 2459.52,-45.8"/>
</g>
<!-- node69 -->
<g id="node70" class="node">
<title>node69</title>
<path fill="#ffffff" stroke="black" d="M2084,-273C2084,-273 1960,-273 1960,-273 1954,-273 1948,-267 1948,-261 1948,-261 1948,-232 1948,-232 1948,-226 1954,-220 1960,-220 1960,-220 2084,-220 2084,-220 2090,-220 2096,-226 2096,-232 2096,-232 2096,-261 2096,-261 2096,-267 2090,-273 2084,-273"/>
<text text-anchor="middle" x="2022" y="-257.8" font-family="Arial" font-size="14.00">button</text>
<text text-anchor="middle" x="2022" y="-242.8" font-family="Arial" font-size="14.00">#save&#45;information&#45;btn</text>
<text text-anchor="middle" x="2022" y="-227.8" font-family="Arial" font-size="14.00">.button&#45;rectangle</text>
</g>
<!-- node68&#45;&gt;node69 -->
<g id="edge69" class="edge">
<title>node68&#45;&gt;node69</title>
<path fill="none" stroke="black" d="M2066.84,-308.96C2060.84,-300.74 2053.54,-290.73 2046.59,-281.2"/>
<polygon fill="black" stroke="black" points="2049.33,-279.02 2040.61,-273 2043.67,-283.14 2049.33,-279.02"/>
</g>
<!-- node70 -->
<g id="node71" class="node">
<title>node70</title>
<path fill="#ffffff" stroke="black" d="M2251.5,-273C2251.5,-273 2126.5,-273 2126.5,-273 2120.5,-273 2114.5,-267 2114.5,-261 2114.5,-261 2114.5,-232 2114.5,-232 2114.5,-226 2120.5,-220 2126.5,-220 2126.5,-220 2251.5,-220 2251.5,-220 2257.5,-220 2263.5,-226 2263.5,-232 2263.5,-232 2263.5,-261 2263.5,-261 2263.5,-267 2257.5,-273 2251.5,-273"/>
<text text-anchor="middle" x="2189" y="-257.8" font-family="Arial" font-size="14.00">button</text>
<text text-anchor="middle" x="2189" y="-242.8" font-family="Arial" font-size="14.00">#clear&#45;information&#45;btn</text>
<text text-anchor="middle" x="2189" y="-227.8" font-family="Arial" font-size="14.00">.button&#45;rectangle</text>
</g>
<!-- node68&#45;&gt;node70 -->
<g id="edge70" class="edge">
<title>node68&#45;&gt;node70</title>
<path fill="none" stroke="black" d="M2104.73,-308.96C2116.92,-300.08 2131.96,-289.1 2145.95,-278.9"/>
<polygon fill="black" stroke="black" points="2148.02,-281.72 2154.03,-273 2143.89,-276.07 2148.02,-281.72"/>
</g>
<!-- node73 -->
<g id="node74" class="node">
<title>node73</title>
<path fill="#ffffff" stroke="black" d="M1654,-672C1654,-672 1624,-672 1624,-672 1618,-672 1612,-666 1612,-660 1612,-660 1612,-648 1612,-648 1612,-642 1618,-636 1624,-636 1624,-636 1654,-636 1654,-636 1660,-636 1666,-642 1666,-648 1666,-648 1666,-660 1666,-660 1666,-666 1660,-672 1654,-672"/>
<text text-anchor="middle" x="1639" y="-650.3" font-family="Arial" font-size="14.00">h3</text>
</g>
<!-- node72&#45;&gt;node73 -->
<g id="edge73" class="edge">
<title>node72&#45;&gt;node73</title>
<path fill="none" stroke="black" d="M1687.82,-708.91C1679.34,-699.55 1669.77,-688.98 1661.37,-679.7"/>
<polygon fill="black" stroke="black" points="1663.94,-677.32 1654.63,-672.26 1658.75,-682.02 1663.94,-677.32"/>
</g>
<!-- node74 -->
<g id="node75" class="node">
<title>node74</title>
<path fill="#ffffff" stroke="black" d="M1726,-672C1726,-672 1696,-672 1696,-672 1690,-672 1684,-666 1684,-660 1684,-660 1684,-648 1684,-648 1684,-642 1690,-636 1696,-636 1696,-636 1726,-636 1726,-636 1732,-636 1738,-642 1738,-648 1738,-648 1738,-660 1738,-660 1738,-666 1732,-672 1726,-672"/>
<text text-anchor="middle" x="1711" y="-650.3" font-family="Arial" font-size="14.00">p</text>
</g>
<!-- node72&#45;&gt;node74 -->
<g id="edge74" class="edge">
<title>node72&#45;&gt;node74</title>
<path fill="none" stroke="black" d="M1711,-708.91C1711,-700.48 1711,-691.08 1711,-682.52"/>
<polygon fill="black" stroke="black" points="1714.5,-682.26 1711,-672.26 1707.5,-682.26 1714.5,-682.26"/>
</g>
<!-- node75 -->
<g id="node76" class="node">
<title>node75</title>
<path fill="#f5f5f5" stroke="black" d="M1841.5,-673C1841.5,-673 1768.5,-673 1768.5,-673 1762.5,-673 1756.5,-667 1756.5,-661 1756.5,-661 1756.5,-647 1756.5,-647 1756.5,-641 1762.5,-635 1768.5,-635 1768.5,-635 1841.5,-635 1841.5,-635 1847.5,-635 1853.5,-641 1853.5,-647 1853.5,-647 1853.5,-661 1853.5,-661 1853.5,-667 1847.5,-673 1841.5,-673"/>
<text text-anchor="middle" x="1805" y="-657.8" font-family="Arial" font-size="14.00">div</text>
<text text-anchor="middle" x="1805" y="-642.8" font-family="Arial" font-size="14.00">.button&#45;group</text>
</g>
<!-- node72&#45;&gt;node75 -->
<g id="edge75" class="edge">
<title>node72&#45;&gt;node75</title>
<path fill="none" stroke="black" d="M1741.26,-708.91C1752.32,-699.56 1764.79,-689 1775.76,-679.73"/>
<polygon fill="black" stroke="black" points="1778.06,-682.37 1783.43,-673.24 1773.54,-677.02 1778.06,-682.37"/>
</g>
<!-- node76 -->
<g id="node77" class="node">
<title>node76</title>
<path fill="#ffffff" stroke="black" d="M1844,-599C1844,-599 1740,-599 1740,-599 1734,-599 1728,-593 1728,-587 1728,-587 1728,-558 1728,-558 1728,-552 1734,-546 1740,-546 1740,-546 1844,-546 1844,-546 1850,-546 1856,-552 1856,-558 1856,-558 1856,-587 1856,-587 1856,-593 1850,-599 1844,-599"/>
<text text-anchor="middle" x="1792" y="-583.8" font-family="Arial" font-size="14.00">button</text>
<text text-anchor="middle" x="1792" y="-568.8" font-family="Arial" font-size="14.00">#confirm&#45;clear&#45;yes</text>
<text text-anchor="middle" x="1792" y="-553.8" font-family="Arial" font-size="14.00">.button&#45;rectangle</text>
</g>
<!-- node75&#45;&gt;node76 -->
<g id="edge76" class="edge">
<title>node75&#45;&gt;node76</title>
<path fill="none" stroke="black" d="M1802.05,-634.96C1800.79,-627.24 1799.27,-617.94 1797.79,-608.94"/>
<polygon fill="black" stroke="black" points="1801.24,-608.31 1796.17,-599 1794.33,-609.44 1801.24,-608.31"/>
</g>
<!-- node77 -->
<g id="node78" class="node">
<title>node77</title>
<path fill="#ffffff" stroke="black" d="M1984,-599C1984,-599 1886,-599 1886,-599 1880,-599 1874,-593 1874,-587 1874,-587 1874,-558 1874,-558 1874,-552 1880,-546 1886,-546 1886,-546 1984,-546 1984,-546 1990,-546 1996,-552 1996,-558 1996,-558 1996,-587 1996,-587 1996,-593 1990,-599 1984,-599"/>
<text text-anchor="middle" x="1935" y="-583.8" font-family="Arial" font-size="14.00">button</text>
<text text-anchor="middle" x="1935" y="-568.8" font-family="Arial" font-size="14.00">#confirm&#45;clear&#45;no</text>
<text text-anchor="middle" x="1935" y="-553.8" font-family="Arial" font-size="14.00">.button&#45;rectangle</text>
</g>
<!-- node75&#45;&gt;node77 -->
<g id="edge77" class="edge">
<title>node75&#45;&gt;node77</title>
<path fill="none" stroke="black" d="M1834.5,-634.96C1849.3,-625.91 1867.64,-614.69 1884.59,-604.33"/>
<polygon fill="black" stroke="black" points="1886.59,-607.21 1893.3,-599 1882.94,-601.23 1886.59,-607.21"/>
</g>
</g>
</svg>
