<?xml version='1.0' encoding='utf-8'?>
<svg xmlns="http://www.w3.org/2000/svg" viewBox="0 0 1072.1 1338.5"> <g transform="matrix(.79792 0 0 .79792 3954.4 4223.2)"> <path d="m-4102.6-3977.5c-1.0428-0.1957-2.6887-0.739-3.6574-1.2075s-3.9057-1.6574-6.5264-2.6421c-9.9139-3.7251-12.651-5.5247-13.664-8.9836-0.8026-2.7396-2.4905-4.557-1.0379-6.2897 0.8747-1.0433-1.601-5.5549-1.4283-6.8689 0.8365-6.3616-2.8256-15.601-0.8115-16.623 1.3246-0.6719 14.576 7.3911 15.896 8.567 1.0283 0.9158 1.5133 0.99 6.4735 0.99 5.1062 0 5.448-0.056 7.1717-1.189 1.4525-0.9541 2.3188-1.189 4.3852-1.189 3.9651 0 18.404-4.4788 22.512-6.9833 1.729-1.054 4.991-2.881 7.2489-4.0601 2.9207-1.5251 5.1822-3.1557 7.8379-5.6509 3.402-3.1968 3.9798-4.0007 6.5257-9.0797 4.476-8.9292 4.6579-9.2197 7.5836-12.108 3.3119-3.2703 6.5694-4.8407 11.179-5.3893 5.4046-0.6432 5.8502-1.1103 10.002-10.483 0.8245-1.8613 2.1828-4.233 3.0185-5.2705 1.7395-2.1595 1.9017-3.0622 0.6192-3.4479-1.5448-0.4649-2.7492-2.3438-2.7419-4.2775 0.015-2.4146 0.8123-3.7428 2.9517-4.8803 2.1821-1.1602 2.4607-1.8033 2.1642-4.9953-0.3-3.2304 0.4038-5.5547 3.4261-11.314l2.4717-4.7102-1.4726-5.6666c-3.5286-13.578-5.7785-19.686-8.3145-22.575-1.6539-1.8841-2.0001-2.6718-3.5212-8.0101-2.4013-8.4281-6.8005-15.354-10.873-17.118-2.4446-1.059-13.755-1.0295-17.856 0.046-60.272 38.579-39.02-14.86-93.467-1.0459-3.4536-0.516-6.2656-1.1838-7.2102-1.7121-0.8516-0.4762-1.6676-0.8659-1.8132-0.8659s-0.1383 1.0236 0.017 2.2747c0.3501 2.8234 1.9819 6.8341 4.122 10.131 3.0342 4.6741 4.6904 10.485 6.6481 23.324 1.4854 9.7416 1.8349 11.019 4.1255 15.073 1.453 2.5718 1.4638 2.6361 1.2496 7.451-0.2049 4.606-0.3132 5.0491-2.101 8.5806-1.0369 2.0483-1.8851 4.1411-1.8851 4.6511-3.6946 11.302-4.7013 34.048-16.578 39.478-2.7895 1.2396-4.2528-0.8003-8.7354-2.8127-7.9966-3.5898-9.2676-0.1354-8.1758-7.4777 0.9262-6.2278 4.2798-22.105 3.2194-23.215-1.4556-1.5234-5.0778-2.0057-10.713-1.4264-6.3927 0.6572-9.7561 1.5042-12.777 3.2175-2.9904 1.696-8.1882 6.8696-10.124 10.077-2.1988 3.6429-8.0048 7.309-14.34 9.0547-3.621 0.9977-5.945 0.7441-19.874-2.1689-6.3277-1.3233-13.579-2.612-16.115-2.8636-2.8433-0.2823-5.7339-0.8763-7.5436-1.55-2.8859-1.0744-9.793-2.8134-23.75-5.9798-11.717-2.6582-12.86-2.4019-14.042-4.1116s-9.4735-7.0223-10.25-12.248c-6.6685-44.859 7.515-20.08 9.3466-20.742 1.7723-0.6407 2.4398 6.6839 8.2399 8.1285 1.4548 0.3624 4.0412 0.6588 5.7477 0.6588 2.4336 0 3.5653 0.2332 5.2474 1.0809 2.5918 1.3063 3.0838 1.332 4.1489 0.2162 0.4542-0.4756 1.2126-0.8646 1.6854-0.8646s1.6644 0.389 2.6479 0.8646c2.4673 1.1931 3.7367 1.0861 8.2103-0.6924 2.1325-0.8478 5.4839-2.1525 7.4476-2.8994 2.9895-1.1372 4.08-1.8522 6.7036-4.3958 3.8882-3.7696 6.1355-6.5363 6.6811-8.226 0.3058-0.9469 1.0289-1.5889 2.679-2.378 2.0006-0.9567 2.8105-1.0775 7.0497-1.0504 5.4205 0.035 7.4632 0.592 11.265 3.0741 1.7186 1.122 3.0309 1.6179 4.6788 1.768 3.066 0.2793 4.7631-0.4611 6.1319-2.6751 1.4666-2.3723 8.0634-8.6112 10.05-9.5046 3.7507-1.687 4.693-4.3325 4.1867-11.754-0.5879-8.6192-2.5916-17.481-5.3014-23.446-1.0259-2.258-1.0713-2.2931-2.6855-2.0707-140.99-20.562-148.44-115.53-75.47-190.92 1.3442-1.3496 2.4439-2.8371 2.4439-3.3055 0-1.9673 11.05-14.696 17.453-20.105 1.7399-1.4695 4.5139-3.4501 6.1645-4.4014 1.9283-1.1113 3.3109-2.2703 3.8683-3.2427 1.9092-3.3316 15.71-15.534 20.962-18.534 1.9387-1.1076 3.3507-2.327 4.3608-3.7663 2.713-3.8658 3.8222-4.9927 6.4234-6.5259 1.4156-0.8346 4.1269-3.0076 6.0252-4.8291s4.6691-4.0321 6.1578-4.9124 8.6496-6.0846 15.914-11.565c12.82-9.6724 22.017-16.098 24.13-16.86 1.1579-0.4174 4.2552-3.0667 17.423-14.904 48.144-40.611 36.825-102.6 4.4158-119.12-69.18-52.156-102.06 88.426-286.78 107-18.888 1.3386-22.377 1.7067-28.508 3.0085-2.634 0.5593-9.6128 1.7258-15.508 2.5921-13.395 1.9684-18.948 3.076-20.953 4.179-1.2868 0.7077-2.0321 0.8109-4.1596 0.5769-2.2368-0.2461-2.9092-0.1325-4.9052 0.8261-4.8331 2.3215-13.145 3.9457-23.905 4.6714l-7.6258 0.5144-0.2508 1.7515c-1.8702 13.065-3.972 25.962-4.336 26.607-0.2527 0.4474-0.4594 1.6133-0.4594 2.591s-0.3352 3.6909-0.7449 6.0294c-0.6893 3.9339-0.6893 4.358 0 5.6677 0.6253 1.1882 0.7461 3.054 0.7517 11.618 0 7.4419 0.188 10.931 0.6766 12.895 0.4657 1.8721 0.5365 3.0252 0.2326 3.7832-0.3852 0.9601-0.7033 1.0901-2.6677 1.0901-2.7872 0-4.4756 1.1371-4.9042 3.3031-0.4712 2.3805 0.4515 4.3977 3.73 8.1546 3.7016 4.242 4.7273 6.2284 4.7404 9.1809 0.015 1.8813-0.2078 2.494-1.2817 3.6334-1.1104 1.178-1.671 1.3988-3.9911 1.5729-1.4847 0.111-2.9559 0.3971-3.2696 0.635-0.8648 0.656-0.6797 2.9612 0.3687 4.5915 1.3356 2.0765 1.0443 3.3015-0.7853 3.3015-0.7935 0-1.5471 0.098-1.6746 0.2181s-0.2813 15.004-0.3421 33.076l-0.111 32.858 1.7851 3.2137c1.5125 2.7231 1.7837 3.6137 1.7773 5.8368 0 1.4429-0.087 11.087-0.1851 21.431l-0.1775 18.808 1.7405 3.1407 1.7405 3.1406-0.5945 4.2575c-0.327 2.3415-0.453 4.7921-0.2798 5.4456s1.3005 2.1885 2.5056 3.4111c3.6548 3.7078 3.9432 5.7214 2.0302 14.172l-1.21 5.3451 0.8186 4.78c1.067 6.2302 0.8069 7.0202-3.5044 10.643l-3.2252 2.7103 0.2979 4.0164c0.3612 4.8703-0.068 5.8911-3.3103 7.863-1.2428 0.7558-2.3938 1.7056-2.5579 2.1105-0.5197 1.2823-0.2751 44.989 0.272 48.616 0.6953 4.6078 0.3289 5.9715-2.3603 8.7863-2.3369 2.4462-2.8864 4.3183-1.8209 6.2053 0.3436 0.6086 0.157 0.9647-0.8901 1.6984-1.9203 1.3458-2.3536 3.3165-1.5111 6.8723 0.3811 1.6086 0.7977 4.028 0.9258 5.3765 0.2312 2.4348 0.218 2.4666-1.9007 4.6138l-2.1334 2.1619-6.7284 25.075c-8.8628 93.494 9.667 97.058-21.356 65.223-1.2951-1.3981-1.3776-1.72-1.6428-6.3978-0.2863-5.0495-0.9388-8.1684-1.7088-8.1684-0.239 0-0.4346 0.285-0.4346 0.6333s-0.4054 0.8389-0.9007 1.0903c-0.804 0.4079-1.0488 0.1788-2.2807-2.1343l-1.38-2.5913v-36.343c14.408-6.8257 28.965-169.84 18.263-181.49-0.024-25.985-0.1653-47.824-0.3147-48.532-0.3579-1.6966 0.3875-2.4873 2.1182-2.2465 2.722 0.3786 3.4896-1.5781 1.8291-4.6633-1.3888-2.5802-1.1955-3.7458 0.9261-5.584 2.4574-2.1292 2.6706-3.5964 1.1684-8.0354-0.6439-1.9024-1.1733-3.9676-1.1765-4.5896-0.015-1.6923 1.5609-3.2584 4.0515-4.0426 3.4762-1.0945 3.9608-1.8536 3.6937-5.7859-0.1232-1.8198-0.2248-27.24-0.2248-56.489 0-49.649 0.055-53.425 0.8245-56.856 1.7419-7.7649 3.1198-12.528 4.6956-16.232 3.7114-8.7249 5.6188-20.981 4.1111-26.418-1.0608-3.8253-0.9772-9.9212 0.1754-12.796 1.3165-3.2832 1.1679-4.1644-1.3032-7.7272-3.7761-5.4444-3.8927-5.7578-4.5965-12.351-0.302-2.8282-0.8256-4.8357-1.8232-6.9902-1.127-2.4341-1.3995-3.6146-1.3995-6.0635 0-7.7889 1.974-11.148 9.356-15.918 3.0926-1.9986 5.2402-3.7957 5.2402-4.3851 0-0.2193-0.3113-1.235-0.6917-2.2573s-1.5066-6.4457-2.5026-12.052c-2.0237-11.393-3.4643-17.386-5.2565-21.868s-2.8405-10.452-3.4316-19.552c-0.866-13.334 0.111-23.353 2.9527-30.272 1.3205-3.2159 1.7742-5.1515 2.3308-9.9443 1.1379-9.7999 3.0502-19.097 5.4268-26.382 1.5014-4.6033 2.2908-8.2053 3.6239-16.536 1.009-6.306 1.4406-10.411 1.2561-11.948-0.032-0.2695-1.2391-0.9337-2.6816-1.4758s-2.8953-1.1848-3.2286-1.4282c-0.8776-0.6414-2.5308-3.9298-3.7279-7.4148-1.2339-3.5929-2.9713-6.9764-5.4462-10.606-3.5677-5.2323-4.3747-10.41-4.3107-27.658 0.073-19.392 1.2769-23.263 7.8737-25.292 3.0284-0.9317 3.9449-1.7694 4.3112-3.9402 0.8025-4.7575 4.9235-7.7415 11.591-8.3936 4.1106-0.402 5.1388-0.933 5.1388-2.6538 0-3.1977 2.3871-44.702 2.762-48.024 0.5113-4.5292 0.8352-5.5552 4.6954-14.871 1.3924-3.3602 2.6678-7.1542 2.8343-8.4311s0.785-3.3921 1.3743-4.6999 1.5015-4.6769 2.0269-7.4867c1.9472-10.414 4.8423-22.04 7.4611-29.962 1.7746-5.3688 3.1257-12.859 4.1246-22.866 2.1422-21.462 2.0951-34.778-0.1643-46.479-2.1149-10.952-1.9679-13.157 1.6566-24.861l2.1424-6.918 2.6737-2.5447c1.6597-1.5796 2.983-3.3167 3.4896-4.5805 1.3914-3.4708 6.2894-9.3494 7.4773-8.9741 0.2756 0.086 1.2305 1.5136 2.1222 3.1703s4.6875 7.0916 8.4351 12.078 7.49 10.331 8.3162 11.876 2.3968 3.686 3.4902 4.756c3.8601 3.7777 4.1906 4.8623 2.4955 8.1865-0.5536 1.0858-3.8681 5.5736-7.3656 9.9729s-6.9636 9.2143-7.7024 10.7c-2.8204 5.6715-2.7868 15.694 0.091 27.025 0.7701 3.0325 1.6847 7.9604 2.0325 10.951 0.52 4.4739 0.8076 5.6146 1.6215 6.436 1.3172 1.329 1.6714 5.7977 0.9563 12.066-0.9419 8.2556-3.0806 13.36-11.42 27.255-6.3467 10.574-8.1122 14.268-12.988 27.175-5.3515 14.166-7.1346 23.034-7.1179 35.402 0.015 6.1113 0.1789 7.0895 1.6471 9.4505 0.5597 0.9003 0.6518 3.2609 0.5506 14.122l-0.1216 13.042 1.9384 2.5237c6.4323 8.3745 7.176 12.708 5.404 31.492-0.6505 6.8962-1.3546 14.776-1.565 17.511l-0.3822 4.9721 5.1511 5.025c3.2666 3.1866 5.4258 5.6758 5.9023 6.8048 0.4383 1.0382 1.8581 2.7512 3.4078 4.111 4.9295 4.3261 19.34 12.898 30.967 18.419 10.35 4.915 10.621 5.012 42.021 15.051 6.6598 2.1292 14.87 5.0957 18.245 6.5922 22.378 5.5079 45.87-0.6963 60.494-9.7085 4.8919-3.0168 13.941-10.374 15.465-11.067 3.3356-1.5152 3.844-2.3894 3.8405-6.6036 0-7.2356-1.6311-8.6857-12.758-11.384-17.736 6.8235-34.185 4.4153-42.14 13.927-14.385 17.199-25.993-1.9124-6.4834-25.91 0.1631-1.0311 1.2355-3.4137 2.3832-5.2948 6.7159-11.009 6.8449-11.496 4.0908-15.424-0.9607-1.3706-3.6972-4.4362-6.0811-6.8127l-4.3341-4.3207-1.8892 1.3126c-5.1606 3.4017-10.745-6.9824-14.61 9.6872-4.8994 0.053-7.5717-2.3755-7.5786-6.8864 0-2.6425-0.7091-5.1765-1.8548-6.6653-2.0788-34.769 15.337-11.224 24.557-27.174 0.6013-1.204 1.1501-1.6523 2.2918-1.8723 3.7051-0.7142 4.3422-2.9481 4.3765-15.346 0.035-12.725-0.3887-13.212-7.8989-9.0759-35.913-8.7434 0.9172-42.606-1.1525-46.445-15.071-16.193-23.478-40.4-23.846-56.052-0.2371-142.46 11.226 16.162 74.603 41.352 1.8457 0 5.5503-2.8974 21.064-16.474 28.755-36.41 53.951-89.574 120.84-93.268 31.198-1.7227 73.908-36.414 100.38-30.328 0.8781 0.2589 3.971 0.6249 6.8735 0.8133 4.5279 0.2938 5.5752 0.5082 7.3787 1.51 1.527 0.8484 2.9932 1.2383 5.3628 1.4266 3.7512 0.2981 5.6299 1.2843 4.6277 2.4289-0.3228 0.3687-1.2398 0.804-2.0378 0.9676s-3.1956 0.8629-5.3281 1.5543c-2.7988 0.9074-5.0353 1.309-8.0418 1.444-3.0625 0.1369-4.5717 0.4139-5.7017 1.0435-1.0081 0.5618-3.0298 1.0003-5.8771 1.2748-5.4927 0.5297-9.1076 1.4189-14.073 3.4619-56.438 43.267-123.61 79.606-91.279 152.68-0.5078 9.6288-0.7763 11.971-1.4153 12.346-0.229 0.1341-0.4207 2.9078-0.426 6.1635-0.015 5.2738-0.1383 6.2497-1.1835 8.9461-1.8705 4.8219-6.0783 16.985-6.5183 18.841-0.3903 1.6468-0.3665 1.6961 0.8234 1.6961 1.7916 0 10.475-2.8116 16.108-5.2153 25.834-7.7784 46.106-31.364 73.558-36.931 103.91-21.824 119.48 61.683 114.44 102.74-3.6334 29.627 10.278 36.755 43.162 86.462 0 1.0021 1.7985 3.5404 6.0878 8.5924 2.5235 2.9726 5.2383 6.5721 6.0327 7.9989s3.2297 5.1798 5.4119 8.3403c4.0513 5.8674 5.2742 8.0771 5.2742 9.5306 0 0.4512 0.4476 1.3596 0.9947 2.0188 1.5416 1.858 4.9444 8.105 10.715 19.672 8.4051 16.848 10.061 20.979 12.927 32.255 0.9731 3.8291 2.2937 8.0484 2.9345 9.3763s1.1651 2.9408 1.1651 3.5844 0.399 2.4558 0.8865 4.0271c2.4456 7.8803 3.4303 17.134 3.4328 32.258 0 13.359-0.2832 16.121-2.3441 22.678-1.8148 5.7748-11.084 27.362-12.262 28.557-0.5859 0.5946-2.4109 3.9021-4.0555 7.3501s-3.4779 6.6585-4.0743 7.1342-1.9644 2.4211-3.0403 4.3235c-2.5737 4.5511-5.9395 9.1316-11.755 15.998-2.6184 3.0913-5.3596 6.6238-6.0919 7.85-3.1034 5.1974-9.111 11.296-64.643 65.621-13.318 13.028-16.473 16.476-16.473 18 0 0.8011 0.7941 2.2013 2.3164 4.084 2.6386 3.2632 4.0448 5.9305 4.0594 7.7001 0 0.6695 0.2316 1.6099 0.5024 2.0895 0.4321 0.7653 0.7723 0.8357 2.7763 0.5746 3.1672-0.413 5.9858 0.4102 7.6848 2.2445 0.7492 0.8086 1.3621 1.8289 1.3621 2.2672 0 1.0573 0.7434 1.5821 3.0801 2.1744 4.6863 1.1877 4.585 6.0127-0.2293 10.914-0.8327 0.8479-1.0647 1.4458-0.8602 2.2176 0.1538 0.5813 2.9003 3.6583 6.1034 6.8379 7.6791 7.6233 8.4617 8.624 10.659 13.631 1.0273 2.341 4.2299 8.9261 7.1167 14.633 6.315 12.485 7.9971 16.126 9.2309 19.982 0.5163 1.6132 1.8895 4.3924 3.0519 6.1758s2.9375 4.6047 3.9454 6.2693c2.5533 4.2177 5.1595 7.895 11.798 16.646 3.1567 4.1616 6.2047 8.442 6.7729 9.5121 13.164 15.473 58.229 64.48 19.154 59.007-6.1464-2.8012-12.807-5.7328-14.802-6.5146s-3.9444-1.8139-4.3332-2.2935c-0.8285-1.0223-5.2557-3.0182-7.4398-3.3543-1.1088-0.1704-1.6989-0.029-2.1827 0.5237-1.52 1.7361 0.065 8.3079 3.4492 14.293 1.8574 3.2861 2.7079 6.044 3.6514 11.841 0.1742 1.0701 1.0137 3.6695 1.8658 5.7762s1.8549 5.0811 2.229 6.6093 1.4849 4.1821 2.469 5.8976 3.3573 6.9129 5.2737 11.55 4.2727 9.5985 5.2363 11.025c2.6798 3.9676 3.4074 7.3331 3.3648 15.565-0.041 8.0314-1.1718 14.277-3.3771 18.659-1.5048 2.9894 0.058 17.224-4.0355 20.209-5.8186 4.2439-15.199 6.4555-18.624 5.6407-1.564-0.372-0.3992-7.1771 1.3287-13.656 2.1358-8.0089-2.3784-12.205-6.6259-10.21-5.4914 2.578-7.4547 9.1126-10.836 16.711-1.8881 4.2435-0.3573 10.334-3.1157 11.923-0.9336 0.5379-5.2807 1.3397-6.4096 2.2222-34.886 8.3151-71.888 35.462-107.49 29.553zm-350.47-542.37c3.6377-0.6126 9.8214-1.3769 13.742-1.6982 5.9894-0.4914 7.3406-0.734 8.4618-1.5196 0.961-0.6736 2.4121-1.042 5.188-1.3177 5.0103-0.4974 7.1142-0.9673 13.816-3.0858 6.4623-2.043 11.589-4.2426 16.843-7.2273 2.0655-1.1733 4.6792-2.5266 5.8081-3.0074s4.7319-2.8925 8.0066-5.3593c7.4211-5.5903 10.19-7.3377 15.035-9.4899 4.7871-2.1262 6.1403-3.2022 8.2599-6.5664 2.9531-4.6871 5.7274-8.2086 9.039-11.473 3.8309-3.7762 6.6635-5.8056 9.1501-6.5557 2.5102-0.7573 4.0952-1.8924 5.6676-4.0585 0.735-1.0128 2.859-2.8391 4.7199-4.0585 3.5585-2.3318 5.0192-3.8503 6.684-6.9486 0.5558-1.0344 1.7878-2.6881 2.7379-3.6752 3.4908-3.6265 3.6064-5.173 0.7693-10.292-1.0999-1.9848-2.1466-4.4491-2.3261-5.4763s-0.5996-1.9669-0.9335-2.0884c-0.8396-0.3053-5.9572 2.0314-21.728 9.9212-13.467 6.7371-18.653 8.9968-21.955 9.5651-7.9866 1.3745-23.259-1.0334-31.406-4.9516-6.093-2.9303-22.622-7.494-37.71-14.689-50.19-22.614-34.708-13.755-75.031-41.559l-8.1698-7.5012c-8.0579-7.3985-11.493-10.131-12.062-9.5919-0.1598 0.1513-0.5672 3.2446-0.9059 6.8739s-0.9061 7.7663-1.2613 9.193c-0.8356 3.356-1.0175 5.6536-2.0889 26.374-1.1993 23.195-1.7502 30.864-2.5319 35.238-1.2327 6.899-0.6672 16.357 2.0944 35.021 1.2976 8.7709 1.6156 9.6391 4.2299 11.551 1.438 1.0515 4.068 1.6405 10.173 2.2782 6.6224 0.6918 7.2227 1.0252 17.509 9.7241 12.517 10.586 20.003 15.818 24.859 17.374 3.0131 0.9659 17.16 0.4496 25.315-0.9238z"/> <path d="m-4646.6-4050c12.787-4.5809 26.153-6.4348 39.605-3.2801 8.0685 2.6408 12.283 10.039 17.118 16.735 3.899 5.3769 8.1054 10.34 12.602 15.154 4.9457 4.7939 11.151 7.4991 17.629 8.9651 8.6099 1.5655 17.379 1.61 26.09 1.7067 7.1163-1.002 15.814 2.6316-4.1696-0.494-1.0123-0.1583 1.9833-0.5352 2.9679-0.8296 1.8444-0.5515 3.6724-1.163 5.5129-1.7283 4.5597-1.1844 8.8653-3.1024 13.471-4.1084 7.8079-0.8671 15.62-1.7712 23.443-2.5051 8.1821-1.2326 16.354-2.5451 24.516-3.9225 8.1848-0.8742 15.894-4.0685 23.844-6.113 11.838-2.6669 24.137-1.6246 36.116-1.4466 8.7167 0.8793 17.434 1.6482 26.183 2.0384 3.5192 0.1157 3.8753 0.1397 7.3154 0.206 1.0862 0.021 4.344 0.1078 3.2589 0.049-16.097-0.8677-12.996 0.6181-5.6762-2.8084 6.0555-2.9039 10.758-7.7831 15.695-12.329 6.7517-6.2472 14.115-11.701 21.642-16.844 6.3236-4.9317 12.81-9.4643 20.323-12.026 5.7193-1.8984 11.175-4.317 17.065-5.6203 5.3578-1.0395 10.813-1.1875 16.244-1.2776 10.623-0.063 21.246-0.015 31.87 0.01 5.3932 0.8885 10.76 1.8422 16.207 2.2757 5.6881 1.2098 11.402 2.1743 17.184 2.6979 5.1077 0.019 10.081 1.2026 15.006 2.5415 6.825 1.5 13.499 3.7662 19.899 6.6783 6.0608 2.03 18.456 7.3782 23.592 11.279 4.1322 3.7209 5.4007 4.787 7.8463 9.9847 2.642 4.1667 4.6811 10.85 6.6197 15.428 2.8012 5.2559 27.232 40.278 31.218 44.587 4.7449 4.739 11.392 3.9126 16.018 7.9584 4.7661-0.7099 23.382-0.9008 1.5789-3.1531-1.3349-0.1379-0.3334 2.929 1.0006 2.7817 4.1976-0.4634 3.037-0.3201 7.0495-1.1207 5.7177-1.6337 14.74 0.9316 19.205-2.9527 4.5136-4.7259 6.4421-1.4139 12.598-2.819 6.5457-0.9749 11.908-5.7401 20.32-9.5791 6.0149-1.8168 14.188-5.6579 20.077-7.8238 4.6053-1.6211 4.0288-9.1886 8.3033-11.56 5.0833-2.6494 16.502 4.84 21.898 3.0821 5.4652-1.8237 15.387-1.8023 21.082-2.1419 13.62-1.5486 19.083-2.2844 25.354-3.6796 5.4056 2.4886 7.3779-5.9205 12.966-3.9213 5.621 1.2083 4.6916-7.5703 9.872-5.0979 6.9639 2.9432-0.9422-4.4991 6.2193-2.1054 6.415 1.8799 12.744 3.9133 19.343 4.9421 5.5383 0.7213 11.128 0.7013 16.698 0.7267 9.7369 0.01-5.4921 0-8.2382 2e-4 -1.1693-9e-4 2.3393 0.04 3.5079 0 3.3838-0.1279 6.7394-0.6646 10.091-1.1345 6.2282-0.707 11.417-4.0257 16.701-7.2745 5.0178-4.3479 10.555-7.261 16.797-9.0139 5.5843-1.3339 11.31-1.0616 16.894-2.3483 5.6363-1.843 11.358-3.189 17.221-3.8583 6.4595-0.5144 12.942-0.5366 19.417-0.5615 5.8559 0.1341 11.721 0.031 17.568 0.4023 0.8702 0.055 18.449 3.9615 18.994 4.1727 4.0457 1.5674-13.446 11.104-9.4504 12.813 20.496-5.9342 22.192-5.0993-6.0657-8.0565-4.0571-1.6588-8.1055-3.3386-12.221-4.8306-5.4458-1.9741-16.236-3.0801 5.8969-2.0422-6.4671 0.01-12.94 0.01-19.398 0.4146-5.8568 0.5265-11.612 1.6683-17.203 3.6282-5.5573 1.6271-11.217 1.3599-16.884 2.3538-6.2522 1.4799-11.923 3.9784-16.747 8.5726-5.3873 3.2427-10.493 6.9903-16.8 7.8787-11.564 1.6485-23.076 2.0439-34.8 1.3402-5.5901-0.049-11.204-0.07-16.745-0.9624-6.5501-1.1965-1.9151 3.4485-8.2965 1.5134-7.1701-2.5661-4.3152 9.9578-11.302 6.8953-5.1633-2.5182-7.1541 6.6292-12.712 5.2199-5.4747-2.2942-3.9491 1.3995-9.3386-1.1124-3.4499-1.526-7.182 1.924-10.82 0.9533-5.0729-1.3538-14.963-7.1114 7.8623-6.2657-5.6652 0.2464-12.398 4.6477-17.864 6.3517 0 0-8.5835-0.8686-13.681 1.5994-4.3838 2.2845-12.86 1.3357-17.544 2.9576-5.9929 1.9691-2.4975 3.3713-12.166 4.3988-6.4352 1.8622-10.927 6.834-17.528 7.5398-6.1014 1.0831-20.103 4.8749-24.507 9.6387-4.5569 4.0223-14.141 1.813-19.862 3.8885-12.765 2.9982-26.012 2.2444-39.003 1.6634-6.447-0.6989-36.42-35.942-41.112-41.072-3.9794-4.5308-7.7595-9.3667-10.464-14.878-1.9838-4.5298-4.2896-8.8295-6.8026-13.049-2.4817-4.8487-6.4122-8.2307-10.389-11.707-5.1711-3.7401-10.643-6.951-16.631-9.0003-6.4409-1.5195-13.078-1.8049-19.901-3.2432-4.953-1.1758-9.902-5.4363-15.002-5.4965-5.7646-0.6193-11.443-1.7496-17.165-2.6848-5.4262-0.5255-10.767-1.6413-16.192-2.149l-2.8405-0.01-2.9124-0.01c-12.187-0.032 17.865-0.024 5.9491-0.011l-2.5734 0.01c-5.4231 0.05-10.868 0.1214-16.24 0.991-5.9363 1.1284-11.39 3.3753-17.052 5.4676-7.6225 2.2014-14.22 6.5103-20.471 11.571-7.526 4.9889-14.774 10.47-21.489 16.628-5.0082 4.577-9.6367 9.665-15.677 12.78-0.5849 0.2937-5.1976 2.6657-5.777 2.7224-9.5197 0.932-19.019 0.8434-28.536 0.4147-8.7214-0.4415-17.406-1.2953-26.106-2.0611 23.471-0.566-2.0801-0.3846-6.8454 1.1955-8.0438 1.8959-15.766 5.223-23.977 6.2055-8.181 1.3767-16.366 2.6934-24.553 4.0299-7.738 0.6886-15.434 1.7448-23.171 2.3914-4.6727 0.8188-8.9587 2.6898-13.511 3.9551-2.4097 0.7071-6.18 2.489-8.545 2.6878-8.3961 0.7058-16.76 0.8869-25.158 0.7524-8.7386-0.1443-17.549-0.2293-26.152-2.0399-6.6066-1.7745-12.888-4.7568-17.858-9.8253-4.5197-4.8233-8.5291-10.012-12.476-15.366-4.7072-6.5423-8.9724-13.509-17.018-15.601-5.8666-1.0275-9.174-1.3535 6.8226-0.8889 1.47 0.043-2.942 0.1636-4.3956 0.399-2.2706 0.3677-6.2736 1.5593-8.473 2.237-1.418 0.4369-2.8253 0.912-4.2377 1.368-9.2593 2.9458-55.194 28.862-64.528 31.529-44.592 5.126 5.9681-22.045 49.868-33.514z"/> <path d="m-4235.6-5184.3c-328.82 0-595.38 336.83-595.38 752.34s266.55 752.38 595.38 752.38 595.38-336.86 595.38-752.38-266.55-752.34-595.38-752.34zm3.7812 67.875c309.04 0 559.59 316.57 559.59 707.09s-250.55 707.12-559.59 707.12-559.56-316.6-559.56-707.12 250.52-707.09 559.56-707.09z"/> </g> </svg>