<?xml version="1.0" encoding="UTF-8" standalone="no"?>
<svg
   viewBox="0 0 640 640"
   version="1.1"
   id="svg2289"
   sodipodi:docname="wand-magic-sparkles-sharp-duotone-regular-full.svg"
   inkscape:version="1.2.2 (b0a8486541, 2022-12-01)"
   xmlns:inkscape="http://www.inkscape.org/namespaces/inkscape"
   xmlns:sodipodi="http://sodipodi.sourceforge.net/DTD/sodipodi-0.dtd"
   xmlns="http://www.w3.org/2000/svg"
   xmlns:svg="http://www.w3.org/2000/svg">
  <defs
     id="defs2293" />
  <sodipodi:namedview
     id="namedview2291"
     pagecolor="#ffffff"
     bordercolor="#000000"
     borderopacity="0.25"
     inkscape:showpageshadow="2"
     inkscape:pageopacity="0.0"
     inkscape:pagecheckerboard="0"
     inkscape:deskcolor="#d1d1d1"
     showgrid="false"
     inkscape:zoom="0.36875"
     inkscape:cx="307.79661"
     inkscape:cy="320"
     inkscape:window-width="1680"
     inkscape:window-height="962"
     inkscape:window-x="0"
     inkscape:window-y="0"
     inkscape:window-maximized="1"
     inkscape:current-layer="svg2289" />
  <!--!Font Awesome Pro 7.1.0 by @fontawesome - https://fontawesome.com License - https://fontawesome.com/license (Commercial License) Copyright 2025 Fonticons, Inc.-->
  <path
     opacity=".4"
     d="M109.9 492L348 253.9L386.1 292L148 530.1L109.9 492z"
     id="path2285" />
  <path
     d="m 492,42.1 89,89 17,17 -17,17 -416,416 -17,17 -89,-89 -17,-17 17,-17 416,-416 z M 109.9,492 148,530.1 386.1,292 348,253.9 Z M 492,109.9 381.9,220 420,258.1 530.1,148 Z"
     id="path2287"
     style="stroke:#000000;stroke-opacity:1"
     sodipodi:nodetypes="ccccccccccccccccccccc" />
  <path
     d="m 292.10708,186.94453 -24,-56 -56,-24 56,-23.999997 24,-56 24,56 56,23.999997 -56,24 z"
     id="path2287-5"
     style="stroke:#000000;stroke-opacity:1;fill:#ff0000;fill-opacity:1"
     sodipodi:nodetypes="ccccccccc" />
  <path
     d="m 94.206072,123.97209 31.999998,-80.000003 32,80.000003 80.00001,32 -80.00001,32 -32,80 -31.999998,-80 -79.999995,-32 z"
     id="path2287-6"
     style="stroke:#000000;stroke-opacity:1;fill:#ff00ff;fill-opacity:1"
     sodipodi:nodetypes="ccccccccc" />
  <path
     d="m 353.37735,460.00437 80,-32.00001 32,-80 32,80 80,32.00001 -80,32 -32,80 -32,-80 z"
     id="path2287-2"
     style="stroke:#000000;stroke-opacity:1;fill:#0000ff;fill-opacity:1"
     sodipodi:nodetypes="ccccccccc" />
</svg>
