<?xml version="1.0" encoding="UTF-8" standalone="no"?>
<svg
   viewBox="0 0 1072.1 1338.5"
   version="1.1"
   id="svg10"
   sodipodi:docname="witch.svg"
   inkscape:version="1.2.2 (b0a8486541, 2022-12-01)"
   xmlns:inkscape="http://www.inkscape.org/namespaces/inkscape"
   xmlns:sodipodi="http://sodipodi.sourceforge.net/DTD/sodipodi-0.dtd"
   xmlns="http://www.w3.org/2000/svg"
   xmlns:svg="http://www.w3.org/2000/svg">
  <defs
     id="defs14" />
  <sodipodi:namedview
     id="namedview12"
     pagecolor="#ffffff"
     bordercolor="#000000"
     borderopacity="0.25"
     inkscape:showpageshadow="2"
     inkscape:pageopacity="0.0"
     inkscape:pagecheckerboard="0"
     inkscape:deskcolor="#d1d1d1"
     showgrid="false"
     inkscape:zoom="1.3926037"
     inkscape:cx="536.40531"
     inkscape:cy="669.25"
     inkscape:window-width="3840"
     inkscape:window-height="2088"
     inkscape:window-x="0"
     inkscape:window-y="0"
     inkscape:window-maximized="1"
     inkscape:current-layer="svg10" />
  <g
     transform="matrix(1.1334443,0,0,1.2029603,5350.6845,6081.9533)"
     id="g8">
    <path
       id="path2"
       d="m -4502.1886,-5011.5687 c -1.1902,-0.3706 -6.0821,5.5016 -7.473,8.9711 -0.5066,1.2638 -1.8309,3.0002 -3.4906,4.5798 l -2.6729,2.5457 -2.1418,6.9174 c -3.6245,11.704 -3.7721,13.91 -1.6572,24.862 2.2594,11.701 2.3062,25.0163 0.164,46.4783 -0.9989,10.0054 -2.3499,17.4958 -4.1245,22.8646 -2.6188,7.922 -5.5136,19.5491 -7.4608,29.9631 -0.5254,2.8098 -1.4374,6.18 -2.0267,7.4878 -0.5893,1.3078 -1.2092,3.4228 -1.3757,4.6997 -0.1665,1.2769 -1.4421,5.0699 -2.8345,8.4301 -3.8602,9.3158 -4.1835,10.341 -4.6948,14.8702 -0.3749,3.322 -2.7611,44.8276 -2.7611,48.0253 0,1.7208 -1.0297,2.2514 -5.1403,2.6534 -6.6675,0.6521 -10.7877,3.6359 -11.5902,8.3934 -0.3663,2.1708 -1.2821,3.0092 -4.3105,3.9409 -6.5968,2.029 -7.8015,5.8999 -7.8745,25.2903 -0.064,17.248 0.7428,22.4275 4.3105,27.6598 2.4749,3.6296 4.2124,7.0133 5.4463,10.6062 1.1971,3.485 2.8504,6.7729 3.728,7.4143 0.3333,0.2434 1.7861,0.885 3.2286,1.4271 1.4425,0.5421 2.6507,1.2065 2.6827,1.476 0.1845,1.537 -0.2491,5.6431 -1.2581,11.9475 -1.3331,8.3307 -2.1213,11.9339 -3.6227,16.5372 -2.3766,7.285 -4.2888,16.5822 -5.4267,26.3821 -0.5566,4.7912 -1.0098,6.7269 -2.3303,9.9428 -2.8417,6.919 -3.8205,16.94 -2.9545,30.274 0.5911,9.1 1.6396,15.0684 3.4318,19.5504 1.7922,4.482 3.2341,10.4769 5.2578,21.8683 0.996,5.6063 2.1212,11.0306 2.5016,12.0529 0.3804,1.0223 0.6928,2.0375 0.6928,2.2568 0,0.5894 -2.1481,2.3878 -5.2407,4.3864 -7.382,4.77 -9.3554,8.129 -9.3554,15.9179 0,2.4489 0.2707,3.629 1.3977,6.0631 0.9976,2.1545 1.5216,4.1602 1.8236,6.9884 0.7038,6.5932 0.8208,6.907 4.5969,12.3514 2.4711,3.5628 2.6211,4.4444 1.3046,7.7276 -1.1526,2.8748 -1.237,8.9717 -0.1762,12.797 1.5077,5.437 -0.4009,17.6914 -4.1123,26.4163 -1.5758,3.704 -2.9529,8.4687 -4.6948,16.2336 -0.7695,3.431 -0.8249,7.207 -0.8249,56.8544 0,29.249 0.102,54.6714 0.2252,56.4896 0.2671,3.9323 -0.2175,4.6921 -3.6937,5.7866 -2.4906,0.7842 -4.066,2.3489 -4.051,4.0412 0,0.622 0.531,2.6872 1.1749,4.5896 1.5022,4.439 1.2898,5.9068 -1.1676,8.036 -2.1216,1.8382 -2.314,3.0032 -0.9252,5.5834 1.6605,3.0852 0.8935,5.0441 -1.8285,4.6655 -1.7307,-0.2408 -2.4777,0.548 -2.1198,2.2446 0.1494,0.708 0.2918,22.5469 0.3158,48.5319 10.702,11.65 -3.8564,174.6643 -18.2628,181.49 v 36.3444 l 1.378,2.5898 c 1.2319,2.3131 1.4774,2.5423 2.2814,2.1344 0.4953,-0.2514 0.9007,-0.7409 0.9007,-1.0892 0,-0.3483 0.1968,-0.634 0.4358,-0.634 0.77,0 1.4222,3.1187 1.7085,8.1682 0.2652,4.6778 0.3489,5.0004 1.6424,6.3985 21.9763,22.5514 19.1046,25.4907 18.701,-6.8684 -1.2023,-2.1767 -2.1117,-4.5497 -2.8639,-6.964 -1.6224,-6.1459 -1.3767,-12.2456 0.1714,-18.3533 0.9191,-2.5596 2.0546,-4.5038 3.4489,-6.2027 0.4149,-8.0892 0.939,-16.7027 1.8994,-26.8349 l 6.7265,-25.075 2.1345,-2.1613 c 2.1187,-2.1472 2.1331,-2.1793 1.9019,-4.6141 -0.1281,-1.3485 -0.5466,-3.7667 -0.9277,-5.3753 -0.8425,-3.5558 -0.4076,-5.5275 1.5127,-6.8733 1.0471,-0.7337 1.2322,-1.0902 0.8886,-1.6988 -1.0655,-1.887 -0.5158,-3.7589 1.8211,-6.2051 2.6892,-2.8148 3.0549,-4.1797 2.3596,-8.7875 -0.5471,-3.627 -0.7914,-47.3328 -0.2717,-48.6151 0.1641,-0.4049 1.3152,-1.3542 2.558,-2.11 3.2423,-1.9719 3.673,-2.992 3.3118,-7.8623 l -0.2986,-4.0168 3.2261,-2.7096 c 4.3113,-3.6228 4.5698,-4.4152 3.5028,-10.6454 l -0.8176,-4.778 1.2092,-5.346 c 1.913,-8.4506 1.6256,-10.4648 -2.0292,-14.1726 -1.2051,-1.2226 -2.3333,-2.7562 -2.5065,-3.4097 -0.1732,-0.6535 -0.048,-3.1048 0.2791,-5.4463 l 0.5948,-4.2567 -1.7404,-3.1405 -1.7404,-3.1404 0.1787,-18.8087 c 0.098,-10.344 0.1836,-19.9898 0.1836,-21.4327 0.01,-2.2231 -0.2646,-3.1124 -1.7771,-5.8355 l -1.7844,-3.2139 0.1101,-32.8589 c 0.061,-18.0704 0.2152,-32.9541 0.3427,-33.0742 0.1275,-0.1201 0.8808,-0.2179 1.6743,-0.2179 1.8296,0 2.1213,-1.2255 0.7857,-3.302 -1.0484,-1.6303 -1.2344,-3.9361 -0.3696,-4.5921 0.3137,-0.2379 1.7856,-0.5229 3.2703,-0.6339 2.3201,-0.1741 2.8819,-0.3959 3.9923,-1.5739 1.0739,-1.1394 1.2952,-1.7512 1.2802,-3.6325 -0.013,-2.9525 -1.0373,-4.9396 -4.7389,-9.1816 -3.2785,-3.7569 -4.2016,-5.7755 -3.7304,-8.156 0.4286,-2.166 2.1157,-3.302 4.9029,-3.302 1.9628,0 2.2828,-0.1292 2.668,-1.0893 0.3039,-0.758 0.2332,-1.9121 -0.2325,-3.7842 -0.4886,-1.964 -0.6756,-5.453 -0.6756,-12.8949 -0.01,-8.564 -0.1262,-10.4289 -0.7515,-11.6171 -0.6893,-1.3097 -0.6893,-1.7352 0,-5.6691 0.4097,-2.3369 0.7442,-5.0511 0.7442,-6.0288 0,-0.9777 0.2074,-2.1424 0.4601,-2.5898 0.364,-0.645 2.4648,-13.5422 4.335,-26.6072 l 0.2522,-1.7526 7.6248,-0.5141 c 10.76,-0.7257 19.0718,-2.3488 23.9049,-4.6703 1.996,-0.9586 2.6685,-1.0734 4.9053,-0.8273 2.1275,0.234 2.872,0.13 4.1588,-0.5777 2.005,-1.103 7.5579,-2.21 20.9529,-4.1784 5.8952,-0.8663 12.8751,-2.0329 15.5091,-2.5922 6.131,-1.3018 9.6187,-1.6697 28.5067,-3.0083 184.7168,-18.5724 217.6024,-159.1538 286.7808,-106.9994 32.4092,16.52 43.7282,78.5074 -4.4158,119.1184 -13.1678,11.8357 -16.2653,14.487 -17.4232,14.9044 -2.113,0.762 -11.3117,7.1879 -24.1301,16.8603 -7.2644,5.4804 -14.4243,10.6854 -15.913,11.5657 -1.4887,0.8803 -4.2603,3.0912 -6.1586,4.9127 -1.8983,1.8215 -4.6083,3.9948 -6.0239,4.8294 -2.6012,1.5332 -3.7124,2.66 -6.4254,6.5258 -1.0101,1.4393 -2.4208,2.657 -4.3595,3.7646 -5.252,3 -19.0535,15.203 -20.9627,18.5346 -0.5574,0.9724 -1.9392,2.1335 -3.8675,3.2432 -1.6506,0.9513 -4.426,2.9316 -6.1659,4.4011 -6.403,5.409 -17.4526,18.1387 -17.4526,20.106 0,0.4684 -1.0987,1.9549 -2.4429,3.3045 -72.9684,75.3884 -65.5172,170.3592 75.4696,190.9212 1.6142,-0.2224 1.6593,-0.1896 2.6852,2.0684 2.7098,5.965 4.714,14.828 5.3019,23.4472 0.5063,7.4215 -0.4374,10.0672 -4.1881,11.7542 -1.9866,0.8934 -8.5815,7.1324 -10.0481,9.5047 -1.3688,2.214 -3.0657,2.9547 -6.1317,2.6754 -1.6479,-0.1501 -2.9615,-0.6478 -4.6801,-1.7698 -3.8018,-2.4821 -5.8442,-3.0369 -11.2647,-3.0719 -4.2392,-0.027 -5.0489,0.093 -7.0495,1.0501 -1.6501,0.7891 -2.3745,1.4299 -2.6803,2.3768 -0.5456,1.6897 -2.7918,4.4573 -6.68,8.2269 -2.6236,2.5436 -3.715,3.259 -6.7045,4.3962 -1.9637,0.7469 -5.3136,2.0504 -7.4461,2.8982 -4.4736,1.7785 -5.7425,1.8858 -8.2098,0.6927 -0.9835,-0.4756 -2.1757,-0.8641 -2.6485,-0.8641 -0.4728,0 -1.2323,0.3885 -1.6865,0.8641 -1.0651,1.1158 -1.5572,1.0909 -4.149,-0.2154 -1.6821,-0.8477 -2.8119,-1.0819 -5.2455,-1.0819 -1.7065,0 -4.2951,-0.2961 -5.7499,-0.6585 -5.7985,-1.4446 -6.4684,-8.7697 -8.2391,-8.129 -1.8316,0.662 -16.0141,-24.1166 -9.3456,20.7424 0.7765,5.2257 9.0668,10.5389 10.2488,12.2486 1.182,1.7097 2.3258,1.4541 14.0428,4.1123 13.957,3.1664 20.8649,4.903 23.7508,5.9774 1.8097,0.6737 4.6982,1.2696 7.5415,1.5519 2.536,0.2516 9.7885,1.5406 16.1162,2.8639 13.9274,2.913 16.2524,3.1664 19.8734,2.1687 6.3352,-1.7457 12.1427,-5.4138 14.3415,-9.0567 1.9358,-3.2074 7.1336,-8.379 10.124,-10.075 3.0209,-1.7133 6.3822,-2.5616 12.7749,-3.2188 5.6352,-0.5793 9.2583,-0.096 10.7139,1.427 1.0604,1.11 -2.2926,16.9869 -3.2188,23.2147 -1.0918,7.3423 0.1789,3.8881 8.1755,7.4779 4.4826,2.0124 5.9466,4.0521 8.7361,2.8125 11.8767,-5.43 12.8817,-28.1757 16.5763,-39.4777 0,-0.51 0.8479,-2.6024 1.8848,-4.6507 1.7878,-3.5315 1.8977,-3.9759 2.1026,-8.5819 0.2142,-4.8149 0.2022,-4.8792 -1.2508,-7.451 -2.2906,-4.054 -2.6391,-5.3318 -4.1245,-15.0734 -1.9577,-12.839 -3.6139,-18.6482 -6.6481,-23.3223 -2.1401,-3.2969 -3.772,-7.308 -4.1221,-10.1314 -0.1553,-1.2511 -0.1642,-2.2739 -0.017,-2.2739 0.1456,0 0.9622,0.3878 1.8138,0.864 0.9446,0.5283 3.7551,1.1975 7.2087,1.7135 54.4454,-13.8141 33.1977,39.6226 93.4681,1.0452 4.101,-1.0755 15.4119,-1.0996 17.8565,-0.047 4.0725,1.764 8.4717,8.6917 10.873,17.1198 1.5211,5.3367 1.866,6.125 3.5199,8.0091 2.536,2.889 4.7864,8.9993 8.315,22.5757 l 1.4736,5.6666 -2.4722,4.7095 c -3.0223,5.7593 -3.7269,8.0832 -3.4269,11.3136 0.2965,3.192 0.018,3.8357 -2.1639,4.9959 -2.1394,1.1375 -2.937,2.4663 -2.952,4.8809 -0.01,1.9337 1.1967,3.8113 2.7415,4.2762 1.2825,0.3857 1.1187,1.2895 -0.6192,3.449 -0.8357,1.0375 -2.1937,3.4087 -3.0182,5.27 -4.1502,9.3727 -4.5969,9.8406 -10.0015,10.4838 -4.6096,0.5486 -7.8671,2.1173 -11.179,5.3876 -2.9257,2.8867 -3.1072,3.1799 -7.5832,12.1091 -2.5459,5.079 -3.1238,5.882 -6.5258,9.0788 -2.6557,2.4936 -4.917,4.1268 -7.8377,5.6519 -2.2579,1.1791 -5.5213,3.0068 -7.2503,4.0608 -4.108,2.5045 -18.5471,6.9835 -22.5122,6.9835 -2.0664,0 -2.9314,0.2331 -4.3839,1.1872 -1.7237,1.133 -2.0658,1.1896 -7.172,1.1896 -4.9602,0 -5.446,-0.073 -6.4743,-0.9889 -1.32,-1.1759 -14.5713,-9.2391 -15.8959,-8.5672 -2.0141,1.022 1.6492,10.2612 0.8127,16.6228 -0.1727,1.314 2.3018,5.8251 1.4271,6.8684 -1.4526,1.7327 0.2352,3.5488 1.0378,6.2884 1.013,3.4589 3.752,5.2606 13.6659,8.9857 2.6207,0.9847 5.5571,2.1727 6.5258,2.6412 0.9687,0.4685 2.6141,1.011 3.6569,1.2067 v 0.01 c 35.6019,5.909 72.6031,-21.2368 107.489,-29.5519 1.1289,-0.8825 5.4771,-1.6847 6.4107,-2.2226 2.7584,-1.589 1.228,-7.6796 3.116,-11.9231 3.3813,-7.5984 5.3449,-14.1329 10.8363,-16.7109 4.2475,-1.995 8.7619,2.2007 6.6261,10.2096 -1.7279,6.4789 -2.8931,13.2841 -1.3291,13.6561 3.425,0.8148 12.804,-1.3957 18.6226,-5.6396 4.0935,-2.985 2.5316,-17.2194 4.0364,-20.2088 2.2053,-4.382 3.3369,-10.628 3.3779,-18.6594 0.043,-8.2319 -0.6859,-11.5977 -3.3657,-15.5653 -0.9636,-1.4265 -3.3194,-6.3877 -5.2358,-11.0248 -1.9164,-4.6371 -4.2908,-9.8355 -5.2749,-11.551 -0.9841,-1.7155 -2.0933,-4.3685 -2.4674,-5.8967 -0.3741,-1.5282 -1.3778,-4.5023 -2.2299,-6.609 -0.8521,-2.1067 -1.691,-4.7066 -1.8652,-5.7767 -0.9435,-5.797 -1.7947,-8.5562 -3.6521,-11.8423 -3.3842,-5.9851 -4.9689,-12.5565 -3.4489,-14.2926 0.4838,-0.5527 1.0746,-0.6942 2.1834,-0.5238 2.1841,0.3361 6.6103,2.3336 7.4388,3.3559 0.3888,0.4796 2.3376,1.5118 4.3326,2.2936 1.995,0.7818 8.6552,3.7123 14.8016,6.5135 39.0749,5.473 -5.9898,-43.533 -19.1538,-59.006 -0.5682,-1.0701 -3.6163,-5.3504 -6.773,-9.512 -6.637,-8.751 -9.2425,-12.4296 -11.7958,-16.6473 -1.0079,-1.6646 -2.7834,-4.4853 -3.9458,-6.2687 -1.1624,-1.7834 -2.536,-4.5626 -3.0523,-6.1758 -1.2338,-3.856 -2.9156,-7.4961 -9.2306,-19.9811 -2.8868,-5.7069 -6.0908,-12.2942 -7.1181,-14.6352 -2.1973,-5.007 -2.9785,-6.0059 -10.6576,-13.6292 -3.2031,-3.1796 -5.9509,-6.2578 -6.1047,-6.8391 -0.2045,-0.7718 0.029,-1.3698 0.8616,-2.2177 4.8143,-4.9013 4.9139,-9.7269 0.2276,-10.9146 -2.3367,-0.5923 -3.0793,-1.1163 -3.0793,-2.1736 0,-0.4383 -0.6117,-1.458 -1.3609,-2.2666 -1.699,-1.8343 -4.5188,-2.6576 -7.686,-2.2446 -2.004,0.2611 -2.3437,0.19 -2.7758,-0.5753 -0.2708,-0.4796 -0.5018,-1.4184 -0.5018,-2.0879 -0.015,-1.7696 -1.4222,-4.4375 -4.0608,-7.7007 -1.5223,-1.8827 -2.3156,-3.2842 -2.3156,-4.0853 0,-1.524 3.1555,-4.9705 16.4735,-17.9985 55.5305,-54.3234 61.5397,-60.4249 64.6431,-65.6223 0.7323,-1.2262 3.4717,-4.7587 6.0901,-7.85 5.8155,-6.8664 9.1829,-11.4475 11.7566,-15.9986 1.0759,-1.9024 2.4438,-3.8471 3.0402,-4.3228 0.5964,-0.4757 2.4285,-3.6848 4.0731,-7.1328 1.6446,-3.448 3.47,-6.756 4.0559,-7.3506 1.178,-1.195 10.4485,-22.7849 12.2633,-28.5581 2.0609,-6.557 2.3426,-9.3172 2.3426,-22.6762 0,-15.124 -0.9862,-24.3789 -3.4318,-32.2592 -0.4875,-1.5713 -0.8861,-3.3829 -0.8861,-4.0265 0,-0.6436 -0.5244,-2.2581 -1.1652,-3.586 -0.6408,-1.3279 -1.9617,-5.5459 -2.9348,-9.375 -2.866,-11.276 -4.5216,-15.4063 -12.9267,-32.2543 -5.7706,-11.5654 -9.1747,-17.8147 -10.7163,-19.6727 -0.5471,-0.6592 -0.9938,-1.5682 -0.9938,-2.0194 0,-1.4535 -1.2237,-3.6618 -5.275,-9.5292 -2.1822,-3.1605 -4.6176,-6.9152 -5.412,-8.342 -0.7944,-1.4268 -3.5078,-5.0267 -6.0313,-7.9993 -4.2893,-5.052 -6.0901,-7.5896 -6.0901,-8.5917 -32.8825,-49.7054 -46.7948,-56.8356 -43.1615,-86.4626 5.04,-41.0554 -10.5298,-124.5642 -114.4382,-102.7402 -27.4505,5.567 -47.7239,29.1535 -73.5579,36.9319 -5.633,2.4037 -14.3172,5.2162 -16.1088,5.2162 -1.1899,0 -1.2152,-0.05 -0.8249,-1.6963 0.44,-1.856 4.6479,-14.0186 6.5184,-18.8405 1.0452,-2.6964 1.1697,-3.6728 1.1847,-8.9466 0.01,-3.2557 0.197,-6.0293 0.426,-6.1634 0.639,-0.375 0.907,-2.7178 1.4148,-12.3466 -32.331,-73.0724 34.8419,-109.4127 91.2798,-152.6797 4.9654,-2.043 8.5795,-2.9314 14.0722,-3.4611 2.8473,-0.2745 4.869,-0.7135 5.8771,-1.2753 1.13,-0.6296 2.6384,-0.9083 5.7009,-1.0452 3.0065,-0.135 5.2445,-0.5344 8.0433,-1.4418 2.1325,-0.6914 4.5308,-1.3907 5.3288,-1.5543 0.798,-0.1636 1.7138,-0.6006 2.0366,-0.9693 1.0022,-1.1446 -0.8776,-2.1301 -4.6288,-2.4282 -2.3696,-0.1883 -3.8336,-0.5786 -5.3606,-1.427 -1.8035,-1.0018 -2.8521,-1.2165 -7.38,-1.5103 -2.9025,-0.1884 -5.9952,-0.5538 -6.8733,-0.8127 -26.472,-6.086 -69.1827,28.6052 -100.3807,30.3279 -66.8874,3.694 -92.0855,56.8574 -120.839,93.2674 -15.5137,13.5766 -19.2174,16.4759 -21.0631,16.4759 -63.3754,-25.1884 -74.8403,-183.811 -74.6032,-41.3526 0.368,15.652 8.7752,39.8585 23.8462,56.0515 2.0697,3.839 -34.7624,37.7006 1.1505,46.444 7.5102,-4.1361 7.9339,-3.6487 7.8989,9.0763 -0.034,12.3979 -0.6715,14.6334 -4.3766,15.3476 -1.1417,0.22 -1.6898,0.6685 -2.2911,1.8725 -9.22,15.95 -26.6348,-7.5963 -24.556,27.1727 1.1457,1.4888 1.8529,4.0228 1.8529,6.6653 0.01,4.5109 2.6814,6.9386 7.5808,6.8856 3.865,-16.6696 9.4477,-6.2842 14.6083,-9.6859 l 1.8897,-1.312 4.335,4.3203 c 2.3824,2.3765 5.1195,5.4416 6.0802,6.8122 2.7541,3.928 2.6257,4.4144 -4.0902,15.4234 -1.1477,1.8811 -2.221,4.2634 -2.3841,5.2945 -19.5096,23.9976 -7.9009,43.1071 6.4841,25.9097 7.9549,-9.5117 24.4048,-7.1019 42.1408,-13.9254 11.1269,2.6983 12.7578,4.149 12.7578,11.3846 0,4.2142 -0.505,5.0864 -3.8406,6.6016 -1.5225,0.693 -10.5731,8.052 -15.465,11.0688 -14.624,9.0122 -38.1162,15.2158 -60.4942,9.7079 -3.375,-1.4965 -11.5873,-4.4627 -18.2456,-6.5919 -31.4,-10.0374 -31.6709,-10.1363 -42.0209,-15.0513 -11.627,-5.521 -26.0373,-14.0934 -30.9668,-18.4195 -1.5497,-1.3598 -2.969,-3.0716 -3.4073,-4.1098 -0.4765,-1.129 -2.6374,-3.6182 -5.904,-6.8048 l -5.1501,-5.0253 0.3819,-4.9738 c 0.2104,-2.735 0.916,-10.6127 1.5665,-17.5089 1.772,-18.784 1.0262,-23.1185 -5.4046,-31.493 l -1.9387,-2.5237 0.1224,-13.0417 c 0.1012,-10.8611 0.01,-13.2209 -0.5507,-14.1212 -1.4682,-2.361 -1.6324,-3.3395 -1.6474,-9.4508 -0.017,-12.368 1.7666,-21.2377 7.1181,-35.4021 4.8758,-12.907 6.6413,-16.6012 12.9879,-27.1752 8.3394,-13.895 10.4769,-19.0003 11.4188,-27.2559 0.7151,-6.2683 0.3602,-10.7361 -0.957,-12.0651 -0.8139,-0.8214 -1.1005,-1.9637 -1.6205,-6.4376 -0.3478,-2.9906 -1.2615,-7.9164 -2.0316,-10.9489 -2.8778,-11.331 -2.9049,-21.3543 -0.091,-27.0258 0.7388,-1.4857 4.2032,-6.2999 7.7007,-10.6992 3.4975,-4.3993 6.8118,-8.8889 7.3654,-9.9747 1.6951,-3.3242 1.3658,-4.4076 -2.4943,-8.1853 -1.0934,-1.07 -2.6643,-3.2111 -3.4905,-4.7561 -0.8262,-1.545 -4.57,-6.8901 -8.3176,-11.8765 -3.7476,-4.9864 -7.5433,-10.4206 -8.435,-12.0773 -0.8912,-1.6559 -1.846,-3.0801 -2.1222,-3.1675 z m -28.2717,338.9967 c 0.5713,-0.5359 4.0059,2.1952 12.0601,9.5903 l 8.1682,7.5 c 40.323,27.804 24.8431,18.9467 75.0315,41.5607 15.088,7.195 31.6174,11.7588 37.7104,14.6891 8.147,3.9182 23.4183,6.3239 31.4049,4.9494 3.302,-0.5683 8.4895,-2.8264 21.9565,-9.5635 15.7708,-7.8898 20.8868,-10.2261 21.7264,-9.9208 0.3339,0.1215 0.7555,1.0608 0.935,2.088 0.1795,1.0272 1.2255,3.4908 2.3254,5.4756 2.8371,5.119 2.7222,6.6664 -0.7686,10.2929 -0.9501,0.9871 -2.1832,2.6397 -2.739,3.6741 -1.6648,3.0983 -3.1255,4.6174 -6.6824,6.9492 -1.8609,1.2194 -3.9868,3.0456 -4.7218,4.0584 -1.5724,2.1661 -3.1564,3.3011 -5.6666,4.0584 -2.4866,0.7501 -5.3189,2.779 -9.1498,6.5552 -3.31,3.2644 -6.0865,6.7856 -9.0396,11.4727 -2.1196,3.3642 -3.4716,4.4411 -8.2587,6.5673 -4.845,2.1522 -7.6156,3.8997 -15.0367,9.49 -3.2747,2.4668 -6.8778,4.8774 -8.0067,5.3582 -1.1289,0.4808 -3.743,1.835 -5.8085,3.0083 -5.254,2.9847 -10.3808,5.1853 -16.8431,7.2283 -6.7018,2.1185 -8.8049,2.5868 -13.8152,3.0842 -2.7759,0.2757 -4.2259,0.6457 -5.1869,1.3193 -1.1212,0.7856 -2.4725,1.0262 -8.4619,1.5176 -3.9206,0.3213 -10.1041,1.0862 -13.7418,1.6988 -8.155,1.3734 -22.3017,1.8887 -25.3148,0.9228 -4.856,-1.556 -12.3426,-6.7883 -24.8596,-17.3743 -10.2863,-8.6989 -10.8865,-9.0307 -17.5089,-9.7225 -6.105,-0.6377 -8.7349,-1.2274 -10.1729,-2.2789 -2.6143,-1.9119 -2.9322,-2.7801 -4.2298,-11.551 -2.7616,-18.664 -3.3255,-28.1213 -2.0928,-35.0203 0.7817,-4.374 1.3317,-12.0431 2.531,-35.2381 1.0714,-20.7204 1.2523,-23.0187 2.0879,-26.3747 0.3552,-1.4267 0.9244,-5.5645 1.2631,-9.1938 0.3386,-3.6281 0.7457,-6.7176 0.9057,-6.8709 z" />
    <path
       id="path4"
       d="m -4285.8057,-4080.4784 c -5.431,0.09 -10.8856,0.2383 -16.2434,1.2778 -5.89,1.3033 -11.3441,3.7216 -17.0634,5.62 -7.513,2.5617 -14.0002,7.0942 -20.3238,12.0259 -7.527,5.143 -14.8915,10.5959 -21.6432,16.8431 -4.937,4.5459 -9.6396,9.4256 -15.6951,12.3295 -0.315,0.1474 -0.2409,0.082 -0.5116,0.2031 0.5613,0.8059 1.1152,1.6173 1.662,2.4331 1.6199,0.043 1.3926,3e-4 4.5308,0.1713 1.0851,0.059 -2.1717,-0.028 -3.2579,-0.049 -0.5709,-0.011 -0.7845,-0.025 -1.2141,-0.034 0.4701,0.7022 0.9373,1.4068 1.4001,2.1149 2.1409,-0.1135 4.2803,-0.1133 6.4229,-0.3231 0.5794,-0.057 5.1919,-2.4282 5.7768,-2.7219 6.0403,-3.115 10.6673,-8.2028 15.6755,-12.7798 6.715,-6.158 13.963,-11.6388 21.489,-16.6277 6.251,-5.0607 12.8482,-9.3693 20.4707,-11.5707 5.662,-2.0923 11.1173,-4.3399 17.0536,-5.4683 5.2007,-0.8418 10.4681,-0.9286 15.7196,-0.9791 h 0.056 l 2.8418,0.01 c 5.425,0.5077 10.7662,1.6237 16.192,2.1492 5.722,0.9352 11.3992,2.0634 17.1638,2.6827 5.1,0.06 10.0494,4.3219 15.0024,5.4977 6.823,1.4383 13.4595,1.7238 19.9004,3.2433 5.988,2.0493 11.4615,5.2604 16.6326,9.0005 3.9768,3.4748 7.9066,6.8589 10.3883,11.7076 2.513,4.2195 4.8186,8.5193 6.8024,13.0491 2.7045,5.5113 6.4848,10.3482 10.4642,14.8775 4.692,5.13 34.6633,40.3723 41.1103,41.0712 12.991,0.581 26.2402,1.3337 39.0052,-1.6645 5.721,-2.0755 15.3043,0.1352 19.8612,-3.8871 4.404,-4.7623 18.4057,-8.5562 24.5071,-9.6393 6.601,-0.7058 11.0933,-5.6769 17.5285,-7.5391 9.6685,-1.0275 6.1725,-2.431 12.1654,-4.3986 3.3857,-1.1724 8.7276,-1.0234 13.098,-1.7013 -0.018,-0.011 -0.036,-0.023 -0.054,-0.034 -0.5502,-0.3603 0.4908,-2.3757 0.984,-3.2066 0.1796,-1.1961 0.2842,-2.4123 0.4969,-3.5933 -0.2797,0.078 -0.6389,0.119 -0.8984,0.2056 -5.396,1.7579 -16.8144,-5.7312 -21.8977,-3.0818 -4.2745,2.3714 -3.7,9.9398 -8.3053,11.5609 -5.889,2.1659 -14.0617,6.0062 -20.0766,7.823 -8.412,3.839 -13.7733,8.6033 -20.319,9.5782 -6.1559,1.4051 -8.085,-1.9061 -12.5986,2.8198 -4.0619,3.5336 -11.7911,1.8587 -17.4771,2.7342 2.5713,0.9448 -7.9134,1.1979 -11.3577,1.7109 -4.626,-4.0443 -11.2733,-3.2187 -16.0182,-7.9577 -3.986,-4.309 -28.4152,-39.3326 -31.2164,-44.5885 -1.9386,-4.578 -3.9792,-11.2616 -6.6212,-15.4283 -2.4456,-5.1977 -3.7129,-6.2636 -7.8451,-9.9845 -5.136,-3.9008 -17.5308,-9.2493 -23.5916,-11.2793 -6.4,-2.9121 -13.0754,-5.1775 -19.9004,-6.6775 -4.925,-1.3389 -9.8971,-2.5218 -15.0048,-2.5408 -5.782,-0.5236 -11.4953,-1.4877 -17.1834,-2.6975 -5.447,-0.4335 -10.8159,-1.3879 -16.2091,-2.2764 -10.624,-0.025 -21.247,-0.073 -31.87,-0.01 z m -319.9946,27.814 c -0.4874,3.3401 -2.8314,6.0101 -6.4572,7.358 2.8086,2.8891 5.1682,6.3737 7.6199,9.7813 3.9469,5.354 7.9566,10.5414 12.4763,15.3647 3.8733,3.9501 8.5536,6.6058 13.5533,8.4374 -0.2637,-0.7347 -0.5559,-1.4574 -0.7882,-2.203 -0.9717,-3.6806 -1.2628,-7.3457 -1.0158,-11.0051 -3.3095,-3.723 -6.5036,-7.5301 -9.4655,-11.6147 -4.5675,-6.3255 -8.6906,-13.1424 -15.9228,-16.1186 z m -11.6049,3.1968 c -0.1034,0.026 -0.2041,0.063 -0.3059,0.095 0.026,0.014 0.057,0.022 0.083,0.037 0.074,-0.044 0.1617,-0.064 0.2227,-0.1322 z m 815.1517,9.2771 c -0.024,0.011 -0.047,0.021 -0.071,0.032 0.031,-0.01 0.062,-0.016 0.093,-0.024 -0.01,0 -0.017,-0.01 -0.022,-0.01 z m -849.8904,1.8505 c -0.287,0.027 -0.5747,0.044 -0.8616,0.071 0.01,0.1142 0.015,0.2433 0.02,0.3647 0.2739,-0.1412 0.5702,-0.2959 0.842,-0.4357 z m 706.1818,23.0702 c -0.1126,0.021 -0.3643,0.045 -0.4774,0.066 0.1376,0.1946 0.2292,0.4078 0.2717,0.6291 0.04,-0.012 0.08,-0.024 0.12,-0.037 0.054,-0.2218 0.02,-0.4363 0.086,-0.6585 z m -614.6695,2.5677 c 0.5289,0.5411 1.2923,0.7004 2.3254,0.421 -0.4439,-0.073 -0.8958,-0.064 -1.3389,-0.1444 -0.3333,-0.075 -0.6548,-0.1945 -0.9865,-0.2766 z m 580.9637,1.0746 c -1.2151,0.105 -2.3722,0.2537 -3.5199,0.4063 0,0.1197 -0.025,0.2613 -0.034,0.3892 0.3153,-0.2669 0.6781,-0.4072 1.0452,-0.4136 0.5678,-0.01 1.1393,0.2963 1.5421,0.9154 0.457,0.1117 0.9085,0.1601 1.3854,0.1151 0.2888,0 0.5751,0.01 0.8616,0.024 -0.5821,-0.3549 -1.0814,-0.7943 -1.2801,-1.4368 z m 2.6289,0.9032 c -0.1182,0 -0.2364,0.01 -0.355,0.02 -0.1449,0.01 0.2927,0.01 0.4382,0.02 0.022,-0.017 0.028,-0.02 0.049,-0.037 -0.044,-8e-4 -0.088,0 -0.1321,0 z m -563.4866,0.9351 c -0.1266,-0.1662 -0.079,0.4718 0.064,0.6242 0.2518,0.2687 0.5054,0.5503 0.7588,0.8298 0.026,-4e-4 0.052,3e-4 0.078,0 -0.2785,-0.4994 -0.555,-1.0003 -0.9008,-1.454 z m 594.7911,2.717 c -0.3061,0.043 -0.6128,0.08 -0.9179,0.1297 -0.038,0.021 -0.077,0.039 -0.1151,0.059 -0.01,0.077 -0.023,0.1539 -0.042,0.2301 0.409,0 0.8276,4e-4 1.1431,-0.091 -0.041,-0.1039 -0.03,-0.2231 -0.068,-0.328 z m -38.3639,2.0733 v 0 c -0.01,0.033 -0.013,0.067 -0.02,0.1004 0.01,0 0.015,10e-4 0.022,-0.01 -7e-4,-0.031 0,-0.062 0,-0.093 z m -114.6683,24.8081 c -1.3349,-0.1379 -0.3328,2.928 1.0012,2.7807 4.1976,-0.4634 3.0371,-0.3205 7.0496,-1.1211 0.5161,-0.1475 1.1638,-0.131 1.7281,-0.2178 -0.9868,-0.3626 -3.7321,-0.8171 -9.7789,-1.4418 z" />
    <path
       id="path6"
       d="m -4226.4081,-5156.8316 c -0.079,0.085 -0.1204,0.1896 -0.2056,0.2717 -0.035,0.034 -0.079,0.048 -0.1151,0.081 1.477,0 2.9536,-0.025 4.4305,-0.027 -1.37,-0.1076 -2.7398,-0.2181 -4.1098,-0.3256 z m -462.9101,238.2831 c -0.097,0.1541 -0.1932,0.308 -0.2937,0.4578 0.1567,0.134 0.3631,0.3022 0.5189,0.4357 -0.075,-0.2978 -0.1516,-0.5956 -0.2252,-0.8935 z m 36.0067,8.7581 c -0.066,0.1096 -0.1326,0.2185 -0.1983,0.328 0.086,-0.095 0.1714,-0.1892 0.257,-0.2839 -0.021,-0.016 -0.037,-0.028 -0.059,-0.044 z m -8.4864,952.1436 c 0.3168,0.8911 0.6149,1.7669 0.9301,2.6754 0.8528,0.8313 1.6937,1.6745 2.5457,2.5065 -1.159,-1.7271 -2.3297,-3.4406 -3.4758,-5.1819 z" />
  </g>
</svg>
