<?xml version="1.0" encoding="UTF-8" standalone="no"?>
<svg
   enable-background="new 99.0848 24.1608 1361.9153 1871.4348"
   version="1.1"
   viewBox="99.085 24.161 1361.9 1871.4"
   id="svg627"
   sodipodi:docname="wizard.svg"
   inkscape:version="1.2.2 (b0a8486541, 2022-12-01)"
   xmlns:inkscape="http://www.inkscape.org/namespaces/inkscape"
   xmlns:sodipodi="http://sodipodi.sourceforge.net/DTD/sodipodi-0.dtd"
   xmlns="http://www.w3.org/2000/svg"
   xmlns:svg="http://www.w3.org/2000/svg">
  <defs
     id="defs631" />
  <sodipodi:namedview
     id="namedview629"
     pagecolor="#ffffff"
     bordercolor="#000000"
     borderopacity="0.25"
     inkscape:showpageshadow="2"
     inkscape:pageopacity="0.0"
     inkscape:pagecheckerboard="0"
     inkscape:deskcolor="#d1d1d1"
     showgrid="false"
     inkscape:zoom="0.99604573"
     inkscape:cx="680.69164"
     inkscape:cy="935.70001"
     inkscape:window-width="3840"
     inkscape:window-height="2088"
     inkscape:window-x="0"
     inkscape:window-y="0"
     inkscape:window-maximized="1"
     inkscape:current-layer="svg627" />
  <path
     id="path621"
     d="m 701.73797,66.194203 c 1.3725,0.145 2.68516,0.856176 3.41016,2.076172 3.48,4.94998 5.97048,10.539704 9.55078,15.429688 2.17,3.279984 2.76039,7.509855 5.65039,10.339843 2.39,2.359992 3.28,5.910242 6.25,7.740234 3.94,2.72 4.44039,7.99113 7.90039,11.12109 2.05,1.92 4.74863,3.51844 5.55859,6.39844 0.73,1.72 0.5209,3.85977 1.88086,5.25977 1.94,2.08 3.95063,4.25156 4.64063,7.10156 1.4,5.35996 4.91836,9.70918 8.06836,14.11914 4.61996,5.66996 8.95086,11.72949 11.38086,18.68945 1.64,4.79 4.00031,9.2711 6.07031,13.8711 3.13,5.05996 6.86027,9.72969 10.49023,14.42969 3.61,7.26996 8.44032,13.88 11.82032,21.25 4.39996,4.03996 7.71859,8.99039 11.05859,13.90039 2.62,3.08996 3.40149,7.18058 5.52149,10.56054 2.20006,3.6 1.97812,8.67871 5.82812,11.13867 4.36,3.44 7.01102,8.76098 7.79102,14.21094 3.16996,2.1 5.82963,4.84922 8.01953,7.94922 6.12996,7.25996 11.65097,14.99004 17.46093,22.5 4.74,8.21996 9.02954,16.73051 14.51954,24.48047 2.66996,5.96996 6.53941,11.26961 10.60937,16.34961 4.86,6.54996 8.50141,13.99043 14.19141,19.90039 5.23996,7.06996 11.79941,13.11988 16.10937,20.83984 4.23,5.79 8.18055,11.79051 12.56055,17.48047 4.04,4.37 7.5891,9.15996 10.78906,14.16992 3.14,6.28 6.45082,12.61934 11.30078,17.7793 3.9,4.42 4.48938,10.57035 7.35938,15.57031 1.67,2.73 1.74961,6.0509 3.09961,8.88086 3.71996,5.25 4.28953,11.93946 7.51953,17.43946 1.85,2.98996 2.45117,6.6089 4.70117,9.3789 3.15,3.67 4.36957,8.7 8.26953,11.75 4.62,3.59 4.17063,9.8716 6.14063,14.85156 1.42,4.65 3.96031,9.44973 2.57031,14.42969 -1.12,6.52 -6.87008,11.22875 -13.08008,12.71875 -1.67,2.14 -3.19055,4.4116 -4.81055,6.60156 3.8699,3.3 6.63032,7.90985 6.82032,13.08985 -0.03,7.43996 1.08898,15.73863 -3.79102,22.05859 7.91996,2.96 12.34102,10.56149 15.29102,18.02149 3.40996,4.54996 5.4498,9.87906 8.25976,14.78906 3.34,5.33996 4.56977,11.61922 6.75977,17.44922 2.16,5.65996 1.11937,11.79144 1.35937,17.6914 0.27,3.83 -0.76875,7.55938 -0.96875,11.35938 5.03999,1.07 10.70899,1.97016 14.20899,6.16016 3.2001,3.07006 4.6305,7.40925 7.5605,10.69921 3.72,-1.13 7.5308,-1.90011 11.3008,-2.83007 7.8,-1.66 15.639,0.43 23.459,0.5 4.46,-4.64 9.0601,-9.2986 12.0801,-15.0586 2.36,-4.44996 6.3394,-7.72058 9.1894,-11.81054 2.26,-4.77 5.6209,-8.93938 9.3809,-12.60938 2.81,-2.8299 6.9691,-3.19977 10.5391,-4.50977 5.01,-1.88996 10.4109,-0.93125 15.6308,-1.28125 3.27,-3.22996 5.2303,-7.35898 6.4903,-11.70898 4.6299,-8.87996 10.8288,-16.85004 17.5488,-24.25 5.0499,-6.83996 9.9505,-14.21035 17.4804,-18.57031 4.91,-2.59 8.9707,-6.48055 13.8907,-9.06055 3.8699,-1.97 6.4697,-5.53988 9.6797,-8.33984 4.2599,-3.35 9.5504,-4.96004 14.1504,-7.75 4.3399,-2.94 8.4286,-6.32946 11.3886,-10.68946 4.63,-5.90996 12.88,-6.17101 19.6699,-5.04101 2.89,-4.36 2.7503,-9.81949 4.9903,-14.43945 0.8499,-1.81 1.5098,-3.68985 2.0898,-5.58985 -4.74,-4.00996 -9.9886,-8.03043 -12.0586,-14.15039 -2.17,-5.08996 -1.6199,-10.68035 -1.6699,-16.07031 -0.07,-3.53 0.8797,-6.96016 1.4297,-10.41016 1.47,-4.03996 -2.0308,-7.37922 -3.3008,-10.94922 -2.74,-7.47996 -4.9695,-15.5391 -3.5195,-23.53906 1.82,-5.70996 6.9694,-10.30148 13.1094,-10.52148 6.15,-0.98 11.7307,3.09019 14.7207,8.16015 2.7299,-3.30996 6.6807,-5.57941 8.4707,-9.60937 2.76,-5.32 1.4584,-11.37102 1.1484,-17.04102 -1.5,-9.19996 -0.5387,-18.58988 -0.9687,-27.83984 -2.11,-6.48 -3.911,-13.03934 -5.961,-19.5293 -1.08,-4.38996 0.061,-9.04961 -1.6094,-13.34961 -1.3599,-3.31996 0.7798,-6.76125 0.2598,-10.03125 -3.02,-2.45 -5.8307,-5.25969 -9.3906,-6.92969 -6.01,-3.84996 -11.579,-8.80011 -14.709,-15.33007 -3.13,-3.38 -4.9608,-7.61891 -7.5508,-11.37891 -3.01,-5.09996 -6.049,-10.16035 -8.459,-15.57031 -2.43,-3.89 -2.3911,-8.61957 -4.1211,-12.76953 -3.18,-7.67 -4.2589,-16.07032 -3.9589,-24.32032 0.17,-5.70996 -0.6499,-11.62066 1.1601,-17.14062 0.93,-3.06 3.7388,-4.98035 5.0488,-7.82031 2.13,-4.29 5.5311,-7.82891 9.3711,-10.62891 2.68,-1.97 4.6886,-4.67141 7.3086,-6.69141 5.52,-3.53996 11.5205,-6.27972 16.9805,-9.92968 3.77,-4.23 6.0908,-10.25985 11.8008,-12.33985 5.5699,-2.43 11.8999,-0.80937 16.9199,2.14063 3.2,2.1 5.2,5.4607 7.75,8.2207 2.49,2.03 5.6596,2.92844 8.3496,4.64844 5.03,3.24996 8.7797,8.12984 14.1797,10.83984 10.54,8.98996 18.9202,21.61 20.2402,35.66992 0.37,2.12 0.461,4.46079 1.711,6.30079 2.11,1.91996 4.6187,3.39937 6.4687,5.60937 5.16,5.43996 7.7006,13.59016 5.6406,20.91016 -1.1299,7.92996 -8.8594,12.17109 -15.1093,15.87109 -2.26,4.34 -5.7714,7.81883 -9.6114,10.79883 1.74,4.78996 1.2005,9.98055 2.7305,14.81055 1.79,5.55996 -0.1292,12.16039 -4.6191,15.90039 -5.16,4.18996 -11.1104,7.34 -17.5703,9 0.08,5.05996 1.9203,9.93953 1.8203,15.01953 0.03,9.81996 -0.03,19.64121 -0.17,29.45117 5.35,0.22 9.8191,3.33867 14.459,5.63867 4.83,2.36 8.6793,6.56039 14.0293,7.90039 5.41,1.6 10.7008,5.38043 12.0508,11.15039 1.66,4.81 -0.07,9.85918 -2.8398,13.86914 5.3999,5.74 5.6595,14.59032 2.0195,21.32032 6.15,1.26996 10.711,7.96941 8.541,14.10937 -0.5,4.8 -4.2299,8.1716 -5.6699,12.60156 2.11,0.14 4.2886,-0.0408 6.3086,0.69922 5.6799,1.6 9.1701,8.51977 6.8301,14.00977 -0.95,2.86996 -3.4902,4.73937 -5.9102,6.35937 0.12,3.75 -0.6489,7.45047 -1.8789,10.98047 -1.36,3.63 -4.5509,6.06125 -6.8809,9.03125 -2.08,2.23 -3.4702,5.17883 -6.1601,6.79883 -5.1,3.25 -10.7302,6.68105 -12.6602,12.79101 6.91,5.31 9.7616,15.5295 5.8516,23.43946 -3.11,4.57996 -6.6615,8.87961 -10.5215,12.84961 -0.38,3.42996 1.6102,6.62105 1.7402,10.04101 0.18,12.59996 -0.099,25.19887 0.1114,37.79883 1.61,9.24996 0.6284,18.66957 0.8984,28.01953 0.02,4.19 0.3102,8.49129 -1.0898,12.53125 -2.13,6.56 0.1996,13.40965 0.1796,20.09961 -0.37,6.91996 3.0307,13.39082 2.8907,20.30078 0.17,6.07 2.4709,11.64938 4.2109,17.35938 0.5,5.27996 2.92,10.27039 2.5,15.65039 -0.5,8.43996 2.0499,16.61926 2.8399,24.94922 0.35,8.01996 -0.55,16.10058 0.83,24.06054 0.37,7.38 2.3388,14.5602 2.9688,21.91016 0.05,7.28996 -0.3288,14.71871 1.2012,21.88867 1.61,3.83 0.7798,8.10024 2.0898,11.99024 1.43,4.58996 1.0993,9.46992 2.0293,14.16992 0.08,21.03992 0.039,42.08094 0.01,63.13086 -0.06,4.47996 2.7213,8.37941 2.8613,12.85937 0.21,6.01 0.01,12.04059 0.08,18.06055 0.12,6.19996 -2.3015,12.40988 -0.7715,18.58984 1.12,5.06 0.6898,10.27016 0.7598,15.41016 0.88,11.01996 3.1617,21.97041 2.7617,33.07029 0.02,4.08 -2.0508,7.8195 -1.8808,11.9395 0.15,3.6799 -2.0396,6.9708 -1.8496,10.6308 2.3,4.22 5.4306,8.3086 5.6406,13.3086 0.19,4.6901 0.01,9.4014 0.039,14.1114 0.11,3.69 -1.3498,7.3496 -0.2598,11.0195 0.49,6.93 0.7688,14.0301 -0.9512,20.8301 1.04,2.92 2.4809,5.6792 3.8809,8.4492 2.95,5.45 2.0791,11.97 4.3691,17.6601 1.26,3.14 1.6114,6.5314 2.1114,9.8614 2.58,11.86 1.0197,24.0596 1.4297,36.0996 -1.34,6.6 -0.9804,13.3389 -0.9004,20.039 1.2999,7.28 2.9002,14.5502 3.7402,21.9102 -0.38,4.91 2.6199,9.1798 2.9199,14.0098 0.3,4.8 -0.3898,9.6499 0.4102,14.4199 0.88,4.48 0.7107,9.1006 0.4707,13.6406 -1.42,6.91 -0.6801,13.9805 -0.8301,20.9805 -0.21,5.74 0.6999,11.6391 -1.1601,17.209 -1.21,2.9801 0.1295,6.1503 -0.4805,9.2304 -0.74,5.18 0.5595,10.3506 0.2695,15.5606 -0.35,7.48 0.751,14.9796 2.791,22.1797 0.9,5.28 1.8389,10.5802 3.3789,15.7402 1.67,5.23 0.5711,10.7391 0.8711,16.1191 -0.04,4.02 0.8589,7.9703 1.0489,11.9903 0.17,3.65 2.1815,6.8895 2.6015,10.5195 0.73,5.32 2.9986,10.2416 4.5586,15.3516 0.9,5.43 0.5511,10.9987 0.041,16.4687 -0.21,2.66 1.3396,5.0008 1.8496,7.5508 0.66,2.58 0.3504,5.2788 0.9004,7.8789 4.06,12.32 6.8501,24.9904 10.5801,37.4004 1.09,5.19 0.4791,10.5405 0.6191,15.8105 -0.19,7.26 0.5199,14.579 -0.58,21.7891 -0.83,4.1 0.8594,8.1313 1.1894,12.2012 0.45,6.14 1.1802,12.3003 2.9102,18.2402 1.3899,4.79 0.7515,9.9202 2.3515,14.6602 1.26,4.09 0.4494,8.4205 1.2793,12.58 1.09,5.96 -0.2101,12.0696 0.9199,18.0196 0.94,4.79 0.2608,9.6793 0.5508,14.5293 1.7,11.26 0.5982,22.6795 0.9082,34.0195 0.43,6.32 -2.6191,12.9402 0.3809,18.9902 2.49,4.31 4.2699,9.051 5.1699,13.961 0.81,7.6 -0.5905,15.35 0.7695,22.9101 1.59,4.77 4.5005,8.9787 6.4004,13.6387 1.53,3.96 2.7897,8.0211 4.1797,12.041 2.17,7.27 1.0901,14.9402 1.3301,22.4102 0.2,6.64 -0.4099,13.3392 0.3301,19.9492 2.27,5.77 2.5002,12.1008 4.9902,17.8008 2.6,6.26 2.8395,13.129 4.1895,19.709 0.6499,4.46 2.2397,8.7304 2.7597,13.2304 0.38,3.83 2.2907,7.3809 2.1407,11.3008 0,6.35 0.1608,12.7183 -0.1192,19.0684 -0.59,8.0101 -8.1699,14.6306 -16.1699,14.0605 -2.4,-0.35 -4.87,-1.2495 -7.25,-0.2695 -3.56,1.18 -7.5011,0.9807 -10.8711,-0.6992 -6.05,-2.87 -9.699,-9.1311 -11.459,-15.3711 -2.21,-7.7 -6.89,-14.9898 -6.25,-23.2598 0.02,-21.85 -0.021,-43.7109 0.029,-65.5605 -1.6,-10.27 -3.1796,-20.58 -4.3496,-30.92 -0.69,-8.69 -1.6498,-17.3504 -2.8398,-25.9804 -0.34,-8.55 -0.9212,-17.0896 -1.7012,-25.5996 -0.99,-2.8899 -3.1284,-5.3703 -3.3984,-8.4903 -0.71,-6.3 0.4,-12.7287 -1,-18.9687 -0.9,-16.17 1.0292,-32.5101 -1.5508,-48.5801 -0.79,-2.74 -1.4796,-5.5406 -1.5196,-8.3906 0.08,-3.79 -1.8111,-7.24 -1.8711,-11 -0.05,-6.08 -2.2284,-11.9298 -1.8984,-18.0098 0.25,-5.0301 -0.4419,-10.0007 -0.9219,-14.9707 0.17,-3.87 -1.7789,-7.3598 -1.9589,-11.1699 -0.75,-12.04 -3.25,-23.8587 -4,-35.8887 -0.4,-3.01 -1.6496,-5.8406 -1.7696,-8.8906 -0.1,-6.08 -2.15,-11.961 -2,-18.041 -0.54,-12.16 -3.4799,-24.0382 -4.4199,-36.1582 -0.73,-10.89 -4.5307,-21.2007 -5.9707,-31.9707 -1.11,-5.28 -0.8699,-10.7602 -2.5898,-15.9102 -0.86,-7.45 -5.0605,-13.9691 -6.1504,-21.3691 -0.49,-2.86 -1.0303,-5.7307 -0.9903,-8.6407 -0.03,-41.0096 0.031,-82.031 -0.029,-123.041 -0.6499,-3.5 -2.1011,-6.8994 -1.8711,-10.5195 0.45,-5.93 -2.2784,-11.4496 -2.1484,-17.3496 -1.29,-4.82 -2.9413,-9.5499 -4.0313,-14.4199 -5.0699,-14.71 -3.1,-30.42 -3.5,-45.67 0.35,-8.6796 -0.5789,-17.3305 -1.8789,-25.8906 -0.89,-4.68 -2.7996,-9.3893 -1.5996,-14.1992 1.01,-3.62 0.1596,-7.2804 -0.2304,-10.9004 -0.45,-9.43 -3.84,-18.3706 -5.25,-27.6406 -0.8,-5.44 0.1697,-10.9589 -0.5703,-16.3789 -1.73,-7.92 0.3198,-16.1213 -1.4102,-24.0313 -0.65,-3.75 -2.1795,-7.2786 -2.6895,-11.0586 -1.16,-5.58 -0.62,-11.30114 -0.75,-16.95114 -0.29,-7.40996 2.6797,-14.50996 2.3497,-21.91992 0.14,-5.02996 0.9204,-10.07008 0.2304,-15.08008 -1.11,-6.23996 -0.4808,-12.57941 -0.6308,-18.85937 -0.05,-5.54 2.7406,-11.00014 1.1406,-16.49024 -0.55,-2.46996 -0.5497,-5.11019 -1.6797,-7.41015 -3.11,-6.37 -4.3802,-13.41024 -5.9902,-20.24024 0.2,-4.71996 -1.7401,-9.05992 -2.3301,-13.66992 -2.3,-7.71996 -2.4197,-15.86988 -2.9297,-23.83984 -1.17,-5.18 -0.5705,-10.49051 -0.8105,-15.73047 -4.73,5.76996 -10.07,11.46121 -12.42,18.70117 -3.9599,6.74996 -6.4294,14.32891 -11.1894,20.62891 -3.2,4.10996 -6.3317,8.33086 -10.1817,11.88086 -3.66,3.28996 -4.83,8.3105 -8,11.98046 -2.46,2.8199 -3.9289,6.27946 -5.3789,9.68946 -2.3599,3.85996 -5.3202,7.33027 -7.9902,10.99023 -3.25,5.69 -6.1008,11.82938 -7.0508,18.35938 1.35,6.59996 0.031,13.40084 1.6211,19.9707 0.47,4.3 3.2992,7.85938 3.9492,12.10938 0.48,2.53996 1.4,4.95062 2.25,7.39062 3.05,8.34996 3.9305,17.38968 7.6504,25.5098 2.46,6.19 3.2302,12.9194 6.1602,18.9394 2.49,4.97 3.4899,10.4898 5.4199,15.6699 2.4,6.75 3.3697,13.9603 6.4297,20.4903 2.47,4.8 2.4907,10.3408 3.4707,15.5508 1.03,5.33 -0.8894,10.54 -2.6094,15.5 -1.34,4.71 -5.6205,7.5494 -8.8105,10.9394 -6.66,5.3 -12.7413,11.359 -18.0313,18.0391 -7.0599,7.26 -16.1885,11.8813 -24.6484,17.2812 -5.58,2.25 -11.0905,4.7297 -16.4805,7.4297 -5.88,5.06 -14.28,4.9701 -21.5,3.5801 -6.17,-1.63 -9.98,-7.3213 -13.5,-12.2109 -0.68,-1.2901 -2.2001,-0.7193 -3.3301,-0.6993 -6.3999,0.63 -12.7205,-1.2004 -18.7304,-3.2304 -5,-1.54 -7.8498,-6.2392 -11.0098,-10.0391 -2.12,-2.8301 -5.3203,-5 -6.2402,-8.5801 -1.2,-4.4 -3.1805,-8.5699 -5.9805,-12.1699 -6.51,-8.44 -13.1297,-16.9898 -17.0996,-27.0098 -1.31,-3.82 -3.7893,-7.0814 -5.0293,-10.9414 -4.05,-5.99 -4.3695,-13.5986 -8.2695,-19.6386 -1.4,-2.5099 -1.8803,-5.38 -2.9903,-8 -1.5,-4.4 -4.7897,-7.7908 -7.6797,-11.3008 -1.89,-2.86 -3.5212,-5.8806 -5.2812,-8.8106 -2.88,-4.14 -6.1303,-8.0298 -8.7403,-12.3398 -1.87,4.22 -1.7192,9.0012 -3.6992,13.2012 -1.8899,4.61 -0.8904,9.8602 -2.9004,14.4101 1.24,2.1801 0.3902,4.66 0.1602,7 -0.74,4.31 0.1811,8.6695 0.041,13.0195 -0.25,5.64 -0.1415,11.3296 0.7285,16.9297 0.56,12.88 -1.0389,25.9702 1.8711,38.6602 2.16,7.24 3.3598,14.8496 3.0898,22.4297 0.04,5.39 1.98,10.5707 1.92,15.9707 0.04,7 9e-4,14 -0.01,21 -0.56,9.16 3.9091,17.6686 3.8691,26.8086 1.69,9.97 0.6695,20.1214 0.9395,30.1914 -0.28,4.39 1.0807,8.6588 0.9707,13.0488 -0.2,3.7 1.3303,7.23 1.3203,10.9199 -0.57,4.67 1.3598,9.3007 0.3398,13.9707 -0.32,3.16 -2.4998,6.0601 -1.7598,9.3301 1.48,10.23 4.3205,20.2092 7.2305,30.1192 1.48,5.1396 0.4997,10.9311 3.4297,15.621 1.92,3.21 2.0988,7.0491 3.5488,10.459 1.52,3.49 0.9902,7.3615 1.6602,11.0215 0.85,4.8101 0.72,9.7299 0.25,14.5899 0.94,4.27 1.3113,8.7101 2.6113,12.9101 1.62,3.0801 2.2396,6.4887 2.8496,9.8887 2.19,6.79 4.0901,13.7599 4.5801,20.9199 0.92,4.47 2.5588,8.7797 3.4688,13.2598 2.35,10.33 7.8804,19.48 11.7304,29.25 3.95,6.86 6.7599,14.2908 10.9199,21.0508 2.1,4.1196 5.3911,7.6196 6.7911,12.0996 1.4799,4.33 3.7095,8.3511 5.5195,12.541 2.05,4.26 1.4206,9.2597 3.5605,13.5097 4.86,10.86 8.2199,22.409 9.8399,34.209 1.22,5.56 0.4504,11.3306 2.1504,16.8106 2.04,7.53 -1.0404,15.0908 -4.0703,21.8808 -2.65,4.14 -3.4304,9.3994 -7.1504,12.8594 -2.38,2.65 -5.6093,4.3904 -7.9492,7.0703 -1.65,3.0601 -4.6412,5.8395 -4.2012,9.6094 -0.23,6.87 1.011,14.059 -1.6289,20.6191 -1.34,3.5 -2.66,7.0206 -3.4199,10.7207 6.8899,3.11 14.8782,3.9602 20.9882,8.6602 4.13,4.6 8.0511,9.4607 11.041,14.8906 4.03,6.72 7.9699,14.1389 7.5899,22.209 -0.12,8.99 -10e-4,17.9707 -0.041,26.9707 0.24,5.51 -0.5688,11.2089 0.4512,16.6289 7.21,4.47 9.629,12.8399 13.539,19.8399 4.19,2.25 8.8209,4.1708 11.8809,7.9707 5.47,7.51 14.4791,10.961 21.7891,16.291 3.7699,2.91 8.5615,3.8589 12.6015,6.289 2.95,2.08 6.7396,1 10.0996,1.25 4.2,0.2999 8.0995,-1.4804 12.1895,-2.0605 6.19,-1.36 12.5598,-0.6894 18.8398,-0.8594 4.91,-0.2099 9.6411,1.5506 14.041,3.5606 4.78,2.01 6.9885,6.9989 10.6485,10.3789 3.56,4.81 6.8405,11.0714 4.8105,17.1914 -1.56,5.99 -6.9401,10.5386 -13.0801,11.2285 -5.08,0.88 -9.7591,-1.8891 -13.6191,-4.8691 -6.55,-0.22 -13.3796,0.5102 -19.0996,3.9902 -2.4,5.6 -5.3702,11 -8.9102,16 -6.0599,6.11 -14.2913,9.5595 -22.5312,11.6094 -8.59,1.65 -17.819,2.3906 -26.1289,-0.8594 -4.56,-1.1699 -9.3306,-2.081 -14.0606,-1.541 -5.36,2.08 -10.7995,4.0197 -16.2695,5.8398 -5.68,0.86 -11.1598,3.2406 -17.0098,2.6406 -8.0099,-0.38 -16.2608,1.0794 -24.0507,-1.3906 -3.36,-0.88 -7.0603,-0.9184 -9.9903,-2.9883 -5.58,-3.79 -11.6095,-6.8604 -17.0195,-10.9004 -5.48,-3.0601 -11.0301,-6.1307 -15.8301,-10.2207 -2.73,-2.4 -6.5609,-2.5989 -9.6308,-4.3789 -9.51,-5.81 -19.5188,-10.7407 -29.2188,-16.2207 -1.97,2.2599 -3.8009,4.6391 -5.6309,7.0391 -3.77,5.26 -10.58952,6.7404 -16.51948,8.1504 -8.33,0.47 -16.68934,0.031 -25.0293,0.2109 -8.11996,0.65 -13.77996,-7.3511 -21.91992,-6.7011 -3.88,-0.6 -7.04172,1.9602 -10.26172,3.6503 -8.69996,4.22 -18.00856,7.6197 -27.72852,8.0997 -5.26996,1.8996 -10.91133,1.5703 -16.36133,2.5703 -6.78996,0.62 -13.01863,-2.7696 -19.30859,-4.7696 -4.81996,-1.45 -8.24988,-7.9711 -13.83984,-5.291 -2.5,5.3199 -7.85121,8.4601 -13.45117,9.6602 -4.17,1.2399 -8.38887,-0.5797 -12.29883,-1.9297 -3.22,-1.0699 -5.95172,-3.1193 -8.51172,-5.2793 -3.65,-3.27 -8.80961,-3.6207 -12.84961,-6.2207 -4.04,-2.64 -8.38891,-4.8305 -12.12891,-7.8906 -4.90996,-4.48 -11.61125,-5.87 -17.28125,-9.0996 -6.13996,3.0296 -12.28922,6.1006 -18.69922,8.5507 -2.71996,1.3899 -5.30961,3.1386 -8.34961,3.8086 -4.71996,1.09 -8.49136,4.3512 -13.11132,5.7012 -4.5,1.3901 -8.27926,4.4895 -12.94922,5.4395 -6.88996,1.3395 -14.76059,3.2312 -21.06055,-0.9688 -4.85996,-2.77 -6.67906,-8.441 -7.53906,-13.6309 -4.53,1.77 -8.29035,4.9607 -12.57031,7.2207 -5.94,3.28 -10.73089,8.5502 -17.30079,10.6602 -3.62996,1.5499 -6.79898,4.0189 -10.45898,5.5488 -3.16,1.52 -6.79113,1.1394 -10.12109,2.1094 -3.61,0.7301 -7.0884,2.1907 -10.81836,2.2207 -6.08,0.1 -11.94082,2.2613 -18.05078,1.9512 -2.6,-0.23 -4.91071,1.27 -6.47071,3.25 -2.02996,2.4499 -4.95023,3.9489 -7.99023,4.789 -3.25,0.76 -5.80914,3.0608 -8.86914,4.3008 -4.6501,1.77 -9.52985,3.36 -14.58985,3 -5.25996,-0.34 -10.67011,0.6482 -15.83007,-0.8418 -6.2,-2.36 -11.34973,-6.67 -17.17969,-9.75 -5,-3.9599 -9.24107,-8.8398 -14.37107,-12.6699 -4.29,-3.98 -9.8796,-6.0188 -14.7696,-9.1289 -4.77,-2.43 -9.3192,-6.0509 -14.9492,-5.9609 -8.2,0.12 -16.5097,-0.7086 -24.5898,1.0214 -13.06,1.52 -26.2299,0.639 -39.3399,0.879 -7.99,0.2296 -16.1699,-0.4207 -23.6699,-3.3907 -8.8481,-2.5083 -15.958,-8.7044 -24.4433,-12.041 -0.4305,-1.7651 -1.4384,-3.194 -3.4239,-3.7226 -0.3443,0.1342 -0.7168,0.2254 -1.0879,0.3183 -1.8621,-2.3568 -3.9837,-4.4932 -6.1718,-6.5566 l -1.461,-1.2793 c -1.0475,-0.9169 -2.0616,-1.2777 -2.8945,-1.25 -1.0678,0.035 -1.8372,0.7102 -2.002,1.6679 -0.4354,0 -0.8965,0.4547 -2.3242,1.459 0,-0.5175 -0.9039,-5.2868 -1.0097,-5.9023 -0.7584,-4.8939 -2.77,-9.368 -4.7989,-13.832 -0.5023,-0.3522 -4.0908,-9.6486 -1.8476,-4.0567 1.1528,-2.9134 2.3611,-5.8287 3.5644,-8.7422 1.977,-1.1098 4.0236,-2.1196 5.7403,-3.6015 2.09,-3.9199 3.92,-8.0005 6.33,-11.7305 3.81,-4.49 9.4993,-7.7191 15.5293,-7.3691 6.27,-0.56 11.6411,4.1799 17.961,2.9199 1.09,-2.65 1.9798,-5.3607 2.8398,-8.0508 1.44,-4.82 4.9499,-8.6103 6.9199,-13.1602 2.7399,-7.27 3.7103,-15.1 3.3203,-22.83 -0.3696,-5.3 1.1198,-11.0689 5.3399,-14.5489 4.61,-3.28 9.6997,-5.7997 14.7598,-8.2597 6.66,-5.09 12.6592,-11.3613 20.6992,-14.291 2.22,-2.74 3.9297,-5.9998 6.7597,-8.2598 6.54,-5.26 10.5104,-12.7995 15.9004,-19.1094 1.14,-1.75 3.9099,-3.8208 2,-5.9707 -3.0601,-4.57 -3.76,-10.0605 -4.75,-15.3105 -2.13,-5.41 -2.6591,-11.2493 -4.3691,-16.7793 -2.0601,-6.05 -3.1912,-12.3692 -5.6211,-18.2891 -3.98,-9.94 -1.7895,-20.7902 -3.5996,-31.0898 -0.36,-3.99 0.3507,-8.031 -0.5293,-11.9707 -0.8599,-3.99 -0.4308,-8.0909 -0.5508,-12.1309 -0.97,-4.42 -3.3798,-8.4488 -3.5898,-13.0488 -0.25,-4.68 -1.3104,-9.2906 -1.2403,-13.9707 0.58,-7.22 4.7707,-13.9197 10.8907,-17.7598 4.6,-4.3899 11.1208,-5.9193 15.6503,-10.3594 3.12,-3.56 6.64,-6.7598 9.42,-10.5898 3.06,-3.63 5.069,-8.1807 9.039,-10.9707 4.73,-3.0601 6.9403,-8.4805 9.9903,-12.9805 4.58,-8.23 10.98,-15.24 15.5,-23.5 5.19984,-9.33 11.45907,-18.0295 16.78903,-27.2695 5.01,-8.22 7.21035,-17.6697 10.57031,-26.5996 2.25,-8.54 7.58965,-15.8604 13.84961,-21.9004 3.68,-7.69 3.5609,-16.7094 7.88086,-24.1895 2.7301,-4.32 3.99082,-9.3308 5.80078,-14.0508 1.84,-4.3 1.0393,-9.3606 3.7793,-13.3007 3.29,-5.11 2.28914,-11.47 0.86914,-17 -1.58,-3.3901 -4.06914,-6.5296 -4.11914,-10.4395 -0.18,-5.21 -0.65022,-10.9203 2.33984,-15.4902 3.69,-6.2301 11.94043,-8.7591 18.65039,-6.2891 5.9799,-7.5 9.64071,-16.4102 12.47071,-25.4902 3.80996,-7.38 6.42902,-15.2604 8.95898,-23.1504 2.66,-6.02 3.38024,-12.6404 3.74024,-19.1504 0.12,-4.6 4.07961,-7.8696 4.59961,-12.3496 0.74,-4.27 1.11097,-8.62 2.46093,-12.75 1.89,-5.63 2.11957,-11.6194 3.51953,-17.3594 -1.76996,1.84 -3.51968,3.7292 -5.42968,5.4492 -5.66,4.38 -9.19063,10.7807 -14.39063,15.6407 -7.71996,11.3796 -16.18902,22.4497 -21.95898,35.0097 -1.61,8.46 -5.10016,16.6294 -10.91016,23.1094 -4.23996,6.18 -8.59055,12.2912 -12.06055,18.9512 -4.54996,7.53 -7.14019,16.0087 -11.16015,23.8086 -2.22,8.42 -8.74102,14.4802 -14.29102,20.8203 -3.39996,5.07 -7.68988,9.7402 -13.08984,12.7402 -6.44996,2.6 -13.18911,4.4095 -19.78911,6.5996 -4.3396,1.5599 -9.1104,0.2209 -12.9804,-1.959 -2.3199,-1.54 -5.1789,-1.0896 -7.7989,-1.5195 -4.8196,-0.5901 -9.091,-3.6602 -14.041,-3.4902 -11.01,-0.1401 -22.27,0.9186 -33,-2.1914 -3.37,-1.38 -5.7695,-4.309 -8.7695,-6.2891 -4.13,-2.8799 -7.0695,-7.0312 -9.7695,-11.2012 -4.02,-4.93 -7.4813,-10.3196 -9.7813,-16.2597 -6.9499,-10.73 -8.6295,-23.6 -12.2695,-35.5996 -0.48,-4.91 -2.5,-9.3897 -3.9199,-14.0293 -0.66,-9.89 -3.0793,-19.6095 -6.3692,-28.9395 -3.37,-8.96 -2.1201,-18.8104 -4.9101,-27.9004 -1.13,-3.8299 -0.6505,-7.8398 -0.7305,-11.7598 0.02,-24.8096 0,-49.6199 0,-74.4199 0.15,-5.86 -0.4594,-11.7708 0.7305,-17.5508 0.6701,-5.35 2.1901,-10.621 2.08,-16.041 0.2001,-19.02984 -0.031,-38.05818 0.1094,-57.0781 1.24,-9.01996 2.3811,-18.10168 4.6406,-26.93164 0.3401,-8.30996 0.029,-16.64879 0.1192,-24.96875 0.16,-6.19996 -0.7798,-12.76977 2.1601,-18.50977 0.97,-2.83996 3.3494,-4.75023 5.1895,-6.99023 1.34,-6.05996 1.2598,-12.32977 1.2598,-18.50977 -0.02,-17.32992 4e-4,-34.67004 -0.02,-52 -0.4601,-7.56996 1.9009,-15.0317 0.8008,-22.60156 -2.48,-5.34996 -8.0504,-7.93828 -12.2305,-11.73828 -5.6896,-5.32996 -12.6009,-9.4518 -16.9609,-16.0918 -2.85,-4.51996 -6.3301,-8.75914 -8.0801,-13.86914 -2.9299,-7.80996 -7.629,-14.84035 -10.1191,-22.82031 -3.2799,-5.21996 -7.5895,-10.0992 -8.9395,-16.2793 -1.69,-0.46 -3.391,-1.25125 -5.2109,-1.03125 -7.84,1.81 -15.9692,0.62094 -23.9492,0.96094 -7.2799,-0.14 -11.2,-7.19008 -16.25,-11.33008 -7.79,-5.30996 -9.3101,-15.67922 -16.3301,-21.69922 -3.35,-3.28996 -8.9691,-3.19136 -11.6191,-7.36132 -1.6901,-4.05 -3.2116,-8.26926 -3.4317,-12.69922 -0.8999,-1.96 -2.3797,-3.56094 -3.7597,-5.21094 -2.7999,-0.22 -5.7693,-0.24875 -8.2793,-1.71875 -2.7701,-1.5 -3.9896,-4.60074 -6.1797,-6.7207 -4.1601,-0.98 -8.5099,-1.80985 -12.8399,-1.33985 -2.78,0.89 -4.3915,3.80008 -7.2715,4.58008 -8.1796,3.21 -17.6987,-6.42035 -14.5488,-14.57031 1.27,-3.8 4.7391,-6.18047 7.7891,-8.48047 -3.8099,-2.4 -8.9093,-3.98969 -10.5293,-8.67969 -2.5799,-5.68996 1.339,-12.77058 7.209,-14.31054 2.87,-1.09 5.8308,0.20023 8.6308,0.74023 -1.1001,-7.41996 -7.04,-13.85977 -5.25,-21.75977 -1.4701,-3.64996 -1.4001,-7.54953 0.5098,-11.01953 1.93,-3.29986 -0.859,-6.59906 -3.3789,-8.53906 -4.0601,-3.15 -6.9306,-7.69113 -8.3106,-12.62109 -0.57,-3.65 2.89,-6.23008 5.67,-7.83008 4.0101,-2.69 8.7408,0.0606 12.6503,1.56055 4.02,2.28996 8.7392,0.59898 12.5391,-1.29102 3.69,-2.16 8.1492,-2.79914 11.4492,-5.61914 5.2,-3.62 8.3503,-9.69024 14.4903,-11.99024 -0.29,-1.64996 -0.1796,-3.89007 -2.0996,-4.58007 -3.1699,-1.6 -6.2392,-3.75938 -9.8692,-4.10938 -4.66,-0.53 -9.3703,-0.42144 -14.0703,-0.4414 -5.87,-0.13 -11.3511,2.44031 -17.1211,3.07031 -4.65,0.62 -9.079,-3.97985 -8.5391,-8.58985 -0.83,-5.89996 4.7498,-9.70886 6.0098,-15.04882 -0.7,-4.54 -3.7192,-8.25012 -6.6992,-11.58008 -1.5501,-1.67 -2.7405,-3.84121 -2.3106,-6.20117 0.86,-7.54 10.7895,-11.89028 16.8594,-7.32032 5.91,3.84 7.5811,11.07012 11.3906,16.58008 4.04,7.60996 12.3797,12.81016 21.0293,12.66016 -0.5,-7.02 -1.1495,-14.04035 -1.7695,-21.07031 0.28,-4.33 1.0094,-8.62899 1.3594,-12.95899 -6.11,-1.48 -13.0792,-2.79918 -17.1192,-8.11914 -4.9696,-4.85 -6.9106,-12.21094 -5.6406,-18.96094 0.2101,-4.96996 3.7596,-9.84078 8.7696,-10.80078 8.9296,-2.18 18.2014,-2.66008 27.3613,-2.33008 0.5601,-15.88992 -0.8914,-31.76015 -2.0313,-47.58007 -1.5601,-5.48 -0.7684,-11.19887 -1.2285,-16.79883 -2.14,-6.46 -6.5512,-11.88121 -9.0312,-18.20117 1.38,-1.96 2.6703,-3.97926 3.5703,-6.19922 2.46,-6.34 9.7092,-8.47985 15.5293,-10.58985 8.98,-3.52996 18.8215,-3.72933 27.8515,-7.02929 4.25,-0.99 8.7794,-0.72055 12.9493,0.43945 9.3896,2.43 18.7406,5.04047 27.8906,8.23047 3.1,1.37 6.6494,2.21914 8.9394,4.86914 3.01,3.34996 6.4402,6.43086 8.6602,10.38086 0.89,7.24996 -3.65,13.72933 -4.5801,20.77929 -0.65,5.14 -3.2897,9.73965 -4.0996,14.84961 -1.9401,11.56996 -3.4701,23.24981 -3.3301,35.00977 8.29,-1.35 17.8804,-0.90973 24.5703,4.74023 4.3699,4.48 9.7184,9.45079 9.3184,16.30079 -0.71,8.19996 -4.6199,16.25886 -11.0098,21.54882 -4.42,3.63 -9.1584,7.29118 -14.8984,8.45118 0.3499,10.97992 -0.5106,22.00988 -2.3106,32.83984 5.15,-1.81 10.119,-4.70996 13.379,-9.16992 3.5397,-6.13 4.9904,-13.62973 10.2304,-18.67969 3.24,-3.06 8.3602,-0.62039 10.1602,2.84961 2.2199,3.04 2.8808,6.70027 3.8008,10.24023 0.78,3.18 4.6401,2.51047 7.08,2.98047 4.12,0.44 9.5395,3.00996 9.1094,7.91992 -0.2999,3.47 -0.5293,7.3784 -3.0293,10.06836 -1.99,2.09 -3.6902,4.58125 -6.2402,6.03125 -4.01,1.18 -7.711,-1.31011 -11.461,-2.33007 -9.0196,-3.28 -18.9401,-0.17067 -26.58,5.02929 -3.88,1.95 -6.5206,5.45996 -9.8106,8.16992 -2.38,2.06 -6.1986,1.72032 -8.3086,4.07032 0.49,4.39996 3.879,7.51011 6.959,10.33007 6.66,4.76 14.2702,8.42969 22.4102,9.67969 7.65,1.25 15.0203,-4.32043 22.5703,-1.73047 2.37,1.98 4.2408,4.64053 5.6308,7.40039 1.5,3.75 -0.9511,7.48129 -3.2812,10.28125 -3.09,3.74 -8.6805,3.53026 -11.9902,6.91016 -2.87,5.26996 -1.2894,11.3984 -1.4493,17.06836 -1.02,1.93 -2.5703,3.51016 -3.9902,5.16016 0.5599,3.56996 1.419,7.08023 2.6191,10.49023 1.65,3.97 0.2707,8.38016 1.6407,12.41016 1.22,3.39996 0.7202,7.31011 2.9101,10.33007 2.4201,3.6 3.1503,7.94059 4.9903,11.81055 2.28,6.93996 2.1497,14.36985 1.8398,21.58985 -1.01,4.94996 -2.5202,9.78023 -3.4902,14.74023 5.4399,1.13 10.1097,4.69016 13.2597,9.16016 4.0099,6.69996 1.6003,14.86 -1.8398,21.25 1.4601,1.71996 2.7794,3.7 4.8594,4.75 3.6099,1.93996 6.8704,4.46015 10.3105,6.66015 4.42,2.89 7.2695,7.42957 11.0195,11.01953 2.62,3.57 6.9014,-0.79078 10.3614,0.44922 7.24,1.92 14.9897,1.44024 22.0097,4.24024 2.75,1 4.3894,3.57097 6.6993,5.21093 10.2196,3.4099 21.6711,2.26985 31.2011,7.83985 6.51,5.07996 13.9692,9.36922 18.28909,16.69922 4.44996,3.37996 10.73961,2.69945 15.59961,5.43945 5.57996,3.03 12.37039,4.27082 16.65039,9.30078 1.99,2.18 4.25047,4.08992 6.73047,5.66992 5.75996,-6.84996 10.62894,-14.75933 18.6289,-19.27929 4.01,-1.89 7.26168,-5.0211 11.43164,-6.6211 3.12,-2.55 5.54891,-5.93992 9.12891,-7.91992 3.66,-2.52 7.93016,-3.72055 12.16016,-4.81055 4.68996,-2.91996 10.03089,-4.53976 15.38085,-5.75976 2.88,-0.66 5.24985,-2.60008 7.08985,-4.83008 2.76,-3.23 6.31894,-5.66863 8.8789,-9.05859 2.46,-3.17 5.48141,-5.93071 8.94141,-7.97071 5.32,-2.35 11.24996,-2.13086 16.91992,-2.38086 2.99,-1.08 5.61024,-3.1089 8.74024,-3.8789 2.93996,-1.09 6.47937,-1.18938 8.85937,-3.35938 3.24,-6.19996 9.049,-11.84078 16.28906,-12.55078 5.56,-0.9601 10.96079,-2.70023 16.55079,-3.49023 11.33992,-0.63 23.19035,-3.79903 31.82031,-11.45899 -1.83,-7.25996 1.47918,-15.08144 7.86914,-18.9414 -1.72,-4.24 -3.75922,-8.35934 -4.94922,-12.7793 -2.65,-9.21996 -7.79117,-17.59113 -9.45117,-27.12109 -0.14,-5.91 -4.33906,-10.70012 -4.78906,-16.58008 -1.2,-11.74996 5.57082,-23.13973 15.05078,-29.67969 1.94,-1.6 2.33972,-4.36992 2.92968,-6.66992 -1.22996,-9.96996 -1.78062,-20.03973 -3.64062,-29.92969 -2.86,-8.19996 -6.44039,-16.29957 -7.40039,-25.01953 -0.67,-5.32 -2.59961,-10.35063 -4.34961,-15.39063 -1.5,-4.40996 -0.15945,-9.15961 -1.43945,-13.59961 -2.33,-8.16996 -2.14993,-16.90039 -5.16993,-24.90039 -1.84996,-8.51996 -3.76023,-17.05972 -6.24023,-25.42968 -0.74,-3.55 -0.56109,-7.20082 -0.37109,-10.80078 0.3301,-5.97 -0.87016,-11.8684 -1.16016,-17.81836 -2.4099,-8.84 -2.85836,-18.09168 -5.31836,-26.93164 -0.22,-5.5 -2.28148,-10.73954 -2.27148,-16.26954 0.22,-4.93996 -2.76914,-9.23914 -2.86914,-14.11914 -0.06,-6.61996 0.29929,-13.26136 -0.22071,-19.86132 -1.16,-5.09 -0.22883,-10.37926 -1.54883,-15.44922 -1.90996,-12.38996 -4.31062,-24.69969 -6.14062,-37.09961 0.61,-2.66 1.92922,-0.0102 2.19922,1.25976 0.03,-1.49 -0.3082,-2.95062 -0.6582,-4.39062 -0.77,0.25 -1.5518,0.49023 -2.3418,0.74023 -0.49,-5.94996 -1.29844,-11.94058 -3.39844,-17.56054 -1.8901,-4.49 -0.45164,-9.61981 -2.68164,-14.00977 -1.63,-6.09996 -4.8082,-11.97926 -4.4082,-18.44922 0.06,-6.87996 0.3482,-13.81035 -1.0918,-20.57031 -2.46,-11.62996 -3.68852,-23.48965 -6.22852,-35.09961 -1.33996,-4.42 -3.79062,-8.35082 -5.64062,-12.55078 -4.09,-12.23996 -6.07055,-25.19934 -11.31055,-37.029299 -0.16,-3.689988 -2.27883,-6.930641 -2.29883,-10.640625 -0.38996,-3.029988 -1.10992,-6.038919 -0.91992,-9.128907 0.23,-2.839988 -0.80117,-6.460008 1.79883,-8.5 0.965,-1.039996 2.39703,-1.461406 3.76953,-1.316406 z M 1247.1188,405.1903 c -1.52,0.23 -1.3206,3.22047 0.1094,3.48047 1.7,-0.36 1.4706,-3.11047 -0.1094,-3.48047 z m -897.28509,36.14843 c -2.7325,-0.0575 -5.3242,0.58204 -7.2442,2.83204 -2.1901,2.92996 -2.3917,7.21031 -1.0918,10.57031 1.3499,3.47996 1.4319,7.50961 3.6719,10.59961 2.3299,1.21 4.8687,1.92008 7.3086,2.83008 2.32,-0.18 4.5504,-1.35985 6.9004,-0.83985 3.26,0.33 7.0508,2.23891 9.7207,-0.62109 3.0801,-3.34 2.9197,-8.44852 3.1797,-12.72852 0.41,-3.36996 -1.3596,-7.21117 -4.9297,-7.95117 -3.2599,-0.77 -6.5197,-1.58984 -9.4297,-3.33984 -2.48,-0.54 -5.3534,-1.29407 -8.0859,-1.35157 z m -31.4043,0.25586 c -2.5013,-0.11375 -4.9803,0.12125 -7.3203,1.15625 -4.3801,1.75 -8.97,2.92907 -13.42,4.53907 -2.03,5.14996 -2.3,11.18097 0.25,16.21093 3.9299,2.75 8.8097,3.6793 13.5098,4.0293 4.43,0.01 8.0507,-2.90906 11.9707,-4.53906 2.65,-3.17 3.0984,-7.63074 4.3984,-11.4707 1.1099,-3.16 -0.6794,-6.20024 -1.9394,-8.99024 -2.425,-0.36 -4.948,-0.8218 -7.4492,-0.93555 z m 19.039,21.03516 c -0.5801,4.44 -0.2603,8.96988 -1.4804,13.33984 0.1801,3.97 -0.97,8.94168 2.33,11.93164 2.19,-1.86996 5.5399,-1.3514 7.5899,-2.9414 -0.3499,-5.01 -0.9595,-10.30957 -3.9395,-14.51953 -1.75,-2.45 -2.96,-5.23055 -4.5,-7.81055 z m -4.1093,0.14063 c -5.15,4.04996 -9.0908,10.43972 -8.7207,17.17968 -0.01,2.3 -0.089,4.60996 -0.209,6.91992 2.97,-1.05996 5.6395,0.5504 8.5195,0.9004 0.3099,-5.18 -0.3496,-10.43934 0.9004,-15.5293 0.8701,-3.14 0.4298,-6.40074 -0.4902,-9.4707 z m 39.289,18.5 c -2.3001,1.55996 -4.9083,3.00976 -6.3183,5.50976 -1.0801,3.03 -1.29,6.30977 -1.25,9.50977 2.5199,-0.49 1.7695,-3.41957 2.3496,-5.26953 0.1601,-3.96 3.5388,-6.45004 5.2187,-9.75 z m -72.9297,0.66992 c 1.5499,2.69996 3.1205,5.40058 4.7305,8.06054 1.4299,2.32 1.8906,5.12977 3.6406,7.25977 1.1398,-6.34996 -2.8613,-12.46035 -8.3711,-15.32031 z m 49.3594,20.15039 c 0.2,2.76996 0.8002,5.48898 1.3398,8.20898 -2.1396,0.46 -4.3389,0.58039 -6.539,0.40039 -0.04,-2.52996 -0.04,-5.05058 -0.1797,-7.56054 -1.37,0.13 -2.7506,0.25132 -4.1406,0.36132 -0.07,2.26 0.7201,4.8793 -0.9199,6.7793 -1.41,1 -3.1695,0.43938 -4.7696,0.35938 -0.11,-2.41 0.1792,-4.85829 -0.3008,-7.23829 -0.49,-0.11 -1.4885,-0.3314 -1.9785,-0.4414 -0.09,2.72 0.03,5.44992 0.1,8.16992 -1.3001,0.23 -2.6208,0.44992 -3.9609,0.66992 -0.5499,-2.8 -0.9699,-5.61019 -1.5098,-8.41015 -1.15,-0.04 -2.3104,-0.0699 -3.4804,-0.0899 -0.03,2.69 -0.029,5.38985 -0.1895,8.08985 -4.87,0.49 -9.27,-3.07883 -14.25,-2.04883 -0.7299,-2.18 -0.7999,-4.47024 -0.9199,-6.74024 -1.6599,1.6 -3.0894,3.41024 -4.1094,5.49024 1.56,1.2 3.2395,2.21945 4.7695,3.43945 0.7299,1.46 0.4205,3.17 0.5704,4.75 0.85,-1.34 1.6888,-2.67906 2.7988,-3.78906 0.23,2.56 0.1713,5.12945 0.4512,7.68945 1.41,-2.15 1.379,-4.7807 1.789,-7.2207 1.31,-0.15 2.6104,-0.26961 3.9004,-0.34961 0.09,2.43 0.1305,4.86078 0.2305,7.30078 1.36,0.28 2.6994,0.55961 4.0195,0.84961 0.34,-2.12 0.2492,-4.31938 0.9492,-6.35938 1.5401,-1.84996 4.0111,-1.35109 5.9512,-0.62109 -0.11,2.26 -1.26,4.88961 0.4199,6.84961 0.1901,-2.24 0.053,-4.47865 -0.02,-6.71875 1.4801,-1.1 3.2194,-1.65078 5.0293,-1.80078 0.2101,2.92 0.2094,5.8593 0.4394,8.7793 0.7799,0.11 2.3509,0.34093 3.1309,0.46093 0.05,-2.75986 0.05,-5.5 0.09,-8.25 1.26,-0.21 2.5103,-0.41011 3.7403,-0.58007 1.34,2.80996 0.9097,6.23929 2.8496,8.77929 0.63,-2.58 0.1097,-5.47961 1.3398,-7.84961 0.8,-1.89 3.0696,-1.01922 4.5996,-1.19922 0.3299,2.1 0.3202,4.23938 0.4102,6.35938 0.3001,0.02 0.8914,0.0405 1.1914,0.0605 0.03,-2.06 0.1502,-4.1111 0.5801,-6.1211 1.32,-0.12 2.6084,-0.23937 3.8984,-0.35937 0.22,1.26 0.4103,2.53058 0.5703,3.81054 0.47,-0.15 1.4109,-0.47086 1.8809,-0.63086 0.33,-2.03996 0.6102,-4.10992 0.4101,-6.16992 -0.88,-2.18 -2.0207,-4.25019 -2.9707,-6.41015 -1.83,2.19996 -0.53,4.97953 -0.5,7.51953 -1.5699,0.08 -3.1595,0.15117 -4.7695,0.20117 -0.31,-2.84 0.059,-6.10992 -1.9414,-8.41992 z m -50.8594,25.51953 c -5.9799,1.82 -9.8192,7.16076 -13.1093,12.14062 -3.71,5.19 -5.6597,11.36868 -9.2598,16.63868 -2.31,4.36996 -6.3203,7.37164 -10.0703,10.43164 1.7099,4.79996 5.3703,8.94875 5.5703,14.21875 0.1801,2.68996 -0.3802,6.02086 2.0898,7.88086 3.0599,2.43996 5.0903,5.78058 6.6602,9.31054 6.2599,1.18 10.4896,6.52918 16.0996,8.86914 2.02,-4.31996 -1.5603,-8.7398 0.2598,-13.00976 1.55,-5.18 7.5311,-8.76094 12.8007,-7.21094 4.67,1.21 7.9601,5.60063 9,10.14063 0.48,7.36996 0.7599,15.49964 -3.6601,21.8496 3.8999,0.62 7.2901,2.70063 10.9902,3.89063 4.93,0.61 9.9799,0.39887 14.8399,-0.62109 2.89,-0.56 5.3693,1.38054 8.0293,2.06054 3.78,-0.08 7.1992,-1.97047 10.9492,-2.23047 7.93,-0.85 15.8514,-4.91925 19.9414,-11.94921 1.46,-2.08 0.9388,-4.66907 1.0488,-7.03907 -0.1,-3.76006 1.9106,-7.20117 1.8906,-10.95117 -0.03,-3.48 0.3509,-7.03992 -0.6191,-10.41992 -0.54,-3.77 -4.7203,-5.31016 -6.1504,-8.66016 -2.77,-4.49996 -1.7111,-9.91992 -1.8711,-14.91992 -0.04,-3.41 1.9206,-6.35949 3.5606,-9.18945 -3.42,-4.16 -6.7398,-8.39938 -9.7598,-12.85938 -1.1701,-1.93 -3.4802,-2.50125 -5.5703,-2.78125 -1.73,2.29 -2.6493,5.52111 -5.5293,6.70117 -4.11,1.85 -8.0203,4.14868 -12.0703,6.13868 -4.12,0.23 -8.4401,0.97117 -12.4102,-0.54883 -5.82,-1.93 -12.0296,-0.46977 -18.0097,-1.00977 -7.6301,-2.95996 -11.3708,-10.49113 -15.6407,-16.87109 z M 134.06021,1521.577 c -1.4678,0.3773 -2.9359,0.7536 -4.4043,1.1289 -0.017,-0.2132 0.085,-0.2946 0.053,-0.5234 1.4505,-0.1943 2.9007,-0.4098 4.3515,-0.6055 z m 18.1563,225.3008 c 0.8712,0.1251 1.7281,0.3091 2.6035,0.418 1.2549,0.065 2.5179,0.2407 3.7754,0.3515 -0.01,0.093 0.026,0.1846 0.022,0.2774 -2.1335,-0.2317 -4.2694,-0.4137 -6.4102,-0.5664 -9e-4,-0.1602 0.01,-0.3203 0.01,-0.4805 z m 14.0586,1.4844 c 0.2752,0.029 0.549,0.048 0.8242,0.076 -0.2979,0.044 -0.5965,0.083 -0.8945,0.125 0.022,-0.068 0.048,-0.1336 0.07,-0.2011 z m 128.8808,19.5449 c 0.4116,0.4734 0.7655,0.8477 1.3418,1.5957 0.1524,0.1978 -0.5199,-0.1502 -0.6562,-0.3594 -0.2571,-0.3948 -0.4546,-0.8258 -0.6856,-1.2363 z m 902.02349,1.8691 c -0.7191,0.3164 -0.6264,1.8522 0.5586,2.0547 1.69,1 1.9218,-1.5612 0.4218,-1.8711 -0.41,-0.26 -0.7407,-0.289 -0.9804,-0.1836 z m -825.53709,20.9649 c 0.9185,0.5984 1.7696,0.843 2.4863,0.8281 0.3627,0.1914 0.7283,0.3776 1.0957,0.5606 -1.1859,-0.2798 -2.37,-0.5582 -3.5449,-0.8575 -0.026,-0.1877 -0.01,-0.3415 -0.037,-0.5312 z" />
  <path
     d="m296.29 405.19c1.52 0.23 1.32 3.22-0.11 3.48-1.7-0.36-1.47-3.11 0.11-3.48z"
     fill="#fff"
     stroke="#fff"
     stroke-width=".0938"
     id="path623" />
  <path
     d="m345.23 1769.9c1.64-1.04 2 1.6 0.42 1.87-1.69 1-1.92-1.56-0.42-1.87z"
     fill="#fff"
     stroke="#fff"
     stroke-width=".0938"
     id="path625" />
</svg>
